<svg width="24" height="27" viewBox="0 0 24 27" fill="none" xmlns="http://www.w3.org/2000/svg">
<rect width="24" height="27" rx="4" fill="#E9A643"/>
<path fill-rule="evenodd" clip-rule="evenodd" d="M16.906 14.712C17.936 13.506 19 12.259 19 10C19 6.141 15.859 3 12 3C8.141 3 5 6.141 5 10C5 12.285 6.067 13.528 7.101 14.73L7.10328 14.7327L7.1033 14.7327C7.46059 15.1499 7.83076 15.5821 8.185 16.079C8.329 16.285 8.565 17.075 8.776 18H8V20H9.162H14.837H16V18H15.226C15.439 17.073 15.676 16.281 15.819 16.075C16.1663 15.5787 16.5351 15.1466 16.8916 14.7288L16.906 14.712ZM15 21V23H9V21H15ZM13.176 18C13.386 17 13.748 15.542 14.182 14.925C14.5823 14.3555 14.9982 13.8672 15.3667 13.4345L15.385 13.413L15.3859 13.4119C16.3574 12.2735 17 11.5205 17 10C17 7.243 14.757 5 12 5C9.243 5 7 7.243 7 10C7 11.544 7.644 12.294 8.618 13.428C8.988 13.859 9.407 14.348 9.814 14.92C10.253 15.537 10.616 16.998 10.825 18H13.176Z" fill="white"/>
</svg>
