<svg width="17" height="24" viewBox="0 0 17 24" fill="none" xmlns="http://www.w3.org/2000/svg">
<path d="M8.68201 0C4.27484 0.0644531 0.648438 3.65808 0.648438 8.01874C0.648438 10.3317 1.64856 12.5024 3.40454 14.027V17.0834C3.40454 18.0958 4.19373 18.9272 5.1889 18.995V20.5237C5.1889 22.4407 6.74786 24 8.66406 24C10.5803 24 12.1392 22.4407 12.1392 20.5237V18.995C13.1344 18.9272 13.9236 18.0958 13.9236 17.0834V14.027C15.6796 12.5024 16.6797 10.3315 16.6797 8.01874C16.6797 3.60425 13.0952 0.0113526 8.68201 0V0ZM8.66406 22.5937C7.76996 22.5937 7.00641 22.0232 6.7182 21.227H10.6101C10.3217 22.0232 9.55817 22.5937 8.66406 22.5937ZM10.733 19.8206H6.59515V18.9994H10.733V19.8206ZM12.5173 17.0834C12.5173 17.3644 12.2888 17.5931 12.0079 17.5931H5.32019C5.03931 17.5931 4.81079 17.3644 4.81079 17.0834V14.4007H12.5173V17.0834ZM12.9676 12.9944H4.36053C2.89203 11.7358 2.05469 9.93585 2.05469 8.01874C2.05469 4.41998 5.02063 1.45496 8.66882 1.40625C12.311 1.40881 15.2734 4.37421 15.2734 8.01874C15.2734 9.93585 14.4361 11.7358 12.9676 12.9944Z" fill="#20294E"/>
</svg>
