<svg width="20" height="20" viewBox="0 0 20 20" fill="none" xmlns="http://www.w3.org/2000/svg">
<path d="M17.6959 0H2.30411C1.3806 0 0.625 0.749996 0.625 1.66666V9.99998V18.3333C0.625 19.25 1.3806 20 2.30411 20H17.6959C18.6194 20 19.375 19.25 19.375 18.3333V17.5555C19.347 16.5556 19.3191 14.4722 19.3191 13.5278C19.3191 13 18.9273 12.5555 18.4235 12.5555C17.8638 12.5555 17.5 12.8888 17.2202 13.1667C16.3806 13.9167 15.1213 14.0556 14.0299 13.8611C13.5261 13.75 13.0504 13.6111 12.6586 13.3611C11.4552 12.6666 10.6717 11.3611 10.6717 9.9722C10.6717 8.58329 11.4552 7.30554 12.6586 6.58331C13.0784 6.33333 13.5541 6.19445 14.0299 6.08335C15.0933 5.88886 16.3806 6.02779 17.2202 6.77774C17.528 7.05556 17.8918 7.38887 18.4235 7.38887C18.9273 7.38887 19.3191 6.94446 19.3191 6.41666C19.3191 5.49999 19.347 3.38888 19.375 2.38888V1.66666C19.375 0.749996 18.6194 0 17.6959 0Z" fill="white"/>
</svg>
