<svg width="121" height="70" viewBox="0 0 121 70" fill="none" xmlns="http://www.w3.org/2000/svg">
<path opacity="0.157549" fill-rule="evenodd" clip-rule="evenodd" d="M62.6595 51.397C64.2703 51.2683 66.2689 49.7374 67.8229 49.0603C69.6621 48.2609 71.5086 47.4919 73.3624 46.7531C79.8158 44.1801 86.3386 41.9877 92.9305 40.176C93.5457 40.0064 94.1618 39.841 94.779 39.6796C93.8177 36.7691 92.3283 34.2628 90.4596 32.411C90.5075 31.7739 90.5318 31.1337 90.5325 30.493C90.5325 20.3678 84.7576 12.1596 77.6314 12.1596C75.4374 12.1563 73.2803 12.9498 71.3703 14.4626C66.3265 9.81369 59.7433 7 52.5405 7C42.3056 7 33.3207 12.6815 28.2295 21.2369L52.1571 26.9011L66.8323 30.3735C50.1024 31.0731 33.3207 31.7686 16.6389 30.1264C12.0976 36.2834 11.2999 46.0823 14.7351 53.5142C14.7351 53.8808 14.746 54.2444 14.7657 54.6049C15.1907 54.7755 15.601 54.9409 15.9691 55.0492C21.8783 56.7983 27.8255 58.2622 33.8106 59.4408C29.4001 63.2512 24.029 63.7905 18.9415 65.4041C21.4051 68.2536 24.7506 70 28.4373 70H83.3305C89.2745 70 94.0924 64.2021 94.0924 57.0489C94.9843 54.9879 95.5787 52.7015 95.8417 50.3195C84.8429 51.8076 73.7071 50.5156 62.6595 51.397Z" fill="#FFC107"/>
<path fill-rule="evenodd" clip-rule="evenodd" d="M82.8878 32.091C83.0768 32.124 83.255 32.2025 83.4071 32.3199C83.7126 32.5852 83.7381 33.0452 83.7232 33.4549C83.7168 33.6207 83.6966 33.8036 83.5689 33.9106C83.4577 33.9821 83.3256 34.0134 83.1943 33.9994H83.1698C83.1278 33.9991 83.0857 33.9987 83.0436 33.9982C82.7041 33.9946 82.3638 33.9911 82.0438 34.0967C81.9446 34.1301 81.8484 34.1732 81.7525 34.2162C81.6148 34.278 81.4777 34.3395 81.3328 34.3716C81.2186 34.7555 81.2413 35.1708 81.2642 35.5883C81.2785 35.8514 81.293 36.1154 81.2732 36.373C81.225 36.7949 81.13 37.21 80.9901 37.6107L80.987 37.621C80.8646 38.0166 80.7419 38.4131 80.5857 38.797C80.5286 38.9397 80.4668 39.079 80.4052 39.2179C80.3246 39.3997 80.2443 39.5809 80.1749 39.7683C80.1322 39.8826 80.093 40.0002 80.0537 40.1182C79.9139 40.5381 79.7723 40.9636 79.4608 41.2659C79.2798 42.143 79.05 43.0993 78.3337 43.6342C77.7132 44.0974 76.8394 44.1091 76.1168 43.8331C75.3942 43.5572 74.7992 43.0191 74.2788 42.4425C74.0865 42.2295 73.9017 42.0085 73.717 41.7876C73.4018 41.4107 73.0868 41.034 72.7345 40.6968C72.4147 40.3948 72.0751 40.1146 71.7181 39.8581C71.3577 39.5907 70.987 39.3411 70.6059 39.1093C70.373 38.9481 70.1114 38.8334 69.8354 38.7713C69.6089 38.7276 69.3744 38.7736 69.1809 38.8997C69.1369 38.9298 69.0972 38.9658 69.0627 39.0066C68.9682 39.1404 68.8963 39.289 68.8499 39.4463C68.516 40.3269 67.7584 40.8858 66.9963 41.4481C66.7428 41.6351 66.4889 41.8225 66.2498 42.0221L65.375 42.7527C65.2558 42.8522 65.1238 42.9977 65.1824 43.1432C65.2226 43.2162 65.2876 43.2724 65.3654 43.3015C65.541 43.389 65.727 43.4584 65.9127 43.5276C66.265 43.659 66.6159 43.7899 66.8905 44.0428C66.9181 44.0682 66.9454 44.095 66.9729 44.1219C67.0985 44.2452 67.2279 44.3722 67.3982 44.3819C67.5078 44.3751 67.6156 44.3505 67.7175 44.3092C68.0423 44.2207 68.3895 44.2908 68.6551 44.4985C68.7296 44.5715 68.816 44.6312 68.9105 44.675C68.9897 44.696 69.0721 44.7011 69.1532 44.69C69.1696 44.6888 69.1859 44.6876 69.2023 44.6864C69.4131 44.6708 69.6262 44.655 69.8237 44.7552C69.9041 44.796 69.9766 44.8549 70.0485 44.9132C70.1669 45.0093 70.2837 45.104 70.4314 45.1146C70.4887 45.1189 70.5525 45.1116 70.6153 45.1045C70.6795 45.0972 70.7426 45.09 70.7965 45.0954C70.8583 45.0974 70.9154 45.1292 70.9497 45.181C70.9746 45.2401 70.9914 45.3024 70.9997 45.366C71.0531 45.4858 71.1337 45.5913 71.2349 45.6741C71.2807 45.6816 71.3265 45.6891 71.3712 45.6987C71.5516 45.7383 71.7293 45.7894 71.9033 45.8517H71.9129C72.1247 45.9287 72.3514 46.0506 72.4184 46.2646C72.4477 46.3854 72.4432 46.512 72.4056 46.6304C72.3133 46.9883 72.1144 47.2988 71.9148 47.6102C71.7672 47.8407 71.6192 48.0716 71.5138 48.3227C71.3512 48.7078 71.292 49.1304 71.2331 49.5509C71.1568 50.0964 71.081 50.6382 70.7805 51.09C70.6091 51.332 70.402 51.5462 70.1664 51.7254C70.0357 51.8375 69.8929 51.9343 69.7407 52.0142C69.5829 52.1017 69.3977 52.1247 69.2234 52.0784C68.9989 52.0014 68.8637 51.7575 68.8414 51.5211C68.8334 51.4436 68.8334 51.3654 68.8414 51.2879C68.8637 51.1283 68.8993 50.9709 68.9478 50.8172C69.0748 50.3822 69.2022 49.9476 69.3299 49.5133C69.4095 49.277 69.4609 49.0321 69.4831 48.7837C69.4851 48.7225 69.4808 48.6612 69.4704 48.6008C69.4262 48.5636 69.39 48.5177 69.3639 48.466C69.3402 48.3824 69.3043 48.3027 69.2575 48.2296C69.1731 48.1358 69.037 48.1373 68.9018 48.1388C68.7626 48.1403 68.6243 48.1418 68.5444 48.0392C68.496 47.9763 68.4911 47.8983 68.4859 47.8181C68.4807 47.736 68.4753 47.6518 68.4231 47.5792C68.3412 47.4655 68.1889 47.4656 68.0423 47.4657C68.0042 47.4657 67.9664 47.4657 67.9303 47.4637C67.7968 47.4567 67.6697 47.4132 67.5423 47.3696C67.4758 47.3468 67.4093 47.3241 67.3418 47.3065C67.1249 47.2496 66.9002 47.2459 66.6756 47.2422C66.5706 47.2405 66.4657 47.2387 66.3616 47.2316C66.0901 47.2075 65.8205 47.1646 65.5549 47.1032L64.2011 46.824L64.1726 46.8182C63.3199 46.6436 62.4647 46.4686 61.6532 46.1512C61.3339 46.0314 61.0146 45.8838 60.8018 45.626C60.6232 45.4001 60.5084 45.1299 60.4697 44.844C60.3606 44.1923 60.645 43.5946 60.9336 42.9879C61.1519 42.5291 61.3726 42.0651 61.4276 41.5686C61.4787 41.1482 61.6362 40.7513 61.798 40.3609C62.0903 39.6627 62.3783 38.9649 62.6621 38.2675C62.7102 38.1378 62.7727 38.014 62.8484 37.8984C62.9708 37.7492 63.1089 37.6136 63.2603 37.4941C63.6637 37.125 63.953 36.6471 64.0936 36.1174C64.1041 36.0585 64.1285 36.0031 64.1649 35.9558C64.2023 35.9234 64.2438 35.8961 64.2884 35.8745C64.4453 35.7721 64.5118 35.5747 64.4491 35.3975C64.5856 35.3861 64.6934 35.276 64.7024 35.1386C64.6946 35.0803 64.6982 35.0211 64.713 34.9642C64.7249 34.9315 64.7537 34.9084 64.783 34.885C64.8036 34.8685 64.8243 34.8519 64.8397 34.8316C64.8931 34.7609 64.8829 34.6652 64.8732 34.574C64.8719 34.5617 64.8706 34.5495 64.8695 34.5374C64.8631 34.4738 64.8631 34.4096 64.8695 34.3459C64.8781 34.2636 64.8971 34.1828 64.9259 34.1053C64.772 34.1817 64.6246 34.2708 64.4853 34.3716C64.4008 33.8582 64.3153 33.3447 64.2288 32.8312V32.7959C64.1239 32.7672 64.0172 32.7454 63.9095 32.7307C63.6912 32.7145 63.4722 32.7512 63.2709 32.8377C63.1882 32.8689 63.1072 32.9046 63.0283 32.9446C62.9396 32.9901 62.8508 33.0393 62.7621 33.0885C62.7444 33.0983 62.7267 33.1081 62.709 33.1179C62.551 33.211 62.3867 33.2929 62.2173 33.3629C62.1683 33.3821 62.1183 33.3982 62.0683 33.4132L62.0459 33.4196C62.0044 33.4324 61.9629 33.442 61.9214 33.4517L61.8874 33.4592C61.8427 33.4688 61.798 33.4763 61.7533 33.4827H61.7373C61.731 33.4835 61.7248 33.4843 61.7185 33.4851C61.6748 33.4909 61.631 33.4966 61.5872 33.4966H61.5489H61.4425H61.3925C61.377 33.4961 61.3615 33.4948 61.346 33.4935C61.3262 33.4919 61.3063 33.4902 61.286 33.4902H61.2435C61.1945 33.4852 61.1466 33.4788 61.0998 33.4709L61.0604 33.4634L60.954 33.441L60.9295 33.4356L60.9029 33.4271C60.8635 33.4174 60.8241 33.4057 60.7858 33.3928L60.7518 33.3821C60.7028 33.365 60.6538 33.3458 60.606 33.3244L60.5783 33.3126C60.5368 33.2934 60.4963 33.273 60.4559 33.2516L60.4282 33.2367C60.38 33.211 60.3331 33.1832 60.2877 33.1532C60.2432 33.124 60.2015 33.0907 60.1632 33.0537C60.1004 32.999 60.0558 32.9262 60.0355 32.8451C60.0301 32.822 60.028 32.7983 60.0291 32.7745C60.0432 32.7019 60.0624 32.6304 60.0866 32.5606V32.5553C60.0997 32.4867 60.0929 32.4157 60.0861 32.3447C60.0791 32.2716 60.072 32.1984 60.0866 32.1274C60.1096 32.0175 60.1799 31.9288 60.2508 31.8394C60.2979 31.7799 60.3453 31.7201 60.3793 31.6535C60.3839 31.6459 60.3882 31.638 60.392 31.63C60.4352 31.5341 60.4465 31.4291 60.4579 31.3239C60.4679 31.2319 60.4778 31.1397 60.5091 31.0534C60.5921 30.8245 60.8082 30.6779 61.0104 30.5453C61.0529 30.5175 61.0997 30.4908 61.1465 30.464L61.1466 30.464L61.3063 30.3731C61.2999 30.3485 61.2999 30.3228 61.2999 30.2982C61.2999 30.1138 61.3915 29.9474 61.4809 29.7851C61.4916 29.7657 61.5022 29.7463 61.5127 29.727C61.7848 29.2175 61.911 28.6583 62.0381 28.095C62.0746 27.9333 62.1112 27.7713 62.1513 27.61L62.1586 27.5798C62.2755 27.0955 62.3933 26.607 62.3641 26.1124C62.3564 25.9755 62.3367 25.8369 62.3169 25.6977C62.2988 25.5705 62.2807 25.4427 62.2716 25.3155C62.2611 25.1658 62.2629 25.0152 62.2647 24.8652C62.2664 24.7257 62.2681 24.5866 62.2598 24.449C62.2494 24.2739 62.1882 24.1105 62.1264 23.9456C62.0874 23.8416 62.0482 23.737 62.0215 23.6286C62.017 23.6101 62.0136 23.5921 62.0102 23.574C62.0087 23.5658 62.0071 23.5577 62.0055 23.5494C61.9659 23.5548 61.9258 23.5548 61.8863 23.5494C61.765 23.5185 61.6509 23.4644 61.55 23.39L60.6602 22.8231C60.4944 22.7228 60.3348 22.6124 60.1824 22.4926C59.9489 22.2941 59.7373 22.071 59.5513 21.8272C59.3792 21.6122 59.2137 21.3918 59.0482 21.1715C58.7164 20.7296 58.3848 20.2879 58.0006 19.891C57.9337 19.8191 57.8634 19.7493 57.7927 19.6792C57.7035 19.5907 57.6139 19.5018 57.5302 19.4075C57.3236 19.1644 57.1337 18.9074 56.9619 18.6384C56.7958 18.3902 56.6234 18.1153 56.6521 17.8201C56.6596 17.7308 56.6868 17.6452 56.714 17.5594C56.7377 17.4847 56.7615 17.4099 56.7724 17.3323C56.7958 17.1654 56.733 16.9633 56.5734 16.9183C56.5545 16.9136 56.5353 16.9103 56.5159 16.9087C56.4844 16.9053 56.4534 16.8985 56.4233 16.8884C56.2754 16.8263 56.2977 16.5985 56.4042 16.4744C56.4543 16.4159 56.5158 16.3698 56.577 16.3239C56.6456 16.2725 56.7138 16.2214 56.765 16.1535C56.81 16.0748 56.8605 15.9994 56.9161 15.9278C56.938 15.9068 56.9623 15.8885 56.9885 15.8732C57.04 15.6794 57.1153 15.4713 57.1635 15.338C57.1799 15.2926 57.1932 15.2559 57.2013 15.2314C57.2905 14.9654 57.3919 14.7051 57.4933 14.4451C57.5382 14.3297 57.5832 14.2144 57.627 14.0986C57.6553 14.0244 57.6888 13.9443 57.7238 13.8606C57.8466 13.5671 57.9878 13.2296 57.9878 12.9465C58.0307 12.7462 58.0605 12.5421 58.0904 12.3377C58.131 12.0596 58.1718 11.781 58.2454 11.511C58.3355 11.2046 58.4472 10.905 58.5796 10.6146L59.0361 9.49886C59.079 9.36857 59.1554 9.25197 59.2575 9.16084C59.3667 9.09225 59.4938 9.05798 59.6226 9.06242C60.0813 9.04531 60.5634 9.18544 60.8763 9.52882C61.1892 9.87219 61.2882 10.4231 61.0391 10.8125C60.8721 11.0744 60.5944 11.2195 60.3142 11.3659C60.0945 11.4807 59.8731 11.5963 59.7024 11.7698C59.4544 12.0212 59.3341 12.3721 59.2607 12.7187C59.1299 13.3267 59.117 13.9503 59.1041 14.5744C59.0979 14.8748 59.0917 15.1753 59.0723 15.4742C59.067 15.5545 59.0574 15.639 59.0436 15.7213C59.149 15.7449 59.2713 15.7844 59.3033 15.8914C59.3159 15.9423 59.3159 15.9956 59.3033 16.0465C59.2564 16.2574 59.2293 16.4723 59.2224 16.6883C59.2222 16.7337 59.2247 16.7791 59.2298 16.8242C59.2799 17.2788 59.5725 17.6628 59.8578 18.018C60.1962 18.4405 60.54 18.8598 60.8848 19.2781C61.0713 19.5205 61.2797 19.7451 61.5074 19.9488C61.5766 20.0069 61.6529 20.0617 61.7299 20.117C61.8755 20.2216 62.0239 20.3283 62.1332 20.4633C62.2048 20.465 62.2751 20.4433 62.3333 20.4013C62.407 20.341 62.4891 20.292 62.577 20.2558C62.6784 20.2281 62.7806 20.2556 62.8838 20.2834C62.9399 20.2984 62.9962 20.3136 63.0527 20.32C63.2842 20.3472 63.4957 20.2194 63.7002 20.0956C63.7365 20.0737 63.7725 20.0519 63.8084 20.0312C64.1672 19.8255 64.5671 19.7027 64.9791 19.6717C65.1919 19.6568 65.4293 19.676 65.5793 19.8279C65.5197 19.9017 65.4612 19.9755 65.4037 20.0504C65.4602 20.0105 65.512 19.9642 65.5581 19.9124C65.6592 19.7809 65.6507 19.5979 65.6358 19.4321C65.5816 19.0141 65.5631 18.5922 65.5804 18.171C65.5816 18.1601 65.5833 18.1492 65.585 18.1383C65.588 18.1192 65.5911 18.1002 65.5911 18.0811C65.3189 17.4779 65.3409 16.7819 65.6507 16.1973L65.606 16.1867L65.4793 16.1578C65.4374 16.1472 65.3961 16.134 65.3558 16.1182C65.2573 16.0766 65.1696 16.013 65.0994 15.9321C65.0252 15.8476 64.971 15.7474 64.9408 15.639C64.9325 15.6106 64.9265 15.5816 64.9227 15.5523V15.5395C64.9163 15.5138 64.9163 15.4871 64.9163 15.4603V15.4603C64.9154 15.4003 64.9215 15.3403 64.9344 15.2817C64.955 15.1768 65.001 15.0787 65.0685 14.9961C65.1168 14.938 65.1745 14.8917 65.2319 14.8456C65.3034 14.7883 65.3746 14.7311 65.4272 14.6516C65.5078 14.5303 65.5307 14.3788 65.5537 14.2265C65.5656 14.1478 65.5775 14.0688 65.5974 13.9938C65.6681 13.7106 65.8695 13.4787 66.1392 13.3701C66.402 13.2808 66.6923 13.3423 66.8969 13.5306C66.9528 13.5806 67.0017 13.6384 67.0508 13.6964C67.0962 13.75 67.1417 13.8037 67.1928 13.8515C67.2981 13.953 67.4268 14.0265 67.5674 14.0654C67.6363 13.9513 67.7258 13.8512 67.8314 13.7702L67.8463 13.7584C68.0357 13.6149 68.2725 13.5495 68.5082 13.5755C68.9077 13.6467 69.2321 13.94 69.3448 14.3318C69.3609 14.3824 69.3738 14.4346 69.3867 14.4867C69.4147 14.5997 69.4425 14.7119 69.5023 14.8057C69.5861 14.9334 69.7125 15.006 69.8401 15.0793C69.9166 15.1232 69.9935 15.1674 70.0621 15.2239C70.283 15.4305 70.4119 15.7177 70.4197 16.0208V16.1364C70.4157 16.3663 70.3799 16.5946 70.3133 16.8146C70.308 16.8314 70.3021 16.85 70.2962 16.8682C70.2901 16.8872 70.2841 16.9057 70.2792 16.9215C70.2696 16.9526 70.259 16.9836 70.2483 17.0146C70.2165 17.1073 70.1905 17.202 70.1707 17.2981C70.1594 17.3637 70.1535 17.4302 70.1476 17.4967C70.1424 17.5559 70.1371 17.6151 70.1281 17.6735C70.1104 17.7976 70.0745 17.9184 70.0217 18.0319C69.9872 18.1073 69.9451 18.179 69.8961 18.2458C69.8719 18.2779 69.8464 18.3089 69.8194 18.3389C69.7662 18.3964 69.707 18.4481 69.6428 18.4929C69.6055 18.5235 69.5589 18.5405 69.5108 18.5411C69.4384 18.5325 69.3895 18.4576 69.3586 18.3795L69.3458 18.3464V18.34C69.0817 18.7732 68.6727 19.0978 68.1922 19.2556C68.1911 19.2667 68.1895 19.2783 68.188 19.2902C68.1848 19.3138 68.1815 19.3384 68.1815 19.3626C68.1607 19.5089 68.1683 19.6578 68.2039 19.8012C68.2285 19.7638 68.2555 19.728 68.2847 19.6942C68.4795 19.4642 68.835 19.3433 69.0862 19.507C69.2421 19.6082 69.3163 19.7829 69.3913 19.9597C69.4535 20.1062 69.5163 20.2542 69.6268 20.3628C69.8215 20.5555 70.1144 20.5814 70.3897 20.6057C70.4094 20.6074 70.429 20.6092 70.4484 20.6109C70.9689 20.6594 71.4801 20.7808 71.9672 20.9714C72.0622 21.0014 72.1487 21.0539 72.2194 21.1244C72.302 21.2161 72.3214 21.3425 72.3411 21.4707C72.3531 21.5489 72.3652 21.6278 72.3918 21.6999C72.4379 21.8248 72.5256 21.9263 72.6132 22.0279C72.6975 22.1255 72.7818 22.2232 72.8292 22.3417C72.8706 22.4541 72.8837 22.575 72.8675 22.6937C72.8769 22.7264 72.8853 22.7599 72.8937 22.7933C72.8988 22.8134 72.9039 22.8334 72.9091 22.853C72.9583 23.0418 73.0504 23.2165 73.1783 23.3633C73.2856 23.458 73.3807 23.5658 73.4614 23.6842C73.5188 23.7988 73.5277 23.926 73.5368 24.0539C73.5426 24.1372 73.5485 24.2208 73.5678 24.3014C73.591 24.3979 73.6334 24.4889 73.6757 24.5797C73.7305 24.6973 73.7851 24.8147 73.7977 24.9432C73.7984 25.0085 73.8045 25.0736 73.8158 25.1379C73.8506 25.2705 73.9662 25.3524 74.0824 25.4348C74.194 25.514 74.3062 25.5935 74.348 25.7188C74.3639 25.7707 74.3693 25.8252 74.3639 25.8792C74.4075 25.8593 74.4527 25.8432 74.4991 25.8311C74.4984 25.8362 74.4977 25.8413 74.4969 25.8465C74.4911 25.8875 74.4853 25.9293 74.4853 25.9702C74.5299 25.929 74.5761 25.891 74.6221 25.8532C74.6419 25.837 74.6616 25.8208 74.6811 25.8044C75.2448 25.3304 75.7121 24.7514 76.0572 24.0992C76.2159 23.8258 76.3241 23.5257 76.3765 23.2135C76.3927 23.079 76.394 22.9434 76.3953 22.808C76.3963 22.7033 76.3973 22.5987 76.4052 22.4947C76.4226 22.2839 76.4677 22.0771 76.5128 21.8703C76.5561 21.6719 76.5993 21.4736 76.6181 21.272C76.6278 21.1675 76.6309 21.0623 76.6339 20.9571C76.6391 20.7757 76.6443 20.5943 76.6841 20.4163C76.7469 20.1349 76.9182 19.8547 77.1907 19.7744C77.3847 19.7273 77.5895 19.7605 77.759 19.8664C77.9261 19.9715 78.0786 20.0985 78.2124 20.244C78.3454 20.3756 78.4848 20.5211 78.5146 20.7061C78.5266 20.821 78.5154 20.937 78.4816 21.0474C78.2911 21.8562 78.0134 22.6417 77.6536 23.39C77.6066 23.4871 77.5582 23.5835 77.5099 23.6798C77.4149 23.8689 77.32 24.058 77.2354 24.2522C77.115 24.516 77.019 24.7889 76.9235 25.06L76.9161 25.0812C76.7096 25.6696 76.5038 26.2576 76.2988 26.8452C76.2472 27.0129 76.1758 27.1738 76.0859 27.3244C76.0028 27.4465 75.908 27.56 75.8028 27.6635C75.7606 27.7047 75.7249 27.7429 75.692 27.7783C75.6684 27.8036 75.6462 27.8273 75.624 27.8496C75.6839 27.8753 75.745 27.8977 75.8071 27.917C75.7688 28.1039 75.6182 28.2291 75.4679 28.3539C75.4135 28.3992 75.3591 28.4444 75.3101 28.4925C75.2028 28.5977 75.117 28.7244 75.0316 28.8504C74.9102 29.0296 74.7897 29.2075 74.6098 29.3205C74.2703 29.5355 73.8307 29.452 73.4391 29.3611C73.4038 29.3575 73.3711 29.3407 73.3475 29.3141C73.3397 29.3008 73.334 29.2863 73.3305 29.2713L73.3241 29.2456C73.2356 29.1267 73.1465 29.0083 73.0573 28.8897C73.0189 28.8386 72.9805 28.7876 72.942 28.7364C72.898 28.6693 72.8416 28.6112 72.776 28.5653C72.7476 28.5476 72.7168 28.5348 72.686 28.5219C72.6591 28.5107 72.6321 28.4995 72.6068 28.485C72.4563 28.3982 72.3932 28.2195 72.335 28.0544C72.3323 28.0467 72.3296 28.0391 72.3269 28.0315C72.1584 27.5567 71.906 27.1165 71.5819 26.7318C71.4617 26.6032 71.3547 26.4627 71.2626 26.3125C71.1679 26.352 71.0614 26.352 70.9667 26.3125C70.9398 26.51 70.9125 26.7083 70.8848 26.9072C70.8609 27.033 70.8609 27.1622 70.8848 27.288C70.91 27.4161 71.006 27.5184 71.1317 27.5512C71.1452 27.6292 71.217 27.6726 71.2865 27.7147C71.299 27.7222 71.3113 27.7297 71.3233 27.7373C71.5648 27.9076 71.625 28.2414 71.4584 28.4861C71.4364 28.5159 71.411 28.5439 71.3856 28.5719C71.3336 28.6291 71.2819 28.6859 71.2605 28.7578C71.2126 28.9151 71.3275 29.0787 71.4648 29.1654C71.5369 29.2108 71.6163 29.2431 71.6957 29.2753C71.7677 29.3045 71.8397 29.3337 71.9065 29.3729C72.1981 29.543 72.3546 29.8799 72.4546 30.2008C72.4637 30.2301 72.4726 30.2597 72.4815 30.2895C72.5467 30.507 72.6138 30.7304 72.7739 30.8876C72.8051 30.9175 72.839 30.9443 72.8729 30.9711C72.9154 31.0046 72.958 31.0381 72.9953 31.078C73.1115 31.2157 73.1785 31.3886 73.1858 31.569C73.2144 31.7926 73.1655 32.0192 73.0474 32.2108C72.9532 32.3393 72.8284 32.4419 72.6845 32.5093C72.8165 32.598 72.9516 32.6836 73.09 32.7628C73.1975 32.8248 73.3209 32.9072 73.3209 33.0323C73.3208 33.0806 73.3003 33.1264 73.2645 33.1586C73.2814 33.1695 73.2978 33.1812 73.3135 33.1939C73.3954 33.2578 73.4626 33.3388 73.5104 33.4313C73.5498 33.5449 73.5982 33.655 73.6551 33.7608C73.7129 33.8401 73.7949 33.8885 73.8789 33.9381C73.9603 33.9862 74.0435 34.0354 74.1085 34.1149C74.1822 34.205 74.2147 34.3185 74.2476 34.4332C74.2736 34.524 74.2999 34.6155 74.3469 34.6968C74.4144 34.8159 74.5216 34.906 74.6282 34.9958C74.7554 35.1027 74.8818 35.2091 74.9397 35.3632C74.9586 35.4164 74.9678 35.4729 74.977 35.5294C74.9834 35.5685 74.9897 35.6076 74.9993 35.6456C75.0565 35.8582 75.2005 36.0308 75.3407 36.199C75.3544 36.2153 75.3679 36.2316 75.3814 36.2479C75.9384 36.9192 76.2955 37.7349 76.4116 38.6012C76.4478 38.0567 76.8107 37.5754 77.263 37.2759C77.2722 37.2693 77.2816 37.2628 77.2909 37.2562C77.4061 37.1755 77.5288 37.0895 77.5514 36.9549C77.5676 36.8583 77.5268 36.7675 77.4858 36.6762C77.4483 36.5928 77.4107 36.509 77.4163 36.4201C77.429 36.3283 77.4657 36.2416 77.5227 36.1687C77.7255 35.8725 77.9481 35.5906 78.189 35.3247C78.3199 35.1803 78.4667 34.9995 78.4125 34.8123C78.3873 34.726 78.3241 34.661 78.2605 34.5955C78.2192 34.553 78.1778 34.5103 78.1464 34.4615C78.0512 34.3098 78.0554 34.1157 78.157 33.9683C78.1834 33.9323 78.2153 33.8998 78.2471 33.8674C78.305 33.8083 78.3625 33.7497 78.3858 33.671C78.4076 33.5965 78.3926 33.5188 78.3774 33.4405C78.3637 33.3692 78.3498 33.2974 78.3635 33.227C78.364 33.221 78.364 33.2149 78.3635 33.2088C78.3454 33.1875 78.3304 33.1637 78.3188 33.1382C78.2815 33.0205 78.2502 32.9009 78.2251 32.7799C78.2073 32.726 78.1856 32.6734 78.1602 32.6226C78.0962 32.514 78.0556 32.393 78.041 32.2675C78.0414 32.1428 78.0842 32.0221 78.1623 31.9252C78.3372 31.7149 78.5887 31.5839 78.8605 31.5615C79.1287 31.5406 79.3985 31.5549 79.663 31.6043L82.2832 31.984C82.3155 31.9892 82.3478 31.9942 82.3801 31.9992C82.5502 32.0258 82.7205 32.0523 82.8878 32.091ZM68.0101 14.146C67.9144 14.2062 67.8154 14.2241 67.7174 14.1989L68.0101 14.146Z" fill="url(#paint0_linear)"/>
<path fill-rule="evenodd" clip-rule="evenodd" d="M68.4067 20.84C68.2779 20.95 68.1268 21.0306 67.964 21.0764L67.2094 21.3481C66.7997 21.4957 66.3718 21.6444 65.9397 21.5909C65.6981 21.5609 64.6626 21.408 64.5061 21.2186C64.2677 20.9255 65.1032 20.4945 65.3884 20.2474C65.4531 20.2006 65.513 20.1476 65.5672 20.089C65.6736 19.9585 65.6598 19.7756 65.6449 19.6109C65.5908 19.1936 65.5723 18.7723 65.5896 18.3518C65.5979 18.2516 65.6121 18.1519 65.6321 18.0534C65.7386 17.5613 66.1941 17.741 66.5538 17.8715C66.9868 18.0129 67.4055 18.1952 67.8043 18.416C67.9258 18.479 68.0314 18.569 68.113 18.6792C68.2705 18.9188 68.2077 19.2333 68.1822 19.5349C68.1598 19.7692 68.1609 19.9938 68.3067 20.1639C68.3801 20.2289 68.4474 20.3006 68.5078 20.3779C68.5777 20.5376 68.5369 20.7244 68.4067 20.84Z" fill="#BE6F72"/>
<path fill-rule="evenodd" clip-rule="evenodd" d="M57.9832 13.1308C58.0896 12.6569 58.1131 12.1681 58.2408 11.6985C58.3309 11.3932 58.4426 11.0947 58.575 10.8053L59.0443 9.70456C59.0872 9.57458 59.1636 9.45833 59.2657 9.3676C59.3751 9.29949 59.5021 9.26526 59.6307 9.26919C60.0894 9.25207 60.5716 9.39541 60.8845 9.73451C61.1974 10.0736 61.2963 10.6224 61.0473 11.0107C60.7493 11.4781 60.099 11.5723 59.7105 11.9659C59.4626 12.2173 59.3423 12.5671 59.2689 12.9126C59.0752 13.8111 59.1401 14.7429 59.0805 15.6607C59.0613 15.9463 59.006 16.2725 58.7612 16.4202C58.6133 16.493 58.4487 16.5251 58.2844 16.5132L57.5862 16.525C57.4692 16.525 57.0445 16.5988 56.9668 16.51C56.8306 16.3549 57.1414 15.5826 57.1978 15.4104C57.3234 15.0285 57.4777 14.6562 57.6235 14.2807C57.7501 13.9459 57.9832 13.4934 57.9832 13.1308Z" fill="#BE6F72"/>
<path fill-rule="evenodd" clip-rule="evenodd" d="M72.3984 46.7364C72.2377 47.3546 71.7545 47.836 71.5065 48.4254C71.133 49.3079 71.3011 50.3873 70.7733 51.1853C70.602 51.4276 70.3949 51.6423 70.1592 51.8217C70.0285 51.9334 69.8857 52.03 69.7334 52.1095C69.5757 52.197 69.3904 52.2199 69.2162 52.1737C68.9916 52.0966 68.8565 51.8527 68.8341 51.6174C68.8261 51.5402 68.8261 51.4625 68.8341 51.3853C68.8565 51.226 68.8921 51.069 68.9405 50.9157C69.0683 50.4828 69.1956 50.0492 69.3226 49.6149C69.4021 49.3794 69.4536 49.1352 69.4759 48.8875C69.4897 48.618 69.3194 48.2671 69.3918 48.0157C69.4248 47.9023 69.5483 47.8018 69.6047 47.7066C69.6847 47.5696 69.7463 47.4224 69.7877 47.2691C69.875 46.9706 69.9346 46.6519 70.1176 46.4005C70.2371 46.2514 70.3768 46.12 70.5327 46.01C70.6478 45.9087 70.7826 45.8325 70.9286 45.7865C71.0703 45.7614 71.2157 45.7684 71.3544 45.8068C71.5349 45.8455 71.7127 45.8963 71.8865 45.9587H71.8961C72.1089 46.0357 72.3346 46.1544 72.4016 46.3705C72.4342 46.4904 72.4331 46.6171 72.3984 46.7364Z" fill="#3F3D56"/>
<path fill-rule="evenodd" clip-rule="evenodd" d="M83.7225 33.5855C83.7161 33.7513 83.6959 33.9364 83.5681 34.0401C83.4569 34.1116 83.3248 34.143 83.1935 34.1289H83.1648C82.7848 34.1289 82.3985 34.1075 82.0388 34.2263C81.7652 34.3172 81.5141 34.4841 81.2288 34.5172C80.8361 34.5621 80.4668 34.3461 80.1188 34.1578C79.7911 33.9804 79.4547 33.8197 79.1109 33.6764C78.8853 33.5834 78.4244 33.5235 78.3159 33.2753C78.2787 33.1579 78.2474 33.0386 78.2222 32.918C78.2043 32.8641 78.1826 32.8116 78.1573 32.7608C78.0934 32.6524 78.0528 32.5318 78.0381 32.4067C78.0385 32.282 78.0813 32.1612 78.1594 32.0644C78.3348 31.8557 78.5857 31.726 78.8565 31.7039C79.1247 31.683 79.3945 31.6973 79.659 31.7467L82.2793 32.1254C82.4815 32.1542 82.6848 32.1831 82.8838 32.2323C83.0728 32.2653 83.251 32.3438 83.4032 32.4613C83.7129 32.7223 83.7384 33.1812 83.7225 33.5855Z" fill="#3F3D56"/>
<path fill-rule="evenodd" clip-rule="evenodd" d="M81.4193 34.2702C81.1 34.9473 81.3299 35.7485 81.2724 36.4973C81.2241 36.9181 81.1292 37.3322 80.9893 37.7318C80.8658 38.1297 80.7424 38.5287 80.5849 38.9149C80.4529 39.2358 80.2964 39.5567 80.1741 39.884C79.9793 40.406 79.8548 40.9933 79.4599 41.3816C79.279 42.2566 79.0491 43.2129 78.3328 43.7435C77.7102 44.2056 76.8428 44.2217 76.1159 43.9425C75.389 43.6633 74.7984 43.1284 74.2779 42.5519C73.7575 41.9753 73.2924 41.3474 72.7337 40.8104C72.4134 40.5083 72.0731 40.2285 71.7151 39.9728C71.3547 39.7097 70.984 39.4622 70.603 39.2304C70.3697 39.07 70.1082 38.9556 69.8324 38.8935C69.6059 38.8498 69.3714 38.8958 69.1779 39.0218C69.1339 39.052 69.0942 39.088 69.0598 39.1288C68.965 39.2621 68.8931 39.4103 68.8469 39.5674C68.3999 40.7376 67.2005 41.3388 66.2426 42.1368L65.3678 42.8653C65.2486 42.9648 65.1166 43.1102 65.1751 43.2547C65.2154 43.3277 65.2803 43.3839 65.3582 43.413C65.8669 43.6654 66.464 43.767 66.8833 44.1521C67.0366 44.2933 67.1834 44.4795 67.391 44.4902C67.5005 44.4837 67.6083 44.4595 67.7102 44.4185C68.0349 44.3302 68.3819 44.3999 68.6479 44.6068C68.7224 44.6798 68.8088 44.7395 68.9033 44.7833C68.9824 44.8043 69.0649 44.8094 69.146 44.7982C69.3727 44.7822 69.6132 44.7619 69.8165 44.8635C70.0197 44.9651 70.1868 45.2047 70.4242 45.2218C70.5402 45.2304 70.6785 45.1919 70.7892 45.2026C70.8511 45.2046 70.9081 45.2364 70.9425 45.2882C70.9673 45.3469 70.9841 45.4088 70.9925 45.4722C71.0361 45.623 71.183 45.715 71.2788 45.8391C71.4257 46.0295 71.4469 46.2883 71.432 46.529C71.3838 47.2816 71.0501 47.9869 70.4997 48.4994C70.3435 48.66 70.1442 48.7715 69.9261 48.8203C69.7021 48.8674 69.4733 48.7653 69.3578 48.5668C69.334 48.4835 69.2981 48.4042 69.2513 48.3315C69.08 48.1421 68.6958 48.3432 68.5383 48.1411C68.4403 48.0148 68.5106 47.8127 68.4169 47.6822C68.3233 47.5517 68.0976 47.5752 67.9242 47.5677C67.7209 47.557 67.5325 47.4607 67.3356 47.4105C67.0163 47.327 66.6821 47.358 66.3554 47.3356C66.0839 47.3115 65.8143 47.2686 65.5487 47.2072L64.1949 46.9291C63.3329 46.7526 62.4676 46.5739 61.647 46.2584C61.3331 46.1386 61.017 45.991 60.7956 45.7342C60.6172 45.5086 60.5025 45.2389 60.4635 44.9533C60.2709 43.812 61.2926 42.8364 61.4214 41.6865C61.4672 41.2671 61.6343 40.8714 61.7918 40.482C62.0805 39.786 62.3686 39.0896 62.656 38.3929C62.7025 38.2631 62.7631 38.139 62.8369 38.0227C62.9594 37.8738 63.0975 37.7386 63.2488 37.6195C63.6521 37.2516 63.9414 36.7748 64.0821 36.246C64.0926 36.1871 64.117 36.1317 64.1534 36.0844C64.1911 36.0527 64.2326 36.0257 64.2769 36.0042C64.4333 35.9018 64.4997 35.7051 64.4376 35.5282C64.5741 35.5168 64.6819 35.4067 64.6909 35.2693C64.6831 35.2114 64.6867 35.1525 64.7015 35.096C64.7271 35.0404 64.7909 35.0126 64.8282 34.9634C64.8888 34.8832 64.8675 34.7708 64.858 34.6703C64.8516 34.6066 64.8516 34.5425 64.858 34.4788C64.8813 34.2523 64.9821 34.0409 65.1432 33.8808C65.3976 33.6295 65.7594 33.6947 66.1106 33.6348C66.461 33.5588 66.8031 33.4488 67.1323 33.3064C68.0558 32.9407 69.0281 32.7147 70.0176 32.6357C71.012 32.5571 72.0107 32.7169 72.9316 33.1021C73.0656 33.1566 73.1919 33.2286 73.3073 33.316C73.3892 33.3795 73.4564 33.4602 73.5042 33.5524C73.5435 33.6657 73.5919 33.7755 73.6489 33.8808C73.7628 34.037 73.9778 34.0873 74.1023 34.2349C74.2268 34.3825 74.2375 34.6318 74.3407 34.8147C74.4887 35.0757 74.8314 35.1966 74.9335 35.48C74.9655 35.5699 74.9697 35.6683 74.9931 35.7614C75.0506 35.9946 75.223 36.1786 75.3752 36.3626C75.9331 37.0333 76.2904 37.8493 76.4054 38.7159C76.4395 38.1736 76.8024 37.6933 77.2569 37.3937C77.3792 37.3135 77.5208 37.2247 77.5453 37.0793C77.5761 36.8953 77.3984 36.7316 77.4101 36.5444C77.423 36.453 77.4597 36.3667 77.5165 36.2941C77.7194 35.9986 77.942 35.7173 78.1828 35.4522C78.3137 35.3078 78.4606 35.1313 78.4063 34.9409C78.3648 34.7986 78.22 34.7152 78.1402 34.5911C78.045 34.4399 78.0492 34.246 78.1509 34.0991C78.2254 33.9974 78.3435 33.9236 78.3797 33.8027C78.4212 33.6605 78.3286 33.5064 78.3573 33.3599C78.3962 33.2425 78.4735 33.1419 78.5766 33.0743C78.7178 32.9451 78.8783 32.8389 79.0523 32.7598C79.3333 32.6528 79.6462 32.6924 79.9442 32.7341C80.4423 32.8036 81.001 32.9106 81.282 33.3299C81.4618 33.592 81.5534 33.9899 81.4193 34.2702Z" fill="#65617D"/>
<path opacity="0.1" fill-rule="evenodd" clip-rule="evenodd" d="M83.7227 33.5855C83.7163 33.7513 83.6961 33.9364 83.5684 34.0401C83.4572 34.1116 83.3251 34.143 83.1938 34.1289H83.165C83.2087 33.9064 83.4779 33.7791 83.5248 33.5534C83.541 33.4133 83.4986 33.2727 83.4077 33.1651C83.1799 32.856 82.8138 32.6848 82.4498 32.5597C81.4215 32.2053 80.3199 32.1224 79.2506 32.319C78.9598 32.3666 78.6769 32.454 78.4098 32.5789C78.3213 32.6346 78.236 32.6953 78.1544 32.7608C78.0905 32.6524 78.0499 32.5318 78.0352 32.4067C78.0356 32.282 78.0784 32.1613 78.1565 32.0644C78.3318 31.8557 78.5827 31.726 78.8536 31.7039C79.1218 31.683 79.3916 31.6973 79.6561 31.7467L82.2764 32.1254C82.4786 32.1542 82.6818 32.1831 82.8809 32.2323C83.0699 32.2653 83.2481 32.3438 83.4002 32.4613C83.7131 32.7223 83.7387 33.1812 83.7227 33.5855Z" fill="black"/>
<path opacity="0.1" fill-rule="evenodd" clip-rule="evenodd" d="M72.3984 46.7366C72.2377 47.3549 71.7545 47.8363 71.5065 48.4257C71.133 49.3082 71.3011 50.3875 70.7732 51.1855C70.602 51.4279 70.3949 51.6425 70.1591 51.822C70.0285 51.9337 69.8857 52.0302 69.7334 52.1097C69.5757 52.1972 69.3904 52.2202 69.2162 52.1739C68.9916 52.0969 68.8565 51.853 68.8341 51.6177C68.8261 51.5405 68.8261 51.4627 68.8341 51.3855L68.8405 51.4027C68.9331 51.6273 69.0842 51.8626 69.3226 51.9022C69.5035 51.9153 69.6817 51.8521 69.8143 51.7278C70.1655 51.4444 70.3699 51.0218 70.5646 50.6143C70.7171 50.3204 70.8377 50.0109 70.9244 49.6911C70.9669 49.5093 70.9872 49.3232 71.0308 49.1413C71.233 48.2577 71.9216 47.5368 72.0738 46.6414C72.0862 46.5798 72.089 46.5167 72.0823 46.4542C72.0622 46.3728 72.0314 46.2943 71.9908 46.221C71.9538 46.1382 71.9266 46.0513 71.9099 45.9622C72.1227 46.0392 72.3484 46.1579 72.4154 46.374C72.4429 46.4942 72.437 46.6196 72.3984 46.7366Z" fill="black"/>
<path opacity="0.1" fill-rule="evenodd" clip-rule="evenodd" d="M70.7915 45.2026C70.693 45.4614 70.5272 45.6889 70.3115 45.8615C70.0085 46.0935 69.6538 46.2477 69.2781 46.3108C69.1032 46.3556 68.9197 46.3534 68.746 46.3044C68.5097 46.222 68.3394 45.9995 68.0978 45.9353C67.9254 45.8882 67.7402 45.93 67.5657 45.9043C67.2517 45.8604 67.008 45.6198 66.7547 45.4272C65.9788 44.841 64.9603 44.6517 64.1844 44.0655C64.1499 44.0442 64.1213 44.0143 64.1014 43.9788C64.0865 43.9404 64.0811 43.8989 64.0854 43.8579C64.0883 43.5024 64.1678 43.1517 64.3185 42.83C64.4419 42.6055 64.5889 42.395 64.757 42.202C65.452 41.3463 66.1502 40.4841 66.9824 39.7621C67.3315 39.4593 67.7125 39.1769 68.1531 39.04C68.3979 38.9641 68.8811 38.8924 69.1791 39.0207C69.1351 39.0509 69.0954 39.0869 69.061 39.1277C68.9662 39.261 68.8943 39.4092 68.8481 39.5663C68.4001 40.7376 67.2006 41.3388 66.2428 42.1368L65.3679 42.8653C65.2487 42.9647 65.1167 43.1102 65.1753 43.2546C65.2155 43.3277 65.2805 43.3838 65.3583 43.413C65.8671 43.6654 66.4641 43.767 66.8835 44.1521C67.0367 44.2933 67.1836 44.4794 67.3911 44.4901C67.5007 44.4837 67.6085 44.4595 67.7104 44.4185C68.035 44.3302 68.3821 44.3999 68.648 44.6067C68.7225 44.6798 68.8089 44.7395 68.9035 44.7832C68.9826 44.8043 69.065 44.8094 69.1461 44.7982C69.3728 44.7822 69.6133 44.7618 69.8166 44.8635C70.0199 44.9651 70.187 45.2047 70.4243 45.2218C70.5425 45.2304 70.6808 45.1897 70.7915 45.2026Z" fill="black"/>
<path fill-rule="evenodd" clip-rule="evenodd" d="M61.0035 30.6847C60.8013 30.8152 60.5863 30.9628 60.5033 31.1896C60.4352 31.3746 60.4671 31.5864 60.3852 31.7661C60.3032 31.9458 60.1191 32.071 60.0787 32.2635C60.0499 32.4037 60.1063 32.5513 60.0787 32.6914C60.0546 32.7643 60.035 32.8386 60.0201 32.9139C60.0095 33.0733 60.1457 33.2027 60.2787 33.2915C60.8531 33.667 61.5706 33.7464 62.2125 33.5055C62.4967 33.3985 62.7532 33.2241 63.0256 33.0872C63.2913 32.9334 63.5952 32.8592 63.9015 32.8733C64.0771 32.8925 64.2453 32.9567 64.4209 32.9803C64.597 33.0152 64.7789 32.9608 64.9073 32.8348C64.9615 32.7595 64.9979 32.6728 65.0137 32.5813C65.1616 31.994 65.0946 31.3714 64.9541 30.7809C64.8136 30.1905 64.6008 29.6225 64.4507 29.0352C64.3443 28.5998 64.2623 28.1538 64.0846 27.7419C63.9068 27.3301 63.6078 26.9471 63.1895 26.7899C63.1565 26.7736 63.1191 26.7687 63.0831 26.776C63.0563 26.7873 63.0325 26.8049 63.0139 26.8273C62.6831 27.1797 62.4338 27.6013 62.2838 28.0618C62.1167 28.5741 62.071 29.1176 61.9177 29.6321C61.8517 29.846 61.7666 30.1327 61.5984 30.2964C61.4303 30.46 61.194 30.5617 61.0035 30.6847Z" fill="#3F3D56"/>
<path opacity="0.1" fill-rule="evenodd" clip-rule="evenodd" d="M65.0167 32.5779C64.9989 32.6698 64.9607 32.7564 64.905 32.8314C64.7769 32.9579 64.5945 33.012 64.4186 32.9758C64.2441 32.9544 64.0759 32.8892 63.9003 32.8688C63.594 32.8546 63.29 32.9288 63.0244 33.0828C62.752 33.2197 62.4923 33.3898 62.2102 33.5C61.7977 33.6572 61.3469 33.683 60.9193 33.5738C60.6921 33.5164 60.4762 33.4209 60.2807 33.2914C60.1466 33.2037 60.0114 33.0774 60.0221 32.9138C60.037 32.8388 60.0565 32.7649 60.0806 32.6923C60.1083 32.5522 60.0529 32.4046 60.0806 32.2645C60.1211 32.0719 60.3062 31.9436 60.3871 31.766C60.468 31.5884 60.4371 31.3755 60.5042 31.1905C60.5872 30.9626 60.8033 30.8161 61.0055 30.6845C61.2077 30.5529 61.4482 30.4524 61.61 30.293C61.6309 30.2682 61.6497 30.2417 61.6664 30.2138C61.783 30.033 61.8687 29.8338 61.9197 29.6244C62.0761 29.1088 62.1187 28.5665 62.2847 28.053C62.4353 27.5929 62.685 27.1718 63.0159 26.8197C63.0336 26.7967 63.0571 26.779 63.084 26.7683C63.1199 26.761 63.1573 26.7655 63.1904 26.7812C63.6076 26.9395 63.9067 27.3224 64.0855 27.7343C64.2643 28.1461 64.3399 28.59 64.4516 29.0265C64.6006 29.6137 64.8145 30.1839 64.955 30.7733C65.0955 31.3627 65.1647 31.9895 65.0167 32.5779Z" fill="black"/>
<path opacity="0.1" fill-rule="evenodd" clip-rule="evenodd" d="M68.1815 19.5317C67.1451 19.8627 66.0272 19.3553 65.5889 18.355C65.5972 18.2548 65.6114 18.1551 65.6314 18.0566C65.7379 17.5645 66.1934 17.7442 66.5531 17.8747C66.9861 18.0161 67.4049 18.1984 67.8037 18.4192C67.9252 18.4821 68.0307 18.5721 68.1123 18.6823C68.2698 18.9187 68.207 19.2332 68.1815 19.5317Z" fill="black"/>
<ellipse cx="67.5387" cy="17.386" rx="2.12856" ry="2.13941" fill="#BE6F72"/>
<path opacity="0.1" fill-rule="evenodd" clip-rule="evenodd" d="M73.3151 33.3737C73.3151 33.5513 73.0756 33.608 72.8979 33.5984C72.2593 33.5609 71.6346 33.3844 71.0024 33.4379C70.2031 33.5106 69.4688 33.9546 68.6674 33.9952C68.3587 34.0113 68.0448 33.9653 67.7404 34.022C67.3466 34.0958 66.9954 34.3364 66.5941 34.3707C66.2461 34.4006 65.9024 34.2691 65.5543 34.283C65.311 34.2975 65.0738 34.3654 64.8594 34.4819C64.8827 34.2554 64.9835 34.0441 65.1446 33.884C65.399 33.6326 65.7608 33.6978 66.112 33.6379C66.4624 33.5619 66.8045 33.4519 67.1337 33.3095C68.0572 32.9438 69.0295 32.7178 70.019 32.6388C71.0127 32.5594 72.0111 32.7181 72.9319 33.102C73.0659 33.1566 73.1922 33.2285 73.3076 33.316C73.3134 33.3346 73.3159 33.3542 73.3151 33.3737Z" fill="black"/>
<path fill-rule="evenodd" clip-rule="evenodd" d="M66.5548 21.2925L65.6927 20.9716L65.3287 20.8368C65.1804 20.7743 65.0243 20.7326 64.8647 20.7127C64.4475 20.6806 64.0548 20.9598 63.8324 21.316C63.6099 21.6722 63.5258 22.0969 63.4545 22.5109C63.3566 23.0771 63.2736 23.6455 63.2055 24.216C63.1321 24.7312 63.0948 25.2509 63.0938 25.7713C63.1182 27.0956 63.3971 28.4018 63.7036 29.6907C63.8537 30.2623 63.9671 30.8429 64.0431 31.429C64.0686 31.6708 64.0803 31.9136 64.1059 32.1564C64.1336 32.4292 64.1783 32.6987 64.223 32.9694L64.4794 34.5065C64.7987 34.2787 65.1617 34.0787 65.5544 34.0669C65.9024 34.0541 66.2472 34.1846 66.5942 34.1546C66.9933 34.1215 67.3466 33.8808 67.7404 33.807C68.0448 33.7503 68.3588 33.7952 68.6685 33.7802C69.4688 33.7396 70.2042 33.2946 71.0024 33.2229C71.6357 33.1651 72.2647 33.3448 72.899 33.3823C73.0757 33.393 73.3151 33.3363 73.3151 33.1577C73.3151 33.0336 73.1917 32.9512 73.0842 32.8892C72.5775 32.5825 72.0953 32.2367 71.6421 31.8548C71.2227 31.521 70.797 31.1787 70.5086 30.7273C69.8136 29.6415 70.052 28.1728 69.4592 27.0272C68.9771 26.0965 69.4592 24.8771 69.4592 23.8277C69.4592 23.3046 69.4592 22.7751 69.3368 22.267C69.2603 21.9828 69.165 21.7041 69.0516 21.4326L68.6376 20.379C68.629 20.3482 68.6121 20.3204 68.5886 20.2987C68.5608 20.2795 68.5277 20.2694 68.4939 20.2699C68.2453 20.2549 68.0001 20.3339 67.8064 20.4913C67.6116 20.6507 67.4871 20.8796 67.2955 21.0454C67.0859 21.2283 66.8155 21.3888 66.5548 21.2925Z" fill="#E3E8F4"/>
<path fill-rule="evenodd" clip-rule="evenodd" d="M67.9461 20.6849C68.0142 20.3918 68.0876 20.087 68.2824 19.8581C68.4772 19.6291 68.8326 19.5083 69.0838 19.6719C69.369 19.8581 69.3807 20.2881 69.6244 20.5277C69.8373 20.7331 70.1566 20.7491 70.4461 20.7759C70.9666 20.8235 71.4778 20.9445 71.9648 21.1353C72.0598 21.1649 72.1463 21.217 72.217 21.2872C72.3501 21.4391 72.3235 21.6723 72.3894 21.8616C72.4799 22.1055 72.73 22.2606 72.8269 22.5034C72.9333 22.773 72.8269 23.0747 72.7375 23.3517C72.5768 23.8491 72.4756 24.3658 72.3192 24.8653C72.1628 25.3649 71.9403 25.8569 71.5742 26.2335C71.4124 26.4004 71.1719 26.5544 70.9591 26.4549L70.8771 27.0486C70.8532 27.174 70.8532 27.3029 70.8771 27.4283C70.9023 27.5564 70.9983 27.6587 71.124 27.6915C71.14 27.7835 71.2368 27.8273 71.3156 27.8776C71.433 27.9583 71.5134 28.0829 71.5388 28.2236C71.5642 28.3643 71.5325 28.5094 71.4507 28.6264C71.3837 28.7173 71.2847 28.789 71.2528 28.897C71.2049 29.0532 71.3188 29.218 71.4571 29.3035C71.5955 29.3891 71.7583 29.4287 71.8988 29.5111C72.1904 29.6801 72.3469 30.0127 72.4469 30.3358C72.5214 30.5797 72.5831 30.8439 72.7662 31.0215C72.8364 31.0889 72.9205 31.1402 72.9876 31.2108C73.1036 31.3486 73.1707 31.5214 73.1781 31.7018C73.2072 31.9254 73.1583 32.1522 73.0397 32.3436C72.8269 32.6496 72.4299 32.7405 72.0819 32.8785C71.5167 33.1117 71.0516 33.5289 70.5536 33.884C70.3507 34.0482 70.1117 34.1612 69.8565 34.2135C69.5116 34.2595 69.1721 34.1065 68.8252 34.0926C68.6176 34.0945 68.411 34.1218 68.21 34.1739L67.5715 34.3129C67.6055 33.8155 67.3331 33.3171 67.1809 32.8432C66.8935 31.951 66.8403 30.9969 66.9084 30.0619C66.9765 29.127 67.166 28.2049 67.3533 27.2871C67.4842 26.6453 67.4714 25.9746 67.6726 25.351C67.8609 24.7509 68.1302 24.1743 68.2292 23.5496C68.3909 22.5387 67.7183 21.6819 67.9461 20.6849Z" fill="#3F3D56"/>
<path fill-rule="evenodd" clip-rule="evenodd" d="M72.7867 22.6629C72.8455 22.7716 72.8868 22.8889 72.9091 23.0105C72.9583 23.199 73.0505 23.3733 73.1784 23.5197C73.2855 23.6146 73.3806 23.7224 73.4615 23.8406C73.5594 24.0267 73.5222 24.2535 73.5679 24.4568C73.6211 24.6782 73.7755 24.8707 73.7978 25.0986C73.7985 25.1639 73.8045 25.229 73.8159 25.2933C73.8851 25.5521 74.264 25.6142 74.3481 25.873C74.4045 26.041 74.3076 26.2239 74.3257 26.4004C74.3389 26.455 74.3422 26.5115 74.3353 26.5673C74.3112 26.6303 74.269 26.6847 74.214 26.7235C73.8617 27.0617 73.6179 27.4978 73.5137 27.9761C73.4111 28.4517 73.3573 28.9367 73.3529 29.4234L72.9368 28.8704C72.8927 28.8033 72.8364 28.7452 72.7708 28.6992C72.7176 28.6671 72.6558 28.6511 72.6016 28.619C72.444 28.5291 72.3823 28.3387 72.3216 28.1676C72.1531 27.6938 71.9007 27.2546 71.5766 26.8711C71.4074 26.671 71.2105 26.4699 71.1733 26.21C71.1621 26.0906 71.1686 25.9702 71.1924 25.8527C71.2989 25.1521 71.4127 24.4343 71.7523 23.8128C71.9108 23.5218 72.1162 23.2587 72.2684 22.9635C72.3706 22.7677 72.5143 22.2585 72.7867 22.6629Z" fill="#3F3D56"/>
<path fill-rule="evenodd" clip-rule="evenodd" d="M62.2876 23.3356C62.2896 23.4256 62.2667 23.5145 62.2216 23.5923C62.1386 23.6889 62.0085 23.7303 61.8853 23.6993C61.7641 23.6687 61.65 23.6149 61.549 23.541C61.2524 23.3527 60.9559 23.1641 60.6593 22.9751C60.4937 22.8748 60.3341 22.7648 60.1814 22.6456C59.948 22.4475 59.7364 22.2248 59.5503 21.9813C59.033 21.3395 58.5754 20.6431 57.9996 20.0559C57.8432 19.8954 57.6803 19.7414 57.5292 19.5734C57.3227 19.3307 57.1328 19.0741 56.9609 18.8054C56.7949 18.5583 56.6224 18.2844 56.6512 17.9892C56.6682 17.8223 56.748 17.6683 56.7714 17.5025C56.7949 17.3367 56.7321 17.1345 56.5724 17.0896C56.5535 17.0848 56.5343 17.0816 56.5149 17.0799C56.4834 17.0766 56.4524 17.0698 56.4224 17.0596C56.2744 16.9976 56.2968 16.7676 56.4032 16.6467C56.5096 16.5258 56.6671 16.4585 56.764 16.3258C56.809 16.2471 56.8595 16.1717 56.9151 16.1001C56.9864 16.0387 57.0715 15.9957 57.1631 15.9749C57.777 15.7931 58.4264 15.7685 59.0522 15.9033C59.1586 15.9268 59.28 15.9696 59.3119 16.0734C59.3246 16.1239 59.3246 16.1769 59.3119 16.2274C59.2649 16.4383 59.2379 16.6532 59.231 16.8692C59.2308 16.9143 59.2333 16.9593 59.2384 17.004C59.2885 17.4576 59.5811 17.8416 59.8664 18.1956C60.2048 18.6171 60.5486 19.0354 60.8934 19.4526C61.0799 19.6943 61.2883 19.9181 61.516 20.1211C61.7289 20.2987 62.0045 20.442 62.1706 20.6699C62.3057 20.8539 62.2621 21.1052 62.277 21.3267C62.3265 21.9953 62.33 22.6665 62.2876 23.3356Z" fill="#3F3D56"/>
<path fill-rule="evenodd" clip-rule="evenodd" d="M75.8043 27.7985C75.9094 27.6957 76.0042 27.5829 76.0874 27.4615C76.1768 27.3111 76.2483 27.1506 76.3002 26.9833L76.9175 25.2237C77.0154 24.9456 77.1133 24.6664 77.2368 24.3957C77.3645 24.1037 77.5156 23.8224 77.655 23.54C78.0136 22.7968 78.2909 22.0167 78.482 21.2134C78.5156 21.103 78.5268 20.987 78.515 20.8721C78.4852 20.6871 78.3458 20.5427 78.2127 20.4111C78.0789 20.2659 77.9265 20.1392 77.7593 20.0346C77.5898 19.9286 77.3851 19.8955 77.191 19.9426C76.9186 20.0228 76.7472 20.3031 76.6844 20.5844C76.6216 20.8657 76.645 21.1535 76.6184 21.4401C76.5801 21.8509 76.4396 22.2478 76.4056 22.6596C76.3875 22.8982 76.4056 23.1388 76.3768 23.3763C76.3245 23.6882 76.2163 23.9879 76.0576 24.261C75.7118 24.9114 75.2445 25.4889 74.6814 25.9618C74.5272 26.0762 74.3884 26.2104 74.2685 26.3608C74.1684 26.5112 74.1006 26.681 74.0695 26.8593C73.9988 27.1307 74.0294 27.4188 74.1557 27.669C74.3291 27.9664 74.6623 28.0969 74.9805 28.1632C75.4105 28.2531 75.5094 28.1055 75.8043 27.7985Z" fill="#BE6F72"/>
<path fill-rule="evenodd" clip-rule="evenodd" d="M67.5518 14.2859C67.7391 13.9321 68.1188 13.7252 68.516 13.7606C68.9152 13.8317 69.2396 14.1245 69.3525 14.5158C69.4026 14.6752 69.4228 14.8517 69.51 14.9886C69.642 15.1951 69.8868 15.255 70.0699 15.4048C70.2907 15.6109 70.4196 15.8978 70.4275 16.2006C70.4376 16.5068 70.3896 16.8121 70.2859 17.1002C70.2419 17.2232 70.2064 17.349 70.1795 17.4768C70.1582 17.6009 70.1561 17.7271 70.1369 17.8512C70.0893 18.1762 69.9131 18.4682 69.6484 18.6609C69.6111 18.6915 69.5646 18.7085 69.5164 18.7091C69.4334 18.6994 69.3823 18.6021 69.3515 18.5144C69.1822 18.0234 69.2227 17.4233 68.9109 17.0318C68.769 16.8738 68.5976 16.7455 68.4064 16.6542C68.3284 16.6036 68.2406 16.5704 68.1488 16.5568C68.0139 16.5641 67.8841 16.6118 67.7763 16.6938C67.5517 16.8452 67.3025 16.956 67.0398 17.0211C66.7745 17.0843 66.4949 17.0237 66.2789 16.8563C66.132 16.7344 66.0245 16.5515 65.8617 16.4563C65.6988 16.3611 65.5286 16.3664 65.3679 16.3012C65.1603 16.2125 65.0051 16.0324 64.9473 15.8133C64.8895 15.5942 64.9355 15.3606 65.072 15.1801C65.1784 15.0518 65.3359 14.979 65.4306 14.8368C65.553 14.6528 65.5424 14.4003 65.6009 14.18C65.6712 13.8971 65.8729 13.6657 66.1427 13.5585C66.4053 13.4688 66.6956 13.5299 66.9004 13.7178C67.0069 13.8141 67.092 13.9382 67.1963 14.0388C67.4055 14.2401 67.7022 14.3207 67.9839 14.2527" fill="#3F3D56"/>
<path opacity="0.1" fill-rule="evenodd" clip-rule="evenodd" d="M69.3014 30.0309C69.1746 30.1444 69.1299 30.3243 69.1886 30.4844C69.212 30.5347 70.3103 30.3218 70.4263 30.3058C70.7158 30.2641 71.2235 30.2844 71.4182 30.018C71.7652 29.5463 70.6903 29.6511 70.4934 29.6683C70.1188 29.7003 69.5866 29.7517 69.3014 30.0309Z" fill="black"/>
<path fill-rule="evenodd" clip-rule="evenodd" d="M59.3101 16.2317C59.2632 16.4426 59.2361 16.6575 59.2292 16.8735C58.91 16.9387 58.5779 16.8318 58.2714 16.7248L57.3912 16.4231C57.2801 16.3518 57.1329 16.3794 57.0549 16.4863C56.9134 16.6339 56.7186 16.9141 56.5228 17.0799C56.4912 17.0766 56.4602 17.0698 56.4302 17.0596C56.2822 16.9976 56.3046 16.7676 56.411 16.6467C56.5174 16.5258 56.675 16.4584 56.7718 16.3258C56.8168 16.2471 56.8673 16.1717 56.9229 16.1001C56.9942 16.0387 57.0793 15.9957 57.1709 15.9749C57.7848 15.7931 58.4342 15.7685 59.06 15.9033C59.1664 15.9268 59.2878 15.9696 59.3197 16.0734C59.3301 16.1261 59.3268 16.1806 59.3101 16.2317Z" fill="#3F3D56"/>
<path opacity="0.1" fill-rule="evenodd" clip-rule="evenodd" d="M59.3101 16.2317C59.2632 16.4426 59.2361 16.6575 59.2292 16.8735C58.91 16.9387 58.5779 16.8318 58.2714 16.7248L57.3912 16.4231C57.2801 16.3518 57.1329 16.3794 57.0549 16.4863C56.9134 16.6339 56.7186 16.9141 56.5228 17.0799C56.4912 17.0766 56.4602 17.0698 56.4302 17.0596C56.2822 16.9976 56.3046 16.7676 56.411 16.6467C56.5174 16.5258 56.675 16.4584 56.7718 16.3258C56.8168 16.2471 56.8673 16.1717 56.9229 16.1001C56.9942 16.0387 57.0793 15.9957 57.1709 15.9749C57.7848 15.7931 58.4342 15.7685 59.06 15.9033C59.1664 15.9268 59.2878 15.9696 59.3197 16.0734C59.3301 16.1261 59.3268 16.1806 59.3101 16.2317Z" fill="black"/>
<path opacity="0.1" fill-rule="evenodd" clip-rule="evenodd" d="M67.3611 36.5402C67.5143 36.5915 67.6803 36.6664 67.7325 36.8204L66.5001 36.5059L65.8615 36.3423C65.7487 36.3134 65.3442 36.2802 65.2697 36.1914C65.1633 36.0609 65.5411 36.1508 65.6093 36.1604C65.8157 36.1914 66.0222 36.2235 66.2276 36.261C66.615 36.3305 66.9875 36.445 67.3611 36.5402Z" fill="black"/>
<path opacity="0.1" fill-rule="evenodd" clip-rule="evenodd" d="M67.8393 37.6367C67.7329 37.565 67.4275 37.5735 67.2966 37.5425C67.105 37.4965 66.9166 37.4356 66.7282 37.3767C66.3462 37.2516 65.9673 37.1093 65.5746 37.0173C65.5022 37.0013 65.2553 36.997 65.267 36.905C65.2787 36.813 65.5139 36.7809 65.5724 36.7766C65.9205 36.7509 66.3547 36.9146 66.6782 37.0312C67.0906 37.1797 67.4811 37.3833 67.8393 37.6367Z" fill="black"/>
<path opacity="0.1" fill-rule="evenodd" clip-rule="evenodd" d="M67.0581 35.5624C66.6675 35.4555 66.3131 35.2116 65.9108 35.1645C65.806 35.1685 65.7029 35.1369 65.6182 35.0747C65.5709 35.0279 65.538 34.9685 65.5234 34.9035C65.7927 34.8896 66.1056 35.004 66.3504 35.1121C66.4851 35.1702 66.6147 35.2396 66.7378 35.3196C66.8272 35.3742 66.9613 35.5314 67.0581 35.5624Z" fill="black"/>
<path fill-rule="evenodd" clip-rule="evenodd" d="M74.5038 25.9841C74.3673 26.9035 74.923 27.7841 75.8086 28.0519C75.7564 28.3054 75.4957 28.4455 75.3116 28.6263C75.0519 28.8798 74.9178 29.2596 74.6113 29.4521C74.2696 29.666 73.8301 29.5826 73.4405 29.4928C73.4051 29.4888 73.3725 29.4716 73.349 29.4446C73.341 29.4318 73.3352 29.4177 73.332 29.4029C73.2032 28.929 73.1191 28.4231 73.2511 27.9481C73.3575 27.5438 73.613 27.1993 73.8173 26.842C74.0216 26.4848 74.0408 26.1018 74.5038 25.9841Z" fill="#3F3D56"/>
<path fill-rule="evenodd" clip-rule="evenodd" d="M64.9886 19.8504C64.5766 19.8806 64.1766 20.003 63.8179 20.2088C63.5795 20.3457 63.3347 20.5297 63.0622 20.4965C62.9015 20.4784 62.7429 20.3896 62.5865 20.4324C62.4983 20.4681 62.4162 20.5172 62.3428 20.5778C62.267 20.6384 62.1652 20.6547 62.0746 20.6206L61.9681 22.1011C61.9277 22.6638 61.8883 23.2382 62.0224 23.7869C62.0916 24.0672 62.2438 24.3218 62.2608 24.6063C62.2778 24.8909 62.2523 25.1829 62.2725 25.4707C62.2917 25.737 62.3502 25.9991 62.3651 26.2654C62.3949 26.7682 62.2714 27.2667 62.1522 27.7555C61.9724 28.4765 61.8638 29.2135 61.5137 29.8661C61.4158 30.0468 61.3008 30.2308 61.3008 30.4362C61.3008 30.4619 61.3008 30.4865 61.3072 30.5111C61.2008 30.5699 61.1018 30.6256 61.0113 30.6833C60.8091 30.8149 60.5931 30.9614 60.5101 31.1893C60.443 31.3743 60.4739 31.5861 60.393 31.7648C60.3121 31.9434 60.1269 32.0707 60.0865 32.2633C60.0577 32.4034 60.1131 32.551 60.0865 32.6912C60.0624 32.7637 60.0428 32.8376 60.0279 32.9126C60.0173 33.073 60.1525 33.2025 60.2866 33.2902C60.4821 33.4197 60.698 33.5152 60.9251 33.5726L61.5605 31.0374C62.1398 29.9609 62.6217 28.8342 63.0005 27.671C63.1088 27.2908 63.248 26.9202 63.4166 26.5628C63.5371 26.3607 63.6438 26.1505 63.7359 25.9338C63.8328 25.6643 63.8423 25.3722 63.8892 25.0877C63.9448 24.7556 64.0284 24.4289 64.1393 24.1111C64.2542 23.7677 64.3872 23.4254 64.4107 23.0649C64.4458 22.5493 64.2595 22.0048 64.4575 21.5277C64.5415 21.3492 64.6509 21.1838 64.7821 21.0367C65.0567 20.6987 65.3068 20.3446 65.5814 20.0066C65.4388 19.8536 65.2014 19.8376 64.9886 19.8504Z" fill="#3F3D56"/>
<g opacity="0.1">
<path fill-rule="evenodd" clip-rule="evenodd" d="M68.1316 14.0099L67.8684 14.0364L67.8389 14.0658C67.9375 14.0602 68.0355 14.0415 68.1316 14.0099Z" fill="black"/>
<path fill-rule="evenodd" clip-rule="evenodd" d="M70.4216 16.155C70.3994 16.3677 70.3537 16.5772 70.2854 16.7797C70.2414 16.9026 70.2059 17.0284 70.179 17.1562C70.1577 17.2803 70.1556 17.4065 70.1364 17.5306C70.0888 17.8557 69.9126 18.1476 69.6479 18.3404C69.6106 18.371 69.5641 18.3879 69.5159 18.3885C69.4329 18.3789 69.3818 18.2816 69.351 18.1938C69.1817 17.7028 69.2222 17.1027 68.9104 16.7112C68.7685 16.5533 68.5971 16.425 68.4059 16.3336C68.3279 16.2831 68.2401 16.2499 68.1483 16.2363C68.0134 16.2436 67.8836 16.2913 67.7758 16.3732C67.5512 16.5246 67.302 16.6354 67.0393 16.7005C66.774 16.7637 66.4944 16.7032 66.2784 16.5358C66.1315 16.4139 66.024 16.2309 65.8612 16.1357C65.6984 16.0405 65.5281 16.0459 65.3674 15.9806C65.164 15.8933 65.0112 15.7177 64.9523 15.5035C64.9485 15.4902 64.9457 15.4766 64.9438 15.4629C64.9172 15.5823 64.9201 15.7064 64.9523 15.8244C65.0112 16.0387 65.164 16.2142 65.3674 16.3015C65.5281 16.3668 65.709 16.3679 65.8612 16.4566C66.0134 16.5454 66.1315 16.7348 66.2784 16.8567C66.4944 17.0241 66.774 17.0846 67.0393 17.0214C67.302 16.9563 67.5512 16.8456 67.7758 16.6941C67.8836 16.6122 68.0134 16.5645 68.1483 16.5572C68.2401 16.5708 68.3279 16.604 68.4059 16.6545C68.5947 16.7477 68.7635 16.877 68.9029 17.0354C69.2147 17.4269 69.1743 18.027 69.3435 18.518C69.3744 18.6067 69.4255 18.703 69.5085 18.7126C69.5596 18.7129 69.6091 18.6947 69.6479 18.6613C69.9138 18.468 70.0904 18.1747 70.1375 17.8483C70.1566 17.7242 70.1588 17.598 70.18 17.4739C70.2069 17.3461 70.2425 17.2203 70.2865 17.0974C70.3902 16.8093 70.4382 16.504 70.428 16.1978C70.4259 16.1849 70.4238 16.17 70.4216 16.155Z" fill="black"/>
</g>
<path fill-rule="evenodd" clip-rule="evenodd" d="M63.6884 24.738L63.616 25.7147C63.6054 25.8473 63.3531 29.0051 61.4928 32.6956C59.8963 35.8608 56.7897 39.9835 50.9244 42.3004C50.4668 42.4823 49.9918 42.652 49.4994 42.8096L48.9502 41.0767C50.3289 40.6406 51.657 40.0568 52.9115 39.3352C55.901 37.6002 58.2254 35.1238 59.8463 31.9371C60.7063 30.2405 61.3192 28.4284 61.6662 26.5565H54.9932V24.738L63.6884 24.738Z" fill="#FFC107"/>
<path opacity="0.1" fill-rule="evenodd" clip-rule="evenodd" d="M50.2066 42.3016C56.0708 39.9846 59.1785 35.863 60.7739 32.6978C62.6343 29.0073 62.8876 25.8517 62.8971 25.7169L62.9695 24.7402H63.7145L63.6421 25.7169C63.6326 25.8495 63.3793 29.0073 61.5189 32.6978C59.9225 35.863 56.8158 39.9846 50.9516 42.3016C50.494 42.4834 50.0186 42.6535 49.5255 42.8118L49.4531 42.584C49.71 42.492 49.9611 42.3978 50.2066 42.3016Z" fill="white"/>
<path fill-rule="evenodd" clip-rule="evenodd" d="M38.4648 41.0767L37.9156 42.8096C37.4225 42.6513 36.9471 42.4812 36.4894 42.2994C30.6252 39.9824 27.5175 35.8608 25.9222 32.6956C24.0618 29.0051 23.8085 25.8495 23.7989 25.7147L23.7266 24.738H32.4175V26.5565H25.7434C26.0922 28.4287 26.7069 30.2407 27.5686 31.9371C29.1895 35.1238 31.5129 37.6002 34.5024 39.3342C35.7571 40.0564 37.0855 40.6407 38.4648 41.0767Z" fill="#FFC107"/>
<path opacity="0.1" fill-rule="evenodd" clip-rule="evenodd" d="M37.2061 42.3016C31.3419 39.9846 28.2342 35.863 26.6389 32.6978C24.7785 29.0073 24.5252 25.8517 24.5156 25.7169L24.4432 24.7402H23.6982L23.7706 25.7169C23.7802 25.8495 24.0335 29.0073 25.8939 32.6978C27.4903 35.863 30.5969 39.9846 36.4611 42.3016C36.9188 42.4834 37.3941 42.6535 37.8873 42.8118L37.9596 42.584C37.7035 42.492 37.4523 42.3978 37.2061 42.3016Z" fill="white"/>
<path fill-rule="evenodd" clip-rule="evenodd" d="M53.7468 57.8283V67.6343H33.667V57.8283L34.3056 56.9725C40.8126 54.6513 42.1312 48.5978 42.3941 46.2028C42.4332 45.8718 42.4556 45.5391 42.4612 45.2058H44.9441C44.9497 45.5391 44.9721 45.8718 45.0112 46.2028C45.2783 48.5978 46.597 54.6534 53.0997 56.9725L53.7468 57.8283Z" fill="#FFC107"/>
<rect opacity="0.1" x="33.667" y="57.8281" width="20.0798" height="1.23016" fill="black"/>
<path opacity="0.1" fill-rule="evenodd" clip-rule="evenodd" d="M35.3698 56.9725C41.8769 54.6513 43.1955 48.5978 43.4584 46.2028C43.4975 45.8718 43.5199 45.5391 43.5254 45.2058H42.4612C42.4556 45.5391 42.4332 45.8718 42.3941 46.2028C42.127 48.5978 40.8083 54.6534 34.3056 56.9725L33.667 57.8283V67.6343H34.7313V57.8283L35.3698 56.9725Z" fill="white"/>
<path opacity="0.1" fill-rule="evenodd" clip-rule="evenodd" d="M30.6172 24.738H32.4179V26.5565H30.7768C30.7123 25.9575 30.659 25.3513 30.6172 24.738Z" fill="black"/>
<path opacity="0.1" fill-rule="evenodd" clip-rule="evenodd" d="M38.4653 41.0765L37.9161 42.8094C37.423 42.6511 36.9476 42.481 36.4899 42.2992C35.7371 41.3752 35.0719 40.3825 34.5029 39.334C35.7576 40.0563 37.086 40.6405 38.4653 41.0765Z" fill="black"/>
<path opacity="0.1" fill-rule="evenodd" clip-rule="evenodd" d="M48.9492 41.0767C50.3279 40.6406 51.656 40.0567 52.9105 39.3352C52.3412 40.3838 51.676 41.3769 50.9235 42.3015C50.4658 42.4833 49.9908 42.6531 49.4984 42.8107L48.9492 41.0767Z" fill="black"/>
<path opacity="0.1" fill-rule="evenodd" clip-rule="evenodd" d="M56.7958 24.738C56.7539 25.3513 56.7007 25.9575 56.6361 26.5565H54.9961V24.738H56.7958Z" fill="black"/>
<path opacity="0.1" fill-rule="evenodd" clip-rule="evenodd" d="M45.0155 46.2028C44.1512 46.3711 43.2628 46.3711 42.3984 46.2028C42.4376 45.8718 42.4599 45.5391 42.4655 45.2058H44.9485C44.954 45.5391 44.9764 45.8718 45.0155 46.2028Z" fill="black"/>
<path fill-rule="evenodd" clip-rule="evenodd" d="M30.8301 21.7258C30.8758 35.2105 36.623 46.1151 43.7079 46.1151C50.7928 46.1151 56.5389 35.2105 56.5857 21.7258H30.8301Z" fill="#FFC107"/>
<path opacity="0.1" fill-rule="evenodd" clip-rule="evenodd" d="M33.1183 21.7258H30.8301C30.8758 35.2105 36.623 46.1151 43.7079 46.1151C44.0913 46.1144 44.4739 46.0818 44.852 46.0177C38.3024 44.9181 33.1619 34.4767 33.1183 21.7258Z" fill="white"/>
<rect x="36.8779" y="61.5818" width="13.6579" height="3.53004" fill="#3F3D56"/>
<path opacity="0.1" fill-rule="evenodd" clip-rule="evenodd" d="M37.5165 62.0632H50.5359V61.5818H36.8779V65.1118H37.5165V62.0632Z" fill="white"/>
<path fill-rule="evenodd" clip-rule="evenodd" d="M23.5459 34.7451C23.3001 34.6627 21.8526 33.5117 21.743 32.9907C21.6334 32.4698 22.5082 27.6166 22.5082 27.6166C22.5082 27.6166 22.4274 27.6166 22.2954 27.6005V27.5224L22.4753 21.147C22.4753 21.147 23.2128 16.8682 21.8197 17.1174C20.4265 17.3667 21.3003 21.147 21.3003 21.147C21.3003 21.147 21.1417 23.066 21.03 23.6415C21.0216 23.685 21.0109 23.739 20.9985 23.8019C20.8522 24.5416 20.4621 26.5131 20.7681 27.1609C20.7803 27.1858 20.7938 27.2101 20.8086 27.2336C20.8086 27.2336 20.8639 29.6458 20.2626 29.9752C19.689 30.2887 19.4506 31.8665 19.4303 32.0077L19.3995 31.9948C19.2282 31.8871 19.0778 31.749 18.9557 31.5873C18.9474 31.5769 18.9405 31.5662 18.9335 31.5552L18.9335 31.5552L18.9283 31.5471L18.9216 31.537C19.7337 30.6188 19.7064 29.2271 18.8588 28.3418C18.6688 28.1434 18.4459 27.9798 18.2 27.8583C18.1929 27.6539 18.1447 27.4531 18.0585 27.2678C17.7818 26.6731 16.2492 25.8954 15.1604 25.8772C14.6581 25.8622 14.2462 26.0056 14.0962 26.4003C14.0469 26.5289 14.039 26.6689 14.0311 26.8077C14.0268 26.8848 14.0224 26.9616 14.011 27.0357C13.9472 27.4636 13.6736 27.7984 13.3224 28.0648C13.1806 27.9056 13.0273 27.7573 12.8637 27.6208C12.5082 27.347 11.7994 26.4442 11.7994 26.4442C11.7994 26.4442 9.58679 24.1411 9.42289 23.51C9.25899 22.8788 7.04847 19.0889 6.55678 19.7489C6.06508 20.4089 8.25005 23.2853 8.25005 23.2853C8.25005 23.2853 8.66512 24.3304 8.98441 24.6834C9.30369 25.0364 11.7515 28.6092 11.7515 28.6092L11.8686 28.8531C11.3514 29.127 10.8788 29.4757 10.7117 30.0191C10.5034 30.7002 10.8603 31.3844 11.1995 32.0348L11.1995 32.0348C11.2588 32.1485 11.3176 32.2611 11.3727 32.3725C12.0942 33.8337 12.1975 35.6971 11.2662 37.0321C10.4318 38.2109 8.98441 38.7714 7.62957 39.2613C8.28388 39.7778 9.09674 40.049 9.92842 40.0283C9.61553 40.9397 8.50654 41.2414 7.56146 41.4104C8.05741 41.8896 8.76729 42.064 9.44843 42.1699C9.78203 42.2269 10.1201 42.2538 10.4584 42.2501H10.5415L10.6245 42.2437C10.7398 42.236 10.8546 42.2213 10.9682 42.1998C11.4599 42.0993 11.9378 41.8297 12.189 41.3933C12.2537 41.2797 12.3057 41.1536 12.3575 41.0277C12.476 40.7399 12.5938 40.4538 12.8627 40.3236C12.9633 40.2779 13.0716 40.2521 13.1819 40.2476H13.3895L14.9997 40.2637H15.2051C15.6596 40.253 16.1449 40.1738 16.3758 39.7962C16.4709 39.6128 16.5208 39.4093 16.5217 39.2025C16.5417 38.9017 16.5382 38.5956 16.5347 38.2897V38.2896V38.2896V38.2896C16.5322 38.0745 16.5298 37.8594 16.5355 37.6461C16.6728 38.5864 16.8165 40.0519 16.4748 40.5931C16.1973 41.0033 15.8609 41.3699 15.4765 41.681C15.3799 41.7626 15.2914 41.8536 15.2126 41.9527C15.1604 41.9902 15.1296 42.0105 15.1296 42.0105L15.0966 42.11C14.9753 42.2949 14.8874 42.4998 14.8369 42.7154C14.8183 42.7708 14.8114 42.8294 14.8167 42.8876C14.8321 42.919 14.7894 42.9908 14.7402 43.0737C14.6702 43.1914 14.5871 43.3313 14.6389 43.4086C13.8812 44.3018 13.7375 45.655 13.7375 45.655L12.3539 47.7666C11.643 49.6439 10.5787 49.8364 10.5787 49.8364C10.5787 49.8364 8.0787 48.1506 8.01059 48.0682C7.94247 47.9858 6.98675 47.574 6.98675 47.574C6.87406 47.3754 6.70203 47.2174 6.49505 47.1226C6.16725 46.9857 6.13958 46.4808 6.13958 46.4808C6.09913 45.2881 5.40203 45.1971 5.40203 45.1971C4.84009 45.149 4.41118 45.2495 4.08125 45.4335L3.98121 45.441C3.49803 45.4806 2.91693 45.5245 2.27836 45.5672C0.50207 45.6849 0.0795498 46.8413 0.0795498 46.8413C0.0795498 46.8413 -0.138628 47.0884 0.147664 47.3558C0.406111 47.5972 1.92478 47.4027 2.27491 47.3579L2.27536 47.3579L2.27676 47.3577C2.30419 47.3542 2.32425 47.3516 2.33573 47.3503C2.19887 47.3642 2.06062 47.3541 1.92714 47.3205C2.21557 47.3098 2.61254 47.2991 2.95099 47.2991H3.03293C3.01163 47.4794 3.00132 47.6609 3.00207 47.8425C3.00207 48.1848 3.94396 48.4041 3.94396 48.4041L6.8122 50.9714C6.8122 50.9714 8.6151 51.7811 9.7624 52.9461C10.9097 54.111 11.924 53.1054 11.924 53.1054C13.1383 52.8038 16.6323 48.5581 16.6355 48.5539C16.6355 48.6779 16.709 52.807 16.8484 53.636C16.8539 53.6781 16.8643 53.7194 16.8793 53.759C17.0432 54.1152 16.8239 55.0887 16.7292 55.4994C16.6688 55.8432 16.6456 56.1925 16.66 56.5413C16.66 56.5413 15.3499 61.5689 15.4584 62.0107C15.567 62.4525 14.7486 64.5053 14.7486 64.5053V66.2168L14.8912 66.2093C14.8726 66.2369 14.8556 66.2655 14.8401 66.2949L14.8305 66.3131C14.8305 66.3131 15.7043 66.5045 16.2918 66.45C16.8793 66.3954 17.8882 66.9046 17.8882 66.9046C17.8882 66.9046 18.2298 67.0672 19.2813 67.1357C20.3329 67.2041 20.3329 66.6693 20.3329 66.6693C20.2126 65.9408 18.5512 65.6969 18.5002 65.6894C18.3661 65.6049 18.2405 65.5129 18.1372 65.4338L18.116 65.4167C18.1229 65.4006 18.129 65.3842 18.134 65.3675C18.3118 64.6401 17.3284 64.3245 17.3284 64.3245V64.1469C17.967 63.8175 18.0936 61.5561 18.0936 61.5561C18.0936 61.5561 19.0515 58.7599 19.1856 58.2935C19.3197 57.8271 19.1856 57.1286 19.1856 57.1286L19.2813 56.5253C19.2813 56.5253 19.4867 56.1145 19.4867 56.0322C19.5133 55.8234 19.5933 55.6251 19.7188 55.4566C19.8688 55.278 19.5549 54.8533 19.5549 54.8533L19.8284 54.1409V53.359L20.467 50.5221C20.467 50.5221 21.1364 47.2178 20.9044 46.1363C20.6724 45.0549 21.1779 44.505 21.1779 44.505C21.1323 44.5291 21.0854 44.5505 21.0374 44.5692C21.1013 44.4207 21.1564 44.2686 21.2024 44.1135L22.6392 44.2922V44.3135H23.1575C23.1575 44.3135 22.9936 42.2811 22.9936 41.4617C22.9936 40.6423 23.5459 37.7017 23.5459 37.7017C23.5459 37.7017 23.7918 34.8274 23.5459 34.7451ZM17.1587 32.5606L17.1587 32.5606L17.1546 32.6217L17.1259 32.6656L17.0727 32.6206L17.0077 32.7222L16.9886 32.7319C16.9236 32.6982 16.8732 32.5911 16.8278 32.4946C16.775 32.3824 16.729 32.2846 16.6746 32.3329L16.6608 32.3446C16.6384 32.319 16.6161 32.3115 16.5927 32.3329L16.5714 32.3511V32.2559C16.7661 32.3062 16.9663 32.3317 17.1674 32.3318C17.1676 32.3342 17.1677 32.3366 17.1678 32.3391C17.1678 32.3415 17.1679 32.3439 17.1679 32.3464L17.1676 32.3595L17.1674 32.3725C17.1674 32.4335 17.1631 32.4963 17.1587 32.5606ZM22.1147 41.8374H22.0298C22.0094 41.9377 21.9918 42.0334 21.9742 42.1314L22.1147 41.8374ZM16.7681 66.2418L16.5041 66.1065L16.6475 66.0566L16.781 66.2359L16.7967 66.2594L16.7681 66.2418ZM18.5065 65.6929C18.6025 65.7973 18.7017 65.8989 18.7992 65.9869C18.6829 65.856 18.5726 65.7541 18.5243 65.7094C18.5168 65.7025 18.5108 65.6969 18.5065 65.6929Z" fill="url(#paint1_linear)"/>
<path fill-rule="evenodd" clip-rule="evenodd" d="M22.653 39.8167L21.3642 43.1926H21.6771L20.4648 44.1639L22.653 44.4378V39.8167Z" fill="#F86D70"/>
<path opacity="0.1" fill-rule="evenodd" clip-rule="evenodd" d="M22.653 39.8167L21.3642 43.1926L21.0396 43.1049L20.4648 44.1639L22.653 44.4378V39.8167Z" fill="black"/>
<path fill-rule="evenodd" clip-rule="evenodd" d="M20.6318 41.9763H22.6529L23.3947 35.8416H20.6318V41.9763Z" fill="#F86D70"/>
<path opacity="0.1" fill-rule="evenodd" clip-rule="evenodd" d="M20.6318 41.9763H22.6529L23.3947 35.8416H20.6318V41.9763Z" fill="black"/>
<path fill-rule="evenodd" clip-rule="evenodd" d="M16.6843 37.2942L17.1206 37.2204L18.1232 37.0492C18.1232 37.0492 21.134 36.3668 21.7556 36.3112C22.1321 36.2612 22.4993 36.1559 22.8454 35.9988C23.0082 35.9282 23.1115 35.8747 23.1115 35.8747L22.027 33.884L20.3443 32.6303C20.3443 32.6303 19.2801 32.4025 18.8299 31.7799C18.6257 31.5077 18.5732 31.1499 18.6905 30.83C18.965 29.9742 17.0504 31.6483 17.0504 31.6483C17.0504 31.6483 17.0685 32.0495 17.0504 32.5608C17.0504 32.6613 17.0408 32.7662 17.0334 32.8731C17.0334 32.9437 17.0238 33.0143 17.0163 33.0871C16.9695 33.5952 16.8737 34.1183 16.6843 34.4306C16.2213 35.1944 16.6843 37.2942 16.6843 37.2942Z" fill="#FBBEBE"/>
<path opacity="0.1" fill-rule="evenodd" clip-rule="evenodd" d="M17.0508 32.6036H17.0934C17.17 32.6036 17.2317 32.4399 17.3062 32.4325C17.9054 32.3747 18.4524 32.2485 18.8324 31.8217C18.6288 31.5496 18.5763 31.1924 18.6929 30.8728C18.9675 30.0171 17.0529 31.6901 17.0529 31.6901C17.0529 31.6901 17.0731 32.0923 17.0508 32.6036Z" fill="black"/>
<path fill-rule="evenodd" clip-rule="evenodd" d="M14.7197 30.1776C14.7194 30.7995 14.9651 31.3961 15.4027 31.8359C15.8403 32.2757 16.4338 32.5226 17.0526 32.5223C17.1293 32.5223 17.2048 32.5223 17.2804 32.5116C18.5332 32.3881 19.4625 31.288 19.3806 30.0255C19.2987 28.763 18.2351 27.7935 16.9769 27.8345C15.7188 27.8756 14.72 28.9124 14.7197 30.1776Z" fill="#FBBEBE"/>
<path fill-rule="evenodd" clip-rule="evenodd" d="M14.0037 26.6184C13.927 26.8174 13.9504 27.0399 13.9196 27.2506C13.8057 28.0112 13.0362 28.4668 12.3402 28.7856C11.6441 29.1044 10.8587 29.482 10.6373 30.2169C10.3947 31.0117 10.9247 31.8086 11.2929 32.5542C12.0103 34.0068 12.1124 35.8596 11.1865 37.1881C10.3638 38.3648 8.93023 38.9232 7.58072 39.4131C8.23022 39.9267 9.03745 40.1968 9.8636 40.1769C9.5539 41.0829 8.45237 41.3835 7.51367 41.5504C8.00643 42.0275 8.71205 42.2008 9.38787 42.3056C9.88063 42.3826 10.3862 42.4329 10.8779 42.3334C11.3696 42.2339 11.8357 41.9654 12.089 41.5311C12.3019 41.16 12.3742 40.654 12.7584 40.4668C12.9319 40.3982 13.1187 40.3707 13.3044 40.3866L14.9008 40.4037C15.3979 40.4037 15.9864 40.3652 16.2429 39.9384C16.3375 39.756 16.3872 39.5535 16.3876 39.3479C16.4568 38.2953 16.2557 37.1828 16.6867 36.2222C16.8166 35.9323 15.9832 35.4734 16.0705 35.1664C16.3706 34.1106 16.4462 33.2794 16.443 32.1809C16.443 31.3304 16.9932 30.5977 17.4477 29.8799C17.9021 29.1622 18.2821 28.2561 17.9234 27.4859C17.519 26.627 14.4815 25.3786 14.0037 26.6184Z" fill="#3F3D56"/>
<path fill-rule="evenodd" clip-rule="evenodd" d="M16.1289 65.7868L16.5355 66.0575L16.5983 66.0992L16.61 66.1067L17.0921 66.4276L18.2181 66.618L19.2079 66.5495C19.2079 66.5495 19.4931 65.9505 19.045 65.9644C18.9015 65.957 18.7617 65.9164 18.6364 65.8456L18.5746 65.8146C18.5097 65.7804 18.4448 65.7419 18.3809 65.7012C18.2479 65.6167 18.1223 65.5247 18.0212 65.4467C17.8722 65.3311 17.7732 65.2434 17.7732 65.2434L16.1289 65.7868Z" fill="#FBBEBE"/>
<path opacity="0.1" fill-rule="evenodd" clip-rule="evenodd" d="M16.541 66.0575L16.6038 66.0992L16.6155 66.1067L17.0976 66.4276L18.2237 66.618L19.2134 66.5496C19.2134 66.5496 19.4987 65.9505 19.0506 65.9644C18.9071 65.957 18.7672 65.9164 18.6419 65.8457C18.7207 65.9077 18.7867 65.9751 18.793 66.0318C18.8111 66.1848 18.0608 66.4597 18.0608 66.4597L17.0029 66.1784C17.0029 66.1784 16.8231 66.127 16.5772 66.0629L16.5538 66.0564L16.541 66.0575Z" fill="black"/>
<path fill-rule="evenodd" clip-rule="evenodd" d="M14.7314 66.3184C14.7314 66.3184 15.5988 66.5088 16.1821 66.4542C16.7653 66.3997 17.77 66.9046 17.77 66.9046C17.77 66.9046 18.1095 67.065 19.1535 67.1335C20.1976 67.2019 20.1976 66.6692 20.1976 66.6692C20.0784 65.945 18.4288 65.7065 18.3777 65.6958C18.3979 65.7065 18.4841 65.7504 18.5714 65.8092C18.6885 65.8862 18.8151 65.9868 18.8247 66.0681C18.8428 66.22 18.0925 66.4959 18.0925 66.4959L17.0346 66.2157C17.0346 66.2157 16.8547 66.1633 16.6088 66.0991H16.5854C16.2209 65.9993 15.8505 65.9225 15.4764 65.8691C15.0209 65.8199 14.7879 66.2093 14.74 66.297C14.7365 66.3038 14.7336 66.311 14.7314 66.3184H14.7314Z" fill="#3F3D56"/>
<path fill-rule="evenodd" clip-rule="evenodd" d="M1.05957 47.082L1.52041 47.4372C1.52041 47.4372 1.65451 47.4308 1.85459 47.4244H1.91845C2.20474 47.4137 2.59959 47.403 2.93484 47.403C3.15156 47.3932 3.36871 47.4053 3.58299 47.4393C3.81288 47.5206 4.22156 46.1172 4.22156 46.1172L3.75966 46.0102L3.60641 45.9738L3.49998 45.9482L3.12428 45.8594L1.9855 45.9899L1.18516 46.5076L1.05957 47.082Z" fill="#FBBEBE"/>
<path opacity="0.1" fill-rule="evenodd" clip-rule="evenodd" d="M1.05957 47.0821L1.52041 47.4372C1.52041 47.4372 1.65451 47.4308 1.85459 47.4244C1.76278 47.3888 1.68708 47.3207 1.64174 47.2329C1.34374 46.4017 2.82203 46.0466 2.82203 46.0466L3.51063 46.0166L3.64473 46.0102H3.75116L3.5979 45.9738L3.49147 45.9482L3.11578 45.8594L1.97699 45.9899L1.17664 46.5076L1.05957 47.0821Z" fill="black"/>
<path fill-rule="evenodd" clip-rule="evenodd" d="M0.15139 47.4575C0.43023 47.7163 2.25653 47.4575 2.33316 47.4511C2.19455 47.4668 2.05427 47.457 1.91915 47.4222C1.78368 47.3978 1.66637 47.3133 1.59987 47.1922C1.30187 46.36 2.78015 46.0059 2.78015 46.0059L3.46874 45.9759L3.60177 45.9695L5.27588 45.8968L5.35677 45.4336C5.35677 45.4336 4.81292 45.4849 3.95937 45.5534C3.47938 45.593 2.89509 45.6368 2.26398 45.6786C0.500473 45.7962 0.0811477 46.9462 0.0811477 46.9462C0.0811477 46.9462 -0.132772 47.1922 0.15139 47.4575Z" fill="#3F3D56"/>
<path fill-rule="evenodd" clip-rule="evenodd" d="M20.6323 27.379C20.6436 27.4044 20.6572 27.4287 20.6727 27.4517L21.0793 28.0508L22.1372 28.1577L22.1489 27.7363L22.3266 21.3951C22.3266 21.3951 23.0588 17.1419 21.6753 17.3869C20.2917 17.6319 21.1602 21.3951 21.1602 21.3951C21.1602 21.3951 21.0027 23.3034 20.892 23.8768C20.7845 24.4309 20.3024 26.6837 20.6323 27.379Z" fill="#FBBEBE"/>
<path fill-rule="evenodd" clip-rule="evenodd" d="M18.2588 43.1293L18.56 43.647L19.2337 44.8055C19.2337 44.8055 20.4555 45.2559 20.7684 44.9125C20.9397 44.7253 21.1249 44.0717 21.2547 43.5219C21.3612 43.0769 21.4325 42.7014 21.4325 42.7014L18.2588 43.1293Z" fill="#FBBEBE"/>
<path opacity="0.1" fill-rule="evenodd" clip-rule="evenodd" d="M18.2588 43.1293L18.56 43.6471C18.5789 43.6307 18.596 43.6124 18.6111 43.5925C18.9516 43.1561 20.4512 43.4994 21.2547 43.5273C21.3612 43.0823 21.4325 42.7068 21.4325 42.7068L18.2588 43.1293Z" fill="black"/>
<path opacity="0.1" fill-rule="evenodd" clip-rule="evenodd" d="M2.93555 47.4008C3.15226 47.391 3.36941 47.4032 3.58369 47.4372C3.81358 47.5185 4.22226 46.115 4.22226 46.115L3.60711 45.9695L5.28122 45.8968L5.3621 45.4336C5.3621 45.4336 4.81825 45.4849 3.9647 45.5534C3.78833 45.6555 3.63096 45.7876 3.49961 45.9438L3.47407 45.9759C3.11754 46.4156 2.98557 46.9825 2.93555 47.4008Z" fill="black"/>
<path opacity="0.1" fill-rule="evenodd" clip-rule="evenodd" d="M16.1289 65.7867L16.5983 66.0991C17.2986 65.9718 17.9382 65.7717 18.0138 65.4572C18.0141 65.4522 18.0141 65.4472 18.0138 65.4423C17.8648 65.3267 17.7658 65.239 17.7658 65.239L16.1289 65.7867Z" fill="black"/>
<path opacity="0.1" fill-rule="evenodd" clip-rule="evenodd" d="M14.7412 66.3004C15.3596 66.2695 15.9758 66.203 16.5867 66.1014C16.2219 66.0008 15.8511 65.9233 15.4766 65.8693C15.0222 65.8201 14.7891 66.2094 14.7412 66.3004Z" fill="black"/>
<path fill-rule="evenodd" clip-rule="evenodd" d="M2.98633 47.9411C2.98633 48.2823 3.92183 48.5006 3.92183 48.5006L6.77092 51.0497C6.77092 51.0497 8.56104 51.8541 9.69982 53.0126C10.8386 54.1711 11.8433 53.1762 11.8433 53.1762C13.0502 52.8767 16.5261 48.6503 16.5261 48.6503C16.5261 48.6503 16.607 53.4768 16.7698 53.8309C16.9327 54.185 16.7156 55.153 16.6208 55.5627C16.5611 55.9044 16.5382 56.2516 16.5527 56.5982C16.5527 56.5982 15.2511 61.6012 15.3597 62.0377C15.4682 62.4741 14.6541 64.5194 14.6541 64.5194V66.2234C14.6541 66.2234 17.8416 66.1004 18.0172 65.3783C18.1928 64.6563 17.2179 64.3418 17.2179 64.3418V64.1642C17.8565 63.8369 17.9767 61.5884 17.9767 61.5884C17.9767 61.5884 18.9271 58.8071 19.0623 58.344C19.1975 57.8808 19.0623 57.1844 19.0623 57.1844L19.157 56.5854C19.157 56.5854 19.3603 56.1757 19.3603 56.0944C19.3869 55.8868 19.4664 55.6896 19.5913 55.5221C19.7403 55.3445 19.4284 54.922 19.4284 54.922L19.6998 54.2128V53.4362L20.3384 50.6143C20.3384 50.6143 21.0036 47.3282 20.7726 46.251C20.5417 45.1738 21.044 44.6293 21.044 44.6293C19.9552 45.2027 19.4061 43.9265 19.2262 43.3777C19.1804 43.2365 19.1581 43.1424 19.1581 43.1424C19.1581 43.1424 17.6628 42.5883 16.2707 42.721C15.988 42.744 15.7094 42.8033 15.4416 42.8975C13.8952 43.4569 13.6515 45.7739 13.6515 45.7739L12.2818 47.8737C11.5761 49.7414 10.5183 49.9318 10.5183 49.9318C10.5183 49.9318 8.03635 48.2556 7.96398 48.1732C7.89161 48.0909 6.94652 47.6822 6.94652 47.6822C6.83478 47.4845 6.66383 47.3273 6.45802 47.233C6.13235 47.096 6.10574 46.5911 6.10574 46.5911C6.0653 45.4048 5.37351 45.3075 5.37351 45.3075C2.97249 45.1064 2.98633 47.6009 2.98633 47.9411Z" fill="#3F3D56"/>
<rect x="18.2588" y="41.2756" width="1.46445" height="4.56657" transform="rotate(-180 18.2588 41.2756)" fill="#F86D70"/>
<rect opacity="0.1" x="18.2588" y="41.2756" width="1.46445" height="4.56657" transform="rotate(-180 18.2588 41.2756)" fill="black"/>
<path opacity="0.1" fill-rule="evenodd" clip-rule="evenodd" d="M20.631 27.3696C20.6308 27.3728 20.6308 27.3761 20.631 27.3793C20.6424 27.4046 20.6559 27.429 20.6715 27.452L21.078 28.051L22.1359 28.158L22.1477 27.7365C21.8177 27.7109 21.0663 27.6199 20.631 27.3696Z" fill="black"/>
<path fill-rule="evenodd" clip-rule="evenodd" d="M20.6726 27.4519C20.6726 27.4519 20.7269 29.8502 20.1299 30.1775C19.5328 30.5048 19.3008 32.2099 19.3008 32.2099C19.3008 32.2099 21.1101 33.4059 21.5134 33.9322C21.9168 34.4585 22.8427 35.7122 22.6522 36.0117C22.4617 36.3112 23.1141 37.6751 23.1141 37.6751C23.1141 37.6751 21.92 40.129 22.1914 41.0564C22.4628 41.9838 22.4894 44.4367 22.4894 44.4367H23.0055C23.0055 44.4367 22.8427 42.4192 22.8427 41.6009C22.8427 40.7825 23.3844 37.8655 23.3844 37.8655C23.3844 37.8655 23.6292 35.0029 23.3844 34.9216C23.1396 34.8403 21.7029 33.6947 21.5943 33.1759C21.4857 32.6571 22.3542 27.8274 22.3542 27.8274C22.3542 27.8274 21.242 27.7792 20.6726 27.4519Z" fill="#F86D70"/>
<path opacity="0.1" fill-rule="evenodd" clip-rule="evenodd" d="M16.7656 36.2855C16.8151 36.6192 16.9361 36.9382 17.12 37.2204L18.1226 37.0492C18.1226 37.0492 21.1334 36.3668 21.755 36.3111C22.1315 36.2612 22.4987 36.1559 22.8448 35.9988C22.6063 35.1492 22.1406 34.3815 21.4985 33.7792L21.1164 33.4229C20.5534 32.8976 19.9009 32.4783 19.1901 32.1853C19.2348 32.2227 22.3936 34.9334 21.7018 35.465C21.01 35.9967 19.1475 34.7023 19.1475 34.7023L17.0296 32.8731L16.9529 32.8068L16.8305 32.9983C16.8928 33.024 16.9536 33.0533 17.0125 33.086C17.7344 33.4842 18.27 34.1534 18.5025 34.9473C18.9378 36.4181 16.7656 36.2855 16.7656 36.2855Z" fill="black"/>
<path fill-rule="evenodd" clip-rule="evenodd" d="M16.1152 43.1017C16.1152 43.1017 18.1225 44.2195 18.6099 43.5927C18.7164 43.4547 18.9409 43.3948 19.2208 43.3787C19.1751 43.2375 19.1527 43.1434 19.1527 43.1434C19.1527 43.1434 17.6574 42.5893 16.2653 42.7219C16.1738 42.953 16.1152 43.1017 16.1152 43.1017Z" fill="#444053"/>
<path fill-rule="evenodd" clip-rule="evenodd" d="M17.039 32.8089L19.2336 34.7066C19.2336 34.7066 21.0886 36.0052 21.7879 35.4693C22.4871 34.9333 19.2751 32.1885 19.2751 32.1885C19.9844 32.4824 20.6362 32.9003 21.2004 33.4229L21.5825 33.7791C22.5871 34.7151 22.8138 34.7151 22.8479 36.0908C22.8564 36.4299 22.7415 36.9166 22.6531 37.0043C22.3275 37.3252 22.0997 39.6561 22.1497 39.9289C22.1997 40.2016 21.5431 42.5561 21.7559 43.2107C21.9688 43.8654 19.0952 42.8834 18.6089 43.5113C18.1225 44.1392 16.1152 43.0203 16.1152 43.0203C16.1152 43.0203 17.2274 40.1567 17.4988 39.9663C17.7702 39.7759 18.0959 38.3029 17.4988 37.6215C16.9017 36.9401 16.8485 36.2854 16.8485 36.2854C16.8485 36.2854 19.0197 36.4202 18.5844 34.9494C18.3366 34.0867 17.7274 33.3752 16.9156 33.0004L17.039 32.8089Z" fill="#E8E8F0"/>
<path opacity="0.1" fill-rule="evenodd" clip-rule="evenodd" d="M19.9675 37.6355C19.9675 37.6355 19.1256 39.2304 18.0368 39.6444C18.0017 39.6572 17.9676 39.669 17.9304 39.6797C16.7937 40.0274 20.0526 38.1297 19.9675 37.6355Z" fill="black"/>
<path fill-rule="evenodd" clip-rule="evenodd" d="M8.19543 23.5249C8.19543 23.5249 8.60198 24.5615 8.92765 24.9155C9.25332 25.2696 11.6671 28.8146 11.6671 28.8146L11.8715 29.2425L12.0471 29.6072L13.5935 29.4436L13.6999 28.8167L13.6403 28.744C13.4849 28.5568 13.0613 28.054 12.7772 27.8347C12.4249 27.563 11.7193 26.6634 11.7193 26.6634C11.7193 26.6634 9.52259 24.3721 9.35975 23.7453C9.19692 23.1184 6.99918 19.3595 6.51174 20.0099C6.0243 20.6603 8.19543 23.5249 8.19543 23.5249Z" fill="#FBBEBE"/>
<g opacity="0.1">
<path fill-rule="evenodd" clip-rule="evenodd" d="M12.6812 40.3866C12.4956 40.3705 12.3088 40.3976 12.1353 40.4658C11.7521 40.653 11.6798 41.1589 11.4669 41.5301C11.2179 41.9644 10.7432 42.2329 10.2547 42.3324C10.1576 42.3513 10.0595 42.3649 9.96094 42.3731C10.2721 42.4035 10.5859 42.3898 10.8933 42.3324C11.3818 42.2329 11.8564 41.9644 12.1055 41.5301C12.3183 41.1589 12.3907 40.653 12.7738 40.4658C12.8744 40.4203 12.9829 40.3948 13.0931 40.3909L12.6812 40.3866Z" fill="black"/>
<path fill-rule="evenodd" clip-rule="evenodd" d="M16.4624 32.181C16.4624 31.3305 17.0127 30.5978 17.466 29.88C17.9194 29.1622 18.3004 28.2562 17.9418 27.486C17.6353 26.8282 15.7877 25.9456 14.7212 26.12C15.7653 26.2559 17.052 26.9469 17.3032 27.486C17.6619 28.2562 17.2809 29.1622 16.8275 29.88C16.3741 30.5978 15.8217 31.3305 15.8238 32.181C15.8238 33.2785 15.7504 34.1064 15.4503 35.1665C15.3641 35.4714 16.1953 35.9324 16.0676 36.2212C15.6355 37.184 15.8377 38.2943 15.7685 39.3469C15.7671 39.5526 15.7171 39.7549 15.6227 39.9374C15.4098 40.2893 14.9735 40.3802 14.5488 40.3995H14.9203C15.4162 40.3995 16.0048 40.361 16.2613 39.9342C16.3557 39.7517 16.4056 39.5493 16.4071 39.3437C16.4763 38.2911 16.274 37.1797 16.7061 36.218C16.836 35.9292 16.0026 35.4692 16.0889 35.1633C16.389 34.1107 16.4645 33.2785 16.4624 32.181Z" fill="black"/>
</g>
<path opacity="0.1" fill-rule="evenodd" clip-rule="evenodd" d="M11.8701 29.2404L12.0457 29.6052L13.5921 29.4415L13.6986 28.8147L13.639 28.7419C13.474 28.8232 12.2384 29.4212 11.8701 29.2404Z" fill="black"/>
<path opacity="0.1" fill-rule="evenodd" clip-rule="evenodd" d="M17.5805 33.3406C17.5805 33.3406 17.2006 32.7416 16.9835 32.9042C16.7664 33.0668 16.6823 32.4132 16.5578 32.5223C16.4332 32.6314 16.0703 32.9352 15.9192 32.5105C15.801 32.1725 14.5154 30.0342 13.9939 29.1741C13.8598 28.9516 13.7757 28.8147 13.7757 28.8147C13.7757 28.8147 12.3113 29.5507 11.959 29.3057V29.8234L12.257 29.8512L13.8534 32.8464C13.8534 32.8464 14.3558 33.6498 14.3217 33.93C14.2876 34.2103 14.9656 35.4372 15.0741 35.5185C15.1827 35.5998 16.3513 36.9637 16.3513 36.9637C16.3513 36.9637 16.9483 39.9086 16.4322 40.7269C15.916 41.5452 15.022 42.1443 15.022 42.1443C15.022 42.1443 14.7527 42.9348 14.7921 43.0171C14.8315 43.0995 14.4792 43.4536 14.642 43.5627C14.8049 43.6718 15.022 44.4345 15.022 44.4345C15.022 44.4345 15.7819 43.2076 16.1927 43.0171C16.6035 42.8267 17.1293 40.3172 17.1293 40.3172C17.1293 40.3172 17.2793 38.8389 17.291 37.8847C17.3028 36.9305 17.2549 33.3406 17.5805 33.3406Z" fill="black"/>
<path fill-rule="evenodd" clip-rule="evenodd" d="M17.4994 33.3406C17.4994 33.3406 17.1206 32.7416 16.9035 32.9042C16.6863 33.0668 16.6012 32.4132 16.4777 32.5223C16.3543 32.6314 15.9914 32.9352 15.8392 32.5105C15.72 32.1725 14.4343 30.0342 13.9139 29.1741L13.6957 28.8147C13.6957 28.8147 12.2313 29.5507 11.8779 29.3057V29.8234L12.177 29.8512L13.7734 32.8464C13.7734 32.8464 14.2768 33.6498 14.2417 33.93C14.2066 34.2103 14.8803 35.4372 14.9941 35.5185C15.108 35.5998 16.2713 36.9637 16.2713 36.9637C16.2713 36.9637 16.8683 39.9086 16.3532 40.7269C16.0811 41.1379 15.7501 41.5063 15.3709 41.8202C15.0524 42.0843 14.8282 42.4455 14.7323 42.8492C14.7138 42.9042 14.7073 42.9626 14.7132 43.0204C14.7525 43.1017 14.4003 43.4568 14.5631 43.5659C14.7259 43.675 14.9452 44.4409 14.9452 44.4409C14.9452 44.4409 15.7051 43.214 16.1159 43.0236C16.5267 42.8332 17.0535 40.3236 17.0535 40.3236C17.0535 40.3236 17.2025 38.8453 17.2153 37.8911C17.2281 36.937 17.1802 33.3406 17.4994 33.3406Z" fill="#F86D70"/>
<path opacity="0.1" fill-rule="evenodd" clip-rule="evenodd" d="M13.782 45.7471C13.782 45.7471 14.9218 45.961 15.3784 46.2915C15.835 46.6221 13.6426 45.7738 13.6426 45.7738L13.782 45.7471Z" fill="black"/>
<path opacity="0.1" fill-rule="evenodd" clip-rule="evenodd" d="M16.5225 48.6501C16.5225 48.6501 17.7112 49.646 17.4984 50.5457C17.2855 51.4453 16.7364 53.7088 16.7364 53.7088L16.5225 48.6501Z" fill="black"/>
<path opacity="0.1" fill-rule="evenodd" clip-rule="evenodd" d="M6.1254 46.7354C6.1254 46.7354 4.45021 46.9193 4.55877 47.1376C4.66733 47.3558 6.1254 46.9365 6.1254 46.9365V46.7354Z" fill="black"/>
<path opacity="0.1" fill-rule="evenodd" clip-rule="evenodd" d="M18.9884 55.0171C18.9884 55.0171 19.0949 55.1529 18.4733 55.0171C17.8518 54.8812 18.3105 54.4619 18.3105 54.4619L18.9884 55.0171Z" fill="black"/>
<path opacity="0.1" fill-rule="evenodd" clip-rule="evenodd" d="M18.776 56.9851C18.776 56.9851 17.9246 57.3159 17.468 56.9851C17.0115 56.6544 18.776 56.9851 18.776 56.9851Z" fill="black"/>
<path opacity="0.1" fill-rule="evenodd" clip-rule="evenodd" d="M17.0238 64.2604C17.0238 64.2604 16.8748 64.0968 16.1287 64.3963C15.3827 64.6958 15.0847 64.7097 14.8676 64.6102C14.6504 64.5108 17.0238 64.2604 17.0238 64.2604Z" fill="black"/>
<path opacity="0.1" fill-rule="evenodd" clip-rule="evenodd" d="M17.8518 46.5034L16.7939 47.9828C16.7939 47.9828 17.3633 46.6874 17.8518 46.5034Z" fill="black"/>
<path opacity="0.1" fill-rule="evenodd" clip-rule="evenodd" d="M15.7959 32.9041C15.7959 32.9041 15.7501 33.395 15.0679 33.5865C14.3857 33.778 14.2559 33.9331 14.2559 33.9331" fill="black"/>
<path opacity="0.1" fill-rule="evenodd" clip-rule="evenodd" d="M14.0228 29.3452C14.0228 29.3452 13.1224 29.987 12.1826 29.8512L14.0228 29.3452Z" fill="black"/>
<path opacity="0.1" fill-rule="evenodd" clip-rule="evenodd" d="M14.708 43.0878C14.708 43.0878 14.9709 43.2536 15.602 42.5283L14.708 43.0878Z" fill="black"/>
<path opacity="0.1" fill-rule="evenodd" clip-rule="evenodd" d="M21.263 35.3976C21.2886 35.265 21.1971 35.142 21.1109 35.0382L20.9342 34.8243C20.8997 34.7805 20.8608 34.7403 20.8182 34.7045C20.7118 34.6221 20.5755 34.5975 20.4648 34.5237" fill="black"/>
<path opacity="0.519596" fill-rule="evenodd" clip-rule="evenodd" d="M76.5093 0.0117275C76.5093 0.0117275 67.5491 -0.531682 68.6027 5.77957C68.6027 5.77957 68.3899 6.89527 69.3988 7.40124C69.3988 7.40124 69.4148 6.93378 70.3184 7.09317C70.6401 7.14676 70.9669 7.16256 71.2922 7.14023C71.7317 7.10973 72.1493 6.93626 72.4821 6.64603C72.4821 6.64603 75.0012 5.59986 75.9804 1.46225C75.9804 1.46225 76.7051 0.559416 76.6764 0.32729L75.1641 0.9766C75.1641 0.9766 75.6813 2.07305 75.2705 2.98443C75.2705 2.98443 75.2215 1.01618 74.931 1.05897C74.8724 1.06859 74.1455 1.43871 74.1455 1.43871C74.1455 1.43871 75.0342 3.34813 74.3637 4.73661C74.3637 4.73661 74.6181 2.38326 73.8678 1.5767L72.8035 2.20141C72.8035 2.20141 73.8422 4.17394 73.1377 5.78385C73.1377 5.78385 73.3186 3.31497 72.5789 2.35331L71.6147 3.10959C71.6147 3.10959 72.5906 5.05431 71.9957 6.3893C71.9957 6.3893 71.918 3.51501 71.4061 3.29786C71.4061 3.29786 70.5621 4.04665 70.4333 4.35259C70.4333 4.35259 71.1017 5.76459 70.6866 6.50911C70.6866 6.50911 70.4322 4.59434 70.2236 4.58364C70.2236 4.58364 69.3829 5.85231 69.2956 6.72305C69.2956 6.72305 69.3318 5.42978 70.0204 4.46384C70.0204 4.46384 69.2073 4.60397 68.7326 5.13347C68.7326 5.13347 68.8635 4.23706 70.2279 4.15897C70.2279 4.15897 70.9229 3.19624 71.1081 3.1374C71.1081 3.1374 69.7522 3.02401 68.9295 3.38985C68.9295 3.38985 69.6532 2.54372 71.3571 2.92881L72.3096 2.14686C72.3096 2.14686 70.5238 1.90189 69.766 2.17253C69.766 2.17253 70.6377 1.42374 72.5661 1.96929L73.6027 1.34672C73.6027 1.34672 72.0798 1.01725 71.173 1.13278C71.173 1.13278 72.1308 0.613971 73.9071 1.17663L74.6521 0.841818C74.6521 0.841818 73.5368 0.621459 73.21 0.586158C72.8833 0.550858 72.8663 0.461003 72.8663 0.461003C73.5729 0.342571 74.2984 0.423672 74.9618 0.695268C74.9618 0.695268 76.537 0.11121 76.5093 0.0117275Z" fill="#FFC107"/>
<path opacity="0.519596" fill-rule="evenodd" clip-rule="evenodd" d="M65.4588 1.61739C65.4588 1.61739 61.4146 1.37136 61.8882 4.22318C61.8882 4.22318 61.7935 4.72808 62.2468 4.957C62.2468 4.957 62.2543 4.74306 62.663 4.81687C62.8081 4.84142 62.9557 4.8486 63.1025 4.83826C63.3011 4.82469 63.4899 4.74618 63.64 4.61469C63.64 4.61469 64.7788 4.14296 65.2215 2.27312C65.2215 2.27312 65.5482 1.86449 65.5355 1.75966L64.8522 2.05276C64.8522 2.05276 65.0863 2.5491 64.9022 2.96093C64.9022 2.96093 64.8799 2.07094 64.749 2.09234C64.7223 2.09234 64.3935 2.26349 64.3935 2.26349C64.3935 2.26349 64.7958 3.12674 64.4925 3.75465C64.4925 3.75465 64.6074 2.69137 64.2679 2.3266L63.7868 2.609C63.7868 2.609 64.2573 3.50006 63.938 4.22746C63.938 4.22746 64.0199 3.11176 63.6857 2.67746L63.2505 3.02298C63.2505 3.02298 63.6911 3.90227 63.4229 4.50451C63.4229 4.50451 63.3877 3.2059 63.1557 3.10855C63.1557 3.10855 62.7747 3.44658 62.7162 3.58564C62.7162 3.58564 63.0184 4.22746 62.8311 4.55907C62.8311 4.55907 62.7162 3.69368 62.6183 3.69047C62.6183 3.69047 62.2394 4.26383 62.1989 4.6532C62.2179 4.28982 62.3309 3.9377 62.5267 3.63164C62.3075 3.67338 62.1051 3.7786 61.9446 3.93436C61.9446 3.93436 62.0042 3.53002 62.6204 3.49365C62.6204 3.49365 62.9397 3.05935 63.0184 3.0326C63.0184 3.0326 62.4054 2.98126 62.034 3.14706C62.034 3.14706 62.3607 2.76411 63.1313 2.93312L63.557 2.58012C63.557 2.58012 62.7502 2.47315 62.4075 2.59189C62.4075 2.59189 62.8013 2.25386 63.673 2.49989L64.1413 2.21856C64.1413 2.21856 63.4537 2.0688 63.0429 2.12336C63.0429 2.12336 63.4761 1.88802 64.2785 2.14261L64.6138 1.99178C64.6138 1.99178 64.1093 1.89123 63.9614 1.87626C63.8135 1.86128 63.806 1.81956 63.806 1.81956C64.1255 1.76614 64.4535 1.80318 64.7532 1.92653C64.7532 1.92653 65.4716 1.66232 65.4588 1.61739Z" fill="#FFC107"/>
<ellipse cx="81.4816" cy="66.9796" rx="4.27948" ry="0.727394" fill="#FFC107"/>
<path fill-rule="evenodd" clip-rule="evenodd" d="M83.2525 65.7899C83.4479 65.63 83.5901 65.4139 83.6601 65.1706C83.7133 64.9256 83.609 64.6357 83.3749 64.5405C83.1131 64.44 82.8331 64.6229 82.6214 64.8069C82.4096 64.9909 82.1658 65.2016 81.8891 65.162C82.1792 64.8972 82.31 64.499 82.234 64.1126C82.2218 64.0339 82.1887 63.96 82.1382 63.8987C81.9924 63.7425 81.7295 63.8088 81.5549 63.9319C81.0015 64.3234 80.8472 65.0797 80.844 65.7589C80.7887 65.514 80.8355 65.2583 80.8344 65.0101C80.8334 64.762 80.7642 64.4753 80.5524 64.3437C80.4218 64.2731 80.2749 64.2384 80.1267 64.2431C79.8787 64.2335 79.6009 64.2592 79.4317 64.4421C79.2188 64.6689 79.2752 65.0497 79.4583 65.2979C79.6414 65.546 79.9213 65.7054 80.1788 65.8777C80.3849 66.0011 80.5606 66.1697 80.6929 66.3708C80.7088 66.3989 80.7217 66.4287 80.7312 66.4596H82.2914C82.6404 66.281 82.9637 66.0557 83.2525 65.7899Z" fill="#FFC107"/>
<path fill-rule="evenodd" clip-rule="evenodd" d="M120.84 28.0209C120.928 28.0209 121 27.949 121 27.8604C121 27.7718 120.928 27.7 120.84 27.7C120.752 27.7 120.681 27.7718 120.681 27.8604C120.681 27.949 120.752 28.0209 120.84 28.0209Z" fill="#FFC107"/>
<defs>
<linearGradient id="paint0_linear" x1="83.7236" y1="52.1073" x2="83.7236" y2="9.07312" gradientUnits="userSpaceOnUse">
<stop stop-color="#808080" stop-opacity="0.25"/>
<stop offset="0.54" stop-color="#808080" stop-opacity="0.12"/>
<stop offset="1" stop-color="#808080" stop-opacity="0.1"/>
</linearGradient>
<linearGradient id="paint1_linear" x1="0.00398572" y1="67.1374" x2="23.6545" y2="67.1374" gradientUnits="userSpaceOnUse">
<stop stop-color="#808080" stop-opacity="0.25"/>
<stop offset="0.54" stop-color="#808080" stop-opacity="0.12"/>
<stop offset="1" stop-color="#808080" stop-opacity="0.1"/>
</linearGradient>
</defs>
</svg>
