<svg width="487" height="457" viewBox="0 0 487 457" fill="none" xmlns="http://www.w3.org/2000/svg">
<g opacity="0.09" clip-path="url(#clip0)">
<path d="M387.876 324.693C387.876 324.693 448.124 327.818 434.091 346.848C420.058 365.878 383.184 335.685 383.184 335.685L387.876 324.693Z" fill="#FFB8B8"/>
<path d="M276.858 143.435L289.121 146.511C289.121 146.511 296.275 168.044 301.385 187.526C306.494 207.008 316.714 265.455 316.714 265.455L395.942 321.167L386.492 342.377L280.946 300.639L257.441 208.034L276.858 143.435Z" fill="#575A89"/>
<path opacity="0.2" d="M288.384 181.656L283.813 277.694L293.351 306.246L265.412 285.689L288.384 181.656Z" fill="black"/>
<path d="M304.957 352.1C304.957 352.1 318.242 387.988 320.286 412.598C322.33 437.207 324.374 456.689 324.374 456.689H262.036L249.773 438.232V456.689H177.215C177.215 456.689 156.776 390.039 164.952 381.836C173.127 373.633 250.795 338.77 250.795 338.77L304.957 352.1Z" fill="#2F2E41"/>
<path d="M423.738 455.754H63.0195V457H423.738V455.754Z" fill="#3F3D56"/>
<path d="M226.773 104.47C248.22 104.47 265.607 87.0251 265.607 65.5057C265.607 43.9862 248.22 26.5413 226.773 26.5413C205.326 26.5413 187.939 43.9862 187.939 65.5057C187.939 87.0251 205.326 104.47 226.773 104.47Z" fill="#FFB8B8"/>
<path d="M197.14 81.9121L194.074 127.029L232.908 179.323L252.325 130.105C252.325 130.105 234.952 118.826 245.171 95.242L197.14 81.9121Z" fill="#FFB8B8"/>
<path d="M310.572 360.815C310.572 370.047 285.023 384.4 285.023 384.4V389.527L274.804 394.653L252.323 349.539L246.195 398.752C246.195 398.752 201.226 405.935 186.921 398.752C172.611 391.576 165.458 394.653 145.02 387.477C124.581 380.301 153.196 283.912 153.196 283.912L132.758 135.232L177.41 112.831L179.763 111.647L185.903 110.514L195.316 108.769L226.774 130.105L229.307 143.436L230.866 151.641L239.036 142.409L245.208 122.044L289.115 146.514L276.853 244.946C276.853 244.946 310.572 351.589 310.572 360.815Z" fill="#575A89"/>
<path d="M160.354 392.602C160.354 392.602 207.363 430.541 184.881 437.719C162.398 444.897 150.135 398.755 150.135 398.755L160.354 392.602Z" fill="#FFB8B8"/>
<path d="M142.977 137.283L132.758 135.232C132.758 135.232 117.429 143.435 116.407 159.841C115.385 176.247 102.1 291.09 102.1 291.09L145.021 406.958L179.767 393.628L146.043 284.938L171.591 190.603L142.977 137.283Z" fill="#575A89"/>
<path d="M231.274 168.574C233.331 168.574 234.999 166.901 234.999 164.836C234.999 162.772 233.331 161.099 231.274 161.099C229.217 161.099 227.549 162.772 227.549 164.836C227.549 166.901 229.217 168.574 231.274 168.574Z" fill="#2F2E41"/>
<path d="M231.274 192.869C233.331 192.869 234.999 191.196 234.999 189.132C234.999 187.067 233.331 185.394 231.274 185.394C229.217 185.394 227.549 187.067 227.549 189.132C227.549 191.196 229.217 192.869 231.274 192.869Z" fill="#2F2E41"/>
<path d="M252.385 352.968C254.443 352.968 256.11 351.294 256.11 349.23C256.11 347.166 254.443 345.492 252.385 345.492C250.328 345.492 248.66 347.166 248.66 349.23C248.66 351.294 250.328 352.968 252.385 352.968Z" fill="#2F2E41"/>
<path d="M193.994 25.5889L186.815 22.7053C186.815 22.7053 201.825 6.1247 222.708 7.56653L216.835 1.07843C216.835 1.07843 231.192 -4.68868 244.244 10.4501C251.105 18.4082 259.043 27.7625 263.992 38.3001H271.68L268.471 45.3889L279.702 52.4776L268.175 51.2043C268.862 55.0862 268.967 59.0493 268.488 62.9624C267.993 66.8767 266.002 70.4452 262.935 72.9146C262.935 72.9146 254.033 54.4247 254.033 51.5411V58.75C254.033 58.75 246.854 52.262 246.854 47.9366L242.939 52.9829H216.835L220.75 46.4949L205.74 48.6575L211.614 40.7276L188.375 73.4729C188.375 73.4729 175.068 36.4023 193.994 25.5889Z" fill="#2F2E41"/>
<path d="M424.912 301.224C459.201 301.224 486.998 273.334 486.998 238.929C486.998 204.524 459.201 176.634 424.912 176.634C390.623 176.634 362.826 204.524 362.826 238.929C362.826 273.334 390.623 301.224 424.912 301.224Z" fill="#3F3D56"/>
<path opacity="0.1" d="M424.909 292.503C454.398 292.503 478.303 268.517 478.303 238.929C478.303 209.341 454.398 185.356 424.909 185.356C395.421 185.356 371.516 209.341 371.516 238.929C371.516 268.517 395.421 292.503 424.909 292.503Z" fill="black"/>
<path d="M422.349 270.543V262.746C418.421 262.669 414.357 261.278 411.986 259.348L413.612 254.176C416.429 256.294 419.845 257.457 423.365 257.495C428.174 257.495 431.425 254.33 431.425 249.93C431.425 245.683 428.784 243.059 423.771 240.742C416.863 237.654 412.596 234.103 412.596 227.386C412.596 220.978 416.592 216.115 422.823 214.957V207.159H427.023V214.648C430.154 214.691 433.208 215.628 435.828 217.35L434.134 222.445C431.622 220.72 428.645 219.804 425.6 219.82C420.385 219.82 418.421 223.372 418.421 226.46C418.421 230.474 420.927 232.482 426.82 235.261C433.796 238.504 437.318 242.518 437.318 249.389C437.318 255.488 433.593 261.202 426.616 262.513V270.543H422.349Z" fill="#6C63FF"/>
<path opacity="0.2" d="M155.215 314.509L180.046 392.335L160.179 311.352L155.215 314.509Z" fill="black"/>
<path d="M28.6182 162.467H12.8567C12.1697 162.467 11.5111 162.193 11.0254 161.705C10.5396 161.218 10.2664 160.557 10.2656 159.868V137.134C10.2664 136.445 10.5396 135.784 11.0254 135.297C11.5111 134.809 12.1697 134.535 12.8567 134.534H28.6182C29.3052 134.535 29.9638 134.809 30.4496 135.297C30.9353 135.784 31.2085 136.445 31.2093 137.134V159.868C31.2085 160.557 30.9353 161.218 30.4496 161.705C29.9638 162.193 29.3052 162.467 28.6182 162.467ZM12.8567 135.78C12.4989 135.781 12.156 135.924 11.903 136.177C11.6501 136.431 11.5078 136.775 11.5073 137.134V159.868C11.5078 160.227 11.6501 160.571 11.903 160.825C12.156 161.078 12.4989 161.221 12.8567 161.222H28.6182C28.976 161.221 29.3189 161.078 29.5719 160.825C29.8248 160.571 29.9671 160.227 29.9676 159.868V137.134C29.9671 136.775 29.8248 136.431 29.5719 136.177C29.3189 135.924 28.976 135.781 28.6182 135.78H12.8567Z" fill="#3F3D56"/>
<path d="M57.4109 162.468H43.1773C42.2878 162.466 41.435 162.111 40.8061 161.48C40.1771 160.849 39.8233 159.994 39.8223 159.101V113.19C39.8233 112.298 40.1771 111.442 40.8061 110.811C41.435 110.18 42.2878 109.825 43.1773 109.824H57.4109C58.3004 109.825 59.1532 110.18 59.7821 110.811C60.4111 111.442 60.7649 112.298 60.7659 113.19V159.101C60.7649 159.994 60.4111 160.849 59.7821 161.48C59.1532 162.111 58.3004 162.466 57.4109 162.468ZM43.1773 111.07C42.617 111.07 42.0798 111.294 41.6836 111.692C41.2874 112.089 41.0646 112.628 41.064 113.19V159.101C41.0646 159.663 41.2874 160.202 41.6836 160.6C42.0798 160.997 42.617 161.221 43.1773 161.222H57.4109C57.9712 161.221 58.5084 160.997 58.9046 160.6C59.3008 160.202 59.5236 159.663 59.5242 159.101V113.19C59.5236 112.628 59.3008 112.089 58.9046 111.692C58.5084 111.294 57.9712 111.07 57.4109 111.07L43.1773 111.07Z" fill="#3F3D56"/>
<path d="M86.4062 162.468H73.2718C72.2366 162.467 71.2441 162.053 70.5121 161.319C69.7801 160.584 69.3684 159.589 69.3672 158.55V91.0086C69.3684 89.9699 69.7801 88.9741 70.5121 88.2396C71.2441 87.5051 72.2366 87.092 73.2718 87.0908H86.4062C87.4414 87.092 88.4339 87.5051 89.1659 88.2396C89.8979 88.9741 90.3097 89.9699 90.3108 91.0086V158.55C90.3097 159.589 89.8979 160.584 89.1659 161.319C88.4339 162.053 87.4414 162.467 86.4062 162.468ZM73.2718 88.3367C72.5658 88.3375 71.8889 88.6193 71.3897 89.1202C70.8905 89.6211 70.6097 90.3002 70.6089 91.0086V158.55C70.6097 159.258 70.8905 159.937 71.3897 160.438C71.8889 160.939 72.5658 161.221 73.2718 161.222H86.4062C87.1122 161.221 87.7891 160.939 88.2883 160.438C88.7875 159.937 89.0683 159.258 89.0691 158.55V91.0086C89.0683 90.3002 88.7875 89.6211 88.2883 89.1202C87.7891 88.6193 87.1122 88.3375 86.4062 88.3367H73.2718Z" fill="#3F3D56"/>
<path d="M26.6454 138.863H14.8242V158.137H26.6454V138.863Z" fill="#6C63FF"/>
<path d="M56.202 114.4H44.3809V158.137H56.202V114.4Z" fill="#6C63FF"/>
<path d="M85.7567 91.6675H73.9355V158.138H85.7567V91.6675Z" fill="#6C63FF"/>
<path d="M448.875 90.8285H366.301C366.219 90.8285 366.138 90.8124 366.063 90.7811C365.988 90.7498 365.919 90.7039 365.861 90.646C365.804 90.5882 365.758 90.5195 365.727 90.4439C365.696 90.3683 365.68 90.2873 365.68 90.2055V6.10732C365.68 5.94211 365.745 5.78366 365.862 5.66683C365.978 5.55001 366.136 5.48438 366.301 5.48438C366.465 5.48438 366.623 5.55001 366.74 5.66683C366.856 5.78366 366.921 5.94211 366.921 6.10732V89.5826H448.875C449.039 89.5826 449.197 89.6482 449.314 89.765C449.43 89.8818 449.496 90.0403 449.496 90.2055C449.496 90.3707 449.43 90.5292 449.314 90.646C449.197 90.7628 449.039 90.8285 448.875 90.8285Z" fill="#3F3D56"/>
<path d="M98.7165 171.189H0.620858C0.53932 171.189 0.458579 171.173 0.383243 171.142C0.307907 171.11 0.239454 171.065 0.181797 171.007C0.124141 170.949 0.0784097 170.88 0.0472162 170.805C0.0160226 170.729 -2.11872e-05 170.648 2.09987e-08 170.566V72.7631C2.09987e-08 72.5979 0.0654112 72.4394 0.181845 72.3226C0.298278 72.2058 0.456197 72.1401 0.620858 72.1401C0.78552 72.1401 0.943439 72.2058 1.05987 72.3226C1.17631 72.4394 1.24172 72.5979 1.24172 72.7631V169.943H98.7165C98.8812 169.943 99.0391 170.009 99.1555 170.126C99.272 170.243 99.3374 170.401 99.3374 170.566C99.3374 170.731 99.272 170.89 99.1555 171.007C99.0391 171.123 98.8812 171.189 98.7165 171.189Z" fill="#3F3D56"/>
<path d="M394.806 83.0209H379.044C378.357 83.0202 377.699 82.7461 377.213 82.2587C376.727 81.7713 376.454 81.1104 376.453 80.4211V57.6877C376.454 56.9984 376.727 56.3375 377.213 55.8501C377.699 55.3627 378.357 55.0886 379.044 55.0879H394.806C395.493 55.0887 396.151 55.3629 396.637 55.8503C397.123 56.3377 397.396 56.9984 397.397 57.6877V80.4211C397.396 81.1103 397.123 81.7711 396.637 82.2585C396.151 82.7459 395.493 83.02 394.806 83.0209ZM379.044 56.3338C378.687 56.3342 378.344 56.477 378.091 56.7308C377.838 56.9846 377.695 57.3287 377.695 57.6877V80.4211C377.695 80.7801 377.838 81.1242 378.091 81.378C378.344 81.6318 378.687 81.7746 379.044 81.775H394.806C395.164 81.7746 395.507 81.6318 395.76 81.3779C396.012 81.1241 396.155 80.78 396.155 80.4211V57.6877C396.155 57.3288 396.012 56.9847 395.76 56.7308C395.507 56.477 395.164 56.3342 394.806 56.3338H379.044Z" fill="#3F3D56"/>
<path d="M427.077 83.021H412.57C411.717 83.02 410.898 82.6794 410.295 82.074C409.692 81.4686 409.352 80.6477 409.352 79.7916V38.6149C409.352 37.7587 409.692 36.9379 410.295 36.3326C410.899 35.7272 411.717 35.3867 412.57 35.3857H427.077C427.93 35.3867 428.748 35.7272 429.351 36.3326C429.955 36.9379 430.294 37.7587 430.295 38.6149V79.7916C430.294 80.6477 429.955 81.4686 429.351 82.074C428.748 82.6794 427.93 83.02 427.077 83.021ZM412.57 36.6316C412.046 36.6322 411.543 36.8413 411.173 37.2131C410.802 37.5849 410.594 38.089 410.593 38.6149V79.7916C410.594 80.3174 410.802 80.8216 411.173 81.1935C411.543 81.5654 412.046 81.7745 412.57 81.7751H427.077C427.601 81.7745 428.103 81.5654 428.474 81.1935C428.844 80.8216 429.053 80.3174 429.053 79.7916V38.6149C429.053 38.0891 428.844 37.5849 428.474 37.2131C428.103 36.8413 427.601 36.6322 427.077 36.6316H412.57Z" fill="#3F3D56"/>
<path d="M392.556 59.6331H380.734V78.9071H392.556V59.6331Z" fill="#6C63FF"/>
<path d="M425.731 40.5571H413.91V77.8492H425.731V40.5571Z" fill="#6C63FF"/>
<path d="M386.799 48.4675C389.885 48.4675 392.386 45.9573 392.386 42.8609C392.386 39.7645 389.885 37.2544 386.799 37.2544C383.713 37.2544 381.211 39.7645 381.211 42.8609C381.211 45.9573 383.713 48.4675 386.799 48.4675Z" fill="#6C63FF"/>
<path d="M419.697 27.2876C422.783 27.2876 425.285 24.7774 425.285 21.681C425.285 18.5846 422.783 16.0745 419.697 16.0745C416.611 16.0745 414.109 18.5846 414.109 21.681C414.109 24.7774 416.611 27.2876 419.697 27.2876Z" fill="#6C63FF"/>
</g>
<defs>
<clipPath id="clip0">
<rect width="487" height="457" fill="white"/>
</clipPath>
</defs>
</svg>
