<svg width="15" height="15" viewBox="0 0 15 15" fill="none" xmlns="http://www.w3.org/2000/svg">
<path d="M13.996 3.75L12.0959 2.90479L11.25 1.00403L9.18225 1.21997L7.5 0L5.81677 1.21997L3.75 1.00403L2.90466 2.90393L1.00391 3.75L1.21997 5.81775L0 7.5L1.21997 9.18323L1.00391 11.25L2.90393 12.0952L3.75 13.996L5.81775 13.78L7.5 15L9.18323 13.78L11.25 13.996L12.0952 12.0959L13.996 11.25L13.7799 9.18225L15 7.5L13.7799 5.81677L13.996 3.75ZM6 10.5L3.87744 8.37744L4.58496 7.67249L6 9.08496L10.2424 4.84253L10.95 5.54993L6 10.5Z" fill="white"/>
</svg>
