<svg width="20" height="20" viewBox="0 0 20 20" fill="none" xmlns="http://www.w3.org/2000/svg">
<path d="M18.6613 5L16.1279 3.87305L15 1.3387L12.243 1.62663L10 0L7.7557 1.62663L5 1.3387L3.87288 3.87191L1.33854 5L1.62663 7.757L0 10L1.62663 12.2443L1.33854 15L3.87191 16.127L5 18.6613L7.757 18.3734L10 20L12.2443 18.3734L15 18.6613L16.127 16.1279L18.6613 15L18.3732 12.243L20 10L18.3732 7.7557L18.6613 5ZM8 14L5.16992 11.1699L6.11328 10.23L8 12.1133L13.6566 6.45671L14.5999 7.3999L8 14Z" fill="#4D8DFF"/>
</svg>
