<svg width="370" height="257" viewBox="0 0 370 257" fill="none" xmlns="http://www.w3.org/2000/svg">
<path d="M367.153 166.06C367.153 205.773 247.116 239.35 163.277 239.35C79.4383 239.35 0 279.063 0 239.35C0 97.6101 112.976 34 196.815 34C405.986 76.8676 367.153 126.347 367.153 166.06Z" fill="#00C2FF"/>
<g clip-path="url(#clip0)">
<path d="M73.0668 155.952C72.8174 155.574 72.4882 155.255 72.1024 155.018C71.7167 154.781 71.2838 154.632 70.8342 154.581C70.3845 154.53 69.9292 154.578 69.5001 154.722C69.0711 154.866 68.6788 155.102 68.3508 155.414L58.5762 150.364L59.1838 156.053L68.3729 159.977C68.9333 160.493 69.6635 160.786 70.4253 160.8C71.1871 160.814 71.9274 160.547 72.506 160.051C73.0845 159.555 73.4612 158.864 73.5646 158.108C73.6679 157.352 73.4908 156.585 73.0668 155.952H73.0668Z" fill="#A0616A"/>
<path d="M64.382 158.242C64.2051 158.323 64.0132 158.366 63.8186 158.368C63.624 158.37 63.4312 158.331 63.2526 158.254L53.9681 154.222C50.7935 152.844 48.2269 150.359 46.746 147.229L41.8648 136.916C41.5046 136.453 41.2391 135.923 41.0836 135.357C40.9281 134.791 40.8855 134.2 40.9584 133.617C41.0313 133.035 41.2182 132.473 41.5083 131.962C41.7985 131.452 42.1863 131.004 42.6495 130.644C43.1128 130.284 43.6424 130.019 44.208 129.864C44.7737 129.709 45.3643 129.668 45.9461 129.741C46.5279 129.815 47.0895 130.003 47.5988 130.294C48.1081 130.585 48.5551 130.973 48.9142 131.438L57.494 147.371L65.4163 153.361C65.6431 153.534 65.8115 153.771 65.8989 154.043C65.9862 154.314 65.9883 154.605 65.9047 154.878L65.1271 157.392C65.0436 157.661 64.88 157.899 64.6581 158.073C64.573 158.14 64.4803 158.196 64.382 158.242Z" fill="#CCCCCC"/>
<path d="M41.6483 124.788C45.8238 124.788 49.2087 121.4 49.2087 117.22C49.2087 113.041 45.8238 109.653 41.6483 109.653C37.4728 109.653 34.0879 113.041 34.0879 117.22C34.0879 121.4 37.4728 124.788 41.6483 124.788Z" fill="#A0616A"/>
<path d="M44.7119 216.493L48.4854 216.492L50.281 201.922L44.7109 201.923L44.7119 216.493Z" fill="#A0616A"/>
<path d="M55.7617 219.999L43.9012 220L43.9009 215.413L51.179 215.413C52.3944 215.413 53.56 215.896 54.4194 216.756C55.2788 217.616 55.7617 218.783 55.7617 220L55.7617 219.999Z" fill="#2F2E41"/>
<path d="M32.3994 216.493L36.1729 216.492L37.9685 201.922L32.3984 201.923L32.3994 216.493Z" fill="#A0616A"/>
<path d="M43.4492 219.999L31.5887 220L31.5884 215.413L38.8665 215.413C40.0819 215.413 41.2475 215.896 42.1069 216.756C42.9663 217.616 43.4492 218.783 43.4492 220L43.4492 219.999Z" fill="#2F2E41"/>
<path d="M31.0813 212.322C30.9513 212.173 30.8545 211.999 30.7974 211.81C30.7404 211.62 30.7243 211.421 30.7504 211.226L37.3577 161.624L53.7733 164.415L55.5253 163.362L50.9949 210.425C50.9573 210.742 50.8112 211.037 50.5815 211.26C50.3518 211.482 50.0525 211.619 49.734 211.646L44.7634 212.06C44.5658 212.077 44.367 212.051 44.1803 211.984C43.9937 211.917 43.8236 211.81 43.6815 211.672C43.5395 211.533 43.4289 211.366 43.3571 211.181C43.2853 210.996 43.254 210.798 43.2654 210.599L44.5523 188.187C44.5546 188.149 44.5427 188.111 44.5189 188.081C44.4951 188.051 44.4611 188.032 44.4235 188.025C44.3859 188.019 44.3473 188.027 44.3153 188.048C44.2832 188.069 44.26 188.101 44.2501 188.137L37.8834 211.77C37.8038 212.064 37.6297 212.324 37.388 212.509C37.1463 212.694 36.8505 212.795 36.546 212.795H32.1235C31.9262 212.795 31.7311 212.753 31.5513 212.671C31.3716 212.59 31.2113 212.471 31.0813 212.322Z" fill="#2F2E41"/>
<path d="M42.4484 165.096C42.26 164.925 42.0177 164.826 41.7638 164.815C41.5098 164.805 41.2602 164.884 41.0582 165.038L37.7763 167.593C37.5977 167.733 37.3876 167.826 37.1645 167.865C36.9414 167.904 36.7121 167.888 36.4968 167.818C36.2814 167.748 36.0865 167.626 35.9292 167.463C35.7719 167.3 35.657 167.1 35.5946 166.882C33.9848 161.239 30.3375 147.035 31.2361 137.037C31.7454 131.37 36.6343 127.063 42.1345 127.424C45.8947 127.675 48.3684 129.847 49.4871 133.878C52.2336 143.775 55.252 161.929 55.8292 165.468C55.8748 165.743 55.8363 166.025 55.719 166.277C55.6016 166.529 55.4108 166.74 55.1715 166.882C53.6187 167.815 51.8445 168.315 50.0334 168.329C47.842 168.329 45.2144 167.566 42.4484 165.096Z" fill="#CCCCCC"/>
<path d="M43.688 168.617C43.7247 168.165 43.6621 167.711 43.5046 167.287C43.3471 166.862 43.0985 166.477 42.7763 166.159C42.4541 165.841 42.0661 165.597 41.6397 165.446C41.2134 165.294 40.7589 165.238 40.3085 165.281L35.7306 155.269L32.7012 160.121L37.5128 168.884C37.6353 169.637 38.0293 170.319 38.6203 170.8C39.2112 171.281 39.9581 171.529 40.7192 171.496C41.4804 171.463 42.203 171.152 42.7502 170.621C43.2973 170.09 43.631 169.377 43.688 168.617Z" fill="#A0616A"/>
<path d="M35.4403 165.053C35.2511 165.007 35.0735 164.923 34.9191 164.804C34.7647 164.686 34.637 164.536 34.5442 164.365L29.724 155.457C28.0755 152.412 27.5883 148.871 28.3528 145.493L30.8704 134.363C30.8726 133.777 30.9905 133.196 31.2171 132.655C31.4437 132.113 31.7747 131.622 32.1912 131.209C32.6076 130.796 33.1014 130.469 33.6441 130.246C34.1869 130.024 34.7681 129.911 35.3544 129.914C35.9408 129.917 36.5209 130.036 37.0614 130.263C37.602 130.491 38.0925 130.822 38.5049 131.24C38.9173 131.657 39.2435 132.151 39.4649 132.695C39.6862 133.238 39.7984 133.82 39.7949 134.407L36.7224 152.244L39.2631 161.852C39.3353 162.127 39.3212 162.418 39.2228 162.686C39.1243 162.953 38.9462 163.184 38.7125 163.346L36.5507 164.844C36.3188 165.005 36.0435 165.091 35.7615 165.091C35.6533 165.091 35.5455 165.078 35.4403 165.053Z" fill="#CCCCCC"/>
<path opacity="0.2" d="M39.1825 141.93L36.4121 153.638L40.4138 163.497L37.6434 153.946L39.1825 141.93Z" fill="black"/>
<path d="M37.3346 123.443C36.662 123.455 35.9937 123.334 35.3682 123.087C35.093 122.981 34.8073 122.893 34.5326 122.787C32.1064 121.849 30.5082 119.263 30.451 116.66C30.3937 114.057 31.7403 111.531 33.7399 109.866C35.7395 108.201 38.3295 107.347 40.9229 107.149C43.7165 106.936 46.8621 107.645 48.4231 109.974C48.8386 110.594 49.1292 111.346 48.883 112.094C48.8092 112.32 48.6775 112.522 48.501 112.681C47.8039 113.302 47.1089 112.835 46.3983 112.794C45.4215 112.737 44.5441 113.529 44.2288 114.456C43.9135 115.383 44.0523 116.404 44.3069 117.349C44.5009 117.918 44.6231 118.509 44.6709 119.109C44.6914 119.409 44.635 119.71 44.5068 119.982C44.3787 120.255 44.1832 120.49 43.9387 120.666C43.3284 121.035 42.5268 120.822 41.916 120.453C41.3053 120.084 40.7776 119.571 40.1179 119.3C39.4582 119.029 38.5719 119.089 38.1879 119.691C38.0659 119.91 37.9833 120.148 37.9439 120.396C37.5997 121.966 37.6788 121.873 37.3346 123.443L37.3346 123.443Z" fill="#2F2E41"/>
<path d="M289.232 71H96.765C96.0319 71.0006 95.329 71.275 94.8106 71.7631C94.2922 72.2512 94.0006 72.913 94 73.6032V196.397C94.0007 197.087 94.2922 197.749 94.8106 198.237C95.329 198.725 96.0319 198.999 96.765 199H289.232C289.632 199 290.027 198.918 290.39 198.761C290.753 198.603 291.075 198.373 291.334 198.086C291.356 198.064 291.376 198.04 291.394 198.015C291.56 197.825 291.693 197.612 291.791 197.385C291.93 197.072 292.001 196.736 292 196.397V119.957H291.211V196.397C291.211 196.76 291.097 197.115 290.884 197.418C290.694 197.684 290.437 197.902 290.136 198.051C289.856 198.187 289.546 198.257 289.232 198.257H96.765C96.2413 198.256 95.7391 198.06 95.3688 197.711C94.9984 197.363 94.7901 196.89 94.7894 196.397V73.6032C94.7901 73.1101 94.9984 72.6374 95.3688 72.2887C95.7391 71.94 96.2413 71.7439 96.765 71.7434H289.232C289.756 71.7433 290.259 71.9392 290.63 72.2879C291.001 72.6366 291.21 73.1097 291.211 73.6032V90.1033H292V73.6032C291.999 72.9125 291.707 72.2504 291.188 71.7623C290.669 71.2742 289.966 71 289.232 71Z" fill="#3F3D56"/>
<path d="M263.426 81.7828H71.9746V82.5509H263.426V81.7828Z" fill="#3F3D56"/>
<path d="M78.4954 79.0793C79.7667 79.0793 80.7974 78.0477 80.7974 76.7751C80.7974 75.5026 79.7667 74.4709 78.4954 74.4709C77.224 74.4709 76.1934 75.5026 76.1934 76.7751C76.1934 78.0477 77.224 79.0793 78.4954 79.0793Z" fill="#CCCCCC"/>
<path d="M85.1145 79.0793C86.3859 79.0793 87.4165 78.0477 87.4165 76.7751C87.4165 75.5026 86.3859 74.4709 85.1145 74.4709C83.8431 74.4709 82.8125 75.5026 82.8125 76.7751C82.8125 78.0477 83.8431 79.0793 85.1145 79.0793Z" fill="#CCCCCC"/>
<path d="M91.7337 79.0793C93.005 79.0793 94.0357 78.0477 94.0357 76.7751C94.0357 75.5026 93.005 74.4709 91.7337 74.4709C90.4623 74.4709 89.4316 75.5026 89.4316 76.7751C89.4316 78.0477 90.4623 79.0793 91.7337 79.0793Z" fill="#CCCCCC"/>
<path d="M137.971 187.586C137.178 187.582 136.399 187.38 135.704 186.999C135.009 186.619 134.42 186.07 133.99 185.404C133.56 184.737 133.303 183.974 133.242 183.183C133.181 182.393 133.318 181.599 133.641 180.874L139.125 168.627C134.806 164.803 131.349 160.103 128.985 154.838C126.621 149.574 125.404 143.866 125.414 138.094C125.414 115.545 143.742 97.1998 166.27 97.1998C188.799 97.1998 207.126 115.545 207.126 138.094C207.126 160.644 188.799 178.989 166.27 178.989C162.329 178.985 158.41 178.407 154.635 177.274L140.639 186.758C139.852 187.295 138.923 187.584 137.971 187.586ZM166.27 102.906C158.979 102.902 151.867 105.168 145.921 109.391C139.974 113.613 135.487 119.583 133.082 126.472C130.677 133.362 130.472 140.83 132.497 147.84C134.522 154.851 138.675 161.058 144.382 165.6L146.11 166.979L140.209 180.158L153.75 170.982L155.088 171.432C159.918 173.056 165.043 173.61 170.108 173.054C175.173 172.499 180.057 170.847 184.422 168.215C188.786 165.582 192.526 162.031 195.383 157.807C198.239 153.584 200.144 148.789 200.966 143.756C201.787 138.722 201.505 133.57 200.14 128.656C198.774 123.743 196.357 119.185 193.057 115.299C189.756 111.413 185.651 108.292 181.026 106.152C176.401 104.012 171.366 102.905 166.27 102.906Z" fill="#3F3D56"/>
<path d="M166.271 141.899C169.42 141.899 171.972 139.344 171.972 136.192C171.972 133.041 169.42 130.486 166.271 130.486C163.123 130.486 160.57 133.041 160.57 136.192C160.57 139.344 163.123 141.899 166.271 141.899Z" fill="#3F3D56"/>
<path d="M150.119 141.899C153.267 141.899 155.82 139.344 155.82 136.192C155.82 133.041 153.267 130.486 150.119 130.486C146.97 130.486 144.418 133.041 144.418 136.192C144.418 139.344 146.97 141.899 150.119 141.899Z" fill="#3F3D56"/>
<path d="M182.424 141.899C185.572 141.899 188.124 139.344 188.124 136.192C188.124 133.041 185.572 130.486 182.424 130.486C179.275 130.486 176.723 133.041 176.723 136.192C176.723 139.344 179.275 141.899 182.424 141.899Z" fill="#3F3D56"/>
<path d="M309.629 113.607H255.453C254.8 113.607 254.173 113.348 253.712 112.885C253.25 112.423 252.99 111.796 252.99 111.142C252.99 110.489 253.25 109.862 253.712 109.4C254.173 108.937 254.8 108.678 255.453 108.678H309.629C310.282 108.678 310.909 108.937 311.371 109.4C311.832 109.862 312.092 110.489 312.092 111.142C312.092 111.796 311.832 112.423 311.371 112.885C310.909 113.348 310.282 113.607 309.629 113.607Z" fill="#CCCCCC"/>
<path d="M274.23 103.132H255.453C254.8 103.132 254.173 102.872 253.712 102.41C253.25 101.947 252.99 101.32 252.99 100.667C252.99 100.013 253.25 99.386 253.712 98.9237C254.173 98.4615 254.8 98.2018 255.453 98.2018H274.23C274.883 98.2018 275.509 98.4615 275.971 98.9237C276.433 99.386 276.692 100.013 276.692 100.667C276.692 101.32 276.433 101.947 275.971 102.41C275.509 102.872 274.883 103.132 274.23 103.132Z" fill="#CCCCCC"/>
<path d="M230.913 116.611C236.693 116.611 241.379 111.921 241.379 106.135C241.379 100.349 236.693 95.6593 230.913 95.6593C225.133 95.6593 220.447 100.349 220.447 106.135C220.447 111.921 225.133 116.611 230.913 116.611Z" fill="#6C63FF"/>
<path d="M315.058 90.1133H217.479C216.092 90.1152 214.762 90.6677 213.781 91.6496C212.8 92.6315 212.248 93.9626 212.246 95.3512V116.919C212.248 118.308 212.8 119.639 213.781 120.621C214.762 121.602 216.092 122.155 217.479 122.157H315.058C316.446 122.155 317.775 121.602 318.756 120.621C319.737 119.639 320.289 118.308 320.291 116.919V95.3512C320.289 93.9626 319.737 92.6315 318.756 91.6496C317.775 90.6677 316.446 90.1152 315.058 90.1133ZM319.676 116.919C319.674 118.144 319.187 119.319 318.322 120.185C317.456 121.052 316.282 121.539 315.058 121.541H217.479C216.255 121.539 215.081 121.052 214.216 120.185C213.35 119.319 212.863 118.144 212.862 116.919V95.3512C212.863 94.1259 213.35 92.9512 214.216 92.0848C215.081 91.2184 216.255 90.731 217.479 90.7295H315.058C316.282 90.731 317.456 91.2184 318.322 92.0848C319.187 92.9512 319.674 94.1259 319.676 95.3512V116.919Z" fill="#3F3D56"/>
<path d="M319.676 98.7404C323.586 98.7404 326.755 95.5676 326.755 91.6538C326.755 87.74 323.586 84.5673 319.676 84.5673C315.765 84.5673 312.596 87.74 312.596 91.6538C312.596 95.5676 315.765 98.7404 319.676 98.7404Z" fill="#6C63FF"/>
<path d="M319.459 95.6393C319.431 95.6107 319.408 95.5768 319.392 95.5394C319.377 95.502 319.369 95.4619 319.369 95.4214V87.5782C319.369 87.4965 319.402 87.4181 319.459 87.3604C319.517 87.3026 319.595 87.2701 319.677 87.2701C319.759 87.2701 319.837 87.3026 319.895 87.3604C319.952 87.4181 319.985 87.4965 319.985 87.5782V95.4214C319.985 95.4824 319.967 95.5419 319.933 95.5926C319.899 95.6433 319.851 95.6827 319.795 95.7061C319.738 95.7294 319.677 95.7355 319.617 95.7236C319.557 95.7117 319.502 95.6824 319.459 95.6393Z" fill="white"/>
<path d="M315.541 91.7177C315.498 91.6746 315.469 91.6197 315.457 91.56C315.445 91.5002 315.451 91.4383 315.475 91.382C315.498 91.3257 315.537 91.2776 315.588 91.2437C315.639 91.2099 315.698 91.1918 315.759 91.1918H323.595C323.676 91.1918 323.755 91.2242 323.812 91.282C323.87 91.3398 323.903 91.4181 323.903 91.4999C323.903 91.5816 323.87 91.6599 323.812 91.7177C323.755 91.7755 323.676 91.8079 323.595 91.8079H315.759C315.719 91.808 315.679 91.8001 315.641 91.7846C315.604 91.7691 315.57 91.7464 315.541 91.7177Z" fill="white"/>
<path d="M328.151 185.845H313.373C313.373 186.271 298.142 186.616 298.142 186.616C297.903 186.796 297.685 187.003 297.492 187.232C296.914 187.923 296.598 188.796 296.6 189.697V190.313C296.6 191.334 297.006 192.314 297.727 193.036C298.449 193.758 299.427 194.164 300.447 194.164H328.151C329.172 194.164 330.15 193.758 330.871 193.035C331.592 192.313 331.998 191.334 331.999 190.313V189.697C331.998 188.676 331.592 187.697 330.871 186.975C330.149 186.253 329.171 185.847 328.151 185.845Z" fill="#3F3D56"/>
<path d="M316.453 194.011H312.451V219.893H316.453V194.011Z" fill="#3F3D56"/>
<path d="M327.842 219.752C327.842 220.185 321.778 219.919 314.298 219.919C306.818 219.919 300.754 220.185 300.754 219.752C300.754 219.319 306.818 215.887 314.298 215.887C321.778 215.887 327.842 219.319 327.842 219.752Z" fill="#3F3D56"/>
<path d="M315.736 151.162C320.496 151.162 324.355 147.299 324.355 142.535C324.355 137.77 320.496 133.908 315.736 133.908C310.976 133.908 307.117 137.77 307.117 142.535C307.117 147.299 310.976 151.162 315.736 151.162Z" fill="#2F2E41"/>
<path d="M294.288 216.348L290.514 216.348L288.719 201.778L294.289 201.778L294.288 216.348Z" fill="#FFB8B8"/>
<path d="M287.819 215.268H295.097V219.855H283.236C283.236 218.639 283.719 217.472 284.579 216.612C285.438 215.752 286.603 215.268 287.819 215.268Z" fill="#2F2E41"/>
<path d="M288.396 214.24L284.795 213.109L287.44 198.669L292.754 200.338L288.396 214.24Z" fill="#FFB8B8"/>
<path d="M282.548 211.271L289.492 213.452L288.12 217.829L276.804 214.274C277.168 213.113 277.977 212.145 279.055 211.582C280.132 211.019 281.388 210.907 282.548 211.271Z" fill="#2F2E41"/>
<path d="M318.045 183.32C317.958 182.586 317.801 181.861 317.577 181.157L316.872 180.27L315.038 177.965L314.958 177.968C314.822 177.974 314.259 178.005 313.388 178.073H313.378C312.84 178.116 312.181 178.171 311.433 178.242C311.236 178.264 311.03 178.282 310.817 178.304V181.52H314.665C314.852 181.521 315.033 181.589 315.173 181.713C315.314 181.836 315.404 182.007 315.429 182.192C315.432 182.226 315.435 182.257 315.435 182.291C315.435 182.495 315.354 182.691 315.209 182.835C315.065 182.98 314.869 183.061 314.665 183.061H292.317C292.033 183.25 291.759 183.456 291.499 183.677C290.711 184.287 290.144 185.137 289.882 186.099C288.577 191.842 286.198 202.552 285.496 205.698C285.445 205.935 285.457 206.181 285.53 206.412C285.602 206.644 285.734 206.852 285.912 207.017C286.043 207.139 286.196 207.234 286.364 207.297L289.141 208.338C289.255 208.381 289.374 208.409 289.495 208.422C289.51 208.422 289.522 208.425 289.538 208.425C289.566 208.427 289.595 208.428 289.624 208.428C289.905 208.427 290.179 208.341 290.41 208.181C290.641 208.022 290.819 207.796 290.92 207.534L293.112 201.779L296.488 192.905L297.824 189.396C299.373 189.759 312.363 192.637 316.712 188C317.141 187.543 317.48 187.009 317.71 186.426C318.076 185.434 318.191 184.367 318.045 183.32Z" fill="#2F2E41"/>
<path d="M321.814 184.158C321.746 183.884 321.669 183.6 321.58 183.314L319.041 180.122L318.961 180.125C318.8 180.134 318.04 180.174 316.874 180.269C315.55 180.38 313.7 180.559 311.622 180.839C311.561 180.846 311.496 180.855 311.434 180.864C311.231 180.892 311.025 180.92 310.819 180.95V181.52H314.667C314.854 181.521 315.034 181.589 315.174 181.713C315.315 181.836 315.406 182.007 315.43 182.192C315.433 182.226 315.436 182.257 315.436 182.291C315.436 182.495 315.355 182.691 315.211 182.835C315.066 182.98 314.871 183.061 314.667 183.061H301.067C300.473 183.255 299.9 183.458 299.352 183.677C296.477 184.817 294.326 186.312 293.885 188.256C293.738 188.909 293.575 189.627 293.402 190.391C292.762 193.232 291.983 196.71 291.278 199.872V199.875C291.134 200.528 290.989 201.163 290.85 201.779C290.262 204.429 289.764 206.675 289.499 207.855C289.493 207.889 289.487 207.919 289.48 207.953V207.959C289.45 208.198 289.479 208.441 289.567 208.665L289.57 208.668V208.671C289.654 208.886 289.792 209.076 289.97 209.223C290.089 209.321 290.223 209.399 290.367 209.454L293.144 210.495C293.298 210.553 293.462 210.583 293.627 210.585C293.858 210.585 294.086 210.527 294.289 210.415C294.58 210.257 294.805 210 294.923 209.691L300.901 193.99L301.827 191.552C303.376 191.916 316.366 194.791 320.715 190.157C321.574 189.226 322.065 188.013 322.094 186.746C322.125 185.874 322.03 185.003 321.814 184.158Z" fill="#2F2E41"/>
<path d="M321.472 156.976C321.423 156.918 321.37 156.859 321.315 156.804C320.495 155.941 319.483 155.285 318.361 154.889C317.239 154.493 316.039 154.369 314.86 154.527C313.831 154.662 312.812 154.863 311.809 155.128C310.514 155.461 309.328 156.127 308.368 157.059C307.62 157.785 307.031 158.658 306.639 159.623C306.246 160.589 306.058 161.625 306.087 162.667C306.099 163.089 306.102 163.521 306.096 163.958C306.096 164.161 306.093 164.368 306.09 164.574H309.125C309.257 164.574 309.388 164.589 309.516 164.621C309.886 164.709 310.216 164.92 310.452 165.219C310.689 165.518 310.817 165.888 310.818 166.269V180.602C311.024 180.661 311.231 180.719 311.434 180.781C311.498 180.803 311.56 180.821 311.621 180.839C311.692 180.861 311.763 180.883 311.831 180.904C312.456 181.098 313.066 181.304 313.662 181.52H314.666C314.853 181.521 315.033 181.589 315.174 181.712C315.314 181.836 315.405 182.006 315.429 182.192C315.639 182.275 315.842 182.358 316.042 182.442C316.753 182.737 317.427 183.033 318.046 183.32C318.88 183.702 319.622 184.065 320.244 184.383C320.439 184.482 320.655 184.535 320.875 184.537C321.163 184.536 321.443 184.443 321.675 184.272C321.723 184.236 321.769 184.198 321.813 184.158C321.978 184.003 322.103 183.811 322.176 183.597C322.25 183.383 322.27 183.155 322.235 182.932C321.917 180.511 321.825 178.067 321.958 175.629C322.044 173.58 322.229 171.479 322.469 169.449C322.598 168.349 322.743 167.27 322.894 166.232C323.039 165.24 323.193 164.288 323.343 163.388C323.541 162.247 323.475 161.076 323.151 159.965C322.827 158.853 322.252 157.831 321.472 156.976Z" fill="#6C63FF"/>
<path d="M308.854 157.229C308.696 157.161 308.534 157.104 308.368 157.059C307.547 156.838 306.675 156.92 305.91 157.289C305.145 157.659 304.538 158.291 304.2 159.071L302.085 163.958L301.82 164.574H309.125C309.257 164.574 309.388 164.589 309.516 164.62L309.762 164.05L310.698 161.887C311.069 161.025 311.084 160.05 310.738 159.176C310.393 158.303 309.715 157.603 308.854 157.229Z" fill="#6C63FF"/>
<path d="M315.422 152.121C319.597 152.121 322.982 148.733 322.982 144.553C322.982 140.374 319.597 136.986 315.422 136.986C311.246 136.986 307.861 140.374 307.861 144.553C307.861 148.733 311.246 152.121 315.422 152.121Z" fill="#FFB8B8"/>
<path d="M307.725 140.835C311.306 143.024 315.343 144.355 319.522 144.726L318.279 143.235C319.184 143.57 320.137 143.759 321.102 143.796C322.065 143.781 323.075 143.41 323.622 142.615C323.865 142.221 324.01 141.773 324.044 141.31C324.077 140.847 323.999 140.382 323.814 139.956C323.435 139.107 322.845 138.369 322.101 137.812C320.781 136.767 319.223 136.065 317.567 135.769C315.91 135.472 314.206 135.591 312.606 136.114C311.509 136.442 310.526 137.073 309.77 137.934C309.054 138.819 307.674 139.608 308.041 140.686L307.725 140.835Z" fill="#2F2E41"/>
<path d="M316.693 134.728C314.308 132.308 311.423 130.44 308.239 129.257C306.195 128.499 303.971 128.031 301.835 128.461C299.698 128.891 297.678 130.371 297.082 132.469C296.594 134.184 297.098 136.032 297.854 137.647C298.61 139.262 299.62 140.759 300.232 142.435C300.856 144.144 301.044 145.983 300.778 147.783C300.512 149.583 299.801 151.289 298.71 152.745C297.619 154.2 296.182 155.36 294.529 156.119C292.876 156.878 291.06 157.211 289.246 157.089C291.345 157.371 293.28 158.358 295.332 158.884C297.384 159.409 299.805 159.374 301.33 157.903C302.943 156.346 302.976 153.815 302.898 151.573C302.782 148.241 302.666 144.909 302.55 141.576C302.491 139.877 302.44 138.123 303.053 136.537C303.665 134.951 305.12 133.562 306.819 133.577C308.106 133.588 309.246 134.368 310.278 135.138C311.311 135.908 312.404 136.729 313.686 136.844C314.968 136.958 316.433 136.008 316.337 134.723L316.693 134.728Z" fill="#2F2E41"/>
<path d="M322.894 166.232L318.579 166.349L318.265 169.384L318.194 170.086L311.434 173.124L310.818 173.402V178.803L311.434 178.627L313.379 178.073H313.389L321.958 175.629L322.057 175.602C322.749 175.401 323.359 174.983 323.795 174.409C324.231 173.834 324.47 173.134 324.476 172.413L324.498 168.829L324.516 166.189L322.894 166.232Z" fill="#FFB8B8"/>
<path d="M324.297 160.23C324.239 159.292 323.812 158.415 323.108 157.792C322.405 157.17 321.483 156.852 320.546 156.91C319.609 156.968 318.733 157.396 318.111 158.1C317.489 158.804 317.172 159.726 317.229 160.664L317.7 168.355C317.713 168.557 317.77 168.754 317.867 168.932C317.965 169.11 318.1 169.264 318.264 169.384C318.524 169.578 318.845 169.673 319.168 169.652L322.468 169.449L323.469 169.387C323.651 169.378 323.83 169.332 323.994 169.252C324.158 169.172 324.304 169.06 324.423 168.922C324.45 168.892 324.474 168.862 324.497 168.829C324.693 168.567 324.789 168.244 324.768 167.917L324.297 160.23Z" fill="#6C63FF"/>
<path d="M311.83 180.904H311.433V180.864C311.23 180.892 311.024 180.92 310.818 180.95V181.52H313.662C313.065 181.305 312.454 181.099 311.83 180.904ZM311.83 180.904H311.433V180.864C311.23 180.892 311.024 180.92 310.818 180.95V181.52H313.662C313.065 181.305 312.454 181.099 311.83 180.904ZM314.665 180.904H311.433V166.269C311.432 165.768 311.269 165.281 310.967 164.881C310.666 164.481 310.243 164.189 309.762 164.05C309.555 163.988 309.34 163.957 309.125 163.958H281.729C281.117 163.959 280.53 164.202 280.097 164.636C279.664 165.069 279.421 165.656 279.42 166.269V181.366C279.42 181.979 279.663 182.567 280.096 183C280.529 183.433 281.116 183.677 281.729 183.677H314.665C315.006 183.677 315.335 183.55 315.589 183.322C315.843 183.094 316.004 182.781 316.041 182.442C316.048 182.392 316.051 182.341 316.051 182.291C316.05 181.923 315.904 181.571 315.644 181.311C315.385 181.051 315.033 180.905 314.665 180.904ZM315.435 182.291C315.435 182.495 315.354 182.691 315.209 182.835C315.065 182.98 314.869 183.061 314.665 183.061H281.729C281.28 183.061 280.849 182.882 280.532 182.564C280.214 182.247 280.036 181.816 280.036 181.366V166.269C280.036 165.82 280.214 165.389 280.532 165.071C280.849 164.753 281.28 164.575 281.729 164.574H309.125C309.256 164.574 309.388 164.589 309.516 164.62C309.886 164.709 310.216 164.92 310.452 165.219C310.688 165.518 310.817 165.888 310.818 166.269V181.52H314.665C314.852 181.521 315.033 181.589 315.173 181.712C315.314 181.836 315.405 182.006 315.429 182.192C315.432 182.226 315.435 182.257 315.435 182.291ZM311.83 180.904H311.433V180.864C311.23 180.892 311.024 180.92 310.818 180.95V181.52H313.662C313.065 181.305 312.454 181.099 311.83 180.904Z" fill="#3F3D56"/>
<path d="M295.425 175.667C296.445 175.667 297.272 174.839 297.272 173.818C297.272 172.797 296.445 171.969 295.425 171.969C294.405 171.969 293.578 172.797 293.578 173.818C293.578 174.839 294.405 175.667 295.425 175.667Z" fill="#6C63FF"/>
<path d="M130.459 21.9892C130.452 22.13 130.456 22.2711 130.472 22.4112L120.806 30.5311L117.923 29.4865L115.779 33.6348L122.081 36.6375L132.649 24.7679C133.183 24.8648 133.733 24.7968 134.227 24.5729C134.721 24.349 135.135 23.9799 135.415 23.5147C135.694 23.0494 135.825 22.51 135.791 21.9683C135.757 21.4266 135.558 20.9081 135.222 20.4819C134.887 20.0558 134.429 19.742 133.911 19.5825C133.392 19.4229 132.838 19.4251 132.321 19.5887C131.804 19.7523 131.348 20.0696 131.016 20.4984C130.683 20.9272 130.489 21.4472 130.459 21.9892L130.459 21.9892Z" fill="#FFB8B8"/>
<path d="M117.496 35.6246L108.161 32.2522C107.305 31.9426 106.606 31.3049 106.218 30.4795C105.831 29.6541 105.787 28.7085 106.097 27.8507C106.406 26.993 107.043 26.2933 107.868 25.9058C108.692 25.5182 109.637 25.4743 110.494 25.7839L119.828 29.1563C119.97 29.2074 120.1 29.2859 120.211 29.3872C120.322 29.4886 120.412 29.6109 120.476 29.7471C120.54 29.8834 120.576 30.0309 120.583 30.1812C120.59 30.3315 120.568 30.4818 120.516 30.6233L118.962 34.9357C118.858 35.2213 118.646 35.4542 118.371 35.5834C118.096 35.7125 117.781 35.7274 117.496 35.6246V35.6246Z" fill="#CCCCCC"/>
<path d="M110.659 68.4783L113.778 68.478L115.262 56.434L110.658 56.4343L110.659 68.4783Z" fill="#FFB8B8"/>
<path d="M119.795 71.3773L109.991 71.3778L109.99 67.5862L116.007 67.5859C117.011 67.5858 117.975 67.9853 118.685 68.6963C119.396 69.4073 119.795 70.3717 119.795 71.3773L119.795 71.3773Z" fill="#2F2E41"/>
<path d="M102.949 64.4446L105.501 66.2405L113.636 57.2428L109.87 54.5924L102.949 64.4446Z" fill="#FFB8B8"/>
<path d="M108.449 71.4598L100.429 65.8155L102.608 62.7138L107.529 66.1774C108.351 66.7557 108.91 67.6372 109.082 68.6279C109.255 69.6185 109.027 70.6372 108.449 71.4598L108.449 71.4598Z" fill="#2F2E41"/>
<path d="M117.484 46.7824C117.484 46.7824 125.269 45.863 123.872 50.9196C122.474 55.9762 106.904 60.3432 106.904 60.3432L117.484 46.7824Z" fill="#FFB8B8"/>
<path d="M112.127 20.9813C115.578 20.9813 118.376 18.1806 118.376 14.7258C118.376 11.2709 115.578 8.47021 112.127 8.47021C108.675 8.47021 105.877 11.2709 105.877 14.7258C105.877 18.1806 108.675 20.9813 112.127 20.9813Z" fill="#FFB8B8"/>
<path d="M92.1963 59.3077C88.6401 55.163 87.3957 48.8018 93.0669 43.5112C94.4675 42.2367 96.0534 41.1825 97.7703 40.3847L102.341 27.5903C102.816 26.2542 103.686 25.0948 104.836 24.2668C105.986 23.4387 107.361 22.9814 108.778 22.9558C110.153 22.8964 111.513 23.2646 112.671 24.0099C113.829 24.7552 114.728 25.841 115.244 27.1182C115.802 28.4176 115.866 29.8765 115.424 31.2197C114.063 35.4609 112.276 39.5531 110.091 43.4333L110.327 45.3259L121.88 46.3536L121.772 46.529C121.716 46.6205 116.062 55.2436 108.828 60.9672C106.355 62.9242 103.798 63.7353 101.384 63.735C97.7236 63.7348 94.3944 61.8696 92.1963 59.3077Z" fill="#CCCCCC"/>
<path d="M91.1065 16.6883C92.2122 15.3696 92.6864 13.6446 93.068 11.9659C93.6716 9.30974 94.1387 6.56318 95.4798 4.19284C96.8208 1.82254 99.2853 -0.14149 102.003 0.00800817C104.705 0.156653 106.889 2.33244 108.048 4.80805C108.329 4.6989 108.63 4.65 108.931 4.66452C109.231 4.67904 109.526 4.75665 109.795 4.89233C110.631 5.35039 110.943 6.65234 110.247 7.30411C110.979 6.95542 111.776 6.76476 112.586 6.74455C113.396 6.72434 114.201 6.87502 114.949 7.18679C115.911 7.59668 116.741 8.26421 117.349 9.11594C117.956 9.96767 118.317 10.9706 118.392 12.0143C118.421 12.438 118.363 12.8631 118.221 13.2633C118.079 13.6636 117.857 14.0304 117.568 14.3412C116.369 15.5768 114.673 15.1506 113.165 14.8358C111.74 14.5385 110.006 14.4582 109.203 15.8166C108.887 16.3826 108.798 17.0481 108.956 17.6772C109.263 19.0332 110.266 19.9778 111.239 20.8817L111.398 21.1777C107.963 21.8483 104.211 19.4996 103.31 16.114C102.408 12.7284 104.495 8.82256 107.809 7.69312C107.588 7.69999 107.37 7.6478 107.176 7.54194C106.983 7.43607 106.821 7.28038 106.707 7.09093C106.594 6.90149 106.533 6.68518 106.531 6.46434C106.529 6.2435 106.586 6.02615 106.696 5.83474C105.779 5.32042 104.741 5.06119 103.69 5.08396C101.978 5.19635 100.497 6.41588 99.6063 7.88313C98.7154 9.35039 98.3121 11.0534 97.9035 12.7209C97.495 14.3884 97.0528 16.0878 96.1003 17.5157C95.4406 18.5047 94.5591 19.3257 93.5261 19.9132C92.4932 20.5006 91.3373 20.8383 90.1508 20.8992C88.9643 20.9601 87.78 20.7426 86.6924 20.264C85.6048 19.7854 84.644 19.0591 83.8867 18.1428C85.0835 18.7237 86.4375 18.896 87.7415 18.6333C89.0454 18.3706 90.2274 17.6874 91.1065 16.6883Z" fill="#2F2E41"/>
<path d="M137.008 33.7363C142.025 33.7363 146.093 29.6652 146.093 24.6433C146.093 19.6215 142.025 15.5504 137.008 15.5504C131.991 15.5504 127.924 19.6215 127.924 24.6433C127.924 29.6652 131.991 33.7363 137.008 33.7363Z" fill="#6C63FF"/>
<path d="M136.729 29.7571C136.692 29.7205 136.663 29.6769 136.643 29.6289C136.623 29.5809 136.613 29.5295 136.613 29.4776V19.4137C136.613 19.3089 136.655 19.2083 136.729 19.1342C136.803 19.0601 136.903 19.0184 137.008 19.0184C137.113 19.0184 137.213 19.0601 137.287 19.1342C137.362 19.2083 137.403 19.3089 137.403 19.4137V29.4776C137.403 29.5558 137.38 29.6322 137.337 29.6972C137.293 29.7622 137.232 29.8129 137.159 29.8428C137.087 29.8727 137.008 29.8805 136.931 29.8653C136.855 29.85 136.784 29.8124 136.729 29.7571H136.729Z" fill="white"/>
<path d="M131.702 24.7251C131.646 24.6699 131.609 24.5994 131.594 24.5227C131.578 24.4461 131.586 24.3666 131.616 24.2943C131.646 24.2221 131.697 24.1604 131.761 24.1169C131.826 24.0735 131.903 24.0503 131.981 24.0503H142.035C142.14 24.0503 142.24 24.0919 142.314 24.1661C142.389 24.2402 142.43 24.3408 142.43 24.4456C142.43 24.5504 142.389 24.651 142.314 24.7251C142.24 24.7993 142.14 24.8409 142.035 24.8409H131.981C131.929 24.841 131.878 24.8308 131.83 24.8109C131.782 24.7911 131.738 24.7619 131.702 24.7251Z" fill="white"/>
<path d="M130.772 30.7253C130.706 30.8498 130.65 30.9793 130.604 31.1126L118.407 34.3502L116.241 32.1783L112.539 35.0212L116.969 40.4204L131.574 34.1721C132.016 34.4868 132.543 34.6594 133.085 34.667C133.628 34.6745 134.159 34.5167 134.61 34.2144C135.06 33.9121 135.408 33.4797 135.607 32.9747C135.806 32.4698 135.847 31.9161 135.724 31.3875C135.601 30.8588 135.32 30.3801 134.918 30.0152C134.517 29.6502 134.014 29.4162 133.476 29.3443C132.939 29.2725 132.392 29.3661 131.909 29.6128C131.426 29.8594 131.029 30.2475 130.772 30.7253L130.772 30.7253Z" fill="#FFB8B8"/>
<path d="M113.248 37.5522L106.231 30.5285C105.911 30.2094 105.657 29.8303 105.484 29.4129C105.311 28.9955 105.221 28.548 105.221 28.096C105.22 27.6439 105.309 27.1963 105.482 26.7786C105.654 26.3609 105.908 25.9814 106.227 25.6617C106.546 25.3421 106.925 25.0886 107.343 24.9158C107.76 24.743 108.207 24.6543 108.659 24.6547C109.11 24.6551 109.557 24.7446 109.974 24.9181C110.391 25.0916 110.77 25.3457 111.089 25.6659L118.106 32.6896C118.212 32.7961 118.297 32.9224 118.354 33.0614C118.412 33.2005 118.442 33.3495 118.442 33.5C118.442 33.6505 118.412 33.7995 118.354 33.9386C118.297 34.0776 118.212 34.2039 118.106 34.3103L114.867 37.5522C114.653 37.7668 114.361 37.8873 114.058 37.8873C113.754 37.8873 113.463 37.7668 113.248 37.5522V37.5522Z" fill="#CCCCCC"/>
</g>
<defs>
<clipPath id="clip0">
<rect width="304" height="220" fill="white" transform="translate(28)"/>
</clipPath>
</defs>
</svg>
