<svg width="100" height="107" viewBox="0 0 100 107" fill="none" xmlns="http://www.w3.org/2000/svg">
<circle cx="2" cy="2" r="2" fill="#C4C4C4"/>
<circle cx="2" cy="61" r="2" fill="#C4C4C4"/>
<circle cx="22" cy="2" r="2" fill="#C4C4C4"/>
<circle cx="22" cy="61" r="2" fill="#C4C4C4"/>
<circle cx="42" cy="2" r="2" fill="#C4C4C4"/>
<circle cx="42" cy="61" r="2" fill="#C4C4C4"/>
<circle cx="2" cy="16" r="2" fill="#C4C4C4"/>
<circle cx="2" cy="75" r="2" fill="#C4C4C4"/>
<circle cx="22" cy="16" r="2" fill="#C4C4C4"/>
<circle cx="22" cy="75" r="2" fill="#C4C4C4"/>
<circle cx="42" cy="16" r="2" fill="#C4C4C4"/>
<circle cx="42" cy="75" r="2" fill="#C4C4C4"/>
<circle cx="2" cy="32" r="2" fill="#C4C4C4"/>
<circle cx="2" cy="91" r="2" fill="#C4C4C4"/>
<circle cx="22" cy="32" r="2" fill="#C4C4C4"/>
<circle cx="22" cy="91" r="2" fill="#C4C4C4"/>
<circle cx="42" cy="32" r="2" fill="#C4C4C4"/>
<circle cx="42" cy="91" r="2" fill="#C4C4C4"/>
<circle cx="2" cy="46" r="2" fill="#C4C4C4"/>
<circle cx="2" cy="105" r="2" fill="#C4C4C4"/>
<circle cx="22" cy="46" r="2" fill="#C4C4C4"/>
<circle cx="22" cy="105" r="2" fill="#C4C4C4"/>
<circle cx="42" cy="46" r="2" fill="#C4C4C4"/>
<circle cx="42" cy="105" r="2" fill="#C4C4C4"/>
<circle cx="58" cy="2" r="2" fill="#C4C4C4"/>
<circle cx="58" cy="61" r="2" fill="#C4C4C4"/>
<circle cx="78" cy="2" r="2" fill="#C4C4C4"/>
<circle cx="78" cy="61" r="2" fill="#C4C4C4"/>
<circle cx="98" cy="2" r="2" fill="#C4C4C4"/>
<circle cx="98" cy="61" r="2" fill="#C4C4C4"/>
<circle cx="58" cy="16" r="2" fill="#C4C4C4"/>
<circle cx="58" cy="75" r="2" fill="#C4C4C4"/>
<circle cx="78" cy="16" r="2" fill="#C4C4C4"/>
<circle cx="78" cy="75" r="2" fill="#C4C4C4"/>
<circle cx="98" cy="16" r="2" fill="#C4C4C4"/>
<circle cx="98" cy="75" r="2" fill="#C4C4C4"/>
<circle cx="58" cy="32" r="2" fill="#C4C4C4"/>
<circle cx="58" cy="91" r="2" fill="#C4C4C4"/>
<circle cx="78" cy="32" r="2" fill="#C4C4C4"/>
<circle cx="78" cy="91" r="2" fill="#C4C4C4"/>
<circle cx="98" cy="32" r="2" fill="#C4C4C4"/>
<circle cx="98" cy="91" r="2" fill="#C4C4C4"/>
<circle cx="58" cy="46" r="2" fill="#C4C4C4"/>
<circle cx="58" cy="105" r="2" fill="#C4C4C4"/>
<circle cx="78" cy="46" r="2" fill="#C4C4C4"/>
<circle cx="78" cy="105" r="2" fill="#C4C4C4"/>
<circle cx="98" cy="46" r="2" fill="#C4C4C4"/>
<circle cx="98" cy="105" r="2" fill="#C4C4C4"/>
</svg>
