<svg width="160" height="257" viewBox="0 0 160 257" fill="none" xmlns="http://www.w3.org/2000/svg">
<g opacity="0.48">
<mask id="mask0" mask-type="alpha" maskUnits="userSpaceOnUse" x="0" y="55" width="210" height="207">
<path fill-rule="evenodd" clip-rule="evenodd" d="M0.000488281 55.1365H209.715V261.31H0.000488281V55.1365Z" fill="white"/>
</mask>
<g mask="url(#mask0)">
<path fill-rule="evenodd" clip-rule="evenodd" d="M184.162 251.978C178.735 255.246 172.421 257.606 165.461 259.139C160.841 260.148 155.919 260.814 150.795 261.096C131.953 262.246 110.287 258.716 89.4081 251.655C84.7279 250.082 80.088 248.327 75.5289 246.39C41.5774 232.107 12.064 208.787 3.79298 181.755C-11.3167 132.411 21.1218 96.9267 58.6843 64.3672C73.915 51.1537 93.7655 53.05 114.302 64.2058C119.103 66.8081 123.924 69.9148 128.746 73.4451C146.841 86.7393 164.755 106.085 179.885 127.59C209.58 169.813 226.767 226.378 184.162 251.978Z" fill="#FDE6D6"/>
</g>
<path fill-rule="evenodd" clip-rule="evenodd" d="M57.084 56.9686C57.078 56.9686 57.0719 56.9686 57.0659 56.9686C55.7163 56.8758 54.3627 56.8254 53.0474 56.8173C52.9062 56.8173 52.7952 56.7043 52.7952 56.5652C52.7972 56.426 52.9082 56.313 53.0474 56.313H53.0494C54.3768 56.3211 55.7405 56.3715 57.1022 56.4643C57.2414 56.4744 57.3443 56.5954 57.3362 56.7346C57.3261 56.8678 57.2151 56.9686 57.084 56.9686ZM44.9922 57.3559C44.8692 57.3559 44.7602 57.2652 44.7421 57.1401C44.7219 57.0029 44.8167 56.8738 44.9559 56.8536C46.2591 56.664 47.6188 56.5228 48.9926 56.432C49.1499 56.4058 49.2528 56.5288 49.2609 56.668C49.2709 56.8052 49.166 56.9263 49.0269 56.9343C47.6652 57.0251 46.3196 57.1663 45.0285 57.3519C45.0164 57.3539 45.0043 57.3559 44.9922 57.3559ZM65.1009 57.9672C65.0847 57.9672 65.0706 57.9652 65.0565 57.9632C63.7311 57.7251 62.3916 57.5234 61.0743 57.358C60.9351 57.3398 60.8363 57.2147 60.8544 57.0755C60.8726 56.9384 60.9876 56.8456 61.1368 56.8577C62.4642 57.0231 63.8118 57.2289 65.1453 57.4669C65.2804 57.4911 65.3732 57.6222 65.349 57.7594C65.3268 57.8804 65.2199 57.9672 65.1009 57.9672ZM37.1287 59.1776C37.0218 59.1776 36.9229 59.109 36.8886 59.0001C36.8463 58.8669 36.9209 58.7257 37.0541 58.6854C38.331 58.2819 39.6463 57.9228 40.9656 57.6142C41.0988 57.5819 41.238 57.6666 41.2682 57.8018C41.3005 57.9369 41.2158 58.0721 41.0806 58.1044C39.7734 58.411 38.4682 58.7681 37.2054 59.1655C37.1791 59.1735 37.1549 59.1776 37.1287 59.1776ZM72.9845 59.7344C72.9623 59.7344 72.9402 59.7323 72.918 59.7263C71.6067 59.3712 70.2914 59.0464 69.0064 58.758C68.8692 58.7277 68.7845 58.5926 68.8147 58.4554C68.845 58.3202 68.9721 58.2335 69.1153 58.2657C70.4084 58.5562 71.7318 58.883 73.0511 59.2381C73.1843 59.2764 73.2649 59.4136 73.2266 59.5488C73.1964 59.6597 73.0955 59.7344 72.9845 59.7344ZM80.7048 62.135C80.6766 62.135 80.6484 62.131 80.6201 62.1209C79.3573 61.675 78.0682 61.2494 76.7933 60.852C76.6601 60.8096 76.5855 60.6684 76.6278 60.5373C76.6682 60.4041 76.8114 60.3275 76.9425 60.3718C78.2235 60.7693 79.5187 61.1989 80.7876 61.6448C80.9187 61.6912 80.9893 61.8364 80.9429 61.9675C80.9066 62.0704 80.8097 62.135 80.7048 62.135ZM29.6586 62.2136C29.5678 62.2136 29.479 62.1632 29.4346 62.0744C29.3721 61.9514 29.4205 61.8001 29.5456 61.7355C30.7338 61.1303 31.9765 60.5635 33.2373 60.0531C33.3624 59.9966 33.5116 60.0632 33.5641 60.1923C33.6165 60.3214 33.554 60.4687 33.4249 60.5211C32.1782 61.0254 30.9496 61.5863 29.7736 62.1854C29.7372 62.2036 29.6969 62.2136 29.6586 62.2136ZM88.2416 65.0581C88.2093 65.0581 88.177 65.052 88.1427 65.0379C86.9081 64.5134 85.6513 64.001 84.4046 63.5189C84.2755 63.4684 84.2109 63.3212 84.2614 63.1921C84.3138 63.0629 84.4591 63.0024 84.5882 63.0488C85.8389 63.533 87.1018 64.0474 88.3404 64.5739C88.4695 64.6284 88.528 64.7757 88.4756 64.9048C88.4332 64.9996 88.3404 65.0581 88.2416 65.0581ZM22.84 66.5126C22.7634 66.5126 22.6907 66.4803 22.6403 66.4157C22.5556 66.3048 22.5758 66.1454 22.6867 66.0607C23.7458 65.2457 24.8654 64.463 26.0133 63.7387C26.1323 63.6661 26.2876 63.7004 26.3623 63.8174C26.4369 63.9364 26.4006 64.0918 26.2836 64.1644C25.1478 64.8826 24.0423 65.6552 22.9933 66.4621C22.949 66.4964 22.8945 66.5126 22.84 66.5126ZM95.5887 68.431C95.5523 68.431 95.514 68.423 95.4777 68.4048C94.2633 67.8057 93.0388 67.2227 91.8344 66.6699C91.7093 66.6114 91.6529 66.4601 91.7114 66.335C91.7699 66.2079 91.9191 66.1515 92.0462 66.21C93.2526 66.7647 94.4832 67.3518 95.7016 67.9509C95.8267 68.0134 95.8771 68.1647 95.8166 68.2898C95.7722 68.3786 95.6814 68.431 95.5887 68.431ZM16.9474 72.0138C16.8869 72.0138 16.8284 71.9936 16.78 71.9492C16.6751 71.8584 16.667 71.6991 16.7598 71.5942C17.6535 70.5875 18.6057 69.6091 19.5921 68.6892C19.693 68.5924 19.8524 68.5985 19.9472 68.6993C20.044 68.8022 20.038 68.9616 19.9351 69.0564C18.9627 69.9682 18.0206 70.9345 17.135 71.9291C17.0866 71.9855 17.018 72.0138 16.9474 72.0138ZM102.744 72.1954C102.702 72.1954 102.661 72.1853 102.621 72.1631C101.449 71.5075 100.255 70.8599 99.0745 70.2386C98.9515 70.174 98.9031 70.0207 98.9676 69.8976C99.0342 69.7746 99.1875 69.7262 99.3085 69.7907C100.495 70.4161 101.691 71.0657 102.867 71.7233C102.988 71.7919 103.033 71.9452 102.964 72.0662C102.918 72.149 102.833 72.1954 102.744 72.1954ZM109.704 76.3147C109.659 76.3147 109.613 76.3026 109.571 76.2764C108.421 75.5582 107.261 74.8542 106.123 74.1804C106.002 74.1098 105.962 73.9545 106.034 73.8354C106.103 73.7124 106.258 73.674 106.379 73.7467C107.519 74.4205 108.685 75.1285 109.839 75.8487C109.956 75.9234 109.992 76.0787 109.918 76.1977C109.871 76.2724 109.789 76.3147 109.704 76.3147ZM12.1522 78.5015C12.1058 78.5015 12.0615 78.4894 12.0191 78.4632C11.9021 78.3905 11.8638 78.2352 11.9364 78.1162C12.6465 76.9603 13.4111 75.8265 14.2039 74.7493C14.2886 74.6383 14.4459 74.6161 14.5569 74.6968C14.6699 74.7795 14.692 74.9369 14.6093 75.0478C13.8246 76.115 13.0701 77.2346 12.3661 78.3804C12.3197 78.4591 12.237 78.5015 12.1522 78.5015ZM116.462 80.7569C116.411 80.7569 116.361 80.7407 116.319 80.7125C115.201 79.9399 114.073 79.1813 112.97 78.4551C112.853 78.3784 112.821 78.2231 112.897 78.1061C112.974 77.9931 113.129 77.9588 113.246 78.0335C114.354 78.7617 115.483 79.5223 116.603 80.2949C116.72 80.3756 116.748 80.5329 116.67 80.6459C116.619 80.7165 116.541 80.7569 116.462 80.7569ZM123 85.4875C122.948 85.4875 122.895 85.4713 122.849 85.437C121.767 84.62 120.678 83.8111 119.609 83.0364C119.496 82.9537 119.472 82.7964 119.552 82.6854C119.635 82.5704 119.792 82.5462 119.905 82.6289C120.977 83.4036 122.07 84.2145 123.153 85.0356C123.264 85.1183 123.284 85.2777 123.202 85.3886C123.151 85.4532 123.077 85.4875 123 85.4875ZM8.47871 85.6872C8.44643 85.6872 8.41415 85.6811 8.38187 85.669C8.25277 85.6146 8.19225 85.4653 8.24671 85.3382C8.77525 84.0794 9.35019 82.8407 9.95337 81.6586C10.0159 81.5335 10.1672 81.4831 10.2923 81.5476C10.4174 81.6102 10.4658 81.7635 10.4032 81.8866C9.80409 83.0606 9.2352 84.2872 8.7107 85.5339C8.67035 85.6307 8.57755 85.6872 8.47871 85.6872ZM129.336 90.5146C129.28 90.5146 129.223 90.4965 129.175 90.4581C128.158 89.6129 127.103 88.7555 126.038 87.9103C125.929 87.8235 125.911 87.6662 125.998 87.5572C126.086 87.4483 126.244 87.4322 126.351 87.5149C127.42 88.3621 128.479 89.2215 129.498 90.0688C129.605 90.1576 129.621 90.3169 129.532 90.4238C129.482 90.4844 129.409 90.5146 129.336 90.5146ZM5.84207 93.3187C5.81786 93.3187 5.79567 93.3167 5.77348 93.3106C5.64034 93.2723 5.55965 93.1331 5.59797 92.998C5.96513 91.6847 6.36859 90.3815 6.8003 89.1267C6.8467 88.9956 6.99194 88.9209 7.12105 88.9694C7.25218 89.0158 7.32278 89.159 7.2784 89.2901C6.84871 90.5368 6.44727 91.8299 6.08415 93.1351C6.05389 93.2461 5.95101 93.3187 5.84207 93.3187ZM135.457 95.8323C135.394 95.8323 135.336 95.8101 135.287 95.7657C134.293 94.862 133.274 93.9562 132.259 93.0746C132.155 92.9859 132.144 92.8245 132.235 92.7196C132.326 92.6127 132.485 92.6066 132.59 92.6954C133.609 93.5789 134.628 94.4867 135.626 95.3925C135.729 95.4873 135.737 95.6467 135.643 95.7496C135.592 95.8041 135.525 95.8323 135.457 95.8323ZM4.10315 101.208C4.08903 101.208 4.07491 101.206 4.06079 101.204C3.92361 101.182 3.83081 101.051 3.85502 100.914C4.07895 99.5724 4.33716 98.2349 4.6216 96.9358C4.65186 96.8006 4.78501 96.7159 4.92218 96.7421C5.05735 96.7724 5.14409 96.9075 5.11383 97.0427C4.83141 98.3338 4.57521 99.6652 4.35128 100.997C4.33111 101.12 4.22419 101.208 4.10315 101.208ZM141.313 101.408C141.249 101.408 141.184 101.384 141.136 101.334C140.181 100.383 139.207 99.4352 138.243 98.5173C138.142 98.4205 138.138 98.2612 138.235 98.1603C138.33 98.0614 138.491 98.0554 138.59 98.1522C139.558 99.0741 140.535 100.024 141.491 100.976C141.59 101.075 141.59 101.235 141.491 101.334C141.442 101.384 141.378 101.408 141.313 101.408ZM146.897 107.254C146.829 107.254 146.762 107.226 146.712 107.172C145.806 106.177 144.88 105.183 143.958 104.218C143.863 104.119 143.867 103.958 143.966 103.863C144.069 103.768 144.226 103.768 144.323 103.871C145.249 104.838 146.177 105.834 147.085 106.833C147.18 106.936 147.171 107.095 147.067 107.188C147.02 107.232 146.96 107.254 146.897 107.254ZM3.12878 109.227C3.12273 109.227 3.11668 109.227 3.10861 109.227C2.96941 109.215 2.86653 109.094 2.87661 108.957C2.98353 107.597 3.11869 106.24 3.27806 104.924C3.2942 104.787 3.40717 104.694 3.55847 104.704C3.69766 104.721 3.7945 104.846 3.77836 104.985C3.62101 106.294 3.48585 107.644 3.37893 108.995C3.37086 109.126 3.25991 109.227 3.12878 109.227ZM152.183 113.373C152.11 113.373 152.037 113.341 151.987 113.28C151.148 112.255 150.274 111.216 149.389 110.192C149.298 110.087 149.31 109.927 149.417 109.837C149.522 109.744 149.681 109.758 149.772 109.863C150.659 110.89 151.537 111.933 152.378 112.961C152.467 113.068 152.451 113.228 152.342 113.316C152.296 113.355 152.239 113.373 152.183 113.373ZM2.80197 117.303C2.66277 117.301 2.5498 117.188 2.5498 117.048C2.55586 115.695 2.58612 114.333 2.63857 113C2.64462 112.863 2.75154 112.748 2.90082 112.758C3.04001 112.764 3.14895 112.881 3.1429 113.02C3.09045 114.347 3.06019 115.703 3.05413 117.05C3.05413 117.19 2.94116 117.303 2.80197 117.303ZM157.127 119.77C157.048 119.77 156.972 119.736 156.923 119.667C156.13 118.58 155.315 117.492 154.5 116.439C154.416 116.328 154.436 116.171 154.547 116.084C154.656 115.999 154.813 116.018 154.9 116.131C155.719 117.188 156.536 118.279 157.331 119.37C157.411 119.483 157.387 119.641 157.276 119.721C157.23 119.756 157.177 119.77 157.127 119.77ZM3.02993 125.384C2.89679 125.384 2.78583 125.279 2.77777 125.146C2.69707 123.778 2.63655 122.415 2.60024 121.099C2.59621 120.96 2.70514 120.843 2.84434 120.839H2.85241C2.98757 120.839 3.10054 120.948 3.10457 121.085C3.14088 122.396 3.2014 123.752 3.2821 125.116C3.29017 125.255 3.18325 125.374 3.04405 125.384H3.02993ZM161.676 126.451C161.593 126.451 161.511 126.411 161.462 126.334C160.752 125.215 160.006 124.081 159.245 122.965C159.169 122.85 159.197 122.693 159.312 122.614C159.425 122.536 159.584 122.566 159.663 122.681C160.425 123.8 161.176 124.94 161.888 126.064C161.963 126.183 161.928 126.338 161.811 126.413C161.769 126.439 161.722 126.451 161.676 126.451ZM165.759 133.427C165.67 133.427 165.584 133.379 165.537 133.294C164.908 132.124 164.244 130.942 163.562 129.778C163.494 129.659 163.534 129.505 163.653 129.433C163.77 129.36 163.927 129.403 163.998 129.524C164.682 130.692 165.35 131.88 165.981 133.056C166.048 133.177 166.001 133.332 165.878 133.397C165.842 133.417 165.799 133.427 165.759 133.427ZM3.74204 133.437C3.61495 133.437 3.50601 133.342 3.49189 133.213C3.33252 131.856 3.19534 130.498 3.07834 129.187C3.06623 129.047 3.16912 128.924 3.3063 128.912C3.4697 128.898 3.56855 129.003 3.58065 129.14C3.69564 130.45 3.83483 131.801 3.99218 133.157C4.00832 133.294 3.90947 133.419 3.77028 133.435C3.76019 133.437 3.75212 133.437 3.74204 133.437ZM169.287 140.695C169.191 140.695 169.098 140.639 169.055 140.544C168.523 139.316 167.956 138.083 167.373 136.883C167.312 136.758 167.365 136.606 167.49 136.546C167.613 136.483 167.764 136.536 167.827 136.661C168.414 137.871 168.983 139.108 169.519 140.342C169.574 140.472 169.515 140.619 169.388 140.675C169.356 140.687 169.322 140.695 169.287 140.695ZM4.8778 141.442C4.75676 141.442 4.64984 141.353 4.62967 141.23C4.40171 139.88 4.19393 138.535 4.01035 137.23C3.99018 137.093 4.08701 136.963 4.22419 136.945C4.35329 136.923 4.48845 137.02 4.50863 137.159C4.6922 138.46 4.89999 139.802 5.12593 141.147C5.15014 141.285 5.05734 141.414 4.92016 141.438C4.90604 141.44 4.89192 141.442 4.8778 141.442ZM172.136 148.252C172.029 148.252 171.93 148.186 171.896 148.079C171.494 146.824 171.049 145.547 170.568 144.278C170.52 144.147 170.585 144.002 170.716 143.953C170.845 143.897 170.99 143.968 171.04 144.099C171.525 145.376 171.972 146.663 172.376 147.924C172.418 148.057 172.346 148.2 172.213 148.242C172.186 148.25 172.16 148.252 172.136 148.252ZM6.40088 149.38C6.28387 149.38 6.18099 149.299 6.15476 149.18C5.87234 147.873 5.6 146.538 5.34783 145.214C5.31959 145.077 5.41037 144.946 5.54755 144.92C5.68069 144.883 5.81585 144.982 5.84208 145.119C6.09424 146.439 6.36456 147.77 6.64699 149.075C6.67725 149.211 6.5905 149.346 6.45333 149.374C6.43719 149.378 6.41903 149.38 6.40088 149.38ZM174.153 156.069C174.036 156.069 173.929 155.985 173.907 155.864C173.657 154.579 173.358 153.259 173.017 151.942C172.983 151.807 173.064 151.67 173.199 151.635C173.33 151.601 173.469 151.682 173.506 151.817C173.849 153.142 174.151 154.472 174.401 155.769C174.428 155.904 174.339 156.037 174.202 156.063C174.185 156.067 174.169 156.069 174.153 156.069ZM8.27899 157.242C8.16602 157.242 8.06515 157.165 8.03489 157.052C7.69397 155.749 7.36514 154.439 7.05246 153.128C7.02018 152.991 7.10289 152.856 7.23805 152.824C7.37119 152.791 7.51039 152.874 7.54267 153.009C7.85737 154.318 8.18216 155.624 8.52308 156.925C8.55738 157.06 8.4787 157.197 8.34354 157.233C8.32135 157.238 8.29916 157.242 8.27899 157.242ZM175.152 164.074C175.019 164.074 174.908 163.969 174.9 163.834C174.831 162.517 174.712 161.169 174.543 159.832C174.524 159.695 174.623 159.568 174.76 159.551C174.912 159.539 175.025 159.632 175.043 159.769C175.212 161.119 175.335 162.479 175.404 163.808C175.412 163.947 175.305 164.066 175.166 164.074H175.152ZM10.5485 165.204C10.4416 165.204 10.3427 165.135 10.3084 165.026L10.2479 164.831C9.85453 163.55 9.46721 162.245 9.10207 160.953C9.06374 160.82 9.1404 160.681 9.27556 160.643C9.41476 160.606 9.54992 160.683 9.58623 160.816C9.95338 162.103 10.3387 163.406 10.7321 164.685L10.7886 164.877C10.8309 165.01 10.7563 165.149 10.6231 165.192C10.5989 165.2 10.5727 165.204 10.5485 165.204ZM175.021 172.143C175.015 172.143 175.011 172.143 175.005 172.143C174.865 172.133 174.76 172.012 174.77 171.873C174.863 170.554 174.928 169.202 174.958 167.855C174.96 167.715 175.059 167.615 175.216 167.609C175.353 167.611 175.464 167.726 175.462 167.867C175.432 169.222 175.368 170.582 175.273 171.909C175.265 172.043 175.152 172.143 175.021 172.143ZM13.0479 172.886C12.9451 172.886 12.8462 172.821 12.8099 172.716C12.3741 171.443 11.9465 170.165 11.5289 168.882C11.4865 168.75 11.5592 168.607 11.6923 168.565C11.8254 168.522 11.9667 168.595 12.009 168.726C12.4266 170.005 12.8523 171.282 13.288 172.553C13.3324 172.684 13.2618 172.827 13.1306 172.874C13.1024 172.882 13.0762 172.886 13.0479 172.886ZM174.03 180.152C174.016 180.152 174.002 180.15 173.986 180.148C173.849 180.122 173.758 179.991 173.782 179.856C174.014 178.557 174.216 177.219 174.383 175.878C174.399 175.738 174.532 175.64 174.664 175.658C174.803 175.676 174.9 175.801 174.883 175.94C174.716 177.292 174.512 178.637 174.278 179.942C174.256 180.066 174.151 180.152 174.03 180.152ZM15.7814 180.479C15.6806 180.479 15.5837 180.417 15.5474 180.316C15.0713 179.059 14.6053 177.796 14.1474 176.529C14.099 176.398 14.1676 176.253 14.2987 176.204C14.4318 176.16 14.573 176.227 14.6215 176.358C15.0774 177.623 15.5434 178.883 16.0174 180.136C16.0659 180.267 16.0013 180.412 15.8722 180.461C15.8419 180.473 15.8117 180.479 15.7814 180.479ZM18.7671 187.992C18.6682 187.992 18.5754 187.933 18.5351 187.836C18.0166 186.596 17.5103 185.347 17.01 184.088C16.9575 183.959 17.0221 183.812 17.1512 183.761C17.2763 183.711 17.4255 183.771 17.478 183.9C17.9763 185.157 18.4846 186.404 18.9991 187.643C19.0535 187.772 18.993 187.919 18.8639 187.971C18.8316 187.986 18.7993 187.992 18.7671 187.992ZM172.156 187.998C172.134 187.998 172.11 187.996 172.083 187.988C171.95 187.947 171.876 187.806 171.916 187.673C172.299 186.398 172.652 185.091 172.961 183.792C172.995 183.656 173.124 183.574 173.266 183.604C173.401 183.638 173.485 183.773 173.453 183.909C173.14 185.218 172.785 186.533 172.398 187.818C172.366 187.927 172.265 187.998 172.156 187.998ZM22.0028 195.401C21.908 195.401 21.8172 195.347 21.7749 195.254C21.2161 194.033 20.6633 192.801 20.1207 191.56C20.0662 191.433 20.1247 191.284 20.2518 191.227C20.3789 191.175 20.5282 191.229 20.5846 191.358C21.1253 192.597 21.674 193.826 22.2328 195.044C22.2913 195.171 22.2348 195.32 22.1097 195.379C22.0754 195.395 22.0391 195.401 22.0028 195.401ZM169.368 195.569C169.334 195.569 169.299 195.563 169.265 195.546C169.138 195.492 169.082 195.343 169.136 195.216C169.673 193.997 170.177 192.742 170.641 191.486C170.689 191.356 170.833 191.288 170.966 191.336C171.095 191.385 171.161 191.53 171.113 191.661C170.647 192.928 170.137 194.191 169.598 195.417C169.556 195.512 169.465 195.569 169.368 195.569ZM25.5069 202.686C25.4141 202.686 25.3254 202.635 25.281 202.549C24.6778 201.35 24.0807 200.14 23.4916 198.917C23.4311 198.792 23.4835 198.641 23.6106 198.58C23.7397 198.522 23.887 198.572 23.9475 198.697C24.5346 199.916 25.1277 201.124 25.7308 202.321C25.7934 202.446 25.745 202.597 25.6199 202.659C25.5836 202.678 25.5452 202.686 25.5069 202.686ZM165.68 202.75C165.636 202.75 165.592 202.74 165.551 202.716C165.43 202.643 165.392 202.49 165.463 202.371C166.146 201.215 166.802 200.029 167.409 198.843C167.474 198.718 167.623 198.669 167.748 198.734C167.873 198.798 167.922 198.95 167.859 199.073C167.246 200.267 166.586 201.463 165.896 202.627C165.85 202.706 165.765 202.75 165.68 202.75ZM161.178 209.448C161.125 209.448 161.071 209.432 161.024 209.397C160.916 209.315 160.893 209.155 160.976 209.044C161.785 207.975 162.572 206.876 163.314 205.772C163.393 205.657 163.548 205.625 163.665 205.704C163.78 205.782 163.81 205.94 163.732 206.055C162.985 207.166 162.194 208.274 161.379 209.349C161.329 209.413 161.254 209.448 161.178 209.448ZM29.2934 209.829C29.2047 209.829 29.1199 209.783 29.0735 209.7C28.43 208.546 27.7804 207.35 27.141 206.143C27.0764 206.02 27.1208 205.867 27.2438 205.802C27.3689 205.742 27.5202 205.784 27.5848 205.907C28.2243 207.11 28.8718 208.304 29.5133 209.454C29.5819 209.575 29.5375 209.73 29.4165 209.797C29.3782 209.819 29.3358 209.829 29.2934 209.829ZM155.977 215.617C155.917 215.617 155.854 215.595 155.806 215.548C155.705 215.455 155.699 215.294 155.794 215.193C156.713 214.207 157.613 213.192 158.467 212.181C158.557 212.078 158.717 212.062 158.822 212.151C158.928 212.242 158.943 212.401 158.852 212.508C157.992 213.525 157.089 214.544 156.163 215.538C156.112 215.591 156.046 215.617 155.977 215.617ZM33.3886 216.799C33.3059 216.799 33.2232 216.757 33.1747 216.68C32.4747 215.548 31.7707 214.382 31.0828 213.214C31.0142 213.093 31.0525 212.938 31.1736 212.867C31.2926 212.797 31.4479 212.839 31.5185 212.958C32.2044 214.124 32.9044 215.286 33.6044 216.414C33.6771 216.533 33.6408 216.688 33.5217 216.761C33.4814 216.787 33.435 216.799 33.3886 216.799ZM150.206 221.263C150.135 221.263 150.066 221.235 150.016 221.178C149.923 221.076 149.933 220.916 150.036 220.823C151.049 219.916 152.037 218.992 152.979 218.072C153.078 217.975 153.24 217.979 153.334 218.076C153.433 218.177 153.431 218.336 153.33 218.433C152.384 219.357 151.39 220.287 150.373 221.199C150.325 221.241 150.264 221.263 150.206 221.263ZM37.8267 223.557C37.746 223.557 37.6673 223.519 37.6189 223.448C36.8564 222.353 36.0938 221.223 35.3535 220.091C35.2748 219.976 35.3091 219.819 35.4261 219.742C35.5411 219.668 35.6964 219.7 35.7751 219.817C36.5134 220.945 37.274 222.068 38.0325 223.16C38.1132 223.275 38.0849 223.432 37.9699 223.511C37.9256 223.541 37.8771 223.557 37.8267 223.557ZM143.98 226.413C143.903 226.413 143.829 226.379 143.78 226.315C143.696 226.204 143.716 226.046 143.827 225.962C144.898 225.139 145.961 224.295 146.982 223.452C147.089 223.361 147.246 223.377 147.335 223.484C147.424 223.593 147.41 223.751 147.303 223.839C146.276 224.689 145.211 225.536 144.133 226.361C144.087 226.397 144.033 226.413 143.98 226.413ZM42.642 230.047C42.5694 230.047 42.4948 230.014 42.4443 229.952C41.6293 228.921 40.8002 227.84 39.9792 226.736C39.8965 226.625 39.9207 226.466 40.0316 226.383C40.1446 226.302 40.3019 226.325 40.3867 226.436C41.2017 227.535 42.0268 228.612 42.8397 229.637C42.9265 229.746 42.9083 229.905 42.7994 229.992C42.753 230.028 42.6985 230.047 42.642 230.047ZM137.41 231.116C137.329 231.116 137.25 231.075 137.2 231.003C137.123 230.888 137.154 230.73 137.271 230.654C138.392 229.901 139.508 229.129 140.587 228.358C140.698 228.275 140.857 228.304 140.938 228.417C141.019 228.53 140.994 228.689 140.882 228.77C139.798 229.542 138.679 230.317 137.551 231.073C137.509 231.102 137.458 231.116 137.41 231.116ZM130.577 235.429C130.49 235.429 130.408 235.384 130.359 235.306C130.289 235.187 130.327 235.031 130.448 234.959C131.622 234.259 132.78 233.551 133.887 232.851C134.006 232.78 134.162 232.812 134.236 232.929C134.309 233.048 134.275 233.204 134.158 233.278C133.044 233.978 131.884 234.691 130.706 235.393C130.666 235.417 130.621 235.429 130.577 235.429ZM47.8911 236.191C47.8245 236.191 47.7559 236.163 47.7075 236.111C46.8098 235.14 45.904 234.12 45.0164 233.081C44.9277 232.976 44.9377 232.814 45.0447 232.726C45.1516 232.637 45.3109 232.647 45.3997 232.754C46.2833 233.789 47.185 234.801 48.0767 235.768C48.1715 235.871 48.1655 236.03 48.0626 236.125C48.0142 236.169 47.9536 236.191 47.8911 236.191ZM123.543 239.411C123.452 239.411 123.365 239.363 123.321 239.28C123.254 239.157 123.301 239.004 123.422 238.937C124.612 238.295 125.79 237.646 126.956 236.986C127.077 236.918 127.23 236.96 127.301 237.081C127.367 237.202 127.325 237.355 127.204 237.426C126.036 238.086 124.854 238.737 123.662 239.381C123.623 239.401 123.583 239.411 123.543 239.411ZM53.6364 241.872C53.5759 241.872 53.5154 241.85 53.469 241.808C52.4785 240.92 51.486 239.984 50.5217 239.026C50.4208 238.927 50.4208 238.768 50.5197 238.669C50.6165 238.57 50.7759 238.57 50.8747 238.667C51.835 239.621 52.8214 240.549 53.8059 241.432C53.9088 241.525 53.9168 241.685 53.824 241.789C53.7736 241.844 53.705 241.872 53.6364 241.872ZM116.361 243.117C116.268 243.117 116.177 243.066 116.135 242.978C116.073 242.853 116.125 242.699 116.248 242.639C117.458 242.038 118.661 241.432 119.853 240.817C119.974 240.755 120.125 240.803 120.192 240.926C120.254 241.049 120.208 241.202 120.083 241.267C118.889 241.882 117.686 242.489 116.472 243.091C116.436 243.109 116.397 243.117 116.361 243.117ZM109.064 246.601C108.969 246.601 108.879 246.546 108.836 246.453C108.778 246.328 108.832 246.177 108.959 246.121C110.184 245.554 111.404 244.981 112.615 244.404C112.738 244.347 112.893 244.398 112.952 244.523C113.012 244.648 112.958 244.799 112.833 244.86C111.618 245.439 110.398 246.01 109.169 246.577C109.137 246.593 109.101 246.601 109.064 246.601ZM59.9446 246.913C59.8962 246.913 59.8457 246.897 59.8014 246.867C58.7221 246.109 57.6307 245.29 56.5595 244.43C56.4506 244.343 56.4324 244.184 56.5192 244.075C56.61 243.968 56.7673 243.95 56.8742 244.037C57.9374 244.888 59.0186 245.703 60.0898 246.454C60.2048 246.534 60.2331 246.692 60.1524 246.807C60.104 246.875 60.0253 246.913 59.9446 246.913ZM101.705 249.899C101.608 249.899 101.516 249.843 101.473 249.748C101.419 249.621 101.477 249.471 101.604 249.415C102.839 248.876 104.069 248.334 105.292 247.785C105.419 247.728 105.568 247.785 105.625 247.912C105.681 248.039 105.625 248.188 105.5 248.245C104.273 248.794 103.043 249.338 101.806 249.877C101.774 249.891 101.739 249.899 101.705 249.899ZM66.8761 251.047C66.8378 251.047 66.7995 251.039 66.7631 251.021C65.579 250.438 64.3807 249.786 63.2006 249.078C63.0815 249.007 63.0432 248.852 63.1138 248.733C63.1844 248.614 63.3397 248.574 63.4608 248.646C64.6288 249.344 65.815 249.992 66.9871 250.569C67.1121 250.631 67.1626 250.781 67.1021 250.906C67.0577 250.997 66.9669 251.047 66.8761 251.047ZM94.2552 253.028C94.1523 253.028 94.0555 252.963 94.0191 252.861C93.9707 252.729 94.0393 252.584 94.1704 252.538C94.7555 252.326 95.3546 252.092 95.9517 251.84C96.5993 251.565 97.2489 251.291 97.8964 251.015C98.0235 250.962 98.1728 251.019 98.2273 251.146C98.2817 251.275 98.2232 251.424 98.0962 251.477C97.4466 251.755 96.797 252.031 96.1474 252.306C95.5422 252.56 94.935 252.798 94.3419 253.012C94.3137 253.022 94.2834 253.028 94.2552 253.028ZM74.4108 253.897C74.3906 253.897 74.3684 253.893 74.3483 253.889C73.0673 253.55 71.7681 253.131 70.4851 252.643C70.354 252.594 70.2874 252.447 70.3378 252.318C70.3883 252.187 70.5335 252.122 70.6626 252.173C71.9315 252.653 73.2145 253.068 74.4754 253.401C74.6105 253.437 74.6912 253.575 74.6549 253.708C74.6246 253.823 74.5238 253.897 74.4108 253.897ZM86.4058 254.858C86.2767 254.858 86.1677 254.761 86.1536 254.632C86.1395 254.493 86.2404 254.369 86.3775 254.353C87.6949 254.214 89.0243 253.988 90.3275 253.682C90.4687 253.647 90.5998 253.736 90.6301 253.869C90.6644 254.004 90.5796 254.142 90.4445 254.172C89.1191 254.484 87.7695 254.712 86.432 254.856C86.4219 254.858 86.4139 254.858 86.4058 254.858ZM82.3711 255.031H82.3671C81.0296 255.005 79.67 254.892 78.3224 254.698C78.1852 254.678 78.0904 254.551 78.1106 254.414C78.1287 254.275 78.2437 254.176 78.395 254.2C79.7204 254.392 81.0599 254.501 82.3772 254.527C82.5144 254.531 82.6273 254.646 82.6233 254.785C82.6213 254.922 82.5083 255.031 82.3711 255.031Z" fill="#D8D5DB"/>
<mask id="mask1" mask-type="alpha" maskUnits="userSpaceOnUse" x="18" y="63" width="148" height="199">
<path fill-rule="evenodd" clip-rule="evenodd" d="M18.8618 63.1362H165.597V261.31H18.8618V63.1362Z" fill="white"/>
</mask>
<g mask="url(#mask1)">
<path fill-rule="evenodd" clip-rule="evenodd" d="M155.555 229.585C154.426 229.888 153.296 230.473 152.388 231.502C151.864 232.107 151.178 233.237 150.573 234.427C150.431 230.352 150.29 226.882 150.149 224.744C150.532 224.703 150.754 224.703 150.754 224.703C150.754 224.219 150.754 223.735 150.734 223.211C150.633 213.386 149.564 196.3 148.152 179.273C148.656 180.322 149.14 181.291 149.604 182.158C149.624 182.461 149.624 182.763 149.685 183.086C150.431 187.161 154.163 209.715 155.253 223.311C155.455 225.752 155.555 227.891 155.555 229.585ZM164.533 179.879V179.838C163.362 176.025 159.429 164.668 154.95 153.391L159.913 151.697C159.913 151.697 145.388 125.855 136.895 120.166C136.875 120.146 136.855 120.146 136.835 120.126C133.849 117.342 129.492 115.526 122.976 114.78C122.935 109.393 123.339 100.315 123.803 93.3557C127.152 92.5891 128.765 88.6553 128.987 87.7879C129.451 86.0126 129.028 84.54 128.16 83.5919C128.422 81.393 128.866 77.1163 128.745 73.4447C128.644 70.0758 128.1 67.2314 126.526 66.8884C126.546 66.8279 126.587 66.7876 126.607 66.7472C127.131 65.0729 126.143 63.2169 126.103 63.1362L125.215 63.6204C125.457 64.044 125.961 65.3755 125.639 66.4245C124.146 64.7703 119.506 64.1045 114.301 64.2054C107.019 64.3264 98.667 66.0008 96.4076 68.6233C94.8341 70.4389 95.2981 71.4274 96.9321 71.8712C96.69 73.5658 96.5892 75.0384 96.5488 76.39C96.3068 77.0154 96.0848 77.6609 95.8629 78.3468C95.2779 78.7503 94.7131 79.3353 94.2894 80.2431L95.2174 80.6667C95.2376 80.6264 95.2577 80.6062 95.2779 80.5659C95.0358 81.5947 94.8139 82.6437 94.6525 83.7936C92.837 96.301 89.8715 108.748 102.278 108.889C102.258 110.301 102.177 111.673 102.036 112.964C101.935 113.993 101.794 114.961 101.612 115.829C96.8918 116.979 93.2001 118.794 90.6381 121.235C81.5198 128.76 70.0009 152.927 70.0009 152.927L73.8741 154.844C71.0096 160.411 68.1853 166.1 66.0671 170.72C56.2629 163.942 39.035 151.374 33.9514 145.867C33.9514 145.846 33.9312 145.846 33.911 145.826C34.1128 143.708 33.7295 140.279 33.1646 138.342C33.1646 138.302 33.1646 138.261 33.1444 138.201C33.1041 138.1 33.0638 138.039 33.0436 137.959C33.0032 137.838 32.9629 137.696 32.9225 137.596C32.8217 137.333 32.741 137.152 32.6603 136.99C31.3087 134.005 29.1703 132.835 27.8994 128.861C27.2337 126.742 25.5997 127.61 24.9743 129.022L20.1731 118.29L18.8618 118.875L25.0348 132.734C23.5823 132.088 22.3114 131.705 21.444 132.008C20.2538 132.411 18.9425 138.402 19.5074 140.541C20.0722 142.659 25.8619 149.478 28.0205 150.648C28.1818 150.728 28.3634 150.789 28.5248 150.809C32.0147 155.691 55.1534 183.167 64.4533 187.928C70.2228 190.853 74.56 188.331 75.9923 184.579C77.8483 181.593 81.2575 175.763 84.9694 169.025C83.759 187.786 81.4391 208.928 77.0615 223.755C77.465 223.816 77.8886 223.876 78.3123 223.937C77.0817 230.09 76.1739 238.179 75.5284 246.39C80.0875 248.326 84.7273 250.081 89.4075 251.655C110.287 258.715 131.953 262.246 150.795 261.096C151.097 260.168 151.238 259.2 151.218 258.171C151.117 254.136 150.996 249.194 150.875 244.312C151.884 246.934 153.195 249.093 154.244 249.637C155.354 250.202 160.599 246.995 161.749 245.078C162.878 243.222 163.746 234.306 163.08 231.925C163.04 231.764 162.919 231.643 162.838 231.502C163.08 230.17 163.443 227.265 163.847 223.473C165.138 210.683 166.671 187.706 164.533 179.879Z" fill="#D1CDD3"/>
</g>
<path fill-rule="evenodd" clip-rule="evenodd" d="M113.013 141.183L99.8618 132.601C99.8618 132.601 86.7916 156.654 80.3463 170.726C70.5481 163.942 53.3202 151.38 48.2345 145.861C48.2204 145.847 48.2063 145.839 48.1922 145.825C48.3919 143.702 48.0086 140.283 47.4498 138.344C47.4377 138.294 47.4357 138.254 47.4175 138.199C47.3893 138.108 47.351 138.036 47.3207 137.949C47.2804 137.836 47.244 137.693 47.2037 137.596C47.0968 137.336 47.0141 137.146 46.9394 136.983C45.5878 134.015 43.4454 132.829 42.1826 128.867C41.303 126.101 38.7673 128.421 39.0174 130.416C39.0174 130.416 39.3946 131.711 39.8203 132.958C38.1439 132.159 36.6955 131.675 35.7191 132.004C34.5369 132.401 33.2156 138.401 33.7825 140.545C34.3392 142.655 40.137 149.478 42.3077 150.652C42.465 150.737 42.6304 150.783 42.7999 150.809C46.2999 155.697 69.4386 183.175 78.7405 187.92C84.5019 190.859 88.8291 188.328 90.2755 184.583C94.6733 177.444 107.982 154.209 113.013 141.183Z" fill="#FFAD69"/>
<path fill-rule="evenodd" clip-rule="evenodd" d="M114.803 126.406C116.796 136.432 108.783 164.963 108.783 164.963L84.2725 152.933C84.2725 152.933 109.545 99.9565 114.803 126.406Z" fill="#EA3939"/>
<path fill-rule="evenodd" clip-rule="evenodd" d="M165.502 258.171C165.502 258.493 165.502 258.816 165.461 259.139C160.842 260.148 155.919 260.813 150.795 261.096C131.953 262.246 110.287 258.715 89.4082 251.655C90.1344 240.882 91.2641 229.646 92.999 222.061L150.735 223.21L155.254 223.311L163.847 223.473L164.352 223.493C164.755 228.092 165.239 246.712 165.502 258.171Z" fill="#232323"/>
<path fill-rule="evenodd" clip-rule="evenodd" d="M132.525 114.444C148.369 114.966 153.725 120.314 156.457 129.564C159.557 140.066 165.02 203.498 165.02 224.694C165.02 224.694 117.605 228.053 91.3374 223.748C99.5721 195.929 100.464 145.906 100.629 131.004C100.752 119.822 112.439 113.78 132.525 114.444Z" fill="#FF4E4A"/>
<path fill-rule="evenodd" clip-rule="evenodd" d="M118.567 88.5051C117.006 87.331 108.864 88.3961 111.21 71.8198C112.063 65.7719 117.744 69.8085 121.765 70.6155C125.785 71.4224 123.229 88.8036 123.229 88.8036L118.567 88.5051Z" fill="#232323"/>
<path fill-rule="evenodd" clip-rule="evenodd" d="M138.839 84.5344C138.163 88.9281 136.811 112.7 137.374 118.22C137.937 123.741 111.236 125.319 114.728 119.234C118.222 113.15 115.742 92.983 115.742 92.983L138.839 84.5344Z" fill="#FFAD69"/>
<path fill-rule="evenodd" clip-rule="evenodd" d="M136.99 85.2063L115.746 92.9851C115.746 92.9851 117.18 104.732 116.314 113.001C132.514 111.748 136.671 91.2885 136.946 87.3487C136.99 86.6063 137.012 85.8902 136.99 85.2063Z" fill="#D88344"/>
<path fill-rule="evenodd" clip-rule="evenodd" d="M108.925 83.7868C106.956 97.3573 103.613 110.888 120.062 108.66C136.513 106.433 139.069 85.3422 139.021 81.364C138.765 60.1358 112.796 57.1017 108.925 83.7868Z" fill="#FFAD69"/>
<path fill-rule="evenodd" clip-rule="evenodd" d="M140.795 66.8809C140.815 66.8285 140.859 66.7922 140.878 66.7397C141.412 65.0754 140.428 63.2215 140.385 63.1428L139.498 63.6209C139.506 63.6371 140.313 65.1722 139.917 66.421C136.314 62.4408 114.55 64.1374 110.678 68.634C105.76 74.347 120.886 71.7709 129.409 70.3285C130.603 75.3194 136.014 83.5843 137.573 84.7584L142.235 85.059C142.235 85.059 144.779 67.7564 140.795 66.8809Z" fill="#232323"/>
<path fill-rule="evenodd" clip-rule="evenodd" d="M177.116 231.495C178.161 225.689 181.602 190.025 178.816 179.886C178.812 179.87 178.814 179.854 178.81 179.836C176.866 173.489 167.209 146.132 160.217 133.179L145.149 137.601C145.149 137.601 157.76 170.512 163.874 182.152C163.892 182.464 163.892 182.771 163.953 183.094C164.853 187.895 169.88 218.359 169.823 229.579C168.71 229.89 167.576 230.475 166.674 231.503C165.526 232.815 163.525 236.581 163.666 238.251C164.068 243.018 166.717 248.697 168.53 249.635C169.64 250.208 174.869 246.986 176.016 245.088C177.146 243.22 178.018 234.309 177.352 231.933C177.308 231.77 177.199 231.639 177.116 231.495Z" fill="#FFAD69"/>
<path fill-rule="evenodd" clip-rule="evenodd" d="M151.173 120.169C159.672 125.849 174.181 151.689 174.181 151.689L148.345 160.515C148.345 160.515 128.753 105.184 151.173 120.169Z" fill="#FF4E4A"/>
<path fill-rule="evenodd" clip-rule="evenodd" d="M122.777 83.1149C122.83 83.7766 122.473 84.3435 121.976 84.3838C121.48 84.4222 121.036 83.9198 120.984 83.2582C120.929 82.5985 121.288 82.0296 121.785 81.9913C122.279 81.9509 122.723 82.4532 122.777 83.1149Z" fill="#232323"/>
<path fill-rule="evenodd" clip-rule="evenodd" d="M112.299 83.3928C112.351 84.0544 111.994 84.6213 111.498 84.6617C111.003 84.7 110.558 84.1977 110.505 83.538C110.451 82.8763 110.81 82.3074 111.306 82.2691C111.8 82.2288 112.246 82.7311 112.299 83.3928Z" fill="#232323"/>
<path fill-rule="evenodd" clip-rule="evenodd" d="M125.354 79.4023C123.952 77.2499 121.539 77.7623 121.515 77.7663L121.293 76.7818C121.42 76.7556 124.418 76.1202 126.199 78.8516L125.354 79.4023Z" fill="#232323"/>
<path fill-rule="evenodd" clip-rule="evenodd" d="M109.492 80.6594L108.576 80.2398C109.936 77.2723 112.992 77.464 113.121 77.47L113.051 78.4767C112.956 78.4706 110.557 78.3435 109.492 80.6594Z" fill="#232323"/>
<path fill-rule="evenodd" clip-rule="evenodd" d="M119.409 95.6099C118.74 95.6099 118.316 95.5353 118.3 95.5312L118.483 94.5407C118.669 94.575 123.097 95.3255 125.564 91.2202L126.428 91.7407C124.392 95.1257 121.114 95.6099 119.409 95.6099Z" fill="#232323"/>
<path fill-rule="evenodd" clip-rule="evenodd" d="M111.654 91.0127L114.22 82.2656L115.187 82.548L113.006 89.9859L116.538 89.9395L116.552 90.9482L111.654 91.0127Z" fill="#D88344"/>
<path fill-rule="evenodd" clip-rule="evenodd" d="M46.3021 144.859L44.9828 145.448L33.1411 118.878L34.4584 118.289L46.3021 144.859Z" fill="#232323"/>
<path fill-rule="evenodd" clip-rule="evenodd" d="M134.85 86.2613C133.363 89.61 131.503 92.8499 136.169 93.451C140.835 94.0542 143.006 88.8152 143.27 87.7884C144.68 82.3134 137.771 79.6767 134.85 86.2613Z" fill="#FFAD69"/>
<path fill-rule="evenodd" clip-rule="evenodd" d="M65.0493 30.0007H17.5797C15.9255 30.0007 14.584 31.3402 14.584 32.9944V49.8976C14.584 51.5518 15.9255 52.8933 17.5797 52.8933H20.4705L23.7305 57.2487C24.4547 58.217 25.9738 57.9285 26.2945 56.7625L27.3516 52.8933H65.0493C66.7035 52.8933 68.043 51.5518 68.043 49.8976V32.9944C68.043 31.3402 66.7035 30.0007 65.0493 30.0007Z" fill="#4D8DFF"/>
<mask id="mask2" mask-type="alpha" maskUnits="userSpaceOnUse" x="0" y="0" width="210" height="232">
<path fill-rule="evenodd" clip-rule="evenodd" d="M0 231.31H209.715V0H0V231.31Z" fill="white"/>
</mask>
<g mask="url(#mask2)">
<path fill-rule="evenodd" clip-rule="evenodd" d="M19.2471 35.4446H61.2174V34.436H19.2471V35.4446Z" fill="white"/>
<path fill-rule="evenodd" clip-rule="evenodd" d="M19.2471 40.2178H46.961V39.2092H19.2471V40.2178Z" fill="white"/>
<path fill-rule="evenodd" clip-rule="evenodd" d="M19.2471 44.9908H53.8885V43.9821H19.2471V44.9908Z" fill="white"/>
<path fill-rule="evenodd" clip-rule="evenodd" d="M53.8889 86.5627H17.5792C15.925 86.5627 14.5854 87.9043 14.5854 89.5564V106.46C14.5854 108.114 15.925 109.455 17.5792 109.455H20.47L23.73 113.811C24.4542 114.779 25.9752 114.491 26.294 113.325L27.3511 109.455H53.8889C55.5431 109.455 56.8826 108.114 56.8826 106.46V89.5564C56.8826 87.9043 55.5431 86.5627 53.8889 86.5627Z" fill="#FF4E4A"/>
<path fill-rule="evenodd" clip-rule="evenodd" d="M19.2471 92.0064H38.5669V90.9977H19.2471V92.0064Z" fill="white"/>
<path fill-rule="evenodd" clip-rule="evenodd" d="M42.5654 92.0064H49.2266V90.9977H42.5654V92.0064Z" fill="white"/>
<path fill-rule="evenodd" clip-rule="evenodd" d="M19.2471 96.7793H32.9709V95.7707H19.2471V96.7793Z" fill="white"/>
<path fill-rule="evenodd" clip-rule="evenodd" d="M19.2471 101.552H45.7607V100.544H19.2471V101.552Z" fill="white"/>
<path fill-rule="evenodd" clip-rule="evenodd" d="M41.7295 58.2659H85.9371C87.5893 58.2659 88.9288 59.6074 88.9288 61.2596V78.1647C88.9288 79.8169 87.5893 81.1584 85.9371 81.1584H83.0443L79.7843 85.5158C79.0601 86.4821 77.539 86.1937 77.2223 85.0276L76.1632 81.1584H41.7295C40.0753 81.1584 38.7358 79.8169 38.7358 78.1647V61.2596C38.7358 59.6074 40.0753 58.2659 41.7295 58.2659Z" fill="#FFC84D"/>
<path fill-rule="evenodd" clip-rule="evenodd" d="M66.5474 63.7095H84.2675V62.7009H66.5474V63.7095Z" fill="white"/>
<path fill-rule="evenodd" clip-rule="evenodd" d="M45.7627 68.4844H84.2673V67.4758H45.7627V68.4844Z" fill="white"/>
<path fill-rule="evenodd" clip-rule="evenodd" d="M65.3491 73.2574H84.2676V72.2487H65.3491V73.2574Z" fill="white"/>
<path fill-rule="evenodd" clip-rule="evenodd" d="M53.4893 73.2574H62.1496V72.2487H53.4893V73.2574Z" fill="white"/>
<path fill-rule="evenodd" clip-rule="evenodd" d="M118.392 141.687C110.68 141.687 104.404 147.963 104.404 155.675C104.404 163.389 110.68 169.665 118.392 169.665C126.106 169.665 132.382 163.389 132.382 155.675C132.382 147.963 126.106 141.687 118.392 141.687ZM118.392 170.674C110.123 170.674 103.395 163.946 103.395 155.675C103.395 147.406 110.123 140.678 118.392 140.678C126.663 140.678 133.391 147.406 133.391 155.675C133.391 163.946 126.663 170.674 118.392 170.674Z" fill="white"/>
</g>
</g>
</svg>
