<svg width="120" height="120" viewBox="0 0 120 120" fill="none" xmlns="http://www.w3.org/2000/svg">
<path d="M64.7998 107.4C90.8678 107.4 112 86.2682 112 60.2002C112 34.1323 90.8678 13 64.7998 13C38.7319 13 17.5996 34.1323 17.5996 60.2002C17.5996 86.2682 38.7319 107.4 64.7998 107.4Z" fill="#EBDBCD"/>
<path d="M30.6274 20.957H98.2704C100.296 20.957 101.906 22.5995 101.906 24.5927V65.287C101.906 67.3121 100.264 68.9227 98.2704 68.9227H30.6274C28.6022 68.9227 26.9917 67.2802 26.9917 65.287V24.5927C26.9917 22.5835 28.6341 20.957 30.6274 20.957Z" fill="#C5C6E3"/>
<path d="M30.8983 23.046H98.0151C98.8284 23.046 99.514 23.6998 99.514 24.545V59.9451C99.514 60.7584 98.8603 61.4122 98.0151 61.4122H30.8983C30.0851 61.4122 29.4312 60.7584 29.4312 59.9451V24.545C29.3994 23.7317 30.0851 23.046 30.8983 23.046Z" fill="#E8EAF7"/>
<path d="M77.1896 78.8093H51.6919L54.8651 68.9387H74.0323L77.1896 78.8093Z" fill="#C5C6E3"/>
<path d="M45.8241 76.3057H83.0899C83.6321 76.3057 84.0786 76.7521 84.0786 77.2943V77.8365C84.0786 78.3786 83.6321 78.8251 83.0899 78.8251H45.8241C45.282 78.8251 44.8354 78.3786 44.8354 77.8365V77.2943C44.8514 76.7362 45.282 76.3057 45.8241 76.3057Z" fill="#C5C6E3"/>
<path d="M64.1139 67.1846C65.2147 67.1846 66.1071 66.2922 66.1071 65.1914C66.1071 64.0905 65.2147 63.1981 64.1139 63.1981C63.013 63.1981 62.1206 64.0905 62.1206 65.1914C62.1206 66.2922 63.013 67.1846 64.1139 67.1846Z" fill="#E8EAF7"/>
<path d="M39.2222 27.7023H88.9897V57.617C88.9897 58.1432 88.5752 58.5419 88.0649 58.5419H40.163C39.6368 58.5419 39.2381 58.1273 39.2381 57.617C39.2222 57.633 39.2222 27.7023 39.2222 27.7023Z" fill="white"/>
<path d="M74.7024 29.855H86.2792C86.5982 29.855 86.8533 30.0942 86.8533 30.4291V55.863C86.8533 56.1819 86.6141 56.437 86.2792 56.437H74.7024C74.3835 56.437 74.1284 56.1978 74.1284 55.863V30.4291C74.1444 30.0942 74.3835 29.855 74.7024 29.855Z" fill="#E8E8F7"/>
<path d="M41.9329 29.855H71.433C71.7519 29.855 72.0071 30.0942 72.0071 30.4291V55.863C72.0071 56.1819 71.7679 56.437 71.433 56.437H41.9329C41.614 56.437 41.3589 56.1978 41.3589 55.863V30.4291C41.3589 30.0942 41.6299 29.855 41.9329 29.855Z" fill="#EBDBCD"/>
<path d="M76.4083 34.3038H80.4267C80.6499 34.3038 80.8412 34.4952 80.8412 34.7184C80.8412 34.9417 80.6499 35.133 80.4267 35.133H76.4083C76.185 35.133 75.9937 34.9417 75.9937 34.7184C75.9937 34.4952 76.1531 34.3038 76.4083 34.3038Z" fill="#C5C6E3"/>
<path d="M76.4083 36.026H84.6205C84.8437 36.026 85.0351 36.2173 85.0351 36.4406C85.0351 36.6638 84.8437 36.8552 84.6205 36.8552H76.4083C76.185 36.8552 75.9937 36.6638 75.9937 36.4406C75.9937 36.1855 76.1531 36.026 76.4083 36.026Z" fill="#C5C6E3"/>
<path d="M76.4083 43.5526H84.6205C84.8437 43.5526 85.0351 43.744 85.0351 43.9672C85.0351 44.1904 84.8437 44.3818 84.6205 44.3818H76.4083C76.185 44.3818 75.9937 44.1904 75.9937 43.9672C75.9937 43.7121 76.1531 43.5526 76.4083 43.5526Z" fill="#C5C6E3"/>
<path d="M76.4083 41.8304H82.5315C82.7548 41.8304 82.9461 42.0218 82.9461 42.245C82.9461 42.4683 82.7548 42.6596 82.5315 42.6596H76.4083C76.185 42.6596 75.9937 42.4683 75.9937 42.245C75.9937 42.0218 76.1531 41.8304 76.4083 41.8304Z" fill="#C5C6E3"/>
<path d="M76.4083 51.4458H84.6205C84.8437 51.4458 85.0351 51.6371 85.0351 51.8604C85.0351 52.0836 84.8437 52.275 84.6205 52.275H76.4083C76.185 52.275 75.9937 52.0836 75.9937 51.8604C75.9937 51.6371 76.1531 51.4458 76.4083 51.4458Z" fill="#C5C6E3"/>
<path d="M76.4083 49.7238H80.4267C80.6499 49.7238 80.8412 49.9151 80.8412 50.1383C80.8412 50.3616 80.6499 50.5529 80.4267 50.5529H76.4083C76.185 50.5529 75.9937 50.3616 75.9937 50.1383C75.9937 49.9151 76.1531 49.7238 76.4083 49.7238Z" fill="#C5C6E3"/>
<path d="M76.4083 53.1361H84.6205C84.8437 53.1361 85.0351 53.3275 85.0351 53.5507C85.0351 53.774 84.8437 53.9653 84.6205 53.9653H76.4083C76.185 53.9653 75.9937 53.774 75.9937 53.5507C75.9937 53.3275 76.1531 53.1361 76.4083 53.1361Z" fill="#C5C6E3"/>
<path d="M77.11 49.038C77.6649 49.038 78.1147 48.5882 78.1147 48.0334C78.1147 47.4786 77.6649 47.0288 77.11 47.0288C76.5552 47.0288 76.1055 47.4786 76.1055 48.0334C76.1055 48.5882 76.5552 49.038 77.11 49.038Z" fill="#4E53BA"/>
<path d="M77.11 33.6182C77.6649 33.6182 78.1147 33.1684 78.1147 32.6136C78.1147 32.0588 77.6649 31.609 77.11 31.609C76.5552 31.609 76.1055 32.0588 76.1055 32.6136C76.1055 33.1684 76.5552 33.6182 77.11 33.6182Z" fill="#4E53BA"/>
<path d="M77.11 41.1129C77.6649 41.1129 78.1147 40.6631 78.1147 40.1082C78.1147 39.5534 77.6649 39.1036 77.11 39.1036C76.5552 39.1036 76.1055 39.5534 76.1055 40.1082C76.1055 40.6631 76.5552 41.1129 77.11 41.1129Z" fill="#FF7A82"/>
<path d="M48.2798 94.4363L47.9769 98.5026C47.9131 99.4115 48.9655 100.145 49.8266 100.081C50.8949 100.017 51.469 99.2361 51.5169 98.3112L51.8198 94.245C51.8995 93.3361 50.8312 92.6026 49.9701 92.6663C48.9177 92.7142 48.3436 93.4955 48.2798 94.4363Z" fill="#FCB58A"/>
<path d="M61.2755 94.8509L61.8974 98.8852C62.0409 99.7941 63.2369 100.257 64.082 100.001C65.0866 99.6985 65.4693 98.8055 65.3418 97.8806L64.7199 93.8463C64.5764 92.9373 63.3804 92.4749 62.5353 92.73C61.4988 93.033 61.148 93.9419 61.2755 94.8509Z" fill="#FCB58A"/>
<path d="M48.0086 51.1907C46.5097 53.8378 45.5849 56.5486 45.5051 59.5943C45.4254 62.4646 46.0472 65.303 48.5667 67.0252C50.2251 68.1733 51.9154 65.5581 50.257 64.41C48.6146 63.2619 48.5348 61.0613 48.6464 59.1956C48.79 56.8994 49.4916 54.8743 50.6397 52.897C51.6124 51.1429 49.0292 49.4526 48.0086 51.1907Z" fill="#FCB58A"/>
<path d="M60.8932 52.6737C62.2805 54.4756 63.3011 56.3572 63.7635 58.6215C64.1462 60.535 64.2897 62.337 62.6951 63.7561C61.2281 65.1275 63.2691 67.4716 64.7362 66.1002C65.7248 65.2232 66.4584 64.0751 66.857 62.8313C67.2716 61.4121 67.16 60.0248 66.9208 58.5737C66.3946 55.5439 65.1189 53.0085 63.2373 50.6007C62.0094 49.038 59.6494 51.0791 60.8932 52.6737Z" fill="#FCB58A"/>
<path d="M64.6082 50.0426C64.6082 50.0426 63.0295 38.8804 62.5033 36.8393C61.6901 33.6979 59.4417 31.8163 56.2844 31.8163C53.0633 31.8163 50.8309 33.7298 49.9538 36.8712C49.0449 40.0923 47.8489 49.8034 47.8489 49.8034C47.7054 50.2499 47.9287 50.7123 48.3752 50.8399C49.3798 51.2226 51.5165 51.9083 56.2844 51.8445C60.5419 51.7807 62.7585 51.2226 63.8428 51.111C64.3053 51.0791 64.6561 50.6645 64.6401 50.2021C64.6401 50.1542 64.6401 50.1064 64.6082 50.0426Z" fill="#FF5856"/>
<path d="M54.5303 42.8191H58.0066V48.7351C58.0066 49.2294 57.5919 49.644 57.0976 49.644H55.4392C54.9449 49.644 54.5303 49.2294 54.5303 48.7351V42.8191Z" fill="#FCB58A"/>
<path d="M56.2848 44.0947C59.464 44.0947 62.0413 41.5174 62.0413 38.3382C62.0413 35.1589 59.464 32.5817 56.2848 32.5817C53.1055 32.5817 50.5283 35.1589 50.5283 38.3382C50.5283 41.5174 53.1055 44.0947 56.2848 44.0947Z" fill="#FCB58A"/>
<path d="M50.4162 38.1149C50.4162 38.1947 50.4162 38.3063 50.4481 38.386V38.4179C50.4481 38.5295 50.48 38.6093 50.5119 38.7209C50.5438 38.8325 50.5438 38.9441 50.5757 39.0398C50.9903 37.4293 52.4254 36.2811 54.0997 36.2811C54.323 36.2811 54.5143 36.313 54.7216 36.3449C54.8811 36.3768 55.0246 36.4087 55.184 36.4087C56.2524 36.4087 57.1295 35.6114 57.257 34.559C57.2251 34.6706 57.2252 34.7822 57.2252 34.8779C57.2252 36.1057 58.2138 37.0944 59.4417 37.0944C60.6217 37.3336 61.5943 38.2106 61.9451 39.3587C62.0249 39.1195 62.0887 38.8325 62.1046 38.5614V38.5295C62.1365 38.4179 62.1365 38.3063 62.1365 38.2106V38.1309C62.1365 37.9873 62.1365 37.8917 62.1365 37.7482C62.1365 37.6046 62.1365 37.5249 62.1365 37.4292C62.1365 37.3973 62.1365 37.3655 62.1365 37.3495C62.1365 37.2698 62.1365 37.1901 62.1046 37.1263C62.0727 37.0625 62.1047 37.0625 62.0728 37.0146C62.0409 36.9509 62.0408 36.8711 62.0408 36.7914L62.009 36.6798C61.9771 36.6 61.977 36.5363 61.9451 36.4565C61.9133 36.3768 61.9133 36.3927 61.9133 36.3768L61.8495 36.1536C61.8495 36.1217 61.8176 36.0898 61.8176 36.0738C61.7857 35.9941 61.7538 35.9144 61.7379 35.8506C61.7379 35.8187 61.7378 35.8187 61.706 35.7868C61.6741 35.7071 61.6422 35.6273 61.6262 35.5476V35.5157C61.5943 35.436 61.5465 35.3244 61.5146 35.2446C60.9884 34.1763 60.1752 33.2833 59.1706 32.6773C58.8516 32.486 58.5168 32.3265 58.166 32.2149H58.1341C58.0224 32.183 57.9108 32.1511 57.8311 32.1033H57.7673C57.5281 32.0395 57.3049 31.9917 57.0657 31.9598H56.986L56.7149 31.9279H56.6032C56.4916 31.9279 56.3641 31.9279 56.2525 31.9279C52.9995 31.9279 50.3843 34.543 50.3843 37.796C50.3843 37.9076 50.3843 38.0192 50.3843 38.1149C50.4162 38.099 50.4162 38.1149 50.4162 38.1149Z" fill="#FF5856"/>
<path d="M61.8816 47.8898C60.6857 47.236 59.3782 46.7895 58.0068 46.5982C57.7836 47.555 57.3051 48.0652 56.2048 48.0652C55.1046 48.0652 54.7378 47.5231 54.5465 46.5344C54.3232 46.5344 53.6376 46.6779 53.4781 46.7258C51.4849 47.1085 50.6876 47.6347 49.7149 48.3682C48.184 49.5163 46.6851 51.8923 46.3662 52.4345C46.3024 52.4982 46.3024 52.5939 46.3662 52.6577C46.717 53.2317 47.1795 53.7261 47.7376 54.1088C48.4233 54.5553 49.1249 54.8742 49.8903 55.1134C49.8903 55.1134 50.3527 54.2363 50.5122 53.9174C50.7035 53.4709 51.1978 52.0039 51.1978 52.0039C50.9267 52.6258 50.7513 53.3115 50.7035 53.9972C50.6716 54.922 51.0065 55.9585 50.9746 56.5804C50.8949 57.6647 50.6716 58.7331 50.3527 59.7696C50.3208 59.9131 50.3846 60.0088 50.5122 60.0726C52.2662 60.4872 54.0681 60.7264 55.87 60.7583C57.8155 60.7583 59.7449 60.6147 61.6584 60.3118C61.8019 60.2799 61.8817 60.1683 61.8498 60.0407C61.8498 60.0407 61.8498 60.0407 61.8498 60.0088C61.6106 58.9723 61.4033 57.9358 61.3235 56.8993C61.1641 55.4801 61.3235 55.209 61.3235 54.1726C61.2598 53.439 61.1641 52.6736 61.0206 51.9401L61.3235 54.7785C62.2006 54.7466 63.0776 54.5553 63.8589 54.1726C64.4011 53.8696 64.8636 53.5188 65.31 53.0882C65.3898 53.0085 65.4217 52.8969 65.3738 52.7853C64.9911 52.0198 63.3008 48.735 61.8816 47.8898Z" fill="#868AE0"/>
<path d="M56.2843 44.0948C55.6784 44.0948 55.1043 44.0151 54.5303 43.8237V44.8921C55.1043 45.0515 55.7103 45.0834 56.2843 45.0037C56.8903 44.9399 57.4644 44.8124 58.0066 44.5413V43.8077C57.4644 43.9831 56.8584 44.0948 56.2843 44.0948Z" fill="#E3996D"/>
<path d="M51.3412 60.264C52.9199 60.5351 54.5305 60.7105 56.141 60.7584C58.2459 60.7584 60.8291 60.4554 60.8291 60.4554C60.8291 60.4554 61.0524 61.9543 61.148 62.2892C61.2437 62.624 59.4259 63.2778 56.2048 63.1981C51.9791 63.1184 50.9586 62.5124 50.9905 62.353C50.9905 62.1935 51.3412 60.264 51.3412 60.264Z" fill="#FCB58A"/>
<path d="M62.2164 63.23C64.8315 68.4443 66.0754 71.7133 66.777 78.6817C67.3829 84.5498 66.6175 92.4112 66.5059 96.892C66.5059 97.0355 66.474 97.1631 66.3943 97.2747C66.171 97.5937 64.8156 97.8966 64.4329 97.9285C62.5512 98.072 60.7812 97.785 60.6058 97.1153C59.6172 93.0809 58.8518 89.0147 58.3415 84.8847C57.8951 81.4722 57.3528 77.6452 57.0817 74.8706C57.0817 74.759 57.0021 74.6792 56.8904 74.6792C56.7788 74.6792 56.6991 74.759 56.6991 74.8706C56.6353 75.333 56.5875 77.9641 56.5078 78.7455C56.3164 80.962 55.9655 83.1147 55.5828 85.2993C55.0088 88.7755 53.6693 93.655 52.6647 96.9558C52.585 97.2269 52.3937 97.4501 52.1226 97.5299C51.421 97.6415 50.7353 97.6734 50.0177 97.6415C49.1725 97.5777 47.4025 97.3226 47.2909 96.908C45.9993 91.5501 45.9514 81.2968 47.8331 70.597C48.2795 68.1095 49.0928 65.7335 50.2409 63.5011C52.1544 63.8519 54.0999 64.0432 56.0612 64.107C58.1342 64.0592 60.2072 63.7562 62.2164 63.23Z" fill="#FFADB2"/>
<path d="M50.9906 62.3051C50.7673 62.3689 50.5759 62.5283 50.4643 62.7197C50.3208 62.9589 50.241 63.214 50.2251 63.4851C50.2251 63.4851 52.4097 64.1389 56.5557 64.2505C60.5741 64.3621 62.2006 63.2459 62.2006 63.2459C62.1208 62.9748 61.9614 62.7516 61.7062 62.5921C61.3873 62.4008 61.1322 62.2732 61.1322 62.2732C61.1322 62.2732 59.8725 63.3894 56.0614 63.1183C52.2503 62.8473 50.9906 62.3051 50.9906 62.3051Z" fill="#FFADB2"/>
<path d="M49.5075 99.0448C50.1932 99.0767 50.847 98.9331 51.4689 98.694C51.7081 99.1883 51.9154 99.7305 52.043 100.273C52.1227 100.815 52.4256 102.617 51.9791 102.983C51.5645 103.334 51.6283 103.255 51.0543 103.51C50.241 103.86 49.9061 103.669 48.7899 104.243C48.3753 104.466 46.6053 106.093 44.8034 106.268C43.3045 106.412 42.8899 105.662 42.6986 105.264C42.5391 104.849 42.8421 104.084 43.8945 103.302C44.931 102.505 45.8878 101.612 46.7648 100.592C47.2272 99.9696 47.6418 99.2521 47.9129 98.5186C47.9607 98.5026 48.2637 99.0129 49.5075 99.0448Z" fill="#C7645D"/>
<path d="M63.8273 99.1882C63.1735 99.2201 62.5197 99.0766 61.9137 98.8055C61.5629 99.3476 61.3078 99.9536 61.2121 100.607C61.1005 101.15 60.9091 102.76 61.3556 103.095C61.8021 103.414 61.7064 103.366 62.2805 103.621C63.0937 103.94 63.4286 103.781 64.5448 104.355C64.9594 104.578 66.7294 106.236 68.5313 106.38C69.6157 106.46 70.4449 105.774 70.6043 105.375C70.7638 104.961 70.7957 104.147 69.4562 103.254C68.1167 102.346 66.5381 100.926 66.3149 100.528C66.0119 99.9217 65.3581 98.6141 65.3581 98.6141C65.3581 98.6141 65.0392 99.1563 63.8273 99.1882Z" fill="#C7645D"/>
<path d="M61.0684 51.9402C61.0684 51.9402 61.2916 53.1999 61.3075 53.8218C61.3075 54.2045 61.3075 54.8105 61.3075 54.8105C61.3075 54.8105 61.5787 54.8105 61.7541 54.7786C61.9135 54.7467 62.057 54.7148 62.057 54.7148C62.057 54.7148 61.8976 54.1407 61.7062 53.5986C61.5308 53.0724 61.0684 51.9402 61.0684 51.9402Z" fill="#4E53BA"/>
<path d="M51.2614 51.8445C51.2614 51.8445 50.9585 52.7215 50.8149 53.2956C50.7512 53.5985 50.7352 53.9015 50.7352 54.2045C50.7033 54.364 50.512 54.8902 50.4323 55.1134C50.4004 55.1931 50.3206 55.2251 50.2728 55.2251C50.1612 55.1932 49.9698 55.1613 49.8263 55.1134C49.603 55.0337 49.4436 54.9699 49.5073 55.0018C49.5711 55.0337 50.0017 54.3161 50.3206 53.7421C50.5757 53.2158 51.2614 51.8445 51.2614 51.8445Z" fill="#4E53BA"/>
<path d="M61.2598 63.4532C63.2052 67.3121 64.3693 71.4741 65.0231 75.7316C65.7088 80.2284 65.7566 84.789 65.5493 89.3177C65.4058 91.9328 65.2304 94.5639 64.9434 97.1471C64.9115 97.4501 65.3898 97.4501 65.4058 97.1471C65.8523 92.459 66.2031 87.7549 66.0914 83.0668C65.9798 78.6657 65.4695 74.2806 64.2576 70.023C63.6039 67.6789 62.7268 65.3827 61.6425 63.23C61.499 62.9589 61.0844 63.1981 61.2598 63.4532Z" fill="white"/>
<path d="M50.6875 63.5648C48.9972 67.4715 48.0723 71.6494 47.5461 75.8432C47.0518 80.1805 46.8445 84.5497 46.9402 88.9189C46.9721 91.5022 47.0997 94.0695 47.4026 96.6368C47.4345 96.9398 47.8969 96.9398 47.865 96.6368C47.3388 92.14 47.3229 87.6114 47.4824 83.0986C47.6259 78.8889 48.0086 74.6632 48.9335 70.5491C49.4597 68.221 50.1931 65.9567 51.118 63.788C51.2137 63.501 50.831 63.2937 50.6875 63.5648Z" fill="white"/>
<path d="M56.1568 60.7424C54.5463 60.6786 52.9357 60.5191 51.3571 60.248C51.3571 60.248 51.3252 60.4713 51.2773 60.7743C52.856 61.2207 54.5304 61.3962 56.1888 61.3164C57.7674 61.2526 59.3301 60.9975 60.829 60.4713L60.8928 60.4394C60.845 60.4713 58.2458 60.7424 56.1568 60.7424Z" fill="#F0A173"/>
<path d="M40.0197 25.5654H88.2245C88.671 25.5654 89.0218 25.9162 89.0218 26.3627V27.7022H39.2383V26.3627C39.2224 25.9162 39.5732 25.5654 40.0197 25.5654Z" fill="#868AE0"/>
<path d="M32.9398 55.9905L32.7803 55.9586C32.3657 55.8789 31.983 56.1021 31.8235 56.4848L30.6755 59.674C30.6436 59.7378 30.6436 59.7537 30.6436 59.8175C31.0263 60.1364 31.5206 60.3597 32.0149 60.4235C32.4614 60.5032 32.9238 60.4873 33.3544 60.3437C33.3544 60.3118 33.3863 60.264 33.3863 60.2321L33.6573 56.8516C33.6254 56.437 33.3544 56.0861 32.9398 55.9905Z" fill="#D7D7E6"/>
<path d="M33.0032 51.1429C33.083 50.9994 33.2425 50.9516 33.386 51.0313C33.4498 51.0632 33.4657 51.0951 33.4976 51.1429C33.657 51.4938 33.9122 51.9403 34.0716 52.2273C34.3906 52.9608 34.5181 53.79 34.3746 54.5713C34.1832 55.1773 33.9122 55.7513 33.5295 56.2297C33.4976 56.2935 33.4498 56.3095 33.386 56.3414C33.1149 56.4211 32.8438 56.4211 32.5727 56.3732C32.0465 56.2297 31.9667 55.9108 31.9667 55.9108C31.8073 55.2889 31.7275 54.6511 31.7275 54.0292C31.7913 53.4073 31.9987 52.8013 32.3335 52.2592C32.5887 51.8765 32.8119 51.5256 33.0032 51.1429Z" fill="#C7645D"/>
<path d="M28.6822 72.5425L30.6276 60.0408C30.6276 59.977 30.6594 59.8973 30.6913 59.8495C31.4248 60.4554 32.4454 60.6468 33.3384 60.3757C33.3384 60.4554 33.3065 60.5352 33.3065 60.5989L30.3406 72.9093C30.2608 73.3558 29.8143 73.6428 29.3838 73.5312C28.9373 73.4195 28.6025 72.9731 28.6822 72.5425Z" fill="#2B31BA"/>
<path d="M27.595 50.0551L23.6665 50.3414L25.3975 74.087L29.326 73.8006L27.595 50.0551Z" fill="#DADAED"/>
<path d="M25.2178 53.4358L23.8818 53.5332L23.9015 53.8036L25.2375 53.7062L25.2178 53.4358Z" fill="#989BD7"/>
<path d="M25.3079 56.2099L23.9717 56.3035L23.9906 56.5739L25.3268 56.4804L25.3079 56.2099Z" fill="#989BD7"/>
<path d="M25.4837 58.89L24.1475 58.9835L24.1664 59.2539L25.5026 59.1604L25.4837 58.89Z" fill="#989BD7"/>
<path d="M25.792 61.4093L24.4561 61.5067L24.4758 61.7771L25.8117 61.6797L25.792 61.4093Z" fill="#989BD7"/>
<path d="M25.9834 64.0563L24.6475 64.1537L24.6672 64.4241L26.0031 64.3267L25.9834 64.0563Z" fill="#989BD7"/>
<path d="M26.1734 66.7196L24.8374 66.817L24.8571 67.0874L26.1931 66.99L26.1734 66.7196Z" fill="#989BD7"/>
<path d="M26.3966 69.3663L25.0605 69.4637L25.0803 69.7341L26.4163 69.6367L26.3966 69.3663Z" fill="#989BD7"/>
<path d="M23.5359 58.1746L21.0386 58.6117L24.3237 77.3814L26.8211 76.9443L23.5359 58.1746Z" fill="#FFADB2"/>
<path d="M23.5635 58.207L21.0439 58.6376L21.4267 55.0497L21.9689 54.97L23.5635 58.207Z" fill="#EBDBCD"/>
<path d="M21.5859 56.7081L21.9526 56.4689L22.2396 56.4848L22.6064 56.2935L21.9686 54.97L21.4264 55.0497L21.2988 56.4848L21.5859 56.7081Z" fill="#FF7A82"/>
<path d="M21.8093 64.9043H32.7324C33.0035 64.9043 33.1948 65.1275 33.1948 65.3667C33.1948 65.3986 33.1948 65.3986 33.1948 65.4305L31.7437 77.0871C31.6799 77.6292 31.2175 78.0438 30.6753 78.0438H23.8026C23.2604 78.0438 22.798 77.6292 22.7342 77.0871L21.315 65.4305C21.2831 65.1913 21.4745 64.9362 21.7296 64.9043C21.7615 64.9202 21.7775 64.9202 21.8093 64.9043Z" fill="#FF7A82"/>
<path d="M9.30762 78.4584H34.0718C35.5388 78.4584 36.7188 79.6384 36.7188 81.1054V81.2649C36.7188 82.7319 35.5388 83.9119 34.0718 83.9119H9.30762V78.4584Z" fill="#F8E7D8"/>
<path d="M51.6124 78.0598H8.19138C8.07976 78.0598 8 78.1395 8 78.2512C8 78.3628 8.07976 78.4425 8.19138 78.4425H33.9601C35.459 78.4425 36.6869 79.6704 36.6869 81.1693C36.6869 82.6682 35.459 83.8961 33.9601 83.8961H8.19138C8.07976 83.8961 8 83.9758 8 84.0874C8 84.199 8.07976 84.2788 8.19138 84.2788H51.6124C53.1113 84.2788 54.3392 83.0509 54.3392 81.552V80.7547C54.3551 79.2877 53.1273 78.0598 51.6124 78.0598Z" fill="#110580"/>
<path d="M29.1285 82.716H9.30762V82.4768H29.1285C29.2082 82.4768 29.272 82.5406 29.272 82.6203C29.256 82.6363 29.2082 82.716 29.1285 82.716Z" fill="#DEBCA7"/>
<path d="M31.2812 80.0212H9.30762V79.782H31.2812C31.3609 79.782 31.4247 79.8458 31.4247 79.9255C31.4247 79.9574 31.3609 80.0212 31.2812 80.0212Z" fill="#DEBCA7"/>
<path d="M33.705 81.2968H9.30762V81.0576H33.705C33.7848 81.0576 33.8485 81.1214 33.8485 81.2011C33.8485 81.249 33.8007 81.2968 33.705 81.2968Z" fill="#DEBCA7"/>
<path d="M104.92 85.0441C101.284 84.502 97.6328 83.896 94.0609 83.1306C87.2998 81.7114 85.5138 92.2836 92.2271 93.6869C93.8058 94.0058 95.4163 94.3407 97.0109 94.6436C100.073 91.8212 102.72 88.5842 104.92 85.0441Z" fill="#FCB58A"/>
<path d="M84.3494 82.5565C87.9214 82.7 90.9511 84.5497 93.8533 86.5749C95.9263 88.026 97.9674 84.773 95.8944 83.3219C92.4501 80.914 88.7505 78.8729 84.5089 78.7135C82.0054 78.57 81.83 82.4449 84.3494 82.5565Z" fill="#FCB58A"/>
<path d="M90.6166 94.2928L86.0561 94.2609C83.1698 94.229 80.762 91.7574 80.6982 88.7436L80.6663 87.7071C80.6026 84.7092 82.8987 82.2535 85.8009 82.2695L90.3615 82.3014C93.2318 82.3333 95.6556 84.8049 95.7194 87.8187L95.7512 88.8552C95.815 91.869 93.5188 94.3247 90.6166 94.2928Z" fill="#FCB58A"/>
<path d="M73.5861 99.9378H68.5153C65.039 99.9378 62.2166 97.2269 62.0093 93.7985L61.1961 78.8412C61.1642 78.299 61.5787 77.8366 62.1049 77.8047C62.1368 77.8047 62.1688 77.8047 62.1688 77.8047H79.8848C80.4269 77.8047 80.8734 78.2512 80.8734 78.7933C80.8734 78.8252 80.8734 78.8252 80.8734 78.8571L80.0602 93.8145C79.9007 97.2429 77.0304 99.9378 73.5861 99.9378Z" fill="#FF5856"/>
<path d="M80.714 81.2012L80.5705 83.4974C83.0581 84.0236 84.6367 86.4474 84.1264 88.935C83.7118 90.9282 82.0535 92.4112 80.0283 92.5707L79.8848 94.8669C83.6799 94.7234 86.63 91.5342 86.4865 87.7709C86.3908 84.4382 83.967 81.7114 80.714 81.2012Z" fill="#FF5856"/>
<path d="M72.358 74.3125C72.358 74.3125 68.0207 70.2941 68.1483 67.344C68.3716 62.8473 72.4058 61.1251 70.875 56.8675C70.1415 54.8424 67.1118 48.3204 67.1118 48.3204C67.1118 48.3204 72.1348 53.2956 73.9048 56.3413C75.5153 59.1318 75.324 63.517 73.5858 65.6219C69.7747 70.2462 72.358 74.3125 72.358 74.3125Z" fill="#DCDCED"/>
<path d="M86.4228 82.3492C88.448 82.4609 89.9788 84.199 89.8672 86.2082L89.5961 90.8485C89.4845 92.8736 87.7464 94.4044 85.7372 94.2928C83.3134 94.1493 81.4796 92.0763 81.6231 89.6525L81.8144 86.5112C81.942 84.0555 84.015 82.2057 86.4228 82.3492Z" fill="#F0A173"/>
<path d="M85.689 82.142C87.7141 82.2536 89.2449 83.9917 89.1333 85.985L88.8622 90.6253C88.7506 92.6504 87.0125 94.1812 85.0033 94.0696C82.5795 93.9261 80.7457 91.8531 80.8892 89.4293L81.0805 86.2879C81.1762 83.8641 83.2493 82.0144 85.689 82.142Z" fill="#FCB58A"/>
</svg>
