<svg width="120" height="120" viewBox="0 0 120 120" fill="none" xmlns="http://www.w3.org/2000/svg">
<path opacity="0.34" d="M18.5391 111.75C28.0013 111.75 35.6719 110.249 35.6719 108.398C35.6719 106.547 28.0013 105.047 18.5391 105.047C9.07687 105.047 1.40625 106.547 1.40625 108.398C1.40625 110.249 9.07687 111.75 18.5391 111.75Z" fill="#575FA8"/>
<path d="M20.4141 102.351L20.0625 108.07H30.2812C30.2812 108.07 26.1094 105.281 24.2578 104.39L24.0469 102.375H20.4141V102.351Z" fill="#F08789"/>
<path d="M23.5781 56.9764L24.2578 103.898H20.2266C20.2266 103.898 15.7734 85.5233 17.9531 80.1561L14.0625 56.9764H23.5781Z" fill="#32388D"/>
<path opacity="0.2" d="M23.5781 56.9764H14.0859L17.9766 80.1561C17.2266 82.0077 17.25 85.4296 17.625 89.1093L24.1641 97.1014L23.5781 56.9764Z" fill="#020203"/>
<path d="M9.63281 103.101L8.0625 108.82H19.2188C19.2188 108.82 14.5078 106.031 12.6328 105.141L12.9844 103.125H9.63281V103.101Z" fill="#F08789"/>
<path d="M23.8594 56.3905L19.8984 79.9218L13.2188 103.898H9.21094C9.21094 103.898 10.5 80.8827 14.625 78.4921L11.3672 56.4139H23.8594V56.3905Z" fill="#32388D"/>
<path opacity="0.2" d="M23.6016 58.0077L23.8594 56.3905H11.3672L11.6484 58.3124L23.625 59.8358L23.6016 58.0077Z" fill="#020203"/>
<path d="M30.3047 40.1483C30.3047 40.1483 32.7891 36.1405 36.6562 35.2264L35.1328 37.0546C35.1328 37.0546 35.8594 38.953 34.9453 39.9139C34.0312 40.8749 32.5547 40.9452 32.5547 40.9452L31.5234 42.0936L30.3047 40.1483Z" fill="#F5ABAE"/>
<path d="M20.4844 36.8671L23.8828 43.8046L30.5391 39.3046L32.2031 41.8593C32.2031 41.8593 26.4141 52.7343 23.8594 51.9374C21.3047 51.1405 19.1016 45.3983 19.1016 45.3983L20.4844 36.8671Z" fill="white"/>
<path opacity="0.2" d="M23.8594 43.8046L20.4609 36.8671L19.1016 45.3983C19.1016 45.3983 21.3047 51.1405 23.8594 51.9374C23.9297 51.9608 23.9766 51.9608 24.0469 51.9608L27.1172 41.578L23.8594 43.8046Z" fill="#020203"/>
<path d="M23.0625 20.4843C23.0625 20.4843 23.4609 24.0234 23.8594 24.8905H22.7578C22.7578 24.8905 22.8515 28.289 22.1484 28.7109C21.6562 29.0155 20.2265 28.7109 19.8984 29.1093C19.5703 29.5077 19.0781 32.3437 19.0781 32.3437L14.6484 31.9687L15.0937 28.0077C15.0937 28.0077 12.6094 25.0312 13.3594 21.3749C14.1094 17.7187 22.4062 17.0859 23.0625 20.4843Z" fill="#F5ABAE"/>
<path opacity="0.2" d="M17.5313 26.3905L14.0391 26.203C14.5547 27.3046 15.1172 27.9843 15.1172 27.9843L14.6719 31.9452L19.1016 32.3202C19.1016 32.3202 19.5938 29.4843 19.9219 29.0858C20.0391 28.9452 20.3203 28.8749 20.6484 28.8749C18.9375 28.4061 17.3906 26.4843 17.5313 26.3905Z" fill="#020203"/>
<path d="M23.203 21.6561C23.203 21.6561 22.2655 22.2186 20.3905 20.9765C20.3905 20.9765 19.1249 23.2499 18.0233 22.9452C18.0233 22.9452 17.9765 24.5624 17.7421 24.6796C17.5077 24.7968 17.039 23.2968 16.5702 23.203C16.1015 23.1093 15.6093 23.578 16.1249 24.9843C16.6171 26.3905 17.5311 26.3905 17.5311 26.3905L15.0936 28.0077C15.0936 28.0077 13.1718 27.3983 12.7968 25.8046C12.7968 25.8046 10.3593 23.4374 11.8358 21.7499C11.8358 21.7499 10.2186 20.3905 13.9921 18.7265C13.9921 18.7265 14.8827 15.4452 16.6405 16.9452C16.6405 16.9452 19.8983 14.5077 20.6952 16.6874C20.6952 16.6874 24.8905 16.3358 25.1483 18.6093C25.4061 20.8827 24.3983 21.4218 24.3983 21.4218C24.3983 21.4218 24.6327 23.2968 23.4608 23.3905L23.203 21.6561Z" fill="#212226"/>
<path d="M11.5779 36.5624C11.5779 36.5624 9.37475 36.0233 9.74975 33.6796C10.1247 31.3124 13.2185 30.2577 19.5701 31.7343C20.3201 31.8983 20.906 33.1405 20.4138 34.2187C20.4138 34.2187 22.4529 39.2343 23.0857 43.3358C23.7185 47.4374 24.0466 51.7265 24.7497 53.7187C25.4294 55.7108 24.8669 57.9374 22.9685 57.9374C21.0935 57.9374 13.6872 57.9374 11.3904 57.9374C9.0935 57.9374 8.81225 54.7499 9.72631 51.4218C10.6169 48.1171 11.9529 38.953 11.5779 36.5624Z" fill="#444496"/>
<path d="M16.7345 35.2733C20.3439 36.0467 17.8361 43.2186 17.1095 45.2577C16.3829 47.3202 15.5861 49.1483 16.7345 50.7421C17.8829 52.3358 19.8986 54.1171 19.8986 54.1171L18.5392 56.9764C18.5392 56.9764 11.0158 56.0155 9.21107 53.7889C7.42982 51.5624 8.43764 46.5936 9.98451 43.1717C11.5314 39.7499 14.0392 34.7108 16.7345 35.2733Z" fill="white"/>
<path d="M18.3283 57.4687C18.2345 57.4218 18.2111 57.328 18.2345 57.2343L20.0627 53.2499C20.1095 53.1562 20.2033 53.1327 20.297 53.1562C20.3908 53.203 20.4142 53.2968 20.3908 53.3905L18.5627 57.3749C18.5158 57.4687 18.422 57.4921 18.3283 57.4687Z" fill="#A77071"/>
<path d="M16.6172 71.0391C16.6172 71.625 16.1484 72.1172 15.5391 72.1172C14.9531 72.1172 14.4609 71.625 14.4609 71.0391C14.4609 70.4531 14.9297 69.9609 15.5391 69.9609C16.1484 69.9844 16.6172 70.4531 16.6172 71.0391Z" fill="#59BCAB"/>
<path d="M9.91406 70.7578C8.41406 70.7578 7.19531 69.5391 7.19531 68.0391C7.19531 66.5391 8.41406 65.3203 9.91406 65.3203C11.4141 65.3203 12.6328 66.5391 12.6328 68.0391C12.6328 69.5391 11.4141 70.7578 9.91406 70.7578ZM9.91406 66.75C9.1875 66.75 8.625 67.3359 8.625 68.0391C8.625 68.7422 9.21094 69.3281 9.91406 69.3281C10.6406 69.3281 11.2031 68.7422 11.2031 68.0391C11.2031 67.3359 10.6406 66.75 9.91406 66.75Z" fill="#FCC450"/>
<path d="M88.0781 17.5781H87.1875V18.4922C87.1875 18.9141 86.8594 19.2422 86.4375 19.2422C86.0156 19.2422 85.6875 18.9141 85.6875 18.4922V17.5781H84.7734C84.3516 17.5781 84.0234 17.25 84.0234 16.8281C84.0234 16.4063 84.3516 16.0781 84.7734 16.0781H85.6875V15.1641C85.6875 14.7422 86.0156 14.4141 86.4375 14.4141C86.8594 14.4141 87.1875 14.7422 87.1875 15.1641V16.0781H88.1016C88.5234 16.0781 88.8516 16.4063 88.8516 16.8281C88.8281 17.25 88.5 17.5781 88.0781 17.5781Z" fill="#59BCAB"/>
<path d="M95.4375 12.8437C95.4375 13.4297 94.9687 13.9219 94.3594 13.9219C93.7734 13.9219 93.2812 13.4531 93.2812 12.8437C93.2812 12.2578 93.7734 11.7656 94.3594 11.7656C94.9453 11.7656 95.4375 12.2344 95.4375 12.8437Z" fill="#345185"/>
<path d="M39.9611 36.9609C36.7267 28.8516 38.3908 19.2656 44.9533 12.7031C48.1173 9.53906 51.9845 7.5 56.0626 6.63281L58.4767 17.5781C53.3908 18.6797 49.5939 23.2031 49.5939 28.6172C49.5939 30.0938 49.8751 31.5 50.3908 32.8125L39.9611 36.9609Z" fill="#345185"/>
<path d="M44.9531 44.5312C44.7891 44.3672 44.6016 44.1797 44.4375 43.9922L52.6172 36.3281C54.6797 38.5312 57.6094 39.8906 60.8672 39.8906C67.1016 39.8906 72.1641 34.8281 72.1641 28.5937C72.1641 24.1406 69.6094 20.2969 65.8594 18.4688L70.8281 8.41406C72.9844 9.46875 75 10.8984 76.7813 12.6797C85.5703 21.4687 85.5703 35.7422 76.7813 44.5312C68.0156 53.3203 53.7422 53.3203 44.9531 44.5312Z" fill="white"/>
<path d="M60.8911 17.3203C60.0474 17.3203 59.2505 17.414 58.477 17.5781L56.0864 6.63277C61.0083 5.55464 66.2348 6.14058 70.852 8.43746L65.8833 18.4921C64.3833 17.7187 62.6724 17.3203 60.8911 17.3203Z" fill="#59BCAB"/>
<path d="M44.4375 43.9922C42.4688 41.8828 40.9687 39.4922 39.9609 36.9609L50.3906 32.8125C50.9062 34.125 51.6797 35.3203 52.6406 36.3516L44.4375 43.9922Z" fill="#C1E4EE"/>
<path d="M112.195 23.6016V99.0234C112.195 100.289 111.164 101.32 109.898 101.32H61.6636C60.3979 101.32 59.3667 100.289 59.3667 99.0234V23.6016C59.3667 22.3359 60.3979 21.2812 61.6636 21.2812H109.874C111.164 21.2812 112.195 22.3125 112.195 23.6016Z" fill="#4FBECB"/>
<path d="M54.0464 103.477H117.515C118.101 103.477 118.593 103.008 118.593 102.398C118.593 101.813 118.125 101.32 117.515 101.32H54.0464C53.4605 101.32 52.9683 101.789 52.9683 102.398C52.9683 103.008 53.4605 103.477 54.0464 103.477Z" fill="#E2E2E1"/>
<path d="M112.195 23.5781V29.2031H59.3667V23.5781C59.3667 22.3125 60.3979 21.2578 61.6636 21.2578H109.874C111.164 21.2812 112.195 22.3125 112.195 23.5781Z" fill="#4FBECB"/>
<path d="M85.7808 99.3281C84.5855 99.3281 83.6245 98.3672 83.6245 97.1719C83.6245 95.9766 84.5855 95.0156 85.7808 95.0156C86.9761 95.0156 87.937 95.9766 87.937 97.1719C87.9605 98.3672 86.9761 99.3281 85.7808 99.3281Z" fill="#E6F2EA"/>
<path d="M65.4604 26.0625C64.9683 26.0625 64.5698 25.6641 64.5698 25.1719C64.5698 24.6797 64.9683 24.2812 65.4604 24.2812C65.9526 24.2812 66.3511 24.6797 66.3511 25.1719C66.3276 25.6641 65.9292 26.0625 65.4604 26.0625Z" fill="#E6F2EA"/>
<path d="M68.2495 26.0625C67.7573 26.0625 67.3589 25.6641 67.3589 25.1719C67.3589 24.6797 67.7573 24.2812 68.2495 24.2812C68.7417 24.2812 69.1401 24.6797 69.1401 25.1719C69.1401 25.6641 68.7417 26.0625 68.2495 26.0625Z" fill="#E6F2EA"/>
<path d="M111.375 29.2031H60.187V92.6953H111.375V29.2031Z" fill="#D2EBF7"/>
<path d="M69.3496 50.4844V42.9609H52.4043V50.4844H69.3496Z" fill="#A9DAE5"/>
<path d="M79.6904 69.6292V62.1057H62.7451V69.6292H79.6904Z" fill="#A9DAE5"/>
<path d="M74.5317 60.0686V52.5452H57.5864V60.0686H74.5317Z" fill="#A9DAE5"/>
<path d="M108.445 31.875H62.7422V40.4297H108.445V31.875Z" fill="#EDF6F4"/>
<path d="M107.062 33.0938H100.992V39.1641H107.062V33.0938Z" fill="#D2E8F2"/>
<path d="M78.8438 33.4688H65.6953V34.6406H78.8438V33.4688Z" fill="#ACD8C8"/>
<path d="M78.8438 35.5547H65.6953V36.7266H78.8438V35.5547Z" fill="#ACD8C8"/>
<path d="M74.5547 37.6406H65.6953V38.8125H74.5547V37.6406Z" fill="#ACD8C8"/>
<path opacity="0.5" d="M117.07 68.4141H79.687V85.9688H117.07V68.4141Z" fill="#96CEB8"/>
<path d="M98.0854 74.4844H83.4136V75.9609H98.0854V74.4844Z" fill="#E6F2EA"/>
<path d="M94.5933 77.1094H83.4136V78.5859H94.5933V77.1094Z" fill="#E6F2EA"/>
<path d="M90.9604 79.7578H83.4136V81.2344H90.9604V79.7578Z" fill="#E6F2EA"/>
<path d="M96.3979 79.7578H91.8979V81.2344H96.3979V79.7578Z" fill="#E6F2EA"/>
<path d="M93.6089 82.3828H83.4136V83.8594H93.6089V82.3828Z" fill="#E6F2EA"/>
<path d="M76.2422 72.4453H62.7422V85.9453H76.2422V72.4453Z" fill="#9FD2BA"/>
<path d="M72.4776 82.2233C74.1251 80.5758 74.1251 77.9047 72.4776 76.2572C70.83 74.6096 68.1589 74.6096 66.5114 76.2572C64.8639 77.9047 64.8639 80.5758 66.5114 82.2233C68.1589 83.8708 70.83 83.8708 72.4776 82.2233Z" fill="#7CC39E"/>
<path d="M72.7031 79.2422C72.7031 80.2969 72.1875 81.2344 71.3906 81.8203C71.1562 81.9844 70.8984 82.1484 70.6172 82.2422C70.5 82.2891 70.3594 82.3359 70.2422 82.3594C70.1719 82.3828 70.0781 82.3828 70.0078 82.4063C69.8438 82.4297 69.6797 82.4531 69.5156 82.4531C69.1875 82.4531 68.8594 82.4063 68.5547 82.3125C67.2422 81.9141 66.3047 80.6953 66.3047 79.2422C66.3047 78.75 66.4219 78.2578 66.6328 77.8359C66.8906 77.3203 67.2656 76.875 67.7344 76.5703C67.8516 76.5 67.9688 76.4297 68.0859 76.3594C68.3438 76.2187 68.625 76.125 68.9297 76.0781C69.1172 76.0313 69.3281 76.0312 69.5156 76.0312C70.875 76.0312 72.0469 76.875 72.4922 78.0703C72.6094 78.4453 72.7031 78.8203 72.7031 79.2422Z" fill="#EFF4F4"/>
<path d="M69.4922 79.6172C69.2813 79.6172 69.1172 79.4531 69.1172 79.2422V77.1797C69.1172 76.9687 69.2813 76.8047 69.4922 76.8047C69.7031 76.8047 69.8672 76.9687 69.8672 77.1797V79.2422C69.8672 79.4531 69.7031 79.6172 69.4922 79.6172Z" fill="#C1D6CF"/>
<path d="M69.4923 79.6172C69.3751 79.6172 69.2579 79.5468 69.1876 79.4531C69.0704 79.289 69.1407 79.0547 69.3048 78.9375L70.3595 78.2578C70.5235 78.1406 70.7579 78.2109 70.8751 78.375C70.9923 78.539 70.9219 78.7734 70.7579 78.8906L69.7032 79.5703C69.6329 79.5937 69.5626 79.6172 69.4923 79.6172Z" fill="#C1D6CF"/>
<path d="M108.445 42.9609H81.7734V69.6328H108.445V42.9609Z" fill="#98D5E9"/>
<path d="M95.1094 57.4922C93.2344 57.4922 91.7109 55.9687 91.7109 54.0937V52.0547C91.7109 50.1797 93.2344 48.6562 95.1094 48.6562C96.9844 48.6562 98.5078 50.1797 98.5078 52.0547V54.0937C98.5078 55.9687 96.9844 57.4922 95.1094 57.4922Z" fill="#F8FCFA"/>
<path d="M95.1093 55.7578C91.8984 55.7578 89.1562 57.6328 87.8671 60.3516C87.1171 61.9453 88.2655 63.7734 90.0234 63.7734H100.219C101.976 63.7734 103.125 61.9453 102.375 60.3516C101.086 57.6328 98.3202 55.7578 95.1093 55.7578Z" fill="#F8FCFA"/>
<path d="M108.44 89.0283V86.8486L62.7368 86.8486V89.0283L108.44 89.0283Z" fill="#FFE1AB"/>
<path d="M111.867 42.0938V34.1484C112.43 34.1484 112.898 34.6172 112.898 35.1797V41.0859C112.898 41.6484 112.43 42.0938 111.867 42.0938Z" fill="#4FBECB"/>
<path d="M111.867 50.9766V43.0312C112.43 43.0312 112.898 43.5 112.898 44.0625V49.9687C112.898 50.5078 112.43 50.9766 111.867 50.9766Z" fill="#4FBECB"/>
<path opacity="0.3" d="M89.8828 29.2031L60.1875 58.8984V42.9375L73.9219 29.2031H89.8828Z" fill="#F6FBFD"/>
<path opacity="0.3" d="M100.992 29.2031L60.1875 70.0078V62.0391L93.0234 29.2031H100.992Z" fill="#F6FBFD"/>
<path opacity="0.3" d="M70.7812 74.9062V81.75C70.7812 82.0312 70.5937 82.2891 70.3359 82.3594V101.297H61.6875C60.4219 101.297 59.3906 100.266 59.3906 99V60.9609H68.7422C69.6328 60.9609 70.3359 61.6875 70.3359 62.5547V74.2969C70.5937 74.3906 70.7812 74.625 70.7812 74.9062Z" fill="#385F82"/>
<path d="M64.1953 57.7969V110.156C64.1953 111.047 63.4688 111.75 62.6016 111.75H35.1094C34.2422 111.75 33.5156 111.047 33.5156 110.156V57.7969C33.5156 56.9063 34.2422 56.2031 35.1094 56.2031H62.5781C63.4687 56.2031 64.1953 56.9063 64.1953 57.7969Z" fill="#5BB98E"/>
<path d="M64.1953 57.7969V61.7109H33.5156V57.7969C33.5156 56.9062 34.2422 56.2031 35.1094 56.2031H62.6016C63.4688 56.2031 64.1953 56.9297 64.1953 57.7969Z" fill="#5BB98E"/>
<path d="M48.8437 110.391C48.0234 110.391 47.3438 109.711 47.3438 108.891C47.3438 108.07 48.0234 107.391 48.8437 107.391C49.6641 107.391 50.3438 108.07 50.3438 108.891C50.3438 109.711 49.6875 110.391 48.8437 110.391Z" fill="#E6F2EA"/>
<path d="M43.2891 59.5078C42.9609 59.5078 42.6797 59.2266 42.6797 58.8984C42.6797 58.5703 42.9609 58.2891 43.2891 58.2891C43.6172 58.2891 43.8984 58.5703 43.8984 58.8984C43.8984 59.25 43.6406 59.5078 43.2891 59.5078Z" fill="#E6F2EA"/>
<path d="M51.9375 59.1328H45.8672C45.75 59.1328 45.6328 59.0391 45.6328 58.8984C45.6328 58.7578 45.7266 58.6641 45.8672 58.6641H51.9375C52.0547 58.6641 52.1719 58.7578 52.1719 58.8984C52.1719 59.0391 52.0547 59.1328 51.9375 59.1328Z" fill="#E6F2EA"/>
<path d="M63.6094 61.7109H34.0781V105.797H63.6094V61.7109Z" fill="#D2EBF7"/>
<path d="M41.8125 85.1484H36.4453V86.8359H41.8125V85.1484Z" fill="#EDF6F4"/>
<path d="M55.4766 85.1484H50.1094V86.8359H55.4766V85.1484Z" fill="#EDF6F4"/>
<path d="M48.6328 85.1484H43.2656V86.8359H48.6328V85.1484Z" fill="#EDF6F4"/>
<path d="M61.2891 88.2188H39.6797V94.1484H61.2891V88.2188Z" fill="#EDF6F4"/>
<path d="M60.3281 89.0625H56.1094V93.2812H60.3281V89.0625Z" fill="#D5EAE4"/>
<path d="M47.6953 89.3203H38.5547V90.1406H47.6953V89.3203Z" fill="#ACD8C8"/>
<path d="M47.6953 90.7734H38.5547V91.5938H47.6953V90.7734Z" fill="#ACD8C8"/>
<path d="M44.6953 92.2266H38.5547V93.0469H44.6953V92.2266Z" fill="#ACD8C8"/>
<path d="M52.2891 95.625H36.4922V103.031H52.2891V95.625Z" fill="#EDF6F4"/>
<path d="M46.6172 96.75H38.5547V97.5703H46.6172V96.75Z" fill="#FFE1AB"/>
<path d="M44.6953 98.1797H38.5547V99H44.6953V98.1797Z" fill="#FFE1AB"/>
<path d="M42.7031 99.6328H38.5547V100.453H42.7031V99.6328Z" fill="#FFE1AB"/>
<path d="M45.6797 99.6328H43.2188V100.453H45.6797V99.6328Z" fill="#ACD8C8"/>
<path d="M44.1562 101.086H38.5547V101.906H44.1562V101.086Z" fill="#FFE1AB"/>
<path opacity="0.5" d="M55.5 64.4531H32.25V83.4141H55.5V64.4531Z" fill="#FFE1AB"/>
<path d="M46.0078 79.9453C49.2956 79.9453 51.9609 77.28 51.9609 73.9922C51.9609 70.7044 49.2956 68.0391 46.0078 68.0391C42.72 68.0391 40.0547 70.7044 40.0547 73.9922C40.0547 77.28 42.72 79.9453 46.0078 79.9453Z" fill="#FCC450"/>
<path d="M50.5078 73.9922C50.5078 75.4922 49.7812 76.8047 48.6797 77.625C48.3516 77.8594 47.9766 78.0703 47.5781 78.2109C47.4141 78.2813 47.2266 78.3281 47.0391 78.375C46.9219 78.3984 46.8047 78.4219 46.7109 78.4453C46.4766 78.4922 46.2422 78.4922 46.0078 78.4922C45.5391 78.4922 45.0938 78.4219 44.6719 78.2813C42.8438 77.7188 41.5078 75.9844 41.5078 73.9688C41.5078 73.2656 41.6719 72.6094 41.9531 72C42.3047 71.2734 42.8437 70.6406 43.5234 70.1953C43.6875 70.0781 43.8516 69.9844 44.0156 69.9141C44.3906 69.7266 44.7891 69.5859 45.1875 69.5156C45.4688 69.4688 45.7266 69.4453 46.0078 69.4453C47.9297 69.4453 49.5703 70.6406 50.2031 72.3281C50.4141 72.8672 50.5078 73.4297 50.5078 73.9922Z" fill="#EFF4F4"/>
<path d="M46.0078 74.5313C45.7266 74.5313 45.4922 74.2969 45.4922 74.0156V71.1328C45.4922 70.8516 45.7266 70.6172 46.0078 70.6172C46.2891 70.6172 46.5234 70.8516 46.5234 71.1328V74.0156C46.5234 74.2969 46.2891 74.5313 46.0078 74.5313Z" fill="#C1D6CF"/>
<path d="M46.0079 74.5313C45.8438 74.5313 45.6563 74.4376 45.5625 74.2969C45.3985 74.0626 45.4922 73.7344 45.7266 73.5704L47.2266 72.6329C47.461 72.4688 47.7891 72.5625 47.9532 72.7969C48.1172 73.0313 48.0235 73.3594 47.7891 73.5235L46.2891 74.461C46.1954 74.5079 46.1016 74.5313 46.0079 74.5313Z" fill="#C1D6CF"/>
<path opacity="0.3" d="M54.7031 61.7109L34.0781 82.3125V71.25L43.6172 61.7109H54.7031Z" fill="#F6FBFD"/>
<path opacity="0.3" d="M62.4141 61.7109L34.0781 90.0469V84.4922L56.8594 61.7109H62.4141Z" fill="#F6FBFD"/>
<g opacity="0.7">
<path opacity="0.7" d="M65.3203 95.625H53.8828V107.062H65.3203V95.625Z" fill="#9FD2BA"/>
<path opacity="0.7" d="M59.5781 101.859C58.7812 101.859 58.125 101.203 58.125 100.406V99.5391C58.125 98.7422 58.7812 98.0859 59.5781 98.0859C60.375 98.0859 61.0313 98.7422 61.0313 99.5391V100.406C61.0547 101.203 60.3984 101.859 59.5781 101.859Z" fill="#F8FCFA"/>
<path opacity="0.7" d="M59.5781 101.109C58.1953 101.109 57.0234 101.906 56.4609 103.078C56.1328 103.758 56.625 104.555 57.375 104.555H61.7343C62.4843 104.555 62.9765 103.758 62.6484 103.078C62.1562 101.906 60.9609 101.109 59.5781 101.109Z" fill="#F8FCFA"/>
</g>
<path d="M60.9844 64.4531H57.5859V86.8359H60.9844V64.4531Z" fill="#9FD2BA"/>
<path d="M63.9609 77.6719V69.4922C64.3359 69.4922 64.6406 69.7969 64.6406 70.1719V77.0156C64.6406 77.3672 64.3359 77.6719 63.9609 77.6719Z" fill="#5BB98E"/>
<path opacity="0.3" d="M43.4297 56.2031L40.6172 64.4531L34.1484 83.4141L33.5156 85.2891V83.4141H32.2734V64.4531H33.5156V57.7969C33.5156 56.9063 34.2422 56.2031 35.1094 56.2031H43.4297Z" fill="#385F82"/>
<path d="M18.2109 113.906H68.5078C69.0938 113.906 69.5859 113.437 69.5859 112.828C69.5859 112.242 69.1172 111.75 68.5078 111.75H18.2109C17.625 111.75 17.1328 112.219 17.1328 112.828C17.1563 113.437 17.625 113.906 18.2109 113.906Z" fill="#E2E2E1"/>
</svg>
