<svg width="120" height="120" viewBox="0 0 120 120" fill="none" xmlns="http://www.w3.org/2000/svg">
<path d="M30.4355 38.2509L69.6816 18.9023L78.9341 53.9573L34.3588 52.3505L30.4355 38.2509Z" fill="#EBDBCD"/>
<path d="M57.9791 28.5163L56.466 39.8041C56.4526 39.9514 56.5196 40.0987 56.6535 40.1522C57.0954 40.3397 58.1264 40.7414 59.2779 40.8084C60.2152 40.8619 61.8622 40.6075 62.8129 40.3129C62.987 40.2594 63.1075 40.0585 63.0405 39.8844L58.6218 28.436C58.5013 28.1146 58.0327 28.1816 57.9791 28.5163Z" fill="#110580"/>
<path d="M63.067 38.3045C66.7225 38.3045 69.695 35.332 69.695 31.6765C69.695 28.021 66.7225 25.0485 63.067 25.0485C59.4115 25.0485 56.439 28.021 56.439 31.6765C56.439 35.3454 59.3981 38.3045 63.067 38.3045Z" fill="#FCB58A"/>
<path d="M53.1319 82.6923H44.0669V89.5479H53.1319V82.6923Z" fill="#F8D7BC"/>
<path d="M43.1831 82.1567V82.6789H53.1453V89.5346H43.1831V90.0568H81.5186V82.1567H43.1831Z" fill="#4E53BA"/>
<path d="M39.38 78.0996C39.6077 79.5055 39.8755 80.8981 40.2102 82.2772C40.7994 84.7142 44.5486 83.6832 43.9594 81.2462C43.6247 79.867 43.3569 78.4745 43.1292 77.0685C42.9685 76.0375 41.6697 75.4617 40.7324 75.7028C39.621 76.0241 39.206 77.0685 39.38 78.0996Z" fill="#E3996D"/>
<path d="M98.5904 63.866L91.8285 67.7892L91.708 59.7954L98.5904 63.866Z" fill="#2B31BA"/>
<path d="M61.8756 57.4522C61.8354 57.4388 61.7953 57.412 61.7551 57.412C61.1124 57.3049 56.1581 56.4479 51.0163 55.457C48.7266 55.0152 42.045 53.1272 38.5368 54.493C35.042 55.8587 34.3458 57.9074 34.0378 59.3401C33.77 60.639 34.2386 65.0443 35.3768 69.5165C36.3944 73.5201 38.885 78.5949 39.3938 79.6126C39.4474 79.7331 39.5813 79.8134 39.7152 79.8268C40.0365 79.8402 40.6792 79.8402 41.496 79.5858C42.2325 79.3716 43.0091 78.9565 43.3572 78.7556C43.4777 78.6887 43.5447 78.5682 43.5447 78.4343C43.5581 77.3229 43.6518 72.1142 43.5179 68.4587C43.384 64.9104 42.1655 63.732 42.1655 63.732C42.1655 63.732 46.37 68.4052 50.6682 69.6772C54.0692 70.6815 61.1927 72.9176 64.1385 72.8372C67.5529 72.7435 70.0301 71.2974 71.1281 69.5567C73.1767 66.3431 71.9047 61.5763 71.5833 60.5319C71.5432 60.398 71.436 60.3042 71.3021 60.2774C70.1774 60.0096 64.8348 58.7376 63.4556 58.1618C62.3442 57.6798 61.9827 57.5057 61.8756 57.4522Z" fill="#FF8A91"/>
<path d="M71.4361 55.9525C71.4361 55.9525 71.3557 56.8362 71.4495 58.0949C71.5298 59.3669 71.7307 60.331 71.7307 60.331C71.7307 60.331 66.6157 59.5008 64.6741 58.751C62.2238 57.8003 61.8354 57.412 61.8354 57.412C61.8354 57.412 62.2907 56.3809 62.4648 55.6445C62.5853 55.0955 62.6523 53.5958 62.6523 53.5958C62.6523 53.5958 65.3034 54.8545 67.1513 55.2963C68.9991 55.7382 71.4361 55.9525 71.4361 55.9525Z" fill="#FCB58A"/>
<path d="M26.9409 27.4987C29.6725 27.4987 31.8818 25.2894 31.8818 22.5578C31.8818 19.8263 29.6725 17.6169 26.9409 17.6169C24.2094 17.6169 22 19.8263 22 22.5578C22 25.2894 24.2094 27.4987 26.9409 27.4987Z" fill="#4E53BA"/>
<path d="M65.5842 101.827H35.2559V90.7531H65.5708C67.0839 90.7531 68.3024 91.9715 68.3024 93.4846V99.095C68.3291 100.608 67.0972 101.827 65.5842 101.827Z" fill="#F8ECE2"/>
<path d="M83.5537 90.0568H33.9438C33.7564 90.0568 33.5957 90.204 33.5957 90.4049C33.5957 90.5924 33.743 90.753 33.9438 90.753H40.0363H62.7725C65.8388 90.753 68.3159 93.2302 68.3159 96.2965C68.3159 99.3628 65.8388 101.84 62.7725 101.84H34.6937H33.9438C33.7564 101.84 33.5957 101.987 33.5957 102.188C33.5957 102.389 33.743 102.536 33.9438 102.536H83.5537C86.62 102.536 89.0972 100.059 89.0972 96.9928V95.6136C89.0972 92.5339 86.62 90.0568 83.5537 90.0568Z" fill="#FF5856"/>
<path d="M63.8438 93.1499H35.2695V92.7616H63.8438C63.9509 92.7616 64.0312 92.8419 64.0312 92.9491C64.0312 93.0696 63.9509 93.1499 63.8438 93.1499Z" fill="#EBD0BE"/>
<path d="M50.6548 87.9144H44.0669V87.5261H50.6548C50.7619 87.5261 50.8422 87.6065 50.8422 87.7136C50.8422 87.8207 50.7619 87.9144 50.6548 87.9144Z" fill="#E0C1A6"/>
<path d="M49.1015 85.7452H44.0669V85.3569H49.0881C49.1953 85.3569 49.2756 85.4373 49.2756 85.5444C49.289 85.6649 49.2086 85.7452 49.1015 85.7452Z" fill="#E0C1A6"/>
<path d="M65.9192 97.4614H35.2695V97.0731H65.9192C66.0263 97.0731 66.1067 97.1535 66.1067 97.2606C66.1067 97.3677 66.0263 97.4614 65.9192 97.4614Z" fill="#EBD0BE"/>
<path d="M62.1432 99.8583H35.2695V99.47H62.1432C62.2504 99.47 62.3307 99.5503 62.3307 99.6574C62.3307 99.7645 62.2504 99.8583 62.1432 99.8583Z" fill="#EBD0BE"/>
<path d="M64.9953 95.3458H35.2695V94.9575H64.9953C65.1024 94.9575 65.1828 95.0379 65.1828 95.145C65.1828 95.2521 65.1024 95.3458 64.9953 95.3458Z" fill="#EBD0BE"/>
<path d="M61.7413 81.5273H50.0786V77.4166H61.7413C62.0626 77.4166 62.3171 77.671 62.3171 77.9924V80.9516C62.3171 81.2729 62.0493 81.5273 61.7413 81.5273Z" fill="#F8D0B3"/>
<path d="M82.7504 76.7874H59.5858H49.4228H49.1148C48.9407 76.7874 48.7935 76.9346 48.7935 77.1087C48.7935 77.2828 48.9407 77.4301 49.1148 77.4301H50.0789H61.1658C61.7951 77.4301 62.3173 77.9523 62.3173 78.5816V80.3759C62.3173 81.0052 61.7951 81.5274 61.1658 81.5274H58.6351H49.1952C49.0211 81.5274 48.8738 81.6747 48.8738 81.8488C48.8738 82.0228 49.0211 82.1701 49.1952 82.1701H49.4362H59.6661H82.7504C83.3798 82.1701 83.902 81.6479 83.902 81.0186V77.9523C83.902 77.2962 83.3798 76.7874 82.7504 76.7874Z" fill="#FF7A82"/>
<path d="M42.6205 51.6275C46.0617 50.0876 50.0386 52.1497 53.4664 52.7388C56.8273 53.3146 60.5095 52.8593 62.8394 50.1144C63.3616 49.4851 63.4553 48.5746 62.8394 47.9586C62.2904 47.4096 61.2192 47.3293 60.6836 47.9586C58.4877 50.5429 55.0732 50.0742 52.1274 49.3244C48.4318 48.3737 44.7629 47.3427 41.0941 48.9896C40.3442 49.3244 40.1568 50.4224 40.5451 51.0785C40.9869 51.8551 41.8707 51.9622 42.6205 51.6275Z" fill="#F0A173"/>
<path d="M43.7187 52.5782C47.4545 51.3597 51.1368 53.7699 54.6316 54.801C57.9791 55.7784 61.6881 55.6311 64.2991 53.087C65.7051 51.7213 63.5493 49.5655 62.1433 50.9312C59.7867 53.2209 56.3455 52.2569 53.6407 51.2526C50.1995 49.9806 46.611 48.4273 42.9019 49.6458C41.0675 50.235 41.8575 53.1942 43.7187 52.5782Z" fill="#FCB58A"/>
<path d="M67.2313 41.0762C67.5527 41.1699 70.4717 42.3482 71.5563 46.2447C72.4668 49.4583 73.23 54.2386 73.471 55.8052C73.5246 56.0998 73.3237 56.3944 73.0158 56.4479C72.1454 56.622 70.2574 56.8898 67.8874 56.6755C64.5801 56.381 62.4779 55.4838 62.4779 55.4838L62.5582 54.734L62.2636 54.8679C62.036 54.975 61.7548 54.9081 61.6075 54.7072L59.4517 51.8418C59.3044 51.6543 59.3714 51.3865 59.5722 51.2794L59.599 51.266L57.8583 49.1771C57.6976 48.9763 57.711 48.6817 57.8985 48.5076C58.5144 47.9185 59.8534 46.5661 60.8041 45.2673C61.5004 44.33 62.4109 42.616 62.9733 41.9599C64.1248 40.5942 66.3743 40.8218 67.2313 41.0762Z" fill="white"/>
<path d="M67.3384 42.2947L65.2228 36.845L61.1924 36.8182L63.308 42.268L67.3384 42.2947Z" fill="#FCB58A"/>
<path d="M63.643 43.4864C64.2456 43.6337 65.0624 43.058 65.7453 42.75C66.4817 42.4286 67.3253 42.2947 67.3253 42.2947L63.2949 42.2679C63.2949 42.2679 63.0003 43.3391 63.643 43.4864Z" fill="#FCB58A"/>
<path d="M62.2234 47.8917C62.2234 47.8917 61.8217 48.9763 61.42 49.5789C61.0183 50.1814 59.6257 51.2526 59.6257 51.2526L59.1035 50.6233C59.1035 50.6233 60.0676 50.1278 60.7505 49.4717C61.2593 49.0031 62.2234 47.8917 62.2234 47.8917Z" fill="#E0E0E0"/>
<path d="M62.5716 54.7206C62.5716 54.7206 63.8169 53.9841 64.3793 53.3816C64.9416 52.779 65.7183 51.5605 65.7183 51.5605C65.7183 51.5605 64.8613 53.4084 64.4462 54.2118C63.8571 55.3097 63.4152 55.7918 63.4152 55.7918L62.5181 55.4704C62.5181 55.4704 62.5315 55.283 62.5582 55.1089C62.5582 54.9482 62.5716 54.7206 62.5716 54.7206Z" fill="#E0E0E0"/>
<path d="M39.6481 51.2124C40.5185 50.6634 41.429 50.2349 42.4198 49.927C43.2366 49.6726 42.8885 48.3737 42.0583 48.6148C40.9737 48.9495 39.9427 49.4182 38.9786 50.0341C38.2555 50.5027 38.9117 51.6677 39.6481 51.2124Z" fill="#F0A173"/>
<path d="M70.0297 26.8828C71.4089 26.8828 72.5203 25.7714 72.5203 24.3923C72.5203 23.0131 71.4089 21.9017 70.0297 21.9017C68.6505 21.9017 67.5392 23.0131 67.5392 24.3923C67.5258 25.7714 68.6505 26.8828 70.0297 26.8828Z" fill="#110580"/>
<path d="M62.9062 33.6715C63.6025 33.9259 63.9104 33.9259 63.9104 33.9259C63.8301 33.4707 63.7364 32.9752 63.7364 32.9351C63.7364 32.9351 62.5849 32.5468 61.8216 31.7835C60.6701 30.632 61.2458 29.4805 60.2818 28.5164C59.4784 27.713 58.4741 27.3648 58.1394 27.2711C58.126 27.2845 58.126 27.2845 58.126 27.2845C58.1394 27.2979 59.3713 27.7933 60.1747 28.8779C60.9914 29.9625 60.255 31.0337 61.2324 32.3325C61.8082 33.1359 62.3036 33.4439 62.9062 33.6715Z" fill="#E3996D"/>
<path d="M65.5843 37.8091C64.8076 38.1304 63.9507 38.3045 63.0536 38.3045C62.5983 38.3045 62.1297 38.2509 61.7012 38.1572L62.2635 39.6033C62.4242 39.59 62.5849 39.5498 62.7456 39.523C63.8704 39.2686 64.8612 38.7196 65.6512 37.9832L65.5843 37.8091Z" fill="#E3996D"/>
<path d="M64.6473 38.8133C63.3351 38.8133 62.2505 37.7421 62.2505 36.4164C62.2505 35.1042 63.3217 34.0197 64.6473 34.0197C65.9729 34.0197 67.0441 35.0908 67.0441 36.4164C67.0441 37.7421 65.9595 38.8133 64.6473 38.8133ZM64.6473 34.4214C63.5493 34.4214 62.6522 35.3185 62.6522 36.4164C62.6522 37.5144 63.5493 38.4116 64.6473 38.4116C65.7453 38.4116 66.6424 37.5144 66.6424 36.4164C66.6424 35.3185 65.7453 34.4214 64.6473 34.4214Z" fill="white"/>
<path d="M72.3731 40.1256C72.6409 40.0318 72.8016 39.7373 72.6945 39.4695L69.5211 29.8554C68.7177 27.0302 66.1334 24.9547 63.0537 24.9547C61.0452 24.9547 59.2509 25.8385 58.019 27.2176C58.0324 27.2176 59.3179 27.539 60.2686 28.5031C61.2326 29.4671 60.6569 30.6187 61.8084 31.7702C62.5716 32.5334 63.7232 32.9218 63.7232 32.9218C63.7232 33.0423 64.2856 35.9345 64.7408 38.184C64.8345 38.6795 64.9283 39.2552 65.0086 39.6971C65.0488 39.9113 65.1961 40.0854 65.3969 40.1657C66.5619 40.6344 67.9009 40.8754 69.3336 40.8085C70.3646 40.7683 71.6768 40.3666 72.3731 40.1256Z" fill="#110580"/>
<path d="M71.6633 59.6883C71.6633 59.6883 72.1185 61.5763 71.9846 61.5763C71.8374 61.5629 66.2805 60.4783 64.8344 60.157C61.661 59.4741 61.1655 57.3183 61.1655 57.3183C61.1655 57.3183 61.42 57.3049 61.6878 57.1041C61.9556 56.9032 62.0493 56.8229 62.0493 56.8229C62.0493 56.8229 62.5045 57.9343 65.2629 58.7377C69.1058 59.849 71.6633 59.6883 71.6633 59.6883Z" fill="#FFADB2"/>
<path d="M39.9562 81.206C39.9562 81.206 41.2283 81.1926 41.871 81.0855C42.5137 80.965 43.759 80.3624 43.759 80.3624C43.759 80.3624 44.4954 81.9692 44.6963 82.3977C44.9105 82.8262 45.8076 83.884 45.9282 84.5803C46.0487 85.2766 46.0754 86.8298 43.3974 87.0708C42.1522 87.1779 40.9872 89.6952 39.6349 89.8827C38.9654 89.9764 35.7785 90.3246 34.8814 89.8291C33.9843 89.3337 34.2655 88.0081 36.448 87.2984C38.6306 86.5754 38.2155 85.8523 38.7377 84.9284C39.2331 83.9777 39.9562 81.206 39.9562 81.206Z" fill="#AB534D"/>
<path d="M32.5377 78.7289C32.3502 80.2955 32.1628 81.8487 31.9753 83.4154C31.8548 84.4598 32.9662 85.3703 33.9303 85.3703C35.0818 85.3703 35.7513 84.4732 35.8852 83.4154C36.0727 81.8487 36.2601 80.2955 36.4476 78.7289C36.5681 77.6844 35.4567 76.7739 34.4926 76.7739C33.3277 76.7873 32.6582 77.6844 32.5377 78.7289Z" fill="#FCB58A"/>
<path d="M63.2279 72.7837C66.0398 73.0649 68.6374 72.2749 70.6191 70.3601C72.5875 68.4453 72.467 65.2317 72.3598 63.9329C72.2795 62.9019 71.9314 61.2415 71.7975 60.5854C71.7573 60.4247 71.6368 60.2908 71.4761 60.2641C70.4718 60.0766 66.9503 59.4473 65.9059 59.1259C65.0489 58.8581 64.2991 58.5635 63.9242 58.4162C63.7769 58.3627 63.6162 58.3895 63.4957 58.4966C63.1743 58.7912 62.4111 59.3134 61.1658 59.1929C59.4787 59.0188 52.0472 56.7291 49.1148 55.8186C46.1824 54.9215 41.2683 52.7389 36.7157 54.2386C33.8101 55.2027 31.6409 57.9744 31.5739 63.799C31.5338 68.3248 31.5204 74.1093 31.6007 76.2919C31.6543 78.0058 31.5873 79.8268 31.5605 80.5231C31.5472 80.7106 31.6543 80.8579 31.815 80.9248C32.1095 81.0453 32.6451 81.2194 33.395 81.3801C34.3323 81.5809 35.4972 81.5006 36.0194 81.447C36.1801 81.4336 36.314 81.3265 36.3676 81.1658C36.6487 80.3357 37.5593 77.5907 38.3894 75.2876C40.4515 69.5165 40.6256 66.4101 40.5318 65.0175C40.5051 64.6694 40.8934 64.4551 41.1746 64.656C42.5403 65.5933 45.4727 67.5214 48.7533 68.9943C53.2523 71.0296 59.7197 72.4356 63.2279 72.7837Z" fill="#FFADB2"/>
<path d="M67.1777 59.6616C67.1911 61.6835 66.5618 63.7589 65.0889 65.205C64.4328 65.8611 63.616 66.3699 62.7188 66.6511C61.6476 66.9725 60.5095 66.9189 59.4115 66.7449C55.3142 66.0887 51.5516 64.2008 47.856 62.4333C45.9948 61.5362 44.1202 60.6658 42.1652 59.9695C41.6698 59.7955 41.1877 59.6214 40.6923 59.4741C40.1433 59.3134 39.5809 59.1527 39.0186 59.2197C38.0947 59.3134 37.385 59.9561 36.9029 60.6926C36.3941 61.496 36.1397 62.4467 35.9389 63.3706C35.7112 64.3882 35.564 65.4192 35.4702 66.4637C35.3229 67.9633 35.2828 69.463 35.1489 70.9627C34.8677 73.9353 34.5329 76.9346 34.0107 79.8804C33.9705 80.1215 33.9304 80.3491 33.8768 80.5767C33.8099 80.8981 34.3053 81.0454 34.3722 80.7106C34.6266 79.4787 34.8007 78.2335 34.9614 76.9882C35.189 75.3814 35.3765 73.7478 35.5506 72.1276C35.6978 70.7619 35.7916 69.4095 35.8719 68.0437C35.979 66.0218 36.1933 63.933 36.8628 61.9914C37.144 61.1612 37.626 60.3177 38.4294 59.9026C39.3935 59.4071 40.545 59.916 41.4823 60.2507C43.4506 60.9202 45.352 61.7906 47.2266 62.6877C50.949 64.4552 54.6715 66.3833 58.7688 67.1466C59.8802 67.3474 61.0183 67.4947 62.1431 67.3072C63.067 67.16 63.9641 66.7582 64.7006 66.2093C66.3208 65.0175 67.2982 63.1697 67.6062 61.188C67.6865 60.6792 67.7267 60.157 67.7133 59.6482C67.6999 59.3268 67.1777 59.3268 67.1777 59.6616Z" fill="white"/>
<path d="M39.4205 52.2568C40.2909 51.4267 41.4157 51.1187 42.5672 50.9045C43.384 50.7438 43.0894 49.4717 42.2726 49.6324C40.9068 49.9002 39.5678 50.3153 38.5368 51.3062C37.9476 51.8819 38.818 52.846 39.4205 52.2568Z" fill="#FCB58A"/>
<path d="M44.1338 52.6451L41.3353 53.3414C40.9202 53.4485 40.5051 53.1941 40.398 52.779L39.9561 50.9982C39.849 50.5831 40.1034 50.168 40.5185 50.0609L43.317 49.3646C43.7321 49.2575 44.1472 49.5119 44.2543 49.927L44.6962 51.7078C44.8033 52.1229 44.5489 52.5514 44.1338 52.6451Z" fill="#FCB58A"/>
<path d="M67.4324 76.5061H48.5659V72.556H67.4324C67.968 72.556 68.3965 72.9845 68.3965 73.5201V75.5152C68.3965 76.0642 67.968 76.5061 67.4324 76.5061Z" fill="#F8E7D8"/>
<path d="M79.1888 72.2482H47.7625C47.6822 72.2482 47.6152 72.3151 47.6152 72.3955C47.6152 72.4758 47.6822 72.5427 47.7625 72.5427H66.4014C67.4994 72.5427 68.3831 73.4265 68.3831 74.5245C68.3831 75.6224 67.4994 76.5062 66.4014 76.5062H47.7625C47.6822 76.5062 47.6152 76.5731 47.6152 76.6535C47.6152 76.7338 47.6822 76.8008 47.7625 76.8008H79.1888C80.2868 76.8008 81.1706 75.917 81.1706 74.819V74.2433C81.1572 73.1319 80.2734 72.2482 79.1888 72.2482Z" fill="#2B31BA"/>
<path d="M25.5084 92.641C25.9771 93.5917 28.3471 94.0202 30.7841 92.2661C34.4663 89.6283 36.6757 90.4317 36.6757 88.2223C36.6757 87.2315 36.4748 86.3209 36.2204 85.2765C35.9794 84.3258 35.9928 82.5316 35.9928 82.5316C35.9928 82.5316 34.2387 82.719 33.3415 82.5584C32.6453 82.4378 32.1498 82.17 32.1498 82.17C32.1498 82.17 31.8954 83.5894 31.0786 85.0891C30.5029 86.1469 30.0744 86.7896 29.0969 87.6867C28.481 88.2357 24.7184 91.0744 25.5084 92.641Z" fill="#C7645D"/>
<path d="M62.9066 75.6224H48.5659V75.4349H62.9066C62.9602 75.4349 63.0003 75.4751 63.0003 75.5287C63.0003 75.5822 62.9735 75.6224 62.9066 75.6224Z" fill="#DEBCA7"/>
<path d="M64.4732 73.6942H48.5659V73.5067H64.4732C64.5268 73.5067 64.567 73.5469 64.567 73.6005C64.567 73.6406 64.5268 73.6942 64.4732 73.6942Z" fill="#DEBCA7"/>
<path d="M66.2273 74.6181H48.5659V74.4307H66.2273C66.2809 74.4307 66.321 74.4708 66.321 74.5244C66.321 74.578 66.2675 74.6181 66.2273 74.6181Z" fill="#DEBCA7"/>
<path d="M58.8762 97.0731H54.4174C54.4174 97.0731 53.6943 97.3141 53.0784 98.4523C52.3152 99.8716 52.5829 101.251 52.1009 102.309C51.5385 103.527 50.6548 103.996 50.6548 103.996C50.6548 103.996 51.6457 104.13 52.2348 104.049C52.7704 103.969 53.4399 103.527 53.4399 103.527C53.4399 103.527 53.5604 103.782 53.5872 104.237C53.6274 104.732 53.5738 105 53.5738 105C53.5738 105 55.2074 104.612 55.8635 103.674C56.7874 102.362 56.0108 100.769 57.2025 98.787C57.7515 97.9033 58.8762 97.0731 58.8762 97.0731Z" fill="#BFA990"/>
<path d="M82.1481 17.0948C83.4603 18.4471 84.1967 19.9334 85.0135 21.6072C85.2412 22.0624 86.6471 21.1519 86.54 20.6967C86.1115 18.9158 84.9332 17.3492 83.6344 16.0905C83.1925 15.6888 81.7999 16.7332 82.1481 17.0948Z" fill="#F3E9E1"/>
<path d="M90.1019 16.934C90.0617 18.581 89.7136 20.1342 89.4056 21.741C89.2583 22.4507 90.6241 21.6205 90.7714 21.2456C91.3739 19.6656 91.548 17.8713 91.5346 16.1842C91.5078 15.6888 90.1153 16.4386 90.1019 16.934Z" fill="#F3E9E1"/>
<path d="M93.3688 23.7629C94.3864 23.2675 95.4175 22.7721 96.4619 22.3168C96.8368 22.1561 97.3322 21.7143 97.2251 21.2456C97.118 20.7904 96.5288 20.8171 96.1941 20.9644C95.1631 21.4331 94.132 21.9151 93.101 22.4105C92.7395 22.598 92.2306 22.9997 92.3378 23.4817C92.4449 23.937 93.034 23.9236 93.3688 23.7629Z" fill="#F3E9E1"/>
<path d="M86.4866 33.2029C86.6607 32.828 86.0046 32.1317 85.0137 31.663C84.0229 31.1944 83.0722 31.114 82.8981 31.5024C82.724 31.8773 83.3801 32.5736 84.371 33.0422C85.3618 33.5109 86.3125 33.5778 86.4866 33.2029Z" fill="#D4BFA9"/>
<path d="M83.2329 30.8597C83.5677 30.2036 83.8622 29.5073 83.9694 28.7708C84.2238 27.1908 83.7551 25.3698 84.7058 24.0977C85.4021 23.1738 86.6741 22.8525 87.8123 22.9864C89.2048 23.1337 90.5706 23.9237 91.2535 25.1421C91.9364 26.374 91.8159 28.0478 90.8518 29.0654C90.035 29.9224 88.7898 30.217 87.9194 31.0204C87.4374 31.4756 87.116 32.0514 86.7545 32.6272L86.634 32.8012C83.9426 32.6004 83.2329 30.8597 83.2329 30.8597Z" fill="#EBDBCD"/>
<path d="M87.919 28.2753C87.7985 27.8602 87.4369 27.9004 87.1156 28.0477C87.0352 27.8201 86.9013 27.5255 86.6603 27.4451C86.3925 27.3514 86.0979 27.5389 85.8971 27.6996C85.4552 28.0611 85.1205 28.5967 84.933 29.1323C84.7455 29.6679 84.6518 30.2437 84.4777 30.7793C84.4108 30.9935 84.7589 31.0872 84.8259 30.8596C85.0401 30.1633 85.1205 29.4135 85.4686 28.7708C85.6694 28.4092 85.964 28.0075 86.3389 27.8201C86.4595 27.7665 86.5532 27.7397 86.6335 27.8736C86.7005 27.9674 86.754 28.0745 86.7808 28.1816C86.7808 28.195 86.7942 28.195 86.7942 28.2084C86.7407 28.2352 86.7139 28.2619 86.6737 28.2887C86.3122 28.5833 85.8435 29.0921 85.8569 29.5875C85.8703 29.8152 86.0176 30.0026 86.2452 30.016C86.4996 30.0294 86.754 29.8152 86.9013 29.6277C87.1959 29.2662 87.2763 28.7975 87.1959 28.3557C87.2763 28.3021 87.3566 28.2753 87.4369 28.2753C87.6512 28.2619 87.5708 28.6235 87.544 28.744C87.4369 29.1591 87.2227 29.5206 87.0084 29.8821C86.8478 30.1499 86.7005 30.4445 86.4996 30.6855C86.2854 30.9533 85.9774 31.1408 85.6962 31.3416C85.5088 31.4622 85.6962 31.7701 85.8837 31.6496C86.2184 31.422 86.5532 31.1944 86.8076 30.873C87.062 30.5249 87.2896 30.1365 87.5039 29.775C87.7315 29.3599 88.0663 28.7574 87.919 28.2753ZM86.8612 28.918C86.821 29.1055 86.7406 29.293 86.6067 29.4403C86.5264 29.5206 86.1917 29.8286 86.2184 29.5608C86.2318 29.4001 86.3523 29.226 86.4327 29.0921C86.5532 28.918 86.7005 28.7574 86.8612 28.6235C86.8746 28.7172 86.8746 28.8243 86.8612 28.918Z" fill="#BFA990"/>
<path d="M84.3709 33.0289C83.4737 32.6004 82.8578 32.0112 82.8712 31.6229L82.4829 33.2029C82.3356 33.5109 82.8712 34.0733 83.6746 34.4482C84.478 34.8231 85.2412 34.8901 85.3885 34.5821C85.4019 34.5687 85.4019 34.5553 85.4019 34.5285L86.4195 33.2833C86.1116 33.5511 85.268 33.4574 84.3709 33.0289Z" fill="#BFA990"/>
<path d="M34.0779 53.5156C33.7565 53.5959 33.4351 53.4218 33.3414 53.1005L29.1503 38.1037C29.07 37.7823 29.2441 37.461 29.5654 37.3673C29.8868 37.2869 30.2081 37.461 30.3019 37.7823L34.4929 52.7791C34.5867 53.1005 34.3992 53.4352 34.0779 53.5156Z" fill="#C5C6E3"/>
<path d="M33.3145 52.913C33.3279 52.5916 33.6091 52.3238 33.9438 52.3506L49.4896 53.2611C49.8109 53.2745 50.0787 53.5557 50.052 53.8905C50.0386 54.2118 49.7574 54.4796 49.4226 54.4528L33.8769 53.5423C33.5555 53.5289 33.3011 53.2477 33.3145 52.913Z" fill="#C5C6E3"/>
<path d="M94.3327 63.0492L93.6498 62.8617C93.6097 62.8483 93.5829 62.8082 93.5963 62.768C93.6096 62.7278 93.6498 62.701 93.69 62.7144L94.2122 62.8617L94.3595 62.3395C94.3729 62.2993 94.4131 62.2726 94.4532 62.286C94.4934 62.2993 94.5202 62.3395 94.5068 62.3797L94.3327 63.0492Z" fill="#EBDBCD"/>
<path d="M92.4448 62.527C92.4314 62.527 92.4314 62.527 92.4314 62.527L91.1995 62.1922C91.1593 62.1788 91.1325 62.1386 91.1459 62.0985C91.1593 62.0583 91.1995 62.0315 91.2397 62.0449L92.4715 62.3797C92.5117 62.3931 92.5385 62.4332 92.5251 62.4734C92.5117 62.5136 92.4849 62.527 92.4448 62.527ZM89.981 61.8709C89.9676 61.8709 89.9676 61.8709 89.9676 61.8709L88.7357 61.5361C88.6956 61.5227 88.6688 61.4825 88.6822 61.4424C88.6955 61.4022 88.7357 61.3754 88.7759 61.3888L90.0078 61.7236C90.048 61.7369 90.0747 61.7771 90.0613 61.8173C90.0479 61.8441 90.0211 61.8709 89.981 61.8709ZM87.544 61.2014C87.5306 61.2014 87.5306 61.2014 87.5306 61.2014L86.2987 60.8666C86.2586 60.8532 86.2318 60.813 86.2452 60.7729C86.2586 60.7327 86.2987 60.7059 86.3389 60.7193L87.5708 61.0541C87.6109 61.0674 87.6377 61.1076 87.6244 61.1478C87.5976 61.188 87.5708 61.2014 87.544 61.2014Z" fill="#EBDBCD"/>
<path d="M85.0801 60.5453C85.0667 60.5453 85.0667 60.5453 85.0667 60.5453L84.3838 60.3579L84.5712 59.675C84.5846 59.6348 84.6248 59.608 84.665 59.6214C84.7051 59.6348 84.7319 59.675 84.7185 59.7151L84.5712 60.2373L85.0934 60.3846C85.1336 60.398 85.1604 60.4382 85.147 60.4784C85.1336 60.5185 85.1068 60.5453 85.0801 60.5453Z" fill="#EBDBCD"/>
<path d="M84.9596 58.5502C84.9462 58.5502 84.9462 58.5502 84.9462 58.5502C84.9061 58.5368 84.8793 58.4966 84.8926 58.4565L85.214 57.2246C85.2274 57.1844 85.2676 57.1576 85.3077 57.171C85.3479 57.1844 85.3747 57.2246 85.3613 57.2647L85.0399 58.4966C85.0266 58.5234 84.9998 58.5502 84.9596 58.5502ZM85.6291 56.0998C85.6157 56.0998 85.6157 56.0998 85.6157 56.0998C85.5756 56.0864 85.5488 56.0463 85.5621 56.0061L85.8835 54.7742C85.8969 54.734 85.9371 54.7073 85.9772 54.7206C86.0174 54.734 86.0442 54.7742 86.0308 54.8144L85.7094 56.0463C85.6961 56.073 85.6693 56.0998 85.6291 56.0998Z" fill="#EBDBCD"/>
<path d="M86.2853 53.636C86.2719 53.636 86.2719 53.636 86.2719 53.636C86.2317 53.6226 86.2049 53.5824 86.2183 53.5423L86.4058 52.8594L87.0887 53.0468C87.1288 53.0602 87.1556 53.1004 87.1422 53.1406C87.1288 53.1807 87.0887 53.2075 87.0485 53.1941L86.5263 53.0468L86.379 53.5691C86.3522 53.6226 86.3254 53.636 86.2853 53.636Z" fill="#EBDBCD"/>
<path d="M94.4264 55.1893C94.413 55.1893 94.413 55.1893 94.413 55.1893L93.1811 54.8546C93.141 54.8412 93.1142 54.801 93.1276 54.7608C93.141 54.7206 93.1811 54.6939 93.2213 54.7073L94.4532 55.042C94.4934 55.0554 94.5201 55.0956 94.5067 55.1357C94.4933 55.1625 94.4666 55.1893 94.4264 55.1893ZM91.976 54.5198C91.9627 54.5198 91.9626 54.5198 91.9626 54.5198L90.7308 54.1851C90.6906 54.1717 90.6638 54.1315 90.6772 54.0913C90.6906 54.0511 90.7308 54.0244 90.7709 54.0378L92.0028 54.3725C92.043 54.3859 92.0698 54.4261 92.0564 54.4662C92.043 54.5064 92.0028 54.5198 91.976 54.5198ZM89.5123 53.8637C89.4989 53.8637 89.4989 53.8637 89.4989 53.8637L88.267 53.5289C88.2269 53.5156 88.2001 53.4754 88.2134 53.4352C88.2268 53.395 88.267 53.3683 88.3072 53.3817L89.5391 53.7164C89.5792 53.7298 89.606 53.77 89.5926 53.8101C89.5792 53.8369 89.5524 53.8637 89.5123 53.8637Z" fill="#EBDBCD"/>
<path d="M96.1 56.2873C96.0866 56.2873 96.0866 56.2873 96.0866 56.2873C96.0464 56.2739 96.0197 56.2337 96.0331 56.1936L96.1803 55.6713L95.6581 55.5241C95.618 55.5107 95.5912 55.4705 95.6046 55.4303C95.6179 55.3902 95.6581 55.3634 95.6983 55.3768L96.3812 55.5642L96.1937 56.2471C96.167 56.2739 96.1268 56.2873 96.1 56.2873Z" fill="#EBDBCD"/>
<path d="M94.7745 61.2013C94.7611 61.2013 94.7612 61.2013 94.7612 61.2013C94.721 61.1879 94.6942 61.1477 94.7076 61.1076L95.029 59.8757C95.0424 59.8355 95.0825 59.8088 95.1227 59.8221C95.1629 59.8355 95.1896 59.8757 95.1762 59.9159L94.8549 61.1478C94.8415 61.1745 94.8013 61.2013 94.7745 61.2013ZM95.444 58.7509C95.4306 58.7509 95.4307 58.7509 95.4307 58.7509C95.3905 58.7376 95.3637 58.6974 95.3771 58.6572L95.6985 57.4253C95.7119 57.3852 95.752 57.3584 95.7922 57.3718C95.8324 57.3852 95.8591 57.4253 95.8457 57.4655L95.5244 58.6974C95.511 58.7242 95.4708 58.7509 95.444 58.7509Z" fill="#EBDBCD"/>
<path d="M67.8873 56.6622C65.9592 56.4882 64.4461 56.1132 63.5088 55.832C64.8612 56.6354 66.4814 57.1978 68.2622 57.3853C69.3468 57.5058 70.418 57.479 71.4089 57.3317C71.3955 57.0773 71.3955 56.8497 71.3955 56.6488C70.4716 56.756 69.2531 56.7961 67.8873 56.6622Z" fill="#F0A173"/>
<path d="M23.4595 34.2875C23.4327 34.2875 23.406 34.2741 23.3926 34.2607C23.2721 34.0866 23.1783 33.8992 23.0846 33.6983C23.0712 33.6582 23.0846 33.618 23.1248 33.5912C23.1649 33.5778 23.2051 33.5912 23.2319 33.6314C23.3122 33.8188 23.406 34.0063 23.5265 34.167C23.5533 34.2071 23.5399 34.2473 23.5131 34.2741C23.4997 34.2875 23.4729 34.2875 23.4595 34.2875Z" fill="#EBDBCD"/>
<path d="M22.9104 32.4799C22.8702 32.4799 22.8301 32.4397 22.8301 32.3995V32.3594C22.8301 31.9309 22.897 31.5158 23.0175 31.0873C23.0309 31.0472 23.0711 31.0204 23.1113 31.0338C23.1514 31.0472 23.1782 31.0873 23.1648 31.1275C23.0443 31.5292 22.9774 31.9443 22.9774 32.346V32.3728C22.9908 32.4397 22.9506 32.4799 22.9104 32.4799ZM23.6603 30.0295C23.6469 30.0295 23.6335 30.0295 23.6201 30.0161C23.5799 30.0028 23.5665 29.9492 23.6067 29.909C23.8343 29.5609 24.1021 29.2127 24.4369 28.8914C24.4637 28.8646 24.5172 28.8646 24.544 28.8914C24.5708 28.9182 24.5708 28.9717 24.544 28.9985C24.2226 29.3199 23.9548 29.6546 23.7406 29.9894C23.7138 30.0161 23.7004 30.0295 23.6603 30.0295ZM25.4679 28.1817C25.4545 28.1817 25.4143 28.1683 25.4143 28.1549C25.3876 28.1148 25.401 28.0746 25.4277 28.0478C25.642 27.8871 25.8696 27.7264 26.124 27.5524C26.2445 27.472 26.3784 27.3783 26.5123 27.298C26.5525 27.2846 26.5927 27.2846 26.6194 27.3114C26.6328 27.3515 26.6328 27.3917 26.606 27.4185C26.4855 27.4988 26.3516 27.5792 26.2177 27.6729C25.9633 27.8336 25.7491 27.9942 25.5348 28.1683C25.4947 28.1683 25.4813 28.1817 25.4679 28.1817ZM27.6237 26.7356C27.5969 26.7356 27.5701 26.7222 27.5567 26.6954C27.5433 26.6552 27.5434 26.6151 27.5701 26.5883C27.9986 26.3071 28.3334 26.0795 28.6145 25.8385C28.6413 25.8117 28.6949 25.8251 28.7217 25.8519C28.7485 25.8786 28.7351 25.9322 28.7083 25.959C28.4137 26.2 28.079 26.4276 27.6371 26.7222C27.6505 26.7356 27.6371 26.7356 27.6237 26.7356ZM32.1093 25.959C32.0692 25.959 32.029 25.9188 32.029 25.8786C32.029 25.8385 32.0558 25.7983 32.1093 25.7983C32.5378 25.7849 32.9529 25.7447 33.3814 25.6376C33.4215 25.6242 33.4617 25.651 33.4751 25.6912C33.4885 25.7313 33.4617 25.7715 33.4216 25.7849C32.9797 25.892 32.5378 25.9456 32.1093 25.959ZM30.8239 25.8385C30.8105 25.8385 30.8105 25.8385 30.8105 25.8385C30.382 25.7581 29.9535 25.6242 29.5652 25.4502C29.5251 25.4368 29.5117 25.3832 29.5251 25.343C29.5385 25.3029 29.592 25.2895 29.6322 25.3029C30.0205 25.4769 30.4356 25.5974 30.8507 25.6912C30.8909 25.7046 30.9176 25.7447 30.9042 25.7849C30.8908 25.8117 30.8641 25.8385 30.8239 25.8385ZM34.6267 25.3966C34.5999 25.3966 34.5731 25.3832 34.5597 25.343C34.5463 25.3029 34.5597 25.2627 34.5999 25.2359C34.9748 25.0752 35.3497 24.8744 35.738 24.6468C35.7782 24.6334 35.8184 24.6334 35.8451 24.6735C35.8585 24.7137 35.8585 24.7539 35.8184 24.7807C35.4167 25.0217 35.0417 25.2091 34.6534 25.3698C34.64 25.3832 34.6267 25.3966 34.6267 25.3966ZM29.6054 25.0886C29.592 25.0886 29.5652 25.0752 29.5518 25.0752C29.5251 25.0485 29.5117 24.9949 29.5385 24.9681C29.833 24.6334 30.0473 24.2718 30.2213 23.8969C30.2347 23.8567 30.2883 23.8434 30.3285 23.8567C30.3686 23.8701 30.382 23.9237 30.3686 23.9639C30.1946 24.3522 29.9535 24.7271 29.6724 25.0752C29.6456 25.0886 29.6322 25.0886 29.6054 25.0886ZM28.4806 24.7807C28.4673 24.7807 28.4405 24.7673 28.4271 24.7673C28.0656 24.4727 27.771 24.1513 27.5433 23.7898C27.53 23.7496 27.53 23.7095 27.5701 23.6827C27.6103 23.6693 27.6505 23.6693 27.6772 23.7095C27.8915 24.0576 28.1727 24.3656 28.5208 24.6468C28.5476 24.6735 28.561 24.7271 28.5342 24.7539C28.5208 24.7806 28.494 24.7807 28.4806 24.7807ZM36.8494 24.071C36.8226 24.071 36.7958 24.0576 36.7824 24.0442C36.7557 24.004 36.769 23.9639 36.7958 23.9371C37.1172 23.7095 37.4252 23.4818 37.7064 23.2408L37.8269 23.1471C37.867 23.1203 37.9072 23.1337 37.934 23.1605C37.9474 23.1872 37.9474 23.2408 37.9206 23.2676L37.8001 23.3613C37.5055 23.5889 37.2109 23.8166 36.8896 24.0576C36.8762 24.071 36.8628 24.071 36.8494 24.071ZM30.623 22.7454C30.5695 22.7454 30.5427 22.7052 30.5427 22.665C30.5427 22.6115 30.5427 22.5713 30.5427 22.5177C30.5427 22.3437 30.5293 22.1696 30.4891 21.9955C30.449 21.8081 30.3954 21.6206 30.3017 21.4332C30.2883 21.393 30.3017 21.3528 30.3419 21.326C30.382 21.3126 30.4222 21.326 30.449 21.3662C30.5427 21.5537 30.6097 21.7545 30.6498 21.9554C30.69 22.1294 30.7034 22.3169 30.7034 22.5044C30.7034 22.5579 30.7034 22.6115 30.7034 22.665C30.69 22.7186 30.6498 22.7454 30.623 22.7454ZM27.1684 22.6115C27.1283 22.6115 27.0881 22.5847 27.0881 22.5445C27.0747 22.4642 27.0747 22.3571 27.0747 22.2767C27.0747 21.9152 27.155 21.5537 27.2889 21.2457C27.3023 21.2055 27.3559 21.1921 27.3961 21.2055C27.4362 21.2189 27.4496 21.2725 27.4362 21.3126C27.3023 21.6072 27.2354 21.942 27.2354 22.2901C27.2354 22.3704 27.2354 22.4642 27.2488 22.5445C27.2622 22.5713 27.222 22.6115 27.1684 22.6115C27.1818 22.6115 27.1818 22.6115 27.1684 22.6115ZM29.4983 20.5494C29.4849 20.5494 29.4715 20.5494 29.4581 20.536C29.1368 20.3486 28.802 20.295 28.4806 20.3754C28.4137 20.3887 28.3467 20.4155 28.2798 20.4289C28.2396 20.4423 28.1995 20.4289 28.1861 20.3754C28.1727 20.3352 28.1861 20.295 28.2396 20.2816C28.3066 20.2548 28.3869 20.2281 28.4539 20.2147C28.8154 20.1343 29.1903 20.2013 29.5518 20.4021C29.592 20.4155 29.6054 20.4691 29.5786 20.5093C29.5519 20.536 29.5251 20.5494 29.4983 20.5494Z" fill="#EBDBCD"/>
<path d="M38.9382 22.5311C38.9115 22.5311 38.8847 22.5177 38.8713 22.4909C38.8579 22.4507 38.8579 22.4106 38.8981 22.3838C39.1257 22.2499 39.3132 22.1562 39.4872 22.1026C39.5274 22.0892 39.5676 22.116 39.581 22.1562C39.5944 22.1963 39.5676 22.2365 39.5274 22.2499C39.3801 22.3035 39.1927 22.3704 38.9784 22.5043C38.9784 22.5311 38.965 22.5311 38.9382 22.5311Z" fill="#EBDBCD"/>
</svg>
