<?xml version="1.0" standalone="no"?>
<!DOCTYPE svg PUBLIC "-//W3C//DTD SVG 20010904//EN"
 "http://www.w3.org/TR/2001/REC-SVG-20010904/DTD/svg10.dtd">
<svg version="1.0" xmlns="http://www.w3.org/2000/svg"
 width="200.000000pt" height="200.000000pt" viewBox="0 0 200.000000 200.000000"
 preserveAspectRatio="xMidYMid meet">

<g transform="translate(0.000000,200.000000) scale(0.100000,-0.100000)"
fill="#000000" stroke="none">
<path d="M255 1540 c-8 -13 4 -94 22 -145 17 -48 40 -75 65 -75 28 0 31 23 9
61 -24 41 -38 109 -23 109 6 0 23 -5 39 -12 18 -7 100 -12 228 -12 l200 -1 76
-36 77 -37 42 19 c114 51 164 59 344 57 116 -2 185 2 215 10 23 8 45 11 48 8
3 -3 0 -26 -6 -52 -10 -39 -10 -50 2 -61 34 -34 67 24 67 120 0 57 -12 65 -73
47 -24 -7 -138 -15 -262 -19 -216 -7 -222 -8 -299 -39 l-79 -31 -36 18 c-82
42 -139 52 -311 50 -118 0 -185 4 -233 15 -79 19 -103 20 -112 6z"/>
<path d="M532 1365 c-96 -27 -151 -67 -193 -139 -54 -94 -34 -203 51 -280 63
-57 121 -79 220 -84 96 -4 166 15 238 68 121 87 130 252 20 357 -77 74 -226
109 -336 78z m218 -66 c88 -39 130 -97 130 -182 0 -229 -383 -287 -492 -74
-15 30 -19 53 -16 89 15 153 212 240 378 167z"/>
<path d="M1300 1365 c-219 -61 -291 -282 -138 -420 61 -56 119 -78 219 -83 74
-4 94 -1 147 21 34 14 64 21 67 17 13 -21 21 -137 13 -192 -26 -191 -198 -361
-428 -425 -102 -28 -303 -25 -400 5 -95 31 -150 58 -229 118 -82 62 -89 77
-60 140 52 110 176 198 340 238 l88 21 -17 22 c-17 22 -18 22 -87 8 -151 -32
-305 -132 -365 -239 l-29 -50 -20 44 c-31 70 -43 138 -39 220 3 71 2 75 -19
78 -34 5 -46 -36 -40 -145 4 -79 9 -102 39 -165 46 -97 103 -166 181 -222 54
-39 70 -45 96 -40 26 6 32 3 40 -18 24 -65 292 -109 467 -77 106 19 166 41
177 67 9 19 17 23 41 19 38 -5 89 25 168 101 115 109 161 213 161 362 0 59 -6
110 -15 134 -14 38 -14 40 18 88 63 93 55 192 -22 277 -81 90 -230 130 -354
96z m222 -67 c26 -11 63 -38 82 -59 120 -132 18 -312 -185 -327 -221 -16 -360
190 -223 332 82 85 207 106 326 54z"/>
<path d="M1095 834 c-8 -13 -13 -24 -10 -24 3 0 41 -7 83 -16 117 -24 215 -75
289 -150 62 -65 103 -83 103 -45 0 27 -77 110 -143 152 -71 46 -148 76 -239
94 -66 12 -68 12 -83 -11z"/>
</g>
</svg>
