<svg width="310" height="163" viewBox="0 0 310 163" fill="none" xmlns="http://www.w3.org/2000/svg">
<path d="M310 64C310 92.7188 286.496 161.5 239 161.5C191.504 161.5 0 168.219 0 139.5C0 110.781 72.5032 0.939697 120 0.939697C238.5 31.9397 293.5 23.5601 310 64Z" fill="#FF8412"/>
<path d="M55.8213 159.599C58.2244 157.566 59.6841 154.355 59.3013 151.228C58.9185 148.101 56.5476 145.227 53.4721 144.563C50.3966 143.899 46.8908 145.737 45.9567 148.745C45.4426 142.946 44.8502 136.904 41.7707 131.965C38.9823 127.494 34.1528 124.294 28.9187 123.722C23.6846 123.149 18.1738 125.311 14.9094 129.447C11.6451 133.584 10.8459 139.597 13.1321 144.345C14.8163 147.844 17.9192 150.447 21.1702 152.565C31.6756 159.352 44.2753 162.111 56.6513 160.337L55.8213 159.599Z" fill="#F2F2F2"/>
<path d="M20.0847 125.431C24.4034 128.953 28.3655 132.892 31.9135 137.191C35.462 141.486 38.5861 146.115 41.2419 151.014C42.7263 153.762 44.0599 156.589 45.2365 159.482C45.4764 160.071 44.5218 160.327 44.2845 159.745C42.2004 154.644 39.622 149.759 36.5862 145.162C33.5651 140.581 30.1073 136.304 26.2614 132.391C24.0862 130.18 21.7911 128.089 19.3866 126.13C18.8937 125.728 19.5959 125.032 20.0847 125.431Z" fill="white"/>
<path d="M199.226 0H69.0835C68.5876 0.000550966 68.1121 0.198049 67.7614 0.549166C67.4107 0.900283 67.2134 1.37634 67.2129 1.8729V90.1666C67.2134 90.6632 67.4107 91.1392 67.7614 91.4903C68.1121 91.8415 68.5876 92.039 69.0835 92.0395H199.226C199.722 92.039 200.197 91.8415 200.548 91.4903C200.898 91.1392 201.096 90.6632 201.096 90.1666V1.8729C201.096 1.37634 200.898 0.900283 200.548 0.549166C200.197 0.198049 199.722 0.000550966 199.226 0ZM200.562 90.1666C200.562 90.5214 200.421 90.8616 200.17 91.1124C199.92 91.3633 199.58 91.5043 199.226 91.5044H69.0835C68.7292 91.5043 68.3894 91.3633 68.1389 91.1124C67.8883 90.8616 67.7475 90.5214 67.7474 90.1666V1.8729C67.7475 1.51814 67.8883 1.17795 68.1389 0.927099C68.3894 0.676247 68.7292 0.535255 69.0835 0.535113H199.226C199.58 0.535255 199.92 0.676247 200.17 0.927099C200.421 1.17795 200.562 1.51814 200.562 1.8729V90.1666Z" fill="#3F3D56"/>
<path d="M200.829 7.50232H67.4805V8.03743H200.829V7.50232Z" fill="#3F3D56"/>
<path d="M72.0233 5.61864C72.9088 5.61864 73.6267 4.8999 73.6267 4.0133C73.6267 3.12669 72.9088 2.40796 72.0233 2.40796C71.1378 2.40796 70.4199 3.12669 70.4199 4.0133C70.4199 4.8999 71.1378 5.61864 72.0233 5.61864Z" fill="#3F3D56"/>
<path d="M76.6327 5.61864C77.5182 5.61864 78.2361 4.8999 78.2361 4.0133C78.2361 3.12669 77.5182 2.40796 76.6327 2.40796C75.7472 2.40796 75.0293 3.12669 75.0293 4.0133C75.0293 4.8999 75.7472 5.61864 76.6327 5.61864Z" fill="#3F3D56"/>
<path d="M81.244 5.61864C82.1295 5.61864 82.8474 4.8999 82.8474 4.0133C82.8474 3.12669 82.1295 2.40796 81.244 2.40796C80.3585 2.40796 79.6406 3.12669 79.6406 4.0133C79.6406 4.8999 80.3585 5.61864 81.244 5.61864Z" fill="#3F3D56"/>
<path d="M145.379 19.9329H122.931C122.435 19.9329 121.959 19.7356 121.608 19.3844C121.258 19.0331 121.061 18.5568 121.061 18.06C121.061 17.5633 121.258 17.0869 121.608 16.7357C121.959 16.3845 122.435 16.1871 122.931 16.1871H145.379C145.875 16.1871 146.351 16.3845 146.701 16.7357C147.052 17.0869 147.249 17.5633 147.249 18.06C147.249 18.5568 147.052 19.0331 146.701 19.3844C146.351 19.7356 145.875 19.9329 145.379 19.9329Z" fill="#CCCCCC"/>
<path d="M160.745 29.0299H107.566C107.07 29.0299 106.594 28.8325 106.243 28.4813C105.892 28.1301 105.695 27.6537 105.695 27.157C105.695 26.6602 105.892 26.1839 106.243 25.8326C106.594 25.4814 107.07 25.2841 107.566 25.2841H160.745C161.241 25.2841 161.717 25.4814 162.068 25.8326C162.419 26.1839 162.616 26.6602 162.616 27.157C162.616 27.6537 162.419 28.1301 162.068 28.4813C161.717 28.8325 161.241 29.0299 160.745 29.0299Z" fill="#CCCCCC"/>
<path d="M176.694 84.9361C174.678 84.9361 172.707 84.3376 171.031 83.2164C169.355 82.0951 168.049 80.5015 167.278 78.6369C166.506 76.7724 166.305 74.7207 166.698 72.7413C167.091 70.7619 168.062 68.9437 169.487 67.5167C170.912 66.0896 172.728 65.1178 174.705 64.724C176.682 64.3303 178.732 64.5324 180.594 65.3047C182.456 66.077 184.048 67.3849 185.168 69.0629C186.288 70.741 186.885 72.7138 186.885 74.732C186.882 77.4374 185.808 80.031 183.897 81.944C181.986 83.857 179.396 84.933 176.694 84.9361ZM176.694 65.2317C174.817 65.2317 172.982 65.7889 171.422 66.8328C169.862 67.8767 168.645 69.3604 167.927 71.0964C167.209 72.8324 167.021 74.7426 167.387 76.5854C167.753 78.4283 168.657 80.1211 169.984 81.4498C171.311 82.7784 173.002 83.6832 174.842 84.0498C176.683 84.4164 178.591 84.2282 180.325 83.5092C182.059 82.7901 183.541 81.5724 184.583 80.0101C185.626 78.4478 186.182 76.611 186.182 74.732C186.18 72.2132 185.179 69.7985 183.4 68.0174C181.621 66.2364 179.209 65.2345 176.694 65.2317Z" fill="#3F3D56"/>
<path d="M91.2483 57.6071C89.2326 57.6071 87.2622 57.0086 85.5861 55.8874C83.9101 54.7662 82.6038 53.1725 81.8324 51.308C81.0611 49.4434 80.8592 47.3917 81.2525 45.4123C81.6457 43.4329 82.6164 41.6147 84.0417 40.1877C85.4671 38.7606 87.283 37.7888 89.26 37.395C91.237 37.0013 93.2862 37.2034 95.1485 37.9757C97.0108 38.748 98.6025 40.0559 99.7224 41.734C100.842 43.412 101.44 45.3849 101.44 47.403C101.437 50.1084 100.362 52.7021 98.4516 54.615C96.5409 56.528 93.9504 57.604 91.2483 57.6071ZM91.2483 37.9027C89.3716 37.9027 87.5371 38.4599 85.9766 39.5038C84.4162 40.5477 83.2 42.0315 82.4818 43.7674C81.7636 45.5034 81.5757 47.4136 81.9418 49.2565C82.308 51.0993 83.2117 52.7921 84.5387 54.1208C85.8658 55.4494 87.5565 56.3542 89.3972 56.7208C91.2378 57.0874 93.1457 56.8993 94.8795 56.1802C96.6134 55.4611 98.0953 54.2435 99.138 52.6811C100.181 51.1188 100.737 49.282 100.737 47.403C100.734 44.8843 99.7337 42.4695 97.9548 40.6884C96.1759 38.9074 93.764 37.9056 91.2483 37.9027Z" fill="#3F3D56"/>
<path d="M95.2083 52.8123C94.9414 52.8123 94.6855 52.7063 94.4966 52.5176C94.3078 52.3288 94.2015 52.0727 94.2011 51.8055V46.0802C94.2014 45.8133 94.3074 45.5575 94.4959 45.3687C94.6844 45.18 94.9399 45.0738 95.2065 45.0735H95.2083C95.4749 45.0738 95.7305 45.18 95.9189 45.3687C96.1074 45.5575 96.2135 45.8133 96.2138 46.0802V51.8055C96.2135 52.0724 96.1074 52.3283 95.9189 52.5171C95.7305 52.7058 95.4749 52.812 95.2083 52.8123ZM92.583 52.8123C92.4499 52.8136 92.3178 52.7886 92.1944 52.7386C92.071 52.6887 91.9587 52.6148 91.8639 52.5213C91.7691 52.4277 91.6937 52.3163 91.6421 52.1935C91.5905 52.0706 91.5636 51.9388 91.563 51.8055V48.7215C91.5633 48.4546 91.6694 48.1987 91.8579 48.01C92.0464 47.8213 92.3019 47.7151 92.5685 47.7149H92.583C92.8495 47.7151 93.1051 47.8213 93.2936 48.01C93.4821 48.1987 93.5881 48.4546 93.5884 48.7215V51.8055C93.5881 52.0724 93.4821 52.3283 93.2936 52.5171C93.1051 52.7058 92.8495 52.812 92.583 52.8123ZM89.9323 52.8123C89.6654 52.8123 89.4094 52.7063 89.2206 52.5176C89.0317 52.3288 88.9254 52.0727 88.925 51.8055V43.0005C88.9253 42.7336 89.0313 42.4777 89.2198 42.289C89.4083 42.1003 89.6639 41.9941 89.9305 41.9938H89.9323C90.1988 41.9941 90.4544 42.1003 90.6429 42.289C90.8314 42.4777 90.9374 42.7336 90.9377 43.0005V51.8055C90.9374 52.0724 90.8314 52.3283 90.6429 52.5171C90.4544 52.7058 90.1988 52.812 89.9323 52.8123ZM87.2917 52.8123C87.1595 52.8124 87.0285 52.7865 86.9064 52.7359C86.7842 52.6853 86.6732 52.6111 86.5797 52.5175C86.4862 52.4239 86.4121 52.3128 86.3616 52.1905C86.311 52.0682 86.2851 51.9372 86.2852 51.8048L86.2863 50.4823C86.2864 50.2154 86.3924 49.9594 86.5811 49.7707C86.7697 49.582 87.0255 49.476 87.2921 49.4761C87.5588 49.4762 87.8145 49.5824 88.0029 49.7713C88.1914 49.9601 88.2972 50.2162 88.2971 50.4832V51.8055C88.2968 52.0724 88.1908 52.3283 88.0023 52.5171C87.8138 52.7058 87.5582 52.812 87.2917 52.8123Z" fill="#6C63FF"/>
<path d="M245.856 160.349C243.84 160.349 241.87 159.75 240.194 158.629C238.518 157.508 237.211 155.914 236.44 154.05C235.668 152.185 235.467 150.134 235.86 148.154C236.253 146.175 237.224 144.357 238.649 142.929C240.074 141.502 241.89 140.531 243.867 140.137C245.844 139.743 247.894 139.945 249.756 140.718C251.618 141.49 253.21 142.798 254.33 144.476C255.45 146.154 256.047 148.127 256.047 150.145C256.044 152.85 254.97 155.444 253.059 157.357C251.148 159.27 248.558 160.346 245.856 160.349ZM245.856 140.645C243.979 140.645 242.144 141.202 240.584 142.246C239.024 143.29 237.807 144.773 237.089 146.509C236.371 148.245 236.183 150.155 236.549 151.998C236.915 153.841 237.819 155.534 239.146 156.863C240.473 158.191 242.164 159.096 244.005 159.463C245.845 159.829 247.753 159.641 249.487 158.922C251.221 158.203 252.703 156.985 253.745 155.423C254.788 153.861 255.345 152.024 255.345 150.145C255.342 147.626 254.341 145.211 252.562 143.43C250.783 141.649 248.371 140.647 245.856 140.645Z" fill="#3F3D56"/>
<path d="M248.664 148.374L246.677 151.416C246.837 151.61 246.924 151.854 246.923 152.105C246.922 152.395 246.807 152.673 246.602 152.878C246.397 153.083 246.119 153.198 245.83 153.198C245.54 153.198 245.262 153.083 245.057 152.878C244.852 152.673 244.737 152.395 244.736 152.105C244.737 152.034 244.743 151.964 244.755 151.895L243.444 151.13C243.275 151.294 243.057 151.399 242.823 151.428C242.589 151.458 242.352 151.411 242.147 151.294L240.752 152.603V153.907C240.753 154.165 240.855 154.413 241.037 154.595C241.219 154.778 241.466 154.881 241.723 154.882H249.984C250.242 154.881 250.489 154.778 250.671 154.595C250.854 154.413 250.956 154.165 250.958 153.907V149.069L249.623 148.181C249.489 148.285 249.333 148.357 249.166 148.39C249 148.424 248.828 148.418 248.664 148.374H248.664Z" fill="#6C63FF"/>
<path d="M242.686 149.256C242.976 149.256 243.254 149.372 243.459 149.577C243.664 149.782 243.78 150.061 243.78 150.351V150.492L245.148 151.258C245.343 151.098 245.588 151.01 245.84 151.01C245.92 151.011 245.999 151.019 246.077 151.036L248.068 147.95C247.969 147.81 247.904 147.648 247.879 147.478C247.853 147.309 247.868 147.135 247.923 146.972C247.977 146.809 248.069 146.662 248.191 146.541C248.313 146.42 248.462 146.33 248.625 146.278C248.789 146.226 248.962 146.213 249.131 146.241C249.301 146.269 249.461 146.336 249.599 146.438C249.738 146.539 249.85 146.672 249.928 146.825C250.005 146.978 250.045 147.148 250.045 147.319C250.045 147.406 250.035 147.493 250.015 147.578L250.958 148.208V146.382C250.956 146.124 250.854 145.877 250.671 145.694C250.489 145.512 250.242 145.409 249.984 145.408H241.723C241.466 145.409 241.219 145.512 241.037 145.695C240.855 145.877 240.753 146.124 240.752 146.382V151.611L241.663 150.737C241.602 150.572 241.582 150.395 241.604 150.22C241.626 150.045 241.691 149.879 241.791 149.734C241.892 149.59 242.026 149.472 242.182 149.391C242.337 149.309 242.511 149.267 242.686 149.267V149.256Z" fill="#6C63FF"/>
<path d="M134.559 57.6071C132.543 57.6071 130.573 57.0086 128.897 55.8874C127.221 54.7662 125.914 53.1725 125.143 51.308C124.372 49.4434 124.17 47.3917 124.563 45.4123C124.956 43.4329 125.927 41.6147 127.352 40.1877C128.778 38.7606 130.594 37.7888 132.571 37.395C134.548 37.0013 136.597 37.2034 138.459 37.9757C140.321 38.748 141.913 40.0559 143.033 41.734C144.153 43.412 144.751 45.3849 144.751 47.403C144.748 50.1084 143.673 52.7021 141.762 54.615C139.851 56.528 137.261 57.604 134.559 57.6071ZM134.559 37.9027C132.682 37.9027 130.848 38.4599 129.287 39.5038C127.727 40.5477 126.511 42.0315 125.792 43.7674C125.074 45.5034 124.886 47.4136 125.252 49.2565C125.619 51.0993 126.522 52.7921 127.849 54.1208C129.176 55.4494 130.867 56.3542 132.708 56.7208C134.548 57.0874 136.456 56.8993 138.19 56.1802C139.924 55.4611 141.406 54.2435 142.449 52.6811C143.491 51.1188 144.048 49.282 144.048 47.403C144.045 44.8843 143.044 42.4695 141.265 40.6884C139.486 38.9074 137.075 37.9056 134.559 37.9027Z" fill="#3F3D56"/>
<path d="M129.145 51.102C128.999 51.102 128.856 51.0585 128.734 50.977C128.612 50.8956 128.517 50.7798 128.461 50.6444C128.405 50.509 128.39 50.3599 128.418 50.216C128.447 50.0722 128.517 49.94 128.621 49.8361L132.386 46.0552C132.445 45.996 132.515 45.9491 132.592 45.9172C132.668 45.8852 132.751 45.8689 132.834 45.8691H132.834C132.918 45.8688 133 45.8851 133.077 45.9169C133.154 45.9488 133.223 45.9956 133.282 46.0546L135.028 47.8032C135.064 47.8386 135.105 47.8667 135.152 47.8859C135.198 47.905 135.247 47.9147 135.297 47.9146H135.297C135.347 47.9147 135.397 47.905 135.443 47.8858C135.489 47.8667 135.531 47.8385 135.566 47.8031L138.031 45.3302C138.043 45.3184 138.053 45.3044 138.059 45.289C138.065 45.2737 138.068 45.2572 138.068 45.2405C138.068 45.2239 138.065 45.2074 138.059 45.192C138.052 45.1767 138.043 45.1627 138.031 45.151L137.233 44.3535C137.18 44.3004 137.144 44.2326 137.129 44.1589C137.115 44.0851 137.122 44.0086 137.151 43.9391C137.18 43.8696 137.228 43.8101 137.291 43.7683C137.353 43.7265 137.427 43.7042 137.502 43.7042H140.335C140.436 43.7043 140.533 43.7444 140.604 43.8157C140.675 43.887 140.715 43.9836 140.715 44.0844V46.9197C140.715 46.9949 140.693 47.0685 140.651 47.131C140.609 47.1936 140.55 47.2423 140.481 47.2711C140.411 47.2999 140.335 47.3074 140.261 47.2928C140.188 47.2781 140.12 47.2419 140.067 47.1887L139.268 46.3887C139.256 46.3769 139.242 46.3675 139.227 46.3612C139.211 46.3548 139.195 46.3515 139.178 46.3515C139.162 46.3515 139.145 46.3548 139.13 46.3612C139.115 46.3675 139.101 46.3769 139.089 46.3887L135.75 49.7294C135.691 49.7884 135.622 49.8352 135.545 49.8671C135.468 49.8989 135.386 49.9152 135.302 49.915H135.302C135.219 49.9152 135.137 49.8989 135.06 49.867C134.983 49.8351 134.914 49.7883 134.855 49.7293L133.108 47.9798C133.035 47.9107 132.939 47.8722 132.839 47.8722C132.739 47.8722 132.643 47.9107 132.57 47.9798L129.669 50.8846C129.601 50.9537 129.519 51.0085 129.429 51.0459C129.339 51.0832 129.243 51.1023 129.145 51.102Z" fill="#6C63FF"/>
<path d="M134.559 84.3628C132.543 84.3628 130.573 83.7644 128.897 82.6431C127.221 81.5219 125.914 79.9282 125.143 78.0637C124.372 76.1991 124.17 74.1475 124.563 72.1681C124.956 70.1887 125.927 68.3705 127.352 66.9434C128.778 65.5164 130.594 64.5445 132.571 64.1508C134.548 63.7571 136.597 63.9591 138.459 64.7315C140.321 65.5038 141.913 66.8117 143.033 68.4897C144.153 70.1678 144.751 72.1406 144.751 74.1588C144.748 76.8641 143.673 79.4578 141.762 81.3708C139.851 83.2837 137.261 84.3598 134.559 84.3628Z" fill="#E6E6E6"/>
<path d="M176.782 56.8045C174.766 56.8045 172.795 56.206 171.119 55.0848C169.443 53.9636 168.137 52.3699 167.366 50.5054C166.594 48.6408 166.392 46.5891 166.786 44.6097C167.179 42.6303 168.15 40.8121 169.575 39.3851C171 37.958 172.816 36.9862 174.793 36.5924C176.77 36.1987 178.819 36.4008 180.682 37.1731C182.544 37.9454 184.136 39.2533 185.256 40.9314C186.375 42.6094 186.973 44.5823 186.973 46.6004C186.97 49.3058 185.895 51.8994 183.985 53.8124C182.074 55.7254 179.484 56.8014 176.782 56.8045Z" fill="#E6E6E6"/>
<path d="M91.2504 63.9545C89.501 63.9567 87.7814 64.4081 86.2559 65.2655C88.4605 65.4606 90.5277 66.4209 92.1 67.9803C93.6723 69.5398 94.6508 71.6003 94.8664 73.8057C95.082 76.011 94.521 78.2224 93.2806 80.0575C92.0401 81.8926 90.1981 83.236 88.0731 83.8553C88.4712 83.9874 88.8773 84.0938 89.289 84.1737C89.935 84.301 90.592 84.3646 91.2504 84.3637C93.9536 84.3637 96.546 83.2886 98.4574 81.3748C100.369 79.4611 101.443 76.8655 101.443 74.1591C101.443 71.4527 100.369 68.8571 98.4574 66.9433C96.546 65.0296 93.9536 63.9545 91.2504 63.9545Z" fill="#E6E6E6"/>
<path d="M87.3821 64.7198C86.7362 64.5903 86.0791 64.5257 85.4205 64.5271C82.7999 64.5244 80.2788 65.5313 78.3796 67.3392C76.4805 69.1471 75.3489 71.6174 75.2195 74.2379C75.0901 76.8585 75.9727 79.4284 77.6845 81.415C79.3962 83.4017 81.8059 84.6527 84.4139 84.9089C87.022 85.165 89.6285 84.4066 91.6931 82.7908C93.7578 81.175 95.1224 78.8258 95.504 76.23C95.8857 73.6342 95.2551 70.9909 93.743 68.848C92.2309 66.7051 89.9532 65.2269 87.3821 64.7198ZM88.0715 83.8554C86.7663 84.2355 85.3948 84.3305 84.0497 84.1338C82.7046 83.9372 81.4175 83.4535 80.2753 82.7155C79.1332 81.9776 78.1627 81.0026 77.4296 79.8565C76.6965 78.7104 76.2178 77.4201 76.0261 76.0727C75.8343 74.7253 75.9338 73.3525 76.318 72.047C76.7021 70.7415 77.3619 69.5339 78.2527 68.5058C79.1435 67.4778 80.2445 66.6534 81.4811 66.0884C82.7177 65.5233 84.0612 65.2309 85.4205 65.2308C85.7011 65.2308 85.9791 65.2442 86.2543 65.2656C88.4589 65.4606 90.5261 66.4209 92.0984 67.9804C93.6707 69.5399 94.6492 71.6004 94.8648 73.8058C95.0804 76.0111 94.5195 78.2225 93.279 80.0576C92.0385 81.8927 90.1965 83.2361 88.0715 83.8554Z" fill="#3F3D56"/>
<path d="M91.3566 72.9355C91.0198 71.4572 90.1107 70.1731 88.8291 69.3652C87.5475 68.5573 85.9981 68.2916 84.521 68.6264C84.3767 68.6593 84.2273 68.6999 84.0957 68.7405L85.4578 74.7327L91.4427 73.3715C91.4174 73.2321 91.3896 73.08 91.3566 72.9355Z" fill="#6C63FF"/>
<path d="M90.7764 74.4234L84.7889 75.7846L83.4294 69.7924C82.3855 70.1158 81.456 70.7321 80.7513 71.5682C80.0466 72.4044 79.5961 73.4254 79.4533 74.5101C79.3105 75.5948 79.4813 76.6977 79.9456 77.6882C80.4098 78.6786 81.148 79.515 82.0726 80.0982C82.9971 80.6814 84.0693 80.9869 85.1621 80.9786C86.2548 80.9702 87.3222 80.6483 88.2378 80.051C89.1533 79.4537 89.8786 78.6061 90.3277 77.6087C90.7767 76.6112 90.9307 75.5058 90.7714 74.4234H90.7764Z" fill="#6C63FF"/>
<path d="M195.989 122.394C193.973 122.394 192.002 121.796 190.326 120.674C188.65 119.553 187.344 117.96 186.573 116.095C185.801 114.23 185.599 112.179 185.993 110.199C186.386 108.22 187.357 106.402 188.782 104.975C190.207 103.548 192.023 102.576 194 102.182C195.977 101.788 198.026 101.99 199.889 102.763C201.751 103.535 203.343 104.843 204.463 106.521C205.583 108.199 206.18 110.172 206.18 112.19C206.177 114.895 205.102 117.489 203.192 119.402C201.281 121.315 198.691 122.391 195.989 122.394ZM195.989 102.69C194.112 102.69 192.277 103.247 190.717 104.291C189.156 105.335 187.94 106.818 187.222 108.554C186.504 110.29 186.316 112.201 186.682 114.043C187.048 115.886 187.952 117.579 189.279 118.908C190.606 120.236 192.297 121.141 194.137 121.508C195.978 121.874 197.886 121.686 199.62 120.967C201.354 120.248 202.836 119.03 203.878 117.468C204.921 115.906 205.477 114.069 205.477 112.19C205.474 109.671 204.474 107.256 202.695 105.475C200.916 103.694 198.504 102.693 195.989 102.69Z" fill="#3F3D56"/>
<path d="M200.385 116.279C200.012 116.279 199.647 116.168 199.337 115.961C199.027 115.754 198.785 115.459 198.642 115.114C198.499 114.769 198.461 114.389 198.534 114.023C198.606 113.657 198.786 113.32 199.049 113.056C199.313 112.791 199.649 112.611 200.015 112.538C200.38 112.465 200.76 112.502 201.104 112.645C201.449 112.788 201.744 113.03 201.951 113.34C202.159 113.65 202.27 114.015 202.27 114.389C202.27 114.89 202.072 115.37 201.718 115.724C201.365 116.079 200.885 116.278 200.385 116.279ZM195.988 116.279C195.488 116.278 195.009 116.079 194.655 115.725C194.302 115.371 194.103 114.892 194.103 114.391V109.989C194.103 109.488 194.302 109.009 194.656 108.656C195.009 108.302 195.488 108.104 195.988 108.104C196.487 108.104 196.966 108.302 197.32 108.656C197.673 109.009 197.872 109.488 197.872 109.989V114.391C197.872 114.892 197.673 115.371 197.32 115.725C196.966 116.079 196.487 116.278 195.988 116.279ZM191.591 116.279C191.091 116.278 190.612 116.079 190.258 115.725C189.905 115.371 189.706 114.891 189.705 114.39V112.631C189.705 112.13 189.904 111.65 190.258 111.296C190.611 110.942 191.091 110.743 191.591 110.743C192.091 110.743 192.571 110.942 192.925 111.296C193.279 111.65 193.477 112.13 193.477 112.631V114.39C193.477 114.891 193.278 115.371 192.924 115.725C192.571 116.079 192.091 116.278 191.591 116.279Z" fill="#6C63FF"/>
<path d="M66.7523 157.97L69.8588 157.617L69.9775 145.453L65.3926 145.974L66.7523 157.97Z" fill="#A0616A"/>
<path d="M76.1777 159.824L66.4147 160.934L65.9866 157.157L71.9776 156.476C72.978 156.363 73.9826 156.652 74.7702 157.279C75.5579 157.907 76.0642 158.823 76.1777 159.824L76.1777 159.824Z" fill="#2F2E41"/>
<path d="M34.8052 157.776L37.9316 157.776L39.4187 145.702L34.8047 145.702L34.8052 157.776Z" fill="#A0616A"/>
<path d="M43.9609 160.682L34.1352 160.682L34.135 156.881L40.1645 156.881C41.1713 156.881 42.1369 157.282 42.8489 157.994C43.5609 158.707 43.9609 159.674 43.9609 160.682L43.9609 160.682Z" fill="#2F2E41"/>
<path d="M57.2352 103.784L59.0202 109.597L68.7106 130.592L71.2607 150.507L65.3955 150.763L61.8254 132.38L49.5849 119.103L38.8745 153.826L34.0293 153.316C34.0293 153.316 38.1095 108.38 43.7197 103.784C43.7197 103.784 52.9 99.4434 57.2352 103.784Z" fill="#2F2E41"/>
<path d="M49.318 78.6998C52.7771 78.6998 55.5813 75.8922 55.5813 72.4289C55.5813 68.9655 52.7771 66.158 49.318 66.158C45.8589 66.158 43.0547 68.9655 43.0547 72.4289C43.0547 75.8922 45.8589 78.6998 49.318 78.6998Z" fill="#A0616A"/>
<path d="M57.873 104.933C57.873 104.933 58.638 78.8902 47.9276 80.6774C37.2172 82.4647 41.6799 107.614 41.6799 107.614C41.6799 107.614 43.9749 112.209 49.5852 107.103C55.1954 101.997 57.873 104.933 57.873 104.933Z" fill="#6C63FF"/>
<path d="M80.0478 83.2561C79.8468 83.5729 79.5788 83.8417 79.2627 84.0436C78.9467 84.2455 78.5903 84.3755 78.2186 84.4245C77.8469 84.4736 77.469 84.4404 77.1115 84.3274C76.754 84.2144 76.4256 84.0243 76.1495 83.7705L68.127 88.098L68.547 83.3755L76.1009 79.9901C76.5575 79.5538 77.1581 79.3004 77.7889 79.2779C78.4197 79.2554 79.0368 79.4653 79.5233 79.8679C80.0098 80.2705 80.3319 80.8377 80.4286 81.4622C80.5252 82.0867 80.3898 82.725 80.0478 83.2561L80.0478 83.2561Z" fill="#A0616A"/>
<path d="M49.2586 83.8571L62.2811 86.061L73.9512 80.5452L75.723 84.3384L62.9476 92.4855C62.9476 92.4855 49.4224 93.405 46.2953 89.8339C45.1227 88.4947 44.9887 87.2758 45.2792 86.2753C45.5336 85.4556 46.0786 84.7573 46.8116 84.3119C47.5445 83.8665 48.4148 83.7047 49.2586 83.8571Z" fill="#6C63FF"/>
<path d="M48.5739 79.0179C48.6038 78.9911 48.627 78.9576 48.6418 78.9202C48.6565 78.8828 48.6624 78.8424 48.6588 78.8024C48.6553 78.7623 48.6424 78.7236 48.6214 78.6894C48.6003 78.6552 48.5715 78.6263 48.5374 78.6052C47.9812 78.2603 47.528 77.7718 47.2255 77.191C46.923 76.6103 46.7823 75.9586 46.8182 75.3046C46.8541 74.6506 47.0653 74.0183 47.4295 73.4743C47.7938 72.9302 48.2977 72.4944 48.8883 72.2126C50.7297 71.3336 53.225 72.0174 54.5862 70.3282C54.8631 69.9668 55.0588 69.5499 55.1602 69.1059C55.2615 68.6619 55.266 68.2013 55.1734 67.7553C54.8797 66.1599 53.6818 64.9751 52.3402 64.1631C50.6922 63.1656 48.7981 62.6502 46.8725 62.6753C44.9469 62.7004 43.0668 63.2649 41.4453 64.305C39.8237 65.345 38.5255 66.819 37.6978 68.5599C36.87 70.3008 36.5458 72.239 36.7619 74.1549C36.9351 75.6904 37.4083 77.4122 36.4964 78.6589C35.6938 79.7561 34.1788 79.9618 32.848 80.2345C29.9936 80.8192 27.2399 82.1682 25.3029 84.3472C23.3659 86.5262 22.3325 89.5834 22.9165 92.4412C23.5006 95.299 25.8436 97.8106 28.7233 98.2536C31.0672 98.6141 33.4875 97.6175 35.2088 95.9842C36.9301 94.351 38.0181 92.1454 38.7044 89.8727C39.5189 87.1751 39.8402 84.2683 41.3108 81.8654C42.7498 79.5139 45.851 77.8283 48.2814 79.053C48.328 79.0773 48.3809 79.087 48.4331 79.0807C48.4853 79.0745 48.5343 79.0526 48.5739 79.0179Z" fill="#2F2E41"/>
<path d="M230.08 125.435C230.419 125.266 230.716 125.025 230.952 124.728C231.188 124.432 231.356 124.087 231.444 123.718C231.532 123.35 231.539 122.966 231.463 122.595C231.387 122.223 231.231 121.873 231.006 121.569L237.04 88.1307L231.409 88.0564L227.218 121.122C226.733 121.536 226.415 122.113 226.326 122.745C226.237 123.377 226.383 124.019 226.736 124.551C227.088 125.083 227.624 125.466 228.24 125.629C228.856 125.792 229.511 125.723 230.08 125.435H230.08Z" fill="#FFB8B8"/>
<path d="M212.603 123.85L210.465 134.017L210.732 156.759H214.741L216.611 134.552L219.551 125.187L212.603 123.85Z" fill="#FFB8B8"/>
<path d="M225.849 124.612L223.711 134.78L223.978 157.522H227.987L229.857 135.315L232.797 125.95L225.849 124.612Z" fill="#FFB8B8"/>
<path d="M209.332 156.501L215.65 156.485L215.66 160.468L205.363 160.494C205.362 159.97 205.464 159.452 205.662 158.969C205.861 158.485 206.153 158.045 206.522 157.674C206.89 157.303 207.328 157.009 207.81 156.808C208.292 156.606 208.809 156.502 209.332 156.501Z" fill="#2F2E41"/>
<path d="M222.677 156.931L228.996 156.915L229.006 160.898L218.709 160.924C218.708 160.401 218.809 159.882 219.008 159.399C219.207 158.915 219.499 158.475 219.867 158.104C220.236 157.733 220.674 157.439 221.156 157.238C221.638 157.036 222.155 156.932 222.677 156.931Z" fill="#2F2E41"/>
<path d="M222.356 73.9885C225.981 73.9885 228.92 71.0464 228.92 67.417C228.92 63.7877 225.981 60.8456 222.356 60.8456C218.732 60.8456 215.793 63.7877 215.793 67.417C215.793 71.0464 218.732 73.9885 222.356 73.9885Z" fill="#FFB8B8"/>
<path d="M236.859 83.6709C234.862 80.5337 228.592 73.0934 219.263 77.3641C218.528 77.7045 217.914 78.262 217.505 78.9618C217.096 79.6615 216.91 80.4699 216.973 81.2783C217.425 87.2446 217.994 102.446 213.135 111.542C213.135 111.542 227.298 115.823 235.048 111.809C235.048 111.809 232.375 93.8831 235.048 90.4049C235.939 89.2934 236.661 88.0557 237.189 86.7323C237.375 86.2313 237.442 85.694 237.384 85.1627C237.327 84.6314 237.147 84.1208 236.859 83.6709Z" fill="#3F3D56"/>
<path d="M234.247 83.4485L236.869 84.5425C237.044 84.6154 237.194 84.7366 237.302 84.8919C237.411 85.0473 237.472 85.2303 237.48 85.4195L237.721 91.2076L231.842 90.6725L234.247 83.4485Z" fill="#3F3D56"/>
<path d="M214.206 111.007C214.206 111.007 208.327 121.977 209.396 132.144L217.68 133.482L223.559 119.301L222.223 133.749L230.774 134.017C230.774 134.017 236.386 113.147 234.515 111.274L214.206 111.007Z" fill="#2F2E41"/>
<path d="M205.856 111.986C206.23 111.929 206.587 111.79 206.902 111.579C207.217 111.369 207.482 111.092 207.678 110.768C207.875 110.444 207.998 110.081 208.039 109.704C208.08 109.327 208.038 108.946 207.916 108.587L219.842 86.0773L214.502 84.2866L204.445 107.005C203.856 107.25 203.378 107.703 203.101 108.278C202.824 108.852 202.767 109.509 202.941 110.123C203.115 110.737 203.507 111.266 204.045 111.609C204.582 111.952 205.226 112.087 205.856 111.986H205.856Z" fill="#FFB8B8"/>
<path d="M221.469 79.9838L219.26 78.9944C219.26 78.9944 217.387 77.8319 215.727 80.3899C214.067 82.9478 212.273 88.5535 212.273 88.5535L219.481 90.584L221.469 79.9838Z" fill="#3F3D56"/>
<path d="M223.407 70.5809C223.642 69.7617 223.574 68.6531 222.781 68.3433C222.368 68.1818 221.906 68.3092 221.465 68.3544C220.602 68.4393 219.737 68.2011 219.039 67.6857C218.218 67.075 217.711 66.1414 217.23 65.2383L216.502 63.8722C216.34 63.5874 216.202 63.2897 216.089 62.9821C215.684 61.7761 216.124 60.3799 217.024 59.482C217.965 58.6056 219.203 58.1196 220.488 58.1222C221.763 58.1314 223.023 58.4016 224.19 58.9161C226.264 59.7626 228.142 61.0261 229.709 62.6285C230.733 63.6773 231.665 65.0437 231.451 66.4947C231.284 67.6241 230.462 68.5286 229.678 69.3574L226.833 72.3639C226.33 72.8964 225.791 73.4505 225.088 73.6552C224.384 73.86 223.478 73.5592 223.286 72.8514C223.286 72.8514 223.171 71.4001 223.407 70.5809Z" fill="#2F2E41"/>
<path d="M262.733 161H11.2672C11.1964 161 11.1284 160.972 11.0783 160.922C11.0282 160.871 11 160.803 11 160.732C11 160.661 11.0282 160.593 11.0783 160.543C11.1284 160.493 11.1964 160.465 11.2672 160.465H262.733C262.804 160.465 262.872 160.493 262.922 160.543C262.972 160.593 263 160.661 263 160.732C263 160.803 262.972 160.871 262.922 160.922C262.872 160.972 262.804 161 262.733 161Z" fill="#3F3D56"/>
<path d="M180.435 79.0129H172.952C172.739 79.0129 172.536 78.9284 172.385 78.7778C172.235 78.6273 172.15 78.4231 172.15 78.2103C172.15 77.9974 172.235 77.7932 172.385 77.6427C172.536 77.4922 172.739 77.4076 172.952 77.4076H180.435C180.647 77.4076 180.851 77.4922 181.001 77.6427C181.152 77.7932 181.236 77.9974 181.236 78.2103C181.236 78.4231 181.152 78.6273 181.001 78.7778C180.851 78.9284 180.647 79.0129 180.435 79.0129Z" fill="#6C63FF"/>
<path d="M180.435 75.5348H172.952C172.739 75.5348 172.536 75.4502 172.385 75.2997C172.235 75.1492 172.15 74.945 172.15 74.7321C172.15 74.5192 172.235 74.3151 172.385 74.1645C172.536 74.014 172.739 73.9294 172.952 73.9294H180.435C180.647 73.9294 180.851 74.014 181.001 74.1645C181.152 74.3151 181.236 74.5192 181.236 74.7321C181.236 74.945 181.152 75.1492 181.001 75.2997C180.851 75.4502 180.647 75.5348 180.435 75.5348Z" fill="#6C63FF"/>
<path d="M180.435 72.0565H172.952C172.739 72.0565 172.536 71.9719 172.385 71.8214C172.235 71.6709 172.15 71.4667 172.15 71.2538C172.15 71.041 172.235 70.8368 172.385 70.6863C172.536 70.5357 172.739 70.4512 172.952 70.4512H180.435C180.647 70.4512 180.851 70.5357 181.001 70.6863C181.152 70.8368 181.236 71.041 181.236 71.2538C181.236 71.4667 181.152 71.6709 181.001 71.8214C180.851 71.9719 180.647 72.0565 180.435 72.0565Z" fill="#6C63FF"/>
</svg>
