<svg width="26" height="26" viewBox="0 0 26 26" fill="none" xmlns="http://www.w3.org/2000/svg">
<path fill-rule="evenodd" clip-rule="evenodd" d="M11.072 21.6349C13.539 21.6349 15.8069 20.7863 17.6164 19.3792L23.4912 25.2537L25.3809 23.3641L19.5061 17.4896C20.9146 15.6789 21.7632 13.4111 21.7632 10.9443C21.7632 5.04974 16.9669 0.253662 11.072 0.253662C5.17719 0.253662 0.380859 5.04974 0.380859 10.9443C0.380859 16.8388 5.17719 21.6349 11.072 21.6349ZM11.0695 2.92649C15.4917 2.92649 19.0879 6.52255 19.0879 10.9445C19.0879 15.3664 15.4917 18.9624 11.0695 18.9624C6.64739 18.9624 3.05115 15.3664 3.05115 10.9445C3.05115 6.52255 6.64739 2.92649 11.0695 2.92649ZM13.7436 10.9442C13.7436 10.2333 13.4643 9.56244 12.9578 9.05464C11.9475 8.04705 10.1968 8.04438 9.1811 9.05731L7.29411 7.16507C9.31608 5.14455 12.8241 5.14455 14.8474 7.16507C15.8604 8.17935 16.4164 9.52102 16.4164 10.9442H13.7436Z" fill="black"/>
</svg>
