<svg width="235" height="300" viewBox="0 0 235 300" fill="none" xmlns="http://www.w3.org/2000/svg">
<mask id="mask0" mask-type="alpha" maskUnits="userSpaceOnUse" x="-1" y="0" width="236" height="300">
<rect x="-1" width="236" height="300" rx="1" fill="#E9A643"/>
</mask>
<g mask="url(#mask0)">
<circle opacity="0.5" cx="145" cy="222" r="123" fill="#20294E"/>
<path d="M140.958 255.548C139.669 254.63 139.485 249.674 144.825 248.756C148.14 248.206 157.347 251.51 161.582 253.713C161.95 255.548 162.135 257.2 161.03 258.669C159.741 260.137 157.531 260.321 155.69 260.137C152.191 259.77 143.168 257.2 140.958 255.548Z" fill="#D58F77"/>
<path d="M166.738 251.51C165.081 250.041 165.818 244.901 170.053 244.718C173.183 244.718 177.971 250.776 181.838 253.162C182.022 254.814 182.022 256.466 180.733 257.751C179.444 259.036 177.419 258.852 175.577 258.485C172.447 257.935 168.58 253.345 166.738 251.51Z" fill="#D58F77"/>
<path d="M141.143 254.079C139.854 253.162 139.486 249.123 144.826 248.389C148.14 247.838 157.347 250.225 161.583 252.427C161.951 254.263 162.135 255.915 161.03 257.384C159.741 258.852 157.531 259.036 155.69 258.852C152.191 258.118 143.353 255.732 141.143 254.079Z" fill="#263045"/>
<path d="M166.738 249.674C165.633 248.573 165.633 244.901 170.789 244.718C173.92 244.534 178.155 249.123 181.838 251.51C182.022 253.162 182.022 254.814 180.733 256.099C179.444 257.384 177.418 257.2 175.577 256.833C172.446 256.099 168.579 251.51 166.738 249.674Z" fill="#263045"/>
<path d="M162.319 222.506C160.109 223.424 158.452 225.26 158.084 227.463C155.506 237.926 151.823 250.959 151.823 252.978C151.639 254.814 154.217 256.282 155.874 256.65C159.373 257.384 160.293 256.833 161.398 255.548C161.951 254.814 170.421 234.622 173.183 217.55C169.685 220.12 166.002 221.038 162.319 222.506Z" fill="#1E2940"/>
<path d="M172.999 215.347C173.367 231.685 171.894 250.959 172.447 252.978C173.552 255.732 181.101 256.282 181.654 253.896C181.838 252.795 185.337 232.419 185.153 210.942C180.917 213.328 177.05 212.41 172.999 215.347Z" fill="#1F2A40"/>
<path d="M213.51 237.191L173.183 213.879L172.999 157.891L213.326 181.204L213.51 237.191Z" fill="#C6C6C6"/>
<path d="M141.327 217.183L101 193.87L178.708 149.264L219.035 172.393L141.327 217.183Z" fill="white"/>
<path d="M141.327 278.494L101.184 255.365L101 193.87L141.327 217.183V278.494Z" fill="#EBECF3"/>
<path d="M219.035 172.393V233.888L213.511 237.192L213.327 181.204L146.851 219.386L147.036 275.374L141.327 278.494V217.183L219.035 172.393Z" fill="#DDDDE1"/>
<path d="M193.439 178.818L176.13 168.905V166.519L193.439 176.615V178.818Z" fill="#3A4B8F"/>
<path d="M193.892 175.535L176.583 165.623L189.204 158.258L206.513 168.171L193.892 175.535Z" fill="#5971CF"/>
<path d="M193.439 176.615L176.13 166.702C176.13 166.335 176.498 165.785 176.866 165.601L194.176 175.514C193.623 175.697 193.439 176.064 193.439 176.615Z" fill="#4C61B4"/>
<path d="M193.991 179.185C193.623 179.368 193.255 179.185 193.255 178.818V176.431C193.255 176.064 193.623 175.513 193.991 175.33L206.513 168.171V168.538L206.145 168.721L205.408 170.374L206.145 171.659L206.513 171.842V172.026L193.991 179.185Z" fill="#4F63A3"/>
<path d="M193.624 178.818C193.624 179.001 193.624 179.001 193.624 179.001H193.808L206.329 171.842L205.961 171.659L205.225 170.557L205.961 168.722L193.992 175.697C193.808 175.697 193.624 175.881 193.624 176.064C193.439 176.248 193.439 176.431 193.439 176.615L193.624 178.818Z" fill="#5E71BA"/>
<path d="M206.145 168.722L194.175 175.697C193.991 175.697 193.807 175.881 193.807 176.064C193.623 176.248 193.623 176.431 193.623 176.615V178.818L206.145 171.659V168.722Z" fill="#FFFFFA"/>
<path d="M193.807 174.596L176.498 164.5V162.297L193.807 172.209V174.596Z" fill="#7735B5"/>
<path d="M194.544 171.108L177.234 161.196L189.572 153.853L206.881 163.949L194.544 171.108Z" fill="#AD56FF"/>
<path d="M193.807 172.21L176.498 162.297C176.498 161.93 176.866 161.379 177.235 161.196L194.544 171.108C194.176 171.292 193.807 171.842 193.807 172.21Z" fill="#913FDD"/>
<path d="M194.544 174.963C194.176 175.147 193.808 174.963 193.808 174.596V172.21C193.808 171.842 194.176 171.292 194.544 171.108L207.066 163.949V164.316L206.698 164.5L205.961 166.152L206.698 167.437L207.066 167.62V167.804L194.544 174.963Z" fill="#7735B5"/>
<path d="M193.992 174.596C193.992 174.779 193.992 174.779 193.992 174.779H194.176L206.698 167.62L206.329 167.437L205.593 166.335L206.329 164.5L194.36 171.475C194.176 171.475 193.992 171.659 193.992 171.842C193.808 172.026 193.808 172.209 193.808 172.393L193.992 174.596Z" fill="#7735B5"/>
<path d="M206.513 164.316L194.544 171.292C194.359 171.292 194.175 171.475 194.175 171.659C193.991 171.842 193.991 172.026 193.991 172.209V174.412L206.513 167.253V164.316Z" fill="#FFFFFA"/>
<path d="M184.785 160.645L189.02 158.259L188.836 158.075L184.601 160.461L184.785 160.645Z" fill="#E9BFE1"/>
<path d="M184.784 162.113L191.413 158.258L191.045 157.891L184.416 161.746L184.784 162.113Z" fill="#E9BFE1"/>
<path d="M185.889 162.664L192.518 158.809L192.15 158.626L185.521 162.48L185.889 162.664Z" fill="#E9BFE1"/>
<path d="M186.626 181.021L178.339 176.248C178.155 176.064 177.787 176.064 177.603 176.248L151.823 191.117C151.639 191.117 151.639 191.3 151.639 191.3V192.402C151.639 192.402 151.639 192.585 151.823 192.585L160.109 197.358C160.293 197.542 160.662 197.542 160.846 197.358L186.626 182.489C186.81 182.489 186.81 182.306 186.81 182.306V181.388C186.626 181.021 186.626 181.021 186.626 181.021Z" fill="#172030"/>
<path d="M159.926 186.344L151.639 191.117C151.455 191.117 151.455 191.301 151.455 191.301V192.402C151.455 192.402 151.455 192.585 151.639 192.585L159.926 197.358V186.344Z" fill="#172030"/>
<path d="M186.626 181.388L160.847 196.257C160.662 196.44 160.294 196.44 160.11 196.257L151.824 191.484C151.64 191.3 151.64 191.117 151.824 190.933L177.604 176.064C177.788 175.881 178.156 175.881 178.34 176.064L186.626 180.837C186.811 181.021 186.811 181.204 186.626 181.388Z" fill="#1E2A3D"/>
<path opacity="0.9" d="M155.138 191.484L154.033 192.035C153.849 192.035 153.665 192.035 153.665 192.035L152.56 191.484C152.376 191.484 152.376 191.3 152.56 191.3L153.665 190.75C153.849 190.75 154.033 190.75 154.033 190.75L154.954 191.3C155.138 191.3 155.138 191.3 155.138 191.484ZM156.979 190.199L156.059 189.648C155.875 189.648 155.69 189.648 155.69 189.648L154.401 190.199C154.217 190.199 154.217 190.383 154.401 190.383L155.322 190.933C155.506 190.933 155.69 190.933 155.69 190.933L156.795 190.383C156.979 190.383 156.979 190.199 156.979 190.199ZM158.637 189.098L157.716 188.547C157.532 188.547 157.348 188.547 157.348 188.547L156.243 189.281C156.059 189.281 156.059 189.465 156.243 189.465L157.164 190.015C157.348 190.015 157.532 190.015 157.532 190.015L158.637 189.465C158.821 189.281 158.821 189.098 158.637 189.098ZM160.478 188.18L159.557 187.629C159.373 187.629 159.189 187.629 159.189 187.629L158.084 188.18C157.9 188.18 157.9 188.363 158.084 188.363L159.005 188.914C159.189 188.914 159.373 188.914 159.373 188.914L160.478 188.363C160.662 188.18 160.662 188.18 160.478 188.18ZM162.319 187.078L161.399 186.528C161.215 186.528 161.031 186.528 161.031 186.528L159.926 187.078C159.742 187.078 159.742 187.262 159.926 187.262L160.846 187.813C161.031 187.813 161.215 187.813 161.215 187.813L162.319 187.262V187.078ZM164.161 185.977L163.24 185.426C163.056 185.426 162.872 185.426 162.872 185.426L161.767 185.977C161.583 185.977 161.583 186.161 161.767 186.161L162.688 186.711C162.872 186.711 163.056 186.711 163.056 186.711L164.161 186.161C164.161 186.161 164.161 186.161 164.161 185.977ZM165.818 185.059L164.897 184.508C164.713 184.508 164.529 184.508 164.529 184.508L163.424 185.059C163.24 185.059 163.24 185.243 163.424 185.243L164.345 185.793C164.529 185.793 164.713 185.793 164.713 185.793L165.818 185.243C166.002 185.059 166.002 185.059 165.818 185.059ZM167.66 183.958L166.739 183.407C166.555 183.407 166.371 183.407 166.371 183.407L165.266 183.958C165.082 183.958 165.082 184.141 165.266 184.141L166.186 184.692C166.371 184.692 166.555 184.692 166.555 184.692L167.66 184.141C167.844 184.141 167.844 183.958 167.66 183.958ZM169.501 182.856L168.58 182.306C168.396 182.306 168.212 182.306 168.212 182.306L167.107 182.856C166.923 182.856 166.923 183.04 167.107 183.04L168.028 183.591C168.212 183.591 168.396 183.591 168.396 183.591L169.501 183.04C169.685 183.04 169.685 183.04 169.501 182.856ZM171.895 181.571L170.974 181.021C170.79 181.021 170.606 181.021 170.606 181.021L168.949 181.939C168.764 181.939 168.764 182.122 168.949 182.122L169.869 182.673C170.053 182.673 170.238 182.673 170.238 182.673L171.895 181.755V181.571ZM179.629 182.856L178.708 182.306C178.524 182.306 178.34 182.306 178.34 182.306L177.235 182.856C177.051 182.856 177.051 183.04 177.235 183.04L178.156 183.591C178.34 183.591 178.524 183.591 178.524 183.591L179.629 183.04C179.629 182.856 179.629 182.856 179.629 182.856ZM181.47 181.755L180.55 181.204C180.365 181.204 180.181 181.204 180.181 181.204L178.892 181.755C178.708 181.755 178.708 181.939 178.892 181.939L179.813 182.489C179.997 182.489 180.181 182.489 180.181 182.489L181.286 181.939C181.47 181.939 181.47 181.755 181.47 181.755ZM183.128 180.654L182.207 180.103C182.023 180.103 181.839 180.103 181.839 180.103L180.734 180.654C180.55 180.654 180.55 180.837 180.734 180.837L181.654 181.388C181.839 181.388 182.023 181.388 182.023 181.388L183.128 180.837C183.312 180.837 183.312 180.837 183.128 180.654ZM181.286 183.774L180.365 183.223C180.181 183.223 179.997 183.223 179.997 183.223L178.892 183.774C178.708 183.774 178.708 183.958 178.892 183.958L179.813 184.508C179.997 184.508 180.181 184.508 180.181 184.508L181.286 183.958V183.774ZM183.128 182.673L182.023 182.122C181.839 182.122 181.654 182.122 181.654 182.122L180.55 182.673C180.365 182.673 180.365 182.856 180.55 182.856L181.47 183.407C181.654 183.407 181.839 183.407 181.839 183.407L182.943 182.856C183.128 182.856 183.128 182.673 183.128 182.673ZM184.785 181.571L183.864 181.021C183.68 181.021 183.496 181.021 183.496 181.021L182.391 181.755C182.207 181.755 182.207 181.939 182.391 181.939L183.312 182.489C183.496 182.489 183.68 182.489 183.68 182.489L184.785 181.939C184.969 181.755 184.969 181.755 184.785 181.571ZM157.348 191.851L156.427 191.3C156.243 191.3 156.059 191.3 156.059 191.3L154.401 192.218C154.217 192.218 154.217 192.402 154.401 192.402L155.322 192.952C155.506 192.952 155.69 192.952 155.69 192.952L157.348 192.035C157.532 192.035 157.532 191.851 157.348 191.851ZM159.189 190.75L158.268 190.199C158.084 190.199 157.9 190.199 157.9 190.199L156.795 190.933C156.611 190.933 156.611 191.117 156.795 191.117L157.716 191.667C157.9 191.667 158.084 191.667 158.084 191.667L159.189 191.117C159.189 190.933 159.189 190.75 159.189 190.75ZM161.031 189.648L159.926 189.098C159.742 189.098 159.557 189.098 159.557 189.098L158.453 189.648C158.268 189.648 158.268 189.832 158.453 189.832L159.373 190.383C159.557 190.383 159.742 190.383 159.742 190.383L160.846 189.832C161.031 189.832 161.031 189.832 161.031 189.648ZM162.688 188.73L161.767 188.18C161.583 188.18 161.399 188.18 161.399 188.18L160.294 188.73C160.11 188.73 160.11 188.914 160.294 188.914L161.215 189.465C161.399 189.465 161.583 189.465 161.583 189.465L162.688 188.914C162.872 188.914 162.872 188.73 162.688 188.73ZM164.529 187.629L163.608 187.078C163.424 187.078 163.24 187.078 163.24 187.078L162.135 187.629C161.951 187.629 161.951 187.813 162.135 187.813L163.056 188.363C163.24 188.363 163.424 188.363 163.424 188.363L164.529 187.813C164.713 187.813 164.713 187.629 164.529 187.629ZM166.371 186.711L165.45 186.161C165.266 186.161 165.082 186.161 165.082 186.161L163.977 186.711C163.793 186.711 163.793 186.895 163.977 186.895L164.897 187.445C165.082 187.445 165.266 187.445 165.266 187.445L166.371 186.895C166.371 186.711 166.371 186.711 166.371 186.711ZM168.212 185.61L167.291 185.059C167.107 185.059 166.923 185.059 166.923 185.059L165.818 185.61C165.634 185.61 165.634 185.793 165.818 185.793L166.739 186.344C166.923 186.344 167.107 186.344 167.107 186.344L168.212 185.793V185.61ZM169.869 184.508L168.949 183.958C168.764 183.958 168.58 183.958 168.58 183.958L167.475 184.508C167.291 184.508 167.291 184.692 167.475 184.692L168.396 185.243C168.58 185.243 168.764 185.243 168.764 185.243L169.869 184.692C170.053 184.692 170.053 184.692 169.869 184.508ZM171.711 183.591L170.79 183.04C170.606 183.04 170.422 183.04 170.422 183.04L169.317 183.591C169.133 183.591 169.133 183.774 169.317 183.774L170.238 184.325C170.422 184.325 170.606 184.325 170.606 184.325L171.711 183.774C171.895 183.591 171.895 183.591 171.711 183.591ZM173.552 182.489L172.631 181.939C172.447 181.939 172.263 181.939 172.263 181.939L171.158 182.489C170.974 182.489 170.974 182.673 171.158 182.673L172.079 183.223C172.263 183.223 172.447 183.223 172.447 183.223L173.552 182.673C173.736 182.673 173.736 182.489 173.552 182.489ZM158.453 193.136L157.532 192.585C157.348 192.585 157.164 192.585 157.164 192.585L156.059 193.136C155.875 193.136 155.875 193.32 156.059 193.32L156.979 193.87C157.164 193.87 157.348 193.87 157.348 193.87L158.453 193.32V193.136ZM160.11 192.035L159.189 191.484C159.005 191.484 158.821 191.484 158.821 191.484L157.716 192.035C157.532 192.035 157.532 192.218 157.716 192.218L158.637 192.769C158.821 192.769 159.005 192.769 159.005 192.769L160.11 192.218C160.294 192.218 160.294 192.035 160.11 192.035ZM161.951 190.933L161.031 190.383C160.846 190.383 160.662 190.383 160.662 190.383L159.557 190.933C159.373 190.933 159.373 191.117 159.557 191.117L160.478 191.667C160.662 191.667 160.846 191.667 160.846 191.667L161.951 191.117C162.135 191.117 162.135 191.117 161.951 190.933ZM163.793 190.015L162.872 189.465C162.688 189.465 162.504 189.465 162.504 189.465L161.399 190.015C161.215 190.015 161.215 190.199 161.399 190.199L162.319 190.75C162.504 190.75 162.688 190.75 162.688 190.75L163.793 190.199V190.015ZM161.583 194.972L160.662 194.421C160.478 194.421 160.294 194.421 160.294 194.421L159.189 194.972C159.005 194.972 159.005 195.155 159.189 195.155L160.11 195.706C160.294 195.706 160.478 195.706 160.478 195.706L161.583 195.155C161.767 195.155 161.767 194.972 161.583 194.972ZM163.424 193.87L162.504 193.32C162.32 193.32 162.135 193.32 162.135 193.32L161.031 193.87C160.846 193.87 160.846 194.054 161.031 194.054L161.951 194.605C162.135 194.605 162.319 194.605 162.319 194.605L163.424 194.054C163.608 194.054 163.608 194.054 163.424 193.87ZM165.266 192.952L164.345 192.402C164.161 192.402 163.977 192.402 163.977 192.402L162.872 192.952C162.688 192.952 162.688 193.136 162.872 193.136L163.793 193.687C163.977 193.687 164.161 193.687 164.161 193.687L165.266 193.136V192.952ZM167.107 191.851L166.186 191.3C166.002 191.3 165.818 191.3 165.818 191.3L164.713 191.851C164.529 191.851 164.529 192.035 164.713 192.035L165.45 192.769C165.634 192.769 165.818 192.769 165.818 192.769L166.923 192.218C167.107 192.035 167.107 191.851 167.107 191.851ZM178.34 185.243L177.419 184.692C177.235 184.692 177.051 184.692 177.051 184.692L175.394 185.61C175.209 185.61 175.209 185.793 175.394 185.793L176.314 186.344C176.498 186.344 176.683 186.344 176.683 186.344L178.34 185.426C178.524 185.426 178.524 185.426 178.34 185.243ZM165.634 188.914L164.713 188.363C164.529 188.363 164.345 188.363 164.345 188.363L163.056 189.098C162.872 189.098 162.872 189.281 163.056 189.281L163.977 189.832C164.161 189.832 164.345 189.832 164.345 189.832L165.45 189.281C165.634 189.098 165.634 188.914 165.634 188.914ZM167.291 187.813L166.371 187.262C166.186 187.262 166.002 187.262 166.002 187.262L164.897 187.813C164.713 187.813 164.713 187.996 164.897 187.996L165.818 188.547C166.002 188.547 166.186 188.547 166.186 188.547L167.291 187.996C167.475 187.996 167.475 187.996 167.291 187.813ZM169.133 186.895L168.212 186.344C168.028 186.344 167.844 186.344 167.844 186.344L166.739 186.895C166.555 186.895 166.555 187.078 166.739 187.078L167.66 187.629C167.844 187.629 168.028 187.629 168.028 187.629L169.133 187.078C169.317 187.078 169.317 186.895 169.133 186.895ZM170.974 185.793L170.053 185.243C169.869 185.243 169.685 185.243 169.685 185.243L168.58 185.793C168.396 185.793 168.396 185.977 168.58 185.977L169.501 186.528C169.685 186.528 169.869 186.528 169.869 186.528L170.974 185.977C170.974 185.977 170.974 185.977 170.974 185.793ZM172.816 184.876L171.895 184.325C171.711 184.325 171.527 184.325 171.527 184.325L170.422 184.876C170.238 184.876 170.238 185.059 170.422 185.059L171.342 185.61C171.527 185.61 171.711 185.61 171.711 185.61L172.816 185.059C172.816 184.876 172.816 184.876 172.816 184.876ZM175.209 183.407L174.289 182.856C174.105 182.856 173.92 182.856 173.92 182.856L172.263 183.774C172.079 183.774 172.079 183.958 172.263 183.958L173.184 184.508C173.368 184.508 173.552 184.508 173.552 184.508L175.209 183.591V183.407ZM160.662 193.687L159.742 193.136C159.557 193.136 159.373 193.136 159.373 193.136L157.716 194.054C157.532 194.054 157.532 194.237 157.716 194.237L158.637 194.788C158.821 194.788 159.005 194.788 159.005 194.788L160.662 193.87V193.687ZM162.504 192.585L161.583 192.035C161.399 192.035 161.215 192.035 161.215 192.035L159.926 192.769C159.742 192.769 159.742 192.952 159.926 192.952L160.846 193.503C161.031 193.503 161.215 193.503 161.215 193.503L162.319 192.952C162.504 192.769 162.504 192.769 162.504 192.585ZM164.161 191.667L163.24 191.117C163.056 191.117 162.872 191.117 162.872 191.117L161.767 191.667C161.583 191.667 161.583 191.851 161.767 191.851L162.688 192.402C162.872 192.402 163.056 192.402 163.056 192.402L164.161 191.851C164.345 191.851 164.345 191.667 164.161 191.667ZM166.002 190.566L165.082 190.015C164.897 190.015 164.713 190.015 164.713 190.015L163.608 190.75C163.424 190.75 163.424 190.933 163.608 190.933L164.529 191.484C164.713 191.484 164.897 191.484 164.897 191.484L166.002 190.933C166.186 190.75 166.186 190.566 166.002 190.566ZM167.844 189.465L166.923 188.914C166.739 188.914 166.555 188.914 166.555 188.914L165.45 189.648C165.266 189.648 165.266 189.832 165.45 189.832L166.371 190.383C166.555 190.383 166.739 190.383 166.739 190.383L167.844 189.832C167.844 189.648 167.844 189.648 167.844 189.465ZM176.13 186.711L175.209 186.161C175.025 186.161 174.841 186.161 174.841 186.161L166.371 190.933C166.186 190.933 166.186 191.117 166.371 191.117L167.291 191.667C167.475 191.667 167.66 191.667 167.66 191.667L175.946 186.895C176.13 186.895 176.13 186.711 176.13 186.711ZM169.685 188.547L168.764 187.996C168.58 187.996 168.396 187.996 168.396 187.996L167.291 188.547C167.107 188.547 167.107 188.73 167.291 188.73L168.212 189.281C168.396 189.281 168.58 189.281 168.58 189.281L169.685 188.73V188.547ZM171.342 187.445L170.422 186.895C170.238 186.895 170.053 186.895 170.053 186.895L168.949 187.445C168.764 187.445 168.764 187.629 168.949 187.629L169.869 188.18C170.053 188.18 170.238 188.18 170.238 188.18L171.342 187.629C171.527 187.629 171.527 187.445 171.342 187.445ZM173.184 186.344L172.263 185.793C172.079 185.793 171.895 185.793 171.895 185.793L170.79 186.344C170.606 186.344 170.606 186.528 170.79 186.528L171.711 187.078C171.895 187.078 172.079 187.078 172.079 187.078L173.184 186.528C173.368 186.528 173.368 186.528 173.184 186.344ZM175.025 185.426L174.105 184.876C173.92 184.876 173.736 184.876 173.736 184.876L172.631 185.426C172.447 185.426 172.447 185.61 172.631 185.61L173.552 186.161C173.736 186.161 173.92 186.161 173.92 186.161L175.025 185.61C175.209 185.61 175.209 185.426 175.025 185.426ZM176.867 184.325L175.946 183.774C175.762 183.774 175.578 183.774 175.578 183.774L174.473 184.325C174.289 184.325 174.289 184.508 174.473 184.508L175.394 185.059C175.578 185.059 175.762 185.059 175.762 185.059L176.867 184.508C176.867 184.508 176.867 184.508 176.867 184.325ZM174.657 179.919L173.736 179.369C173.552 179.369 173.368 179.369 173.368 179.369L172.263 179.919C172.079 179.919 172.079 180.103 172.263 180.103L173.184 180.654C173.368 180.654 173.552 180.654 173.552 180.654L174.657 180.103C174.841 180.103 174.841 179.919 174.657 179.919ZM176.498 178.818L175.578 178.267C175.394 178.267 175.209 178.267 175.209 178.267L174.105 178.818C173.92 178.818 173.92 179.001 174.105 179.001L175.025 179.552C175.209 179.552 175.394 179.552 175.394 179.552L176.498 179.001C176.498 179.001 176.498 179.001 176.498 178.818ZM178.34 177.9L177.419 177.349C177.235 177.349 177.051 177.349 177.051 177.349L175.946 177.9C175.762 177.9 175.762 178.084 175.946 178.084L176.867 178.634C177.051 178.634 177.235 178.634 177.235 178.634L178.34 178.084V177.9ZM179.997 178.818L179.076 178.267C178.892 178.267 178.708 178.267 178.708 178.267L177.603 178.818C177.419 178.818 177.419 179.001 177.603 179.001L178.524 179.552C178.708 179.552 178.892 179.552 178.892 179.552L179.997 179.001V178.818ZM181.47 179.736L180.55 179.185C180.55 179.185 180.365 179.185 180.181 179.185L178.524 180.103H178.34L177.051 179.369C176.867 179.369 176.683 179.369 176.498 179.369L173.736 181.021C173.552 181.021 173.552 181.204 173.736 181.388L176.13 182.856C176.314 182.856 176.498 182.856 176.683 182.856L181.286 180.103C181.654 179.919 181.654 179.736 181.47 179.736Z" fill="#263144"/>
<path d="M155.138 191.301L154.033 191.851C153.849 191.851 153.665 191.851 153.665 191.851L152.56 191.301C152.376 191.301 152.376 191.117 152.56 191.117L153.665 190.566C153.849 190.566 154.033 190.566 154.033 190.566L154.954 191.117C155.138 191.117 155.138 191.117 155.138 191.301ZM156.979 190.016L156.059 189.465C155.875 189.465 155.69 189.465 155.69 189.465L154.401 190.016C154.217 190.016 154.217 190.199 154.401 190.199L155.322 190.75C155.506 190.75 155.69 190.75 155.69 190.75L156.795 190.199C156.979 190.199 156.979 190.016 156.979 190.016ZM158.637 188.914L157.716 188.364C157.532 188.364 157.348 188.364 157.348 188.364L156.243 189.098C156.059 189.098 156.059 189.281 156.243 189.281L157.164 189.832C157.348 189.832 157.532 189.832 157.532 189.832L158.637 189.281C158.821 189.098 158.821 189.098 158.637 188.914ZM160.478 187.996L159.557 187.446C159.373 187.446 159.189 187.446 159.189 187.446L158.084 187.996C157.9 187.996 157.9 188.18 158.084 188.18L159.005 188.731C159.189 188.731 159.373 188.731 159.373 188.731L160.478 188.18C160.662 188.18 160.662 187.996 160.478 187.996ZM162.319 186.895L161.399 186.344C161.215 186.344 161.031 186.344 161.031 186.344L159.926 187.079C159.742 187.079 159.742 187.262 159.926 187.262L160.846 187.813C161.031 187.813 161.215 187.813 161.215 187.813L162.319 187.262C162.319 187.079 162.319 186.895 162.319 186.895ZM164.161 185.794L163.24 185.243C163.056 185.243 162.872 185.243 162.872 185.243L161.767 185.794C161.583 185.794 161.583 185.977 161.767 185.977L162.688 186.528C162.872 186.528 163.056 186.528 163.056 186.528L164.161 185.977C164.161 185.977 164.161 185.977 164.161 185.794ZM165.818 184.876L164.897 184.325C164.713 184.325 164.529 184.325 164.529 184.325L163.424 184.876C163.24 184.876 163.24 185.059 163.424 185.059L164.345 185.61C164.529 185.61 164.713 185.61 164.713 185.61L165.818 185.059C166.002 185.059 166.002 184.876 165.818 184.876ZM167.66 183.774L166.739 183.224C166.555 183.224 166.371 183.224 166.371 183.224L165.266 183.774C165.082 183.774 165.082 183.958 165.266 183.958L166.186 184.509C166.371 184.509 166.555 184.509 166.555 184.509L167.66 183.958C167.844 183.958 167.844 183.774 167.66 183.774ZM169.501 182.673L168.58 182.122C168.396 182.122 168.212 182.122 168.212 182.122L167.107 182.673C166.923 182.673 166.923 182.857 167.107 182.857L168.028 183.407C168.212 183.407 168.396 183.407 168.396 183.407L169.501 182.857C169.685 182.857 169.685 182.857 169.501 182.673ZM171.895 181.388L170.974 180.837C170.79 180.837 170.606 180.837 170.606 180.837L168.764 181.755C168.58 181.755 168.58 181.939 168.764 181.939L169.685 182.489C169.869 182.489 170.053 182.489 170.053 182.489L171.711 181.572C171.895 181.572 171.895 181.388 171.895 181.388ZM179.629 182.673L178.708 182.122C178.524 182.122 178.34 182.122 178.34 182.122L177.235 182.673C177.051 182.673 177.051 182.857 177.235 182.857L178.156 183.407C178.34 183.407 178.524 183.407 178.524 183.407L179.629 182.857V182.673ZM181.47 181.572L180.55 181.021C180.365 181.021 180.181 181.021 180.181 181.021L178.892 181.755C178.708 181.755 178.708 181.939 178.892 181.939L179.813 182.489C179.997 182.489 180.181 182.489 180.181 182.489L181.286 181.939C181.47 181.755 181.47 181.572 181.47 181.572ZM183.128 180.47L182.207 179.919C182.023 179.919 181.839 179.919 181.839 179.919L180.734 180.47C180.55 180.47 180.55 180.654 180.734 180.654L181.654 181.204C181.839 181.204 182.023 181.204 182.023 181.204L183.128 180.654C183.312 180.654 183.312 180.654 183.128 180.47ZM181.286 183.591L180.365 183.04C180.181 183.04 179.997 183.04 179.997 183.04L178.708 183.591C178.524 183.591 178.524 183.774 178.708 183.774L179.629 184.325C179.813 184.325 179.997 184.325 179.997 184.325L181.102 183.774C181.286 183.774 181.286 183.591 181.286 183.591ZM183.128 182.489L182.023 181.939C181.839 181.939 181.654 181.939 181.654 181.939L180.55 182.489C180.365 182.489 180.365 182.673 180.55 182.673L181.47 183.224C181.654 183.224 181.839 183.224 181.839 183.224L182.943 182.673C183.128 182.673 183.128 182.673 183.128 182.489ZM184.785 181.572L183.864 181.021C183.68 181.021 183.496 181.021 183.496 181.021L182.391 181.572C182.207 181.572 182.207 181.755 182.391 181.755L183.312 182.306C183.496 182.306 183.68 182.306 183.68 182.306L184.785 181.755C184.969 181.572 184.969 181.572 184.785 181.572ZM157.348 191.668L156.427 191.117C156.243 191.117 156.059 191.117 156.059 191.117L154.401 192.035C154.217 192.035 154.217 192.218 154.401 192.218L155.322 192.769C155.506 192.769 155.69 192.769 155.69 192.769L157.348 191.851C157.532 191.851 157.532 191.668 157.348 191.668ZM159.189 190.566L158.268 190.016C158.084 190.016 157.9 190.016 157.9 190.016L156.795 190.566C156.611 190.566 156.611 190.75 156.795 190.75L157.716 191.301C157.9 191.301 158.084 191.301 158.084 191.301L159.189 190.75C159.189 190.75 159.189 190.75 159.189 190.566ZM161.031 189.648L159.926 189.098C159.742 189.098 159.557 189.098 159.557 189.098L158.453 189.648C158.268 189.648 158.268 189.832 158.453 189.832L159.373 190.383C159.557 190.383 159.742 190.383 159.742 190.383L160.846 189.832C161.031 189.648 161.031 189.648 161.031 189.648ZM162.688 188.547L161.767 187.996C161.583 187.996 161.399 187.996 161.399 187.996L160.294 188.547C160.11 188.547 160.11 188.731 160.294 188.731L161.215 189.281C161.399 189.281 161.583 189.281 161.583 189.281L162.688 188.731C162.872 188.731 162.872 188.547 162.688 188.547ZM164.529 187.446L163.608 186.895C163.424 186.895 163.24 186.895 163.24 186.895L162.135 187.446C161.951 187.446 161.951 187.629 162.135 187.629L163.056 188.18C163.24 188.18 163.424 188.18 163.424 188.18L164.529 187.629C164.713 187.629 164.713 187.629 164.529 187.446ZM166.371 186.528L165.45 185.977C165.266 185.977 165.082 185.977 165.082 185.977L163.977 186.528C163.793 186.528 163.793 186.711 163.977 186.711L164.897 187.262C165.082 187.262 165.266 187.262 165.266 187.262L166.371 186.711V186.528ZM168.212 185.426L167.291 184.876C167.107 184.876 166.923 184.876 166.923 184.876L165.818 185.426C165.634 185.426 165.634 185.61 165.818 185.61L166.739 186.161C166.923 186.161 167.107 186.161 167.107 186.161L168.212 185.61V185.426ZM169.869 184.325L168.949 183.774C168.764 183.774 168.58 183.774 168.58 183.774L167.475 184.325C167.291 184.325 167.291 184.509 167.475 184.509L168.396 185.059C168.58 185.059 168.764 185.059 168.764 185.059L169.869 184.509C170.053 184.509 170.053 184.509 169.869 184.325ZM171.711 183.407L170.79 182.857C170.606 182.857 170.422 182.857 170.422 182.857L169.317 183.407C169.133 183.591 169.133 183.591 169.317 183.591L170.238 184.142C170.422 184.142 170.606 184.142 170.606 184.142L171.711 183.591C171.895 183.591 171.895 183.407 171.711 183.407ZM173.552 182.306L172.631 181.755C172.447 181.755 172.263 181.755 172.263 181.755L171.158 182.306C170.974 182.306 170.974 182.489 171.158 182.489L172.079 183.04C172.263 183.04 172.447 183.04 172.447 183.04L173.552 182.489C173.736 182.489 173.736 182.306 173.552 182.306ZM158.453 192.953L157.532 192.402C157.348 192.402 157.164 192.402 157.164 192.402L156.059 192.953C155.875 192.953 155.875 193.136 156.059 193.136L156.979 193.687C157.164 193.687 157.348 193.687 157.348 193.687L158.453 193.136V192.953ZM160.11 191.851L159.189 191.301C159.005 191.301 158.821 191.301 158.821 191.301L157.716 191.851C157.532 191.851 157.532 192.035 157.716 192.035L158.637 192.586C158.821 192.586 159.005 192.586 159.005 192.586L160.11 192.035C160.294 192.035 160.294 191.851 160.11 191.851ZM161.951 190.933L161.031 190.383C160.846 190.383 160.662 190.383 160.662 190.383L159.557 190.933C159.373 190.933 159.373 191.117 159.557 191.117L160.478 191.668C160.662 191.668 160.846 191.668 160.846 191.668L161.951 191.117C162.135 190.933 162.135 190.933 161.951 190.933ZM163.793 189.832L162.872 189.281C162.688 189.281 162.504 189.281 162.504 189.281L161.399 189.832C161.215 189.832 161.215 190.016 161.399 190.016L162.319 190.566C162.504 190.566 162.688 190.566 162.688 190.566L163.793 190.016V189.832ZM161.583 194.788L160.662 194.238C160.478 194.238 160.294 194.238 160.294 194.238L159.189 194.788C159.005 194.788 159.005 194.972 159.189 194.972L160.11 195.523C160.294 195.523 160.478 195.523 160.478 195.523L161.583 194.972C161.767 194.972 161.767 194.788 161.583 194.788ZM163.424 193.687L162.504 193.136C162.32 193.136 162.135 193.136 162.135 193.136L161.031 193.687C160.846 193.687 160.846 193.87 161.031 193.87L161.951 194.421C162.135 194.421 162.319 194.421 162.319 194.421L163.424 193.87C163.608 193.87 163.608 193.87 163.424 193.687ZM165.266 192.769L164.345 192.218C164.161 192.218 163.977 192.218 163.977 192.218L162.872 192.769C162.688 192.769 162.688 192.953 162.872 192.953L163.793 193.503C163.977 193.503 164.161 193.503 164.161 193.503L165.266 192.953V192.769ZM167.107 191.668L166.186 191.117C166.002 191.117 165.818 191.117 165.818 191.117L164.713 191.668C164.529 191.668 164.529 191.851 164.713 191.851L165.634 192.402C165.818 192.402 166.002 192.402 166.002 192.402L167.107 191.851V191.668ZM178.34 185.059L177.419 184.509C177.235 184.509 177.051 184.509 177.051 184.509L175.394 185.426C175.209 185.426 175.209 185.61 175.394 185.61L176.314 186.161C176.498 186.161 176.683 186.161 176.683 186.161L178.34 185.426C178.524 185.243 178.524 185.243 178.34 185.059ZM165.634 188.731L164.713 188.18C164.529 188.18 164.345 188.18 164.345 188.18L163.24 188.731C163.056 188.731 163.056 188.914 163.24 188.914L164.161 189.465C164.345 189.465 164.529 189.465 164.529 189.465L165.634 188.914C165.634 188.914 165.634 188.914 165.634 188.731ZM167.291 187.813L166.371 187.262C166.186 187.262 166.002 187.262 166.002 187.262L164.897 187.813C164.713 187.813 164.713 187.996 164.897 187.996L165.818 188.547C166.002 188.547 166.186 188.547 166.186 188.547L167.291 187.996C167.475 187.813 167.475 187.813 167.291 187.813ZM169.133 186.711L168.212 186.161C168.028 186.161 167.844 186.161 167.844 186.161L166.739 186.711C166.555 186.711 166.555 186.895 166.739 186.895L167.66 187.446C167.844 187.446 168.028 187.446 168.028 187.446L169.133 186.895C169.317 186.895 169.317 186.711 169.133 186.711ZM170.974 185.61L170.053 185.059C169.869 185.059 169.685 185.059 169.685 185.059L168.58 185.61C168.396 185.61 168.396 185.794 168.58 185.794L169.501 186.344C169.685 186.344 169.869 186.344 169.869 186.344L170.974 185.794C170.974 185.794 170.974 185.794 170.974 185.61ZM172.816 184.692L171.895 184.142C171.711 184.142 171.527 184.142 171.527 184.142L170.422 184.692C170.238 184.692 170.238 184.876 170.422 184.876L171.342 185.426C171.527 185.426 171.711 185.426 171.711 185.426L172.816 184.876V184.692ZM175.209 183.224L174.289 182.673C174.105 182.673 173.92 182.673 173.92 182.673L172.263 183.591C172.079 183.591 172.079 183.774 172.263 183.774L173.184 184.325C173.368 184.325 173.552 184.325 173.552 184.325L175.209 183.407C175.209 183.407 175.209 183.407 175.209 183.224ZM160.662 193.503L159.742 192.953C159.557 192.953 159.373 192.953 159.373 192.953L157.716 193.87C157.532 193.87 157.532 194.054 157.716 194.054L158.637 194.605C158.821 194.605 159.005 194.605 159.005 194.605L160.662 193.687V193.503ZM162.504 192.402L161.583 191.851C161.399 191.851 161.215 191.851 161.215 191.851L159.926 192.586V192.769L160.846 193.32C161.031 193.32 161.215 193.32 161.215 193.32L162.319 192.769C162.504 192.586 162.504 192.586 162.504 192.402ZM164.161 191.484L163.24 190.933C163.056 190.933 162.872 190.933 162.872 190.933L161.767 191.484C161.583 191.484 161.583 191.668 161.767 191.668L162.688 192.218C162.872 192.218 163.056 192.218 163.056 192.218L164.161 191.668C164.345 191.668 164.345 191.484 164.161 191.484ZM166.002 190.383L165.082 189.832C164.897 189.832 164.713 189.832 164.713 189.832L163.608 190.566C163.424 190.566 163.424 190.75 163.608 190.75L164.529 191.301C164.713 191.301 164.897 191.301 164.897 191.301L166.002 190.75C166.186 190.566 166.186 190.383 166.002 190.383ZM167.844 189.465L166.923 188.914C166.739 188.914 166.555 188.914 166.555 188.914L165.45 189.465C165.266 189.465 165.266 189.648 165.45 189.648L166.371 190.199C166.555 190.199 166.739 190.199 166.739 190.199L167.844 189.648C167.844 189.465 167.844 189.465 167.844 189.465ZM176.13 186.528L175.209 185.977C175.025 185.977 174.841 185.977 174.841 185.977L166.555 190.75C166.371 190.75 166.371 190.933 166.555 190.933L167.475 191.484C167.66 191.484 167.844 191.484 167.844 191.484L176.13 186.711V186.528ZM169.685 188.364L168.764 187.813C168.58 187.813 168.396 187.813 168.396 187.813L167.291 188.364C167.107 188.364 167.107 188.547 167.291 188.547L168.212 189.098C168.396 189.098 168.58 189.098 168.58 189.098L169.685 188.547V188.364ZM171.342 187.262L170.422 186.711C170.238 186.711 170.053 186.711 170.053 186.711L168.949 187.262C168.764 187.262 168.764 187.446 168.949 187.446L169.869 187.996C170.053 187.996 170.238 187.996 170.238 187.996L171.342 187.446C171.527 187.446 171.527 187.446 171.342 187.262ZM173.184 186.344L172.263 185.794C172.079 185.794 171.895 185.794 171.895 185.794L170.79 186.344C170.606 186.344 170.606 186.528 170.79 186.528L171.711 187.079C171.895 187.079 172.079 187.079 172.079 187.079L173.184 186.528C173.368 186.344 173.368 186.344 173.184 186.344ZM175.025 185.243L174.105 184.692C173.92 184.692 173.736 184.692 173.736 184.692L172.631 185.243C172.447 185.243 172.447 185.426 172.631 185.426L173.552 185.977C173.736 185.977 173.92 185.977 173.92 185.977L175.025 185.426C175.209 185.426 175.209 185.243 175.025 185.243ZM176.867 184.142L175.946 183.591C175.762 183.591 175.578 183.591 175.578 183.591L174.473 184.142C174.289 184.142 174.289 184.325 174.473 184.325L175.394 184.876C175.578 184.876 175.762 184.876 175.762 184.876L176.867 184.325C176.867 184.325 176.867 184.325 176.867 184.142ZM174.657 179.736L173.736 179.185C173.552 179.185 173.368 179.185 173.368 179.185L172.263 179.919C172.079 179.919 172.079 180.103 172.263 180.103L173.184 180.654C173.368 180.654 173.552 180.654 173.552 180.654L174.657 179.919C174.841 179.919 174.841 179.919 174.657 179.736ZM176.498 178.818L175.578 178.267C175.394 178.267 175.209 178.267 175.209 178.267L174.105 178.818C173.92 178.818 173.92 179.002 174.105 179.002L175.025 179.552C175.209 179.552 175.394 179.552 175.394 179.552L176.498 179.002C176.498 178.818 176.498 178.818 176.498 178.818ZM178.34 177.717L177.419 177.166C177.235 177.166 177.051 177.166 177.051 177.166L175.946 177.717C175.762 177.717 175.762 177.9 175.946 177.9L176.867 178.451C177.051 178.451 177.235 178.451 177.235 178.451L178.34 177.9V177.717ZM179.997 178.635L178.892 178.084C178.708 178.084 178.524 178.084 178.524 178.084L177.419 178.635C177.235 178.635 177.235 178.818 177.419 178.818L178.34 179.369C178.524 179.369 178.708 179.369 178.708 179.369L179.813 178.818C179.997 178.818 179.997 178.635 179.997 178.635ZM181.47 179.552L180.55 179.002C180.55 179.002 180.365 179.002 180.181 179.002L178.708 179.919H178.524L177.235 179.185C177.051 179.185 176.867 179.185 176.683 179.185L173.92 180.837C173.736 180.837 173.736 181.021 173.92 181.204L176.314 182.673C176.498 182.673 176.683 182.673 176.867 182.673L181.47 179.919C181.654 179.736 181.654 179.552 181.47 179.552Z" fill="#364157"/>
<path d="M205.04 254.263L173.184 272.986L192.334 284L224.375 265.46L205.04 254.263Z" fill="#F9F9FB"/>
<path d="M224.743 265.828C224.743 265.644 224.559 265.644 224.559 265.644C224.559 265.644 224.559 265.644 224.375 265.461L192.334 284.001L192.518 287.489L224.559 268.948C225.111 268.581 225.111 266.562 224.743 265.828Z" fill="#DDDDDF"/>
<path d="M204.303 253.529C203.935 253.161 203.567 252.611 203.383 251.877C203.014 251.142 202.83 250.224 202.83 249.49V222.69C202.83 221.588 203.198 221.038 203.751 220.67L170.789 237.558C170.237 237.926 169.685 240.128 169.685 241.23L169.952 269.052C169.952 269.786 170.136 270.704 170.505 271.438C170.689 271.989 171.057 272.539 171.425 273.09C171.794 273.457 171.978 273.641 172.346 273.824L205.408 254.263C204.856 254.079 204.487 253.896 204.303 253.529Z" fill="#DDDDE1"/>
<path d="M205.224 217.55C203.935 216.815 202.831 216.815 201.91 217.366L169.869 236.744C170.79 236.193 171.895 236.193 173.184 236.928L190.309 246.84L222.35 227.279L205.224 217.55Z" fill="white"/>
<path d="M210.748 170.924C209.275 172.026 211.116 181.388 204.119 183.774C203.382 183.958 202.093 183.407 201.541 183.223C200.252 182.856 188.835 178.634 188.835 178.634C188.283 178.267 186.81 176.615 185.521 175.881C184.6 175.33 183.679 174.963 182.759 174.779C182.574 174.779 182.022 174.779 181.654 174.779C179.076 175.881 176.866 178.083 176.498 178.451C176.314 178.634 176.129 178.818 176.314 179.001C176.314 179.185 176.498 179.185 176.682 179.185C176.498 179.736 177.05 179.919 177.234 179.919C177.603 179.919 178.339 179.552 178.339 179.552C178.523 179.552 178.707 179.552 178.892 179.552C180.549 179.919 182.39 180.286 182.759 180.653C183.311 181.021 182.022 181.755 182.022 181.755C182.022 181.755 180.365 181.571 180.181 181.571C179.628 181.571 178.892 181.938 179.076 182.305C179.076 182.673 179.444 182.673 179.628 182.856C180.181 183.04 181.838 183.407 181.838 183.407C182.39 183.223 186.073 182.673 186.073 182.673C186.073 182.673 213.694 190.933 214.063 190.933C214.983 191.117 217.93 186.711 218.298 182.856C218.85 179.001 215.72 167.437 210.748 170.924Z" fill="#FFCCAA"/>
<path d="M214.248 184.875C215.905 184.692 217.93 184.141 219.035 183.407C219.035 180.286 219.035 173.127 218.483 170.19C217.01 163.582 209.276 161.195 207.803 170.557C207.25 173.494 206.882 183.04 206.882 183.04C208.907 184.692 211.67 185.059 214.248 184.875Z" fill="#FB6D3A"/>
<path d="M213.879 216.448C213.879 216.448 185.889 210.941 183.311 210.024C175.393 207.637 171.342 216.265 171.71 217.733C166.554 216.815 159.741 218.1 157.531 229.298L160.293 227.646C163.976 230.032 180.917 236.641 186.626 239.394C193.439 242.515 212.958 234.621 213.695 226.912C213.695 226.912 213.879 217.55 213.879 216.448Z" fill="#1E2940"/>
<path d="M213.51 164.867C206.881 164.683 193.07 173.494 189.756 176.064C189.756 176.064 189.94 185.609 189.019 195.706C188.651 201.029 186.073 218.651 185.521 222.506C185.521 223.057 185.521 223.791 186.073 224.158C192.518 230.216 210.011 227.462 214.063 217.733C214.063 207.821 218.298 165.417 213.51 164.867Z" fill="#FB6D3A"/>
<path d="M208.907 166.702C208.723 166.519 208.723 166.335 208.723 165.968C208.723 165.417 208.723 164.867 208.723 164.316C208.723 163.582 208.723 162.664 208.539 161.93C208.354 160.828 207.065 161.195 206.145 161.012C204.672 160.461 203.198 160.461 201.541 160.277C201.357 160.277 200.989 160.277 200.805 160.094C200.436 159.91 200.252 159.727 199.884 159.727C199.7 159.727 199.332 159.727 198.963 159.543C198.779 159.543 196.938 158.993 196.938 158.809C197.49 161.379 198.043 167.437 198.043 170.557C198.043 170.557 195.28 172.576 194.912 172.76C197.674 175.146 204.303 173.127 207.986 170.19C208.539 169.639 209.275 169.089 209.459 168.354C209.643 167.62 209.091 167.253 208.907 166.702Z" fill="#FFCCAA"/>
<path d="M195.28 181.938C193.807 178.267 189.756 177.349 187.178 181.204C186.073 182.856 185.153 187.996 182.391 195.889L181.286 195.338C171.158 189.832 170.605 190.015 170.237 188.73C169.869 187.812 169.316 185.977 168.948 185.61C168.948 185.61 167.475 184.141 167.107 183.957C166.923 183.774 166.554 183.774 166.186 183.957C166.002 184.141 166.002 184.325 166.002 184.508C165.818 184.508 165.449 184.325 165.265 184.325C162.319 184.508 160.662 186.711 160.478 186.894C160.109 187.078 160.109 187.078 160.109 187.445C160.109 187.629 160.294 187.629 160.478 187.812C160.109 188.179 160.478 188.547 160.846 188.547C161.214 188.547 161.951 188.547 161.951 188.547C162.135 188.547 162.319 188.547 162.503 188.73C163.976 189.648 164.529 189.832 164.713 190.382C169.501 195.706 183.68 206.169 186.626 204.333C191.229 201.396 197.122 186.711 195.28 181.938Z" fill="#FFCCAA"/>
<path d="M188.835 196.44C190.492 196.623 192.518 196.623 193.807 196.073C194.544 193.136 196.201 185.977 196.201 182.672C196.385 175.697 189.388 171.658 185.889 180.653C184.784 183.407 182.206 192.768 182.206 192.768C183.679 194.971 186.257 196.073 188.835 196.44Z" fill="#FB6D3A"/>
<path d="M192.886 210.024L192.334 222.69L192.702 249.123C192.702 249.674 192.518 250.041 192.334 250.225L224.375 231.501C224.559 231.317 224.743 230.95 224.743 230.4V191.484L192.886 210.024Z" fill="#DDDDDF"/>
<path d="M224.928 191.3C224.928 191.116 224.744 191.116 224.744 190.933C224.559 190.566 224.191 190.382 223.823 190.199C223.27 190.015 222.902 189.831 222.718 189.831L190.493 208.372L192.887 210.024L224.928 191.484V191.3Z" fill="white"/>
<path d="M192.334 284L173.183 272.986C171.894 272.252 170.605 270.049 170.605 268.214V241.413C170.605 239.578 171.71 238.66 173.183 239.578L191.597 250.224C192.334 250.592 192.886 250.224 192.886 249.307V210.391C192.886 209.84 192.15 209.289 191.597 208.922C190.861 208.555 190.309 208.371 190.309 208.922V246.186L173.183 236.273C170.421 234.621 168.027 236.273 168.027 240.128V266.929C168.027 270.6 170.237 275.006 173.183 276.658L192.334 287.672C193.071 287.855 193.071 284.368 192.334 284Z" fill="#EBECF3"/>
<path d="M192.703 156.055C192.887 158.075 193.256 159.91 193.44 161.93C193.808 163.765 194.176 165.601 194.545 167.253C194.545 167.62 194.729 167.987 194.913 168.354C195.097 168.721 195.465 168.905 195.834 169.272C197.675 170.374 199.148 170.006 201.174 169.823C202.831 169.639 204.304 169.089 205.777 168.354C206.698 167.987 207.435 167.436 207.987 166.519C208.355 165.784 208.539 165.05 208.539 164.132C208.539 160.277 206.882 156.79 205.041 153.486C204.488 152.568 204.12 151.65 203.383 150.916C201.91 149.264 199.517 148.713 197.123 148.346C195.834 148.162 194.176 147.979 193.256 149.08C192.519 149.814 192.335 150.916 192.335 151.833C192.335 152.935 192.519 154.587 192.703 156.055Z" fill="#FFCCAA"/>
<path d="M191.598 150.549C191.782 152.201 192.335 153.853 192.519 154.587C192.519 154.771 192.703 155.138 192.887 155.321C193.255 156.056 193.808 156.79 193.992 157.524C194.176 158.442 193.992 159.543 194.728 160.278C194.913 160.461 195.097 160.645 195.281 160.461C195.465 160.461 195.649 160.094 195.649 159.91C195.833 159.36 196.017 158.258 196.57 158.075C197.306 157.891 198.227 158.993 198.411 159.543C198.78 160.461 198.411 161.379 198.595 162.297C198.78 164.316 199.332 165.968 201.358 166.152C202.647 166.335 204.12 166.335 205.409 165.968C209.092 165.05 211.485 162.113 211.854 158.625C212.406 154.954 212.222 150.365 210.012 147.061C208.539 144.675 205.409 143.94 202.462 144.307C199.884 144.675 198.043 144.675 194.36 146.694C193.071 147.428 191.414 149.264 191.598 150.549Z" fill="#2E2C34"/>
<path d="M191.598 150.548C191.782 152.201 192.335 153.853 192.519 154.587C192.519 154.77 192.703 155.138 192.887 155.321C196.386 152.751 197.675 149.814 194.544 146.694C193.071 147.428 191.414 149.264 191.598 150.548Z" fill="#2E2C34"/>
<path d="M156.794 174.228L143.536 181.938L149.06 185.059L162.319 177.533L156.794 174.228Z" fill="#1E2A3D"/>
<path d="M162.319 177.533L149.061 185.059C149.061 185.243 149.061 185.61 149.061 185.793L162.319 178.084C162.503 178.267 162.503 177.717 162.319 177.533Z" fill="#1D293C"/>
<path d="M155.69 172.944C155.506 172.393 155.322 171.842 155.506 171.475L159.189 163.582L145.931 171.292L142.248 179.185C142.064 179.552 142.064 180.103 142.432 180.653C142.616 181.021 142.693 181.271 142.877 181.454C143.061 181.638 143.388 181.965 143.537 181.938L156.795 174.229C156.611 174.045 156.427 173.862 156.243 173.678C156.059 173.494 155.874 173.311 155.69 172.944Z" fill="#172030"/>
<path d="M149.061 185.059L143.537 181.939C143.168 181.755 142.8 181.204 142.432 180.654C142.248 180.103 142.063 179.552 142.248 179.185L145.93 171.292V171.108V163.398C145.93 163.215 145.746 162.848 145.562 162.848C145.378 162.664 145.194 162.848 145.194 163.031V170.741L141.695 178.634C141.511 179.185 141.511 179.919 141.879 180.837C142.248 181.755 142.8 182.489 143.537 182.856L149.061 185.784C149.245 185.784 149.245 185.243 149.061 185.059Z" fill="#1D293C"/>
<path d="M159.189 155.505C159.189 155.505 159.189 155.322 159.004 155.322L158.82 155.138H158.636L145.378 162.848H145.562C145.562 162.848 145.746 162.848 145.746 163.031L145.93 163.215V163.398V171.108V171.292L159.189 163.582V163.398V155.689V155.505Z" fill="#B2B9BB"/>
<path d="M181.654 112.734L181.838 153.853L121.439 188.547L120.887 181.571L120.519 146.877L181.654 112.734Z" fill="#1E2A3D"/>
<path d="M121.439 188.547L120.335 187.996L120.15 146.694L121.439 147.428V188.547Z" fill="#1D293C"/>
<path d="M121.439 147.428L120.15 146.694L180.549 112L181.654 112.734L121.439 147.428Z" fill="#34455F"/>
<path opacity="0.1" d="M121.808 147.612L181.285 113.469V147.061L121.808 181.204V147.612Z" fill="#A39DAB"/>
<path opacity="0.8" d="M127.148 147.245C127.885 146.877 128.253 147.979 127.701 148.897C127.332 149.814 126.596 149.998 126.596 148.897C126.228 149.631 125.491 151.099 125.491 150.182C125.491 149.631 125.675 148.53 125.675 147.979C125.675 147.795 125.675 147.795 125.859 147.795C125.859 147.795 125.859 147.795 125.859 147.979C125.675 148.713 125.675 149.447 125.675 149.998C125.859 149.631 126.043 149.447 126.228 149.08C126.596 148.53 126.78 148.346 126.78 148.897C126.78 149.08 126.964 149.264 127.148 149.264C127.885 148.897 127.885 146.877 127.148 147.245C126.964 147.612 127.148 147.612 127.148 147.245C126.964 147.428 126.964 147.428 127.148 147.245ZM131.015 146.51C131.015 146.51 129.174 147.979 129.174 147.795C128.99 147.795 131.015 146.327 131.015 146.51ZM131.015 145.776L130.647 145.96C128.069 147.979 129.358 146.694 131.015 145.776C131.015 145.592 131.199 145.776 131.015 145.776ZM132.488 147.428C132.304 147.612 132.12 147.979 132.12 147.612C132.12 147.428 132.488 146.143 132.488 146.143C131.936 147.245 131.015 147.428 131.568 146.143C132.12 144.675 132.857 144.491 132.857 144.858C132.857 145.042 132.857 145.042 132.672 144.858C132.12 144.675 131.199 147.061 131.752 146.694C132.12 146.51 132.488 145.96 132.672 145.225C132.672 145.225 132.857 145.042 132.857 145.225C132.857 145.409 132.304 147.245 132.304 147.428C132.857 146.877 133.041 146.694 132.488 147.428ZM133.593 143.573C133.777 143.757 133.593 144.308 133.409 144.491C132.857 147.061 134.514 145.042 134.514 143.573C134.514 143.39 134.514 142.839 134.698 143.023C134.882 143.206 134.514 144.675 134.514 145.042C133.961 146.327 133.225 146.327 133.225 145.776C133.225 145.592 133.593 143.573 133.593 143.573ZM135.987 144.858C135.987 144.675 137.276 140.82 137.276 141.003C137.46 141.187 136.171 144.491 135.987 144.675C136.171 144.858 136.171 145.042 135.987 144.858ZM138.381 141.187L138.197 141.37C138.013 141.37 138.749 140.269 139.117 140.453C139.67 140.636 138.749 142.105 138.381 142.472C138.197 142.655 138.013 143.023 137.828 143.206C138.013 143.206 139.117 142.105 139.117 142.288C139.117 142.472 138.013 143.206 137.828 143.206C137.644 143.206 137.644 143.206 137.644 143.206C137.644 143.023 138.013 142.655 138.197 142.472C139.302 141.003 139.117 140.269 138.749 140.636C138.565 140.82 138.381 141.003 138.381 141.187ZM141.511 140.269C141.695 140.269 141.695 140.269 141.695 140.269L140.775 141.003C139.117 142.288 139.854 141.37 141.511 140.269ZM141.143 140.086C139.67 141.187 139.486 141.003 140.775 140.269C141.88 139.351 142.432 139.168 141.143 140.086ZM142.432 141.738C142.432 141.738 142.248 142.105 142.064 142.105C141.88 142.288 142.248 140.82 142.432 140.453C142.248 140.82 141.695 141.37 141.511 141.37C140.959 141.187 142.064 139.351 142.432 139.168C142.8 138.984 142.984 139.535 142.616 139.351C142.432 139.351 142.248 139.535 142.064 139.902C140.775 142.105 142.248 141.554 142.616 139.902C142.616 139.902 142.8 139.718 142.8 139.902C142.8 140.086 142.248 141.921 142.248 142.105C142.8 141.187 143.169 141.003 142.432 141.738ZM144.089 138.433C144.273 138.433 143.537 138.984 143.537 138.984C143.169 139.168 143.353 138.801 143.721 138.433C144.273 137.699 144.089 137.332 143.721 137.699C143.537 137.883 143.353 137.883 143.721 137.516C144.089 136.965 144.458 137.332 144.089 138.066C143.905 138.25 143.721 138.433 143.537 138.801C144.089 138.25 144.089 138.433 144.089 138.433ZM144.458 140.086C144.273 140.086 145.747 136.047 145.747 136.231C146.115 136.047 145.562 137.332 145.378 137.699C145.01 138.617 145.01 138.984 144.642 139.902C144.458 139.902 144.458 140.086 144.458 140.086ZM146.667 136.414C146.483 136.598 146.299 136.598 146.667 136.231C147.588 135.129 148.509 135.864 146.299 138.617C146.483 138.617 147.588 137.516 147.588 137.699C147.588 137.883 146.483 138.617 146.299 138.617C146.115 138.617 146.115 138.617 146.115 138.617C146.115 138.433 146.483 138.066 146.667 137.883C147.956 135.864 147.404 135.496 146.667 136.414ZM150.35 133.844V134.762C149.982 133.844 149.061 134.579 148.693 135.496C148.14 137.332 149.429 137.516 150.35 135.864C150.166 136.231 149.982 136.414 149.982 136.598C148.14 138.801 147.22 135.68 149.429 134.395C149.798 134.211 150.166 134.211 150.166 134.211C150.166 134.028 150.166 134.028 150.35 133.844ZM152.744 134.028C152.744 134.028 150.903 135.496 150.903 135.313C150.718 135.313 152.744 133.844 152.744 134.028ZM152.744 133.294L152.376 133.477C149.798 135.496 151.087 134.028 152.744 133.294C152.744 133.11 152.744 133.294 152.744 133.294ZM153.849 132.192C153.296 132.192 152.56 133.844 152.56 134.395C152.56 134.762 152.928 134.762 153.481 134.028C154.033 133.294 153.849 133.844 153.296 134.395C152.56 135.129 151.823 134.946 152.376 133.661C152.744 133.11 153.296 132.192 153.849 132.192C154.033 131.825 154.217 132.192 153.849 132.192ZM154.954 131.458C155.138 131.641 154.585 133.294 154.77 133.661C154.954 133.844 156.059 132.559 155.874 131.091C155.874 130.907 155.874 130.907 155.874 130.907C155.874 130.907 156.059 130.907 156.059 131.091C156.059 133.477 154.033 135.496 154.585 132.743C154.77 131.825 154.77 131.458 154.954 131.458C154.77 131.458 154.77 131.274 154.954 131.458ZM158.452 130.173C158.452 129.989 158.452 129.989 158.452 130.173C158.636 129.989 158.636 129.989 158.452 130.173C158.452 130.357 157.9 130.724 157.9 130.724H157.716L158.084 130.173C158.268 129.989 158.452 129.622 158.452 129.439C158.452 129.255 158.268 129.255 158.084 129.439L157.9 129.622C157.716 129.622 157.9 129.439 157.9 129.439C158.084 129.255 158.268 129.072 158.452 129.255C158.636 129.439 158.452 129.806 158.452 129.989C158.268 130.173 158.084 130.357 157.9 130.724C158.452 129.989 158.452 130.173 158.452 130.173ZM158.821 131.825C158.636 131.825 159.925 128.154 160.11 128.154V127.97C160.11 127.97 160.294 127.97 160.294 128.154C160.294 128.337 159.925 129.255 159.925 129.439C159.557 130.357 159.557 130.724 159.189 131.641C159.005 131.641 159.005 131.825 158.821 131.825ZM161.214 128.154C161.03 128.154 161.03 128.154 161.214 128.154C161.03 128.337 160.846 128.337 161.214 127.97C161.399 127.787 161.767 127.419 161.951 127.603C162.135 127.787 162.135 128.154 161.951 128.521C161.767 129.072 161.03 129.989 160.662 130.54C160.662 130.54 161.03 130.357 161.214 130.173C161.951 129.622 161.951 129.622 161.951 129.622C161.951 129.806 160.846 130.724 160.478 130.724C160.478 130.724 160.478 130.54 160.662 130.54C160.662 130.357 160.846 130.173 161.03 130.173C162.503 127.603 161.767 127.052 161.214 128.154ZM126.043 153.302C126.043 153.302 126.043 153.119 126.043 153.302C126.412 153.486 125.675 155.872 125.675 155.872C125.491 156.056 125.675 154.954 125.859 154.587C126.043 153.486 126.043 153.302 126.043 153.302ZM127.148 155.689L127.332 153.302C127.332 153.119 127.517 153.119 127.517 153.302C127.517 153.486 127.332 155.872 127.148 155.689ZM130.094 152.384C130.094 152.384 128.253 153.853 128.253 153.669C127.885 153.669 130.094 152.201 130.094 152.384ZM130.094 151.65L129.726 151.834C127.148 153.853 128.253 152.568 130.094 151.65C130.094 151.467 130.094 151.65 130.094 151.65ZM130.831 150.549C130.831 150.549 131.015 150.365 130.831 150.549C131.015 150.732 130.463 153.302 130.463 153.119C130.279 153.119 130.831 150.365 130.831 150.549ZM132.304 150.549L132.12 150.732C131.936 150.732 132.672 149.631 133.041 149.814C133.777 150.182 132.304 152.017 131.752 152.568C131.936 152.384 132.857 151.834 133.041 151.65C133.593 151.467 131.568 153.119 131.752 152.568C131.752 152.384 132.488 151.467 132.672 151.283C133.409 150.182 133.041 149.814 132.857 149.814C132.672 150.365 132.488 150.549 132.304 150.549ZM134.882 149.631C134.882 149.631 133.041 151.099 133.041 150.916C132.857 150.916 134.882 149.447 134.882 149.631ZM134.882 148.897L134.514 149.08C131.936 151.099 133.041 149.814 134.882 148.897C134.882 148.713 135.066 148.713 134.882 148.897ZM135.619 147.795C135.619 147.612 135.803 147.612 135.619 147.795C135.987 147.979 135.25 150.365 135.25 150.365C135.066 150.549 135.25 149.447 135.435 149.08C135.619 147.979 135.619 147.795 135.619 147.795ZM136.355 150.182C136.724 149.814 136.539 149.631 136.539 149.631C136.355 149.631 136.539 149.264 136.724 149.264C136.908 149.264 136.724 149.814 136.539 149.998C136.171 150.549 135.987 150.732 136.355 150.182ZM138.933 145.96C139.117 146.143 138.933 146.694 138.749 146.877C138.197 149.447 139.854 147.428 139.854 145.96C139.854 145.776 139.854 145.225 140.038 145.409C140.406 145.592 139.854 147.795 138.933 148.346C138.565 148.53 138.381 148.346 138.381 147.979C138.381 147.979 138.749 145.96 138.933 145.96C138.749 145.96 138.749 145.96 138.933 145.96ZM141.511 147.245C141.511 147.245 141.695 146.143 141.695 145.042C141.695 144.858 141.88 144.858 141.88 145.042C141.88 147.245 141.511 147.612 141.511 147.245ZM143.537 144.491C143.537 144.675 143.353 145.776 143.353 145.409C143.353 145.409 143.353 144.675 143.537 144.491C143.353 144.675 142.8 145.042 142.616 145.042C142.248 144.858 143.169 144.491 143.537 144.491C143.353 144.308 143.537 143.573 143.537 143.573C143.537 143.573 143.721 143.573 143.721 143.757C143.721 143.757 143.721 144.124 143.537 144.491C143.721 144.308 144.273 143.94 144.458 143.94C144.642 143.573 144.826 143.757 143.537 144.491ZM145.378 142.288C145.562 142.472 145.378 143.023 145.194 143.206C144.642 145.776 146.483 143.757 146.299 141.921C146.299 141.738 146.299 141.738 146.299 141.738C146.299 141.738 146.483 141.738 146.483 141.921C146.483 144.491 144.458 146.143 145.01 143.573C145.194 142.655 145.194 142.288 145.378 142.288C145.194 142.288 145.194 142.105 145.378 142.288ZM148.509 141.37L148.325 141.554C148.14 141.554 148.877 140.453 149.245 140.636C149.982 141.003 148.509 142.839 147.956 143.39C148.14 143.206 149.061 142.655 149.245 142.472C149.798 142.105 148.693 143.206 148.14 143.39C147.956 143.39 147.956 143.39 147.956 143.39C147.956 143.206 148.325 142.839 148.509 142.655C148.877 142.288 149.614 141.003 149.245 140.636H149.061C148.693 141.003 148.509 141.187 148.509 141.37ZM149.798 141.003C152.192 139.351 150.35 141.003 149.061 141.738C148.877 141.554 149.614 141.187 149.798 141.003ZM150.903 139.535C150.903 139.535 150.35 139.902 150.166 140.086C149.982 140.086 149.061 140.82 149.061 140.82H148.877C149.061 140.636 150.718 139.718 150.903 139.535C151.087 139.535 151.087 139.535 150.903 139.535ZM151.823 138.617C152.007 138.801 151.823 139.351 151.639 139.535C151.087 142.105 152.744 140.086 152.744 138.25C152.744 138.066 152.744 138.066 152.744 138.066C153.112 137.883 152.928 140.453 151.823 141.003C151.455 141.187 151.271 141.003 151.271 140.636C151.271 140.453 151.639 138.617 151.823 138.617C151.639 138.617 151.639 138.433 151.823 138.617ZM153.849 140.269C153.849 140.269 154.217 139.718 154.217 139.535C154.217 139.351 154.217 139.351 154.033 139.351C153.849 139.351 153.849 139.351 154.033 139.168C154.217 138.801 154.77 138.984 154.217 139.718C154.217 139.902 153.849 140.453 153.849 140.269ZM155.69 138.433L156.059 136.231C155.69 136.231 156.611 135.496 157.163 135.496C157.716 135.496 157.163 136.414 156.795 136.781C156.243 137.332 155.874 137.332 156.979 137.699C156.979 137.699 157.163 137.699 157.163 137.883C157.163 138.25 156.059 137.883 155.874 137.699C155.874 137.883 155.69 138.25 155.69 138.617C155.874 138.433 155.874 138.617 155.69 138.433ZM156.243 137.148C156.427 136.781 157.347 136.231 157.347 135.68C157.347 135.313 156.795 135.68 156.427 136.047C156.427 136.231 156.243 137.148 156.243 137.148ZM158.636 137.332C158.636 137.332 158.821 136.231 158.821 135.129C158.821 134.946 159.005 134.946 159.005 135.129C159.005 137.516 158.636 137.883 158.636 137.332ZM160.662 134.579C160.662 134.579 160.478 135.496 160.478 135.68C160.294 135.68 160.478 134.946 160.662 134.579C160.478 134.762 159.741 135.129 159.741 135.129C159.741 135.129 159.557 134.946 159.741 134.946C160.11 134.762 160.11 134.762 160.662 134.579C160.478 134.395 160.662 133.661 160.662 133.661C160.846 133.477 160.662 134.211 160.662 134.395C160.846 134.211 161.399 133.844 161.583 133.844C161.767 133.661 161.767 133.844 160.662 134.579ZM161.951 134.946C161.767 134.946 162.135 134.028 162.135 133.844C162.319 133.294 162.319 132.926 162.319 132.743C161.951 132.743 162.872 132.009 163.424 132.009C163.608 132.009 163.608 132.009 163.608 132.192C163.608 132.559 163.24 132.926 163.056 133.11C162.503 133.661 162.135 133.661 163.24 134.028C163.24 134.028 163.424 134.028 163.424 134.211C163.424 134.395 162.872 134.395 162.688 134.211C162.319 134.211 162.135 134.028 162.135 133.844C162.135 134.028 161.951 134.211 161.951 134.579V134.762C161.951 134.762 161.951 135.129 161.951 134.946ZM162.319 133.661C162.688 133.294 162.872 133.11 163.24 132.559C163.608 132.009 163.24 131.825 162.503 132.559C162.503 132.743 162.319 133.477 162.319 133.661ZM165.266 131.825L165.081 132.009C164.897 132.009 165.634 130.907 166.002 131.091C166.555 131.274 165.634 132.743 165.266 133.11C165.081 133.294 164.897 133.661 164.713 133.844C164.713 133.844 165.081 133.661 165.266 133.477C166.37 132.743 166.186 132.926 165.45 133.477C165.266 133.661 164.529 134.211 164.529 134.028C164.529 133.844 165.266 132.926 165.45 132.743C166.186 131.641 165.818 131.274 165.634 131.274C165.45 131.458 165.266 131.641 165.266 131.825ZM166.555 131.458C168.212 130.357 168.212 130.54 166.37 131.825C165.634 132.192 165.45 132.192 166.555 131.458ZM167.659 129.989L167.291 130.173C164.713 132.192 165.818 130.907 167.659 129.989C167.844 129.806 167.844 129.989 167.659 129.989ZM168.028 131.458L168.396 129.255C168.028 129.255 168.948 128.521 169.501 128.521C169.869 128.521 169.685 129.072 169.501 129.255C168.948 130.173 168.028 129.989 169.133 130.357C170.237 130.724 168.58 130.724 168.396 130.173C168.396 130.357 168.212 130.724 168.212 131.091C168.212 131.274 168.028 131.458 168.028 131.458ZM168.396 130.173C168.58 129.806 169.501 129.255 169.501 128.704C169.501 128.337 168.948 128.704 168.58 129.072C168.58 129.255 168.396 129.989 168.396 130.173ZM127.332 159.911L127.701 160.461C127.701 160.645 127.517 160.645 127.332 160.094C125.859 162.113 126.228 158.442 127.517 157.708C127.885 157.341 128.437 158.258 127.332 159.911ZM127.148 159.911C126.964 159.543 126.78 158.809 126.964 158.442C126.043 159.727 126.228 161.196 127.148 159.911ZM127.332 159.727C127.517 159.36 128.069 158.258 127.701 157.891C127.332 157.524 126.78 158.442 127.332 159.727ZM130.463 157.341C130.463 157.341 128.621 158.809 128.621 158.626C128.437 158.626 130.463 157.157 130.463 157.341ZM130.463 156.606L130.094 156.79C127.517 158.809 128.621 157.524 130.463 156.606C130.647 156.423 130.647 156.606 130.463 156.606ZM131.383 155.505C131.383 155.321 131.383 155.321 131.383 155.505C131.752 155.689 131.015 158.075 131.015 158.075C130.831 158.258 131.015 157.157 131.199 156.79C131.383 155.689 131.383 155.505 131.383 155.505ZM132.488 155.138C132.304 155.138 132.304 155.138 132.672 154.771C132.857 154.587 133.225 154.22 133.409 154.404C134.146 154.771 132.672 156.606 132.12 157.157C132.304 157.157 133.409 156.056 133.409 156.239C133.409 156.423 132.304 157.157 132.12 157.157C131.936 157.157 131.936 157.157 131.936 157.157C131.936 156.974 132.304 156.606 132.488 156.423C133.593 154.954 133.409 154.22 133.041 154.587C132.857 154.771 132.672 155.138 132.488 155.138ZM134.146 156.239L134.514 154.036C134.33 154.036 134.514 153.853 134.698 153.669C135.803 152.752 136.539 153.302 134.882 154.771C134.698 154.954 134.514 154.954 135.25 155.138C136.355 155.505 134.698 155.505 134.514 154.954C134.514 155.138 134.33 156.239 134.146 156.239ZM134.698 154.771L134.882 154.587C136.171 153.302 135.803 152.935 134.882 153.853L134.698 154.771ZM136.724 153.119C136.724 153.486 136.171 154.771 136.539 154.587C136.908 154.404 137.092 154.036 137.092 154.036C137.46 153.853 136.539 154.954 136.355 154.771C136.171 154.771 136.539 153.486 136.539 153.119C136.171 153.669 135.987 153.486 136.724 153.119C136.539 152.752 136.539 152.752 136.724 152.568V152.384C136.908 152.201 136.908 152.752 136.724 152.935C137.46 152.384 137.828 152.384 136.724 153.119ZM169.685 124.85H170.237C170.237 125.033 169.685 125.217 169.317 125.033C168.396 124.666 169.317 122.647 169.869 121.729C170.053 121.545 170.606 120.628 170.606 120.995C170.606 120.995 169.869 122.096 169.685 122.28C169.317 123.197 168.764 124.666 169.685 124.85ZM170.79 124.115L171.158 121.913C170.974 121.729 171.526 121.178 171.711 121.178C172.079 120.995 172.447 120.995 172.447 121.362C172.447 121.729 172.079 122.096 171.895 122.28C171.342 122.83 170.974 122.83 172.079 123.014C172.447 123.197 172.263 123.381 171.711 123.197C171.342 123.197 171.158 123.014 171.158 122.83C171.158 123.014 170.974 124.115 170.79 124.115ZM171.158 122.83C171.342 122.463 172.263 121.913 172.263 121.362C172.263 120.995 171.711 121.362 171.342 121.729C171.342 121.729 171.158 122.647 171.158 122.83ZM174.473 120.995C174.657 120.995 174.657 120.995 174.657 120.995C174.657 120.995 174.104 121.545 173.92 121.545C171.711 123.014 172.815 121.913 174.473 120.995ZM174.657 120.077L174.289 120.26C171.711 122.463 173 120.995 174.657 120.077C174.841 119.893 174.841 120.077 174.657 120.077ZM175.762 119.159C176.13 118.425 176.498 118.425 176.498 119.343C176.498 119.71 176.498 120.077 176.314 120.444C175.578 122.096 174.657 120.811 175.762 119.159ZM176.314 119.343C176.314 118.608 176.13 118.608 175.762 119.159C175.578 119.343 175.578 119.526 175.578 119.893C175.025 121.729 176.314 120.995 176.314 119.343ZM176.867 120.995C176.682 121.178 176.498 121.178 176.498 121.178L177.051 120.444C177.603 119.71 177.787 119.343 177.787 118.975C177.971 118.608 177.971 118.425 177.971 118.241C177.971 118.058 177.971 117.874 177.971 117.874C177.971 117.691 177.787 117.691 177.787 117.691H177.603H177.419C177.419 117.691 177.419 117.691 177.603 117.507C177.787 117.507 177.971 117.507 178.156 117.507C178.34 117.691 178.34 117.874 178.34 118.241C178.34 118.792 178.156 119.343 177.971 119.71C177.787 119.893 177.787 120.077 177.603 120.444C177.235 120.26 177.051 120.628 176.867 120.995ZM170.053 134.211C169.869 134.395 169.501 134.579 169.133 134.762C169.133 134.946 168.764 136.231 168.764 136.047C168.764 136.047 168.764 135.496 168.948 135.313C169.133 134.395 169.317 133.477 169.317 133.477C169.501 133.294 170.606 132.559 170.606 132.743C170.606 132.743 170.422 132.926 170.237 132.926C170.053 133.11 169.869 133.11 169.685 133.294C169.501 133.294 169.501 133.477 169.317 133.661C169.317 133.844 169.133 134.395 169.133 134.579C169.685 134.395 170.422 133.844 170.053 134.211ZM171.895 133.844C171.158 135.496 169.869 135.313 171.342 133.11C172.079 132.009 172.447 132.559 172.263 133.11C172.263 133.11 172.079 133.661 171.895 133.844C172.079 133.844 172.079 134.211 172.079 134.211C172.079 134.211 172.079 134.211 171.895 134.211C171.895 134.395 171.895 134.028 171.895 133.844ZM172.079 133.11C172.079 132.926 172.079 132.926 172.079 132.743C171.895 132.559 171.526 132.926 171.526 133.294C170.053 135.313 171.526 135.129 172.079 133.11ZM173.552 132.559C174.841 131.641 175.209 131.641 174.104 132.376C174.104 132.376 173 133.294 172.815 133.11C172.631 133.11 173.368 132.743 173.552 132.559ZM174.657 131.091C174.473 131.274 173 132.192 172.815 132.376H172.631C172.815 132.192 174.473 131.091 174.657 131.091C174.841 130.907 174.841 131.091 174.657 131.091ZM175.578 129.989C175.578 129.989 175.578 129.806 175.578 129.989C175.762 130.173 175.578 131.274 175.578 131.458C175.578 131.458 175.393 132.559 175.209 132.559C175.025 132.743 175.209 131.641 175.393 131.274C175.578 130.173 175.578 129.989 175.578 129.989ZM176.13 132.009C175.946 132.009 175.946 131.825 175.946 131.825C175.946 131.825 176.13 131.825 176.314 131.825C176.314 131.825 176.314 131.825 176.314 131.641C176.314 131.641 176.682 129.989 176.682 129.622C176.682 129.622 176.498 129.806 176.498 129.622C176.314 129.622 176.498 129.439 176.682 129.439C177.971 128.337 178.708 129.072 177.235 130.357C177.603 130.173 177.787 130.173 177.971 130.173C178.524 129.989 176.867 132.009 176.13 132.009ZM176.867 130.54C176.682 130.54 176.682 130.54 176.867 130.54C176.682 130.724 176.498 131.641 176.498 131.825C177.603 130.907 178.34 129.622 176.867 130.54ZM177.603 129.072C177.419 129.072 177.051 129.255 176.867 129.439C177.051 129.439 176.867 130.173 176.682 130.357C176.682 130.357 176.867 130.173 177.051 130.173C177.235 129.989 177.419 129.806 177.603 129.622C177.603 129.439 177.787 129.072 177.603 129.072ZM124.57 165.968C124.386 166.152 124.018 166.335 123.65 166.519C123.65 166.702 123.281 167.987 123.281 167.804L123.834 165.234C124.018 165.05 125.123 164.316 125.123 164.5L124.386 165.05C124.202 165.05 124.202 165.234 124.018 165.418C124.018 165.601 123.834 166.152 123.834 166.335C124.202 166.152 124.939 165.601 124.57 165.968ZM126.043 165.418C127.701 164.316 127.701 164.5 125.859 165.785C125.123 166.152 124.939 166.152 126.043 165.418ZM127.148 163.949L126.78 164.133C124.386 166.152 125.307 164.867 127.148 163.949C127.332 163.765 127.332 163.949 127.148 163.949ZM127.517 165.418C127.332 165.418 127.332 165.234 127.332 165.234C127.332 165.234 127.517 165.234 127.701 165.234C127.517 165.05 127.701 164.867 127.701 164.683C128.069 163.398 128.069 163.031 128.069 163.031C127.885 163.215 127.701 163.031 127.885 162.848C129.174 161.746 129.91 162.48 128.437 163.765C130.463 162.48 128.621 165.418 127.517 165.418ZM128.253 163.949C128.069 164.133 127.885 165.05 127.885 165.234C129.174 164.5 129.91 163.031 128.253 163.949ZM128.253 162.848C128.437 162.848 128.253 163.582 128.069 163.765C128.253 163.582 128.621 163.215 128.806 163.031C129.358 162.664 129.174 162.297 128.253 162.848ZM131.015 164.316C130.279 165.234 130.647 164.316 131.015 163.031C130.463 164.133 129.542 164.316 130.094 163.031C130.279 162.664 130.647 161.93 131.015 161.746C131.383 161.563 131.568 162.113 131.199 161.93C130.647 161.746 129.726 164.133 130.279 163.765C130.831 163.398 131.199 162.297 131.199 162.297C131.383 162.113 131.199 162.848 131.015 163.215C130.831 163.765 130.647 164.316 130.647 164.5C131.383 163.765 131.568 163.582 131.015 164.316ZM133.225 160.461C133.593 160.828 133.409 162.297 132.488 162.848C131.752 163.215 131.752 162.664 131.752 161.93C131.752 161.563 131.752 161.379 131.752 161.379L132.12 161.196C132.12 161.196 132.12 162.113 132.12 162.297C132.12 163.031 133.041 162.664 133.041 161.379C133.041 161.012 133.041 160.828 132.857 160.645L133.225 160.461ZM134.882 159.727C134.698 159.727 134.514 159.911 134.33 160.094C133.961 160.461 134.146 160.645 134.514 160.645C135.25 160.645 134.882 161.379 134.33 161.746C134.146 161.93 133.593 161.93 133.593 161.746C133.593 161.746 133.593 161.563 133.777 161.563C134.33 161.746 135.25 160.645 134.33 160.828C134.146 160.828 133.961 160.828 133.961 160.645C133.961 160.278 134.514 159.727 134.698 159.543C135.066 159.36 135.066 159.911 134.882 159.727ZM135.803 158.993C135.987 158.993 134.882 163.215 135.435 159.911C135.435 159.727 135.619 158.809 135.803 158.993ZM135.987 158.442C135.803 158.442 135.619 158.442 135.803 158.258C135.987 157.891 136.171 158.258 135.987 158.442ZM137.828 157.891C138.013 158.075 137.828 158.626 137.828 158.809C137.46 160.094 137.276 159.911 137.46 159.543C137.46 159.176 137.828 158.442 137.828 158.075C137.828 157.341 137.092 158.809 136.908 159.36C135.803 161.563 136.724 159.543 136.724 158.442C136.724 158.258 136.908 158.258 136.908 158.442C136.908 158.809 136.724 159.543 136.539 159.727C136.539 159.543 137.276 157.708 137.828 157.891ZM141.143 155.872C141.143 156.056 141.143 156.79 141.143 157.157C141.143 157.341 141.143 157.524 141.327 157.341V157.524C141.143 157.708 140.959 157.708 140.959 157.341C140.591 158.258 139.486 158.626 139.486 157.524C139.486 156.423 140.591 155.689 140.959 156.056C140.959 155.872 140.959 155.872 140.959 155.689L141.143 155.872ZM140.775 157.341C140.775 157.157 140.775 156.974 140.775 156.79C140.591 156.239 139.854 156.79 139.854 157.708C139.67 158.442 140.591 158.075 140.775 157.341ZM128.069 168.905C129.358 167.987 129.542 167.987 128.621 168.722C126.964 169.823 126.964 169.64 128.069 168.905ZM128.806 167.804C126.228 169.64 127.701 168.171 129.174 167.437C129.358 167.253 129.542 167.253 128.806 167.804ZM129.542 168.905C129.358 168.905 129.358 168.722 129.358 168.722C129.358 168.722 129.542 168.722 129.726 168.722C129.542 168.538 129.726 168.355 129.726 168.171C130.094 166.886 130.094 166.519 130.094 166.519C129.91 166.702 129.726 166.519 129.91 166.335C131.199 165.234 131.936 165.968 130.463 167.253C132.488 165.968 130.647 168.905 129.542 168.905ZM130.279 167.437C130.094 167.62 129.91 168.538 129.91 168.722C131.199 167.987 131.936 166.519 130.279 167.437ZM130.279 166.335C130.463 166.335 130.279 167.07 130.094 167.253C130.279 167.07 130.647 166.702 130.831 166.519C131.383 166.152 131.199 165.785 130.279 166.335ZM131.752 167.253C131.752 167.253 131.752 167.07 131.752 167.253C132.488 167.437 133.777 166.335 132.672 165.968C132.304 165.785 132.12 165.601 132.304 165.418C132.488 165.05 133.409 164.316 133.409 164.5L132.857 165.05C132.304 165.601 132.488 165.601 132.857 165.785C133.041 165.785 133.225 165.968 133.225 166.152C133.409 167.07 131.752 167.987 131.752 167.253ZM135.25 165.785C134.698 166.519 133.777 166.702 133.777 165.785C133.777 164.867 134.698 164.133 135.25 163.949V164.316C133.961 164.316 133.777 167.07 135.25 165.601V165.785ZM135.619 165.418C135.066 164.867 136.355 162.848 136.724 163.215C137.276 163.765 135.987 165.785 135.619 165.418ZM135.803 165.234C136.355 164.867 136.908 163.215 136.355 163.398C135.619 163.949 135.435 165.234 135.803 165.234ZM138.381 162.48C138.197 162.48 138.013 162.664 137.828 162.848C137.46 163.215 137.644 163.398 138.013 163.398C138.749 163.398 138.381 164.133 137.828 164.5C137.644 164.683 137.092 164.683 137.092 164.5C137.092 164.5 137.092 164.316 137.276 164.316C137.828 164.316 138.565 163.398 137.828 163.398C137.644 163.398 137.46 163.398 137.46 163.215C137.46 162.848 138.013 162.297 138.197 162.113C138.565 161.93 138.565 162.48 138.381 162.48ZM141.695 160.278C141.695 160.461 141.695 161.196 141.695 161.563C141.695 161.746 141.695 161.93 141.88 161.746V161.93C141.695 162.113 141.511 162.113 141.511 161.746C141.327 162.113 141.143 162.297 140.959 162.48C139.854 163.031 140.038 161.012 140.959 160.461C141.143 160.278 141.511 160.278 141.511 160.461C141.511 160.278 141.511 160.278 141.511 160.094L141.695 160.278ZM140.775 162.48C140.959 162.297 141.143 161.93 141.327 161.746C141.511 161.196 141.327 160.828 140.775 161.012C140.038 161.379 140.038 162.848 140.775 162.48ZM150.35 154.587C150.903 154.404 151.455 154.587 151.455 155.138C151.455 155.689 151.271 156.056 150.903 156.423C150.718 156.606 150.534 156.79 150.35 156.974C150.166 157.157 150.35 157.524 150.166 157.708C150.166 157.708 150.166 157.708 150.166 157.524C150.166 157.157 150.166 156.974 149.798 157.157C149.614 157.341 149.429 157.341 149.061 157.157C148.877 156.974 148.877 156.79 148.877 156.423C148.877 156.056 149.061 155.689 149.245 155.321C149.429 155.138 149.614 154.954 149.798 154.771C149.982 154.771 150.166 154.587 150.35 154.587ZM149.982 155.321C149.798 155.321 149.614 155.505 149.429 155.689C149.245 155.872 149.245 156.239 149.245 156.423C149.245 157.157 149.982 156.974 149.982 156.423C149.982 156.239 150.166 155.505 149.982 155.321ZM150.534 156.423C150.718 156.423 150.903 156.239 151.087 155.872C151.087 155.689 151.271 155.138 151.087 154.954C150.903 154.771 150.534 154.771 150.35 154.954C150.166 155.138 150.166 155.872 150.35 156.056C150.35 156.239 150.35 156.423 150.534 156.423ZM126.043 168.538C126.596 168.355 127.148 168.538 127.148 169.089C127.148 169.64 126.964 170.007 126.596 170.374C126.412 170.557 126.228 170.741 126.043 170.924C125.859 171.108 126.043 171.475 125.859 171.659C125.859 171.659 125.859 171.659 125.859 171.475C125.859 171.108 125.859 170.924 125.491 171.108C125.307 171.292 125.123 171.292 124.754 171.108C124.57 170.924 124.57 170.557 124.57 170.374C124.57 170.007 124.754 169.64 124.939 169.272C125.123 169.089 125.307 168.905 125.491 168.722C125.675 168.722 125.859 168.722 126.043 168.538ZM125.491 169.456C125.307 169.456 125.123 169.64 124.939 169.823C124.939 170.007 124.939 170.19 124.939 170.557C124.939 171.292 125.675 171.108 125.675 170.557C125.675 170.19 125.675 169.456 125.491 169.456C125.675 169.456 125.491 169.456 125.491 169.456ZM126.043 170.374C126.228 170.374 126.412 170.19 126.596 169.823C126.596 169.64 126.78 169.089 126.596 168.905C126.412 168.722 126.043 168.722 125.859 168.905C125.675 169.089 125.675 169.823 125.859 170.007C125.859 170.374 126.043 170.374 126.043 170.374ZM152.56 154.771C154.033 153.853 153.849 154.036 153.481 154.404C151.271 155.872 151.639 155.505 152.56 154.771ZM152.007 154.587C152.007 154.587 151.823 154.587 152.007 154.587C151.823 154.404 153.481 153.302 153.665 153.302C154.401 152.935 152.744 154.22 152.007 154.587ZM154.401 154.404C154.954 154.036 155.506 153.486 155.506 153.486C156.059 153.119 154.033 155.138 154.033 154.404C154.033 154.22 154.401 152.384 154.401 152.201C154.401 152.017 154.401 152.017 154.401 152.017C155.138 152.568 154.033 154.771 154.401 154.404ZM156.611 151.099C156.611 151.099 156.611 150.916 156.611 151.099C156.795 151.099 156.795 151.099 156.611 151.099C156.795 152.384 155.69 155.505 156.427 152.568C156.611 151.283 156.611 151.099 156.611 151.099ZM168.028 141.003C168.028 141.187 167.291 141.554 167.107 141.738C167.107 141.921 167.107 142.105 166.923 142.288C166.739 142.839 166.555 143.206 167.844 142.105C168.212 141.738 168.212 141.921 167.659 142.472C165.634 144.124 166.923 141.921 166.923 140.82C166.923 140.636 167.291 140.269 167.659 140.269C168.948 139.535 168.396 140.086 167.107 140.82C167.107 141.003 166.923 141.554 166.923 141.738C167.107 141.37 168.028 140.82 168.028 141.003ZM169.133 139.718C169.317 139.718 168.764 142.105 168.58 141.738L168.948 140.086C168.948 140.086 168.948 139.718 169.133 139.718ZM169.317 139.168C169.133 139.168 168.948 139.168 169.133 138.984C169.317 138.801 169.501 139.168 169.317 139.168ZM171.342 139.351C171.526 139.168 171.526 139.168 171.342 139.351C171.342 139.535 169.685 140.636 169.685 140.636C169.501 140.453 171.158 139.351 171.342 139.351ZM171.158 138.801C168.58 140.636 170.053 139.168 171.526 138.433C171.711 138.25 171.711 138.25 171.158 138.801ZM172.079 138.984C173 136.047 173.184 136.598 173.552 137.699C173.92 138.617 173.92 138.617 173.184 139.168C171.526 140.453 171.895 139.902 172.079 138.984ZM173 137.148C172.631 137.883 172.263 138.984 172.079 139.718C172.447 139.535 173.184 138.984 173.552 138.617C173.368 138.066 173.184 137.516 173 137.148ZM176.498 134.762V134.946C177.971 134.211 177.971 136.414 176.498 137.332V137.516L176.13 137.699V137.516C174.657 138.25 174.657 136.047 176.13 135.129V134.946L176.498 134.762ZM176.13 135.313C175.209 135.864 175.025 137.699 176.13 137.148V135.313ZM176.498 137.148C177.419 136.414 177.603 134.762 176.498 135.313V137.148ZM168.948 145.042C169.133 144.858 169.133 145.042 168.948 145.225C168.764 145.409 168.396 145.592 168.212 145.776C168.212 146.143 167.844 146.877 168.028 146.877C168.58 146.51 169.133 145.96 169.133 145.96C169.501 145.776 168.212 147.061 167.844 147.061C167.659 147.061 167.844 146.51 167.844 146.327C168.396 144.491 167.844 144.491 169.501 143.757C169.685 143.573 169.869 143.757 169.133 144.124C168.948 144.308 168.764 144.308 168.764 144.491C168.58 144.491 168.58 144.675 168.58 144.675C168.58 144.858 168.396 145.409 168.396 145.592C168.396 145.409 168.764 145.225 168.948 145.042ZM170.237 143.757C170.422 143.757 169.869 145.776 169.685 145.96C169.685 145.96 169.501 145.96 169.685 145.776C169.869 144.675 169.869 144.858 170.053 144.308C170.053 144.124 170.053 143.757 170.237 143.757ZM170.422 143.023C170.606 143.39 170.053 143.39 170.237 143.023C170.422 142.839 170.422 142.839 170.422 143.023ZM172.631 143.206C172.631 143.206 172.079 143.757 171.895 143.757C171.895 143.757 170.79 144.675 170.606 144.491C170.606 144.491 172.631 143.023 172.631 143.206ZM172.631 142.472L172.263 142.655C169.869 144.675 170.79 143.39 172.631 142.472C172.815 142.288 172.815 142.472 172.631 142.472ZM173.184 141.37C174.841 140.086 175.025 141.187 174.289 141.921C175.209 141.554 175.025 143.206 173.184 143.94V141.37ZM173.552 142.288C174.841 141.554 174.657 140.636 173.552 141.37V142.288ZM173.552 143.573C173.92 143.39 174.473 143.023 174.473 142.472C174.473 141.921 173.92 142.288 173.552 142.472V143.573ZM175.025 142.839C175.025 142.839 175.025 142.655 175.025 142.839C175.578 140.453 175.578 139.718 175.578 139.718C175.578 139.718 175.762 139.718 175.762 139.902C175.762 140.453 175.578 141.37 175.393 142.655C175.209 142.472 175.209 142.839 175.025 142.839ZM177.603 139.535C177.971 139.902 177.787 141.37 176.867 141.921C176.498 142.105 176.13 142.105 176.13 141.554C176.13 141.37 176.13 140.636 176.13 140.453L176.498 140.269C176.498 140.269 176.498 141.187 176.498 141.37C176.498 141.738 176.682 141.738 176.867 141.738C177.419 141.37 177.419 140.269 177.235 139.902L177.603 139.535ZM127.148 173.127C127.148 173.127 126.964 173.311 126.964 173.494C126.78 173.678 126.412 174.596 126.228 174.779C126.412 174.963 127.148 175.33 126.964 175.514C126.78 175.697 126.228 175.146 126.228 174.963C125.859 175.697 125.675 176.064 125.675 176.248C125.491 176.615 125.307 176.431 125.491 176.431C125.491 176.431 125.675 176.064 126.228 174.963C126.043 174.779 125.491 174.045 125.675 173.862H125.859C125.859 174.045 126.043 174.229 126.228 174.596C126.412 174.229 126.78 173.494 126.964 173.311C126.964 172.944 127.148 172.944 127.148 173.127ZM127.701 174.779C127.701 174.963 128.621 174.229 128.806 174.229C129.358 173.678 128.806 174.596 127.885 175.147C127.701 175.33 127.517 175.33 127.517 175.147L128.069 172.76C128.437 172.209 127.701 174.412 127.701 174.779ZM130.094 172.76C131.568 171.842 131.383 172.026 131.015 172.393C128.806 173.862 129.174 173.311 130.094 172.76ZM131.383 171.292L131.015 171.475C128.253 173.494 129.726 172.026 131.383 171.292C131.383 171.108 131.383 171.108 131.383 171.292ZM133.225 171.659C133.593 171.475 133.777 170.19 133.225 170.007L133.593 169.823C133.777 169.823 133.961 170.19 133.961 170.557C133.961 171.842 133.041 172.393 132.857 171.842C132.857 172.026 132.672 172.393 132.304 172.393C131.568 172.944 131.383 171.475 131.936 170.741L132.304 170.557C131.936 171.108 131.936 172.393 132.304 172.209C132.672 172.026 132.672 171.292 132.672 170.924L133.041 170.741C133.041 171.108 132.857 171.842 133.225 171.659ZM134.698 170.741C135.25 170.374 135.803 169.823 135.803 169.823C135.987 169.64 135.619 170.007 135.435 170.374C135.066 170.741 134.33 171.292 134.33 170.924C134.33 170.924 134.882 168.171 134.698 168.538C134.698 168.538 134.698 168.355 134.882 168.538C135.25 168.722 134.33 171.108 134.698 170.741ZM138.197 167.987C138.197 167.987 137.644 168.538 137.46 168.538C137.46 168.538 136.355 169.456 136.171 169.272C136.171 169.272 138.197 167.804 138.197 167.987ZM136.539 168.538C136.355 168.538 136.355 168.538 136.539 168.538C136.355 168.355 138.013 167.253 138.197 167.253C138.933 166.702 137.092 168.171 136.539 168.538ZM139.302 166.335L139.117 166.519C138.933 166.519 139.67 165.418 140.038 165.601C140.775 165.968 139.302 167.804 138.749 168.355C138.933 168.171 139.854 167.62 140.038 167.437H140.222C140.222 167.62 139.117 168.355 138.933 168.355H138.749C138.749 168.355 138.749 168.171 138.933 168.171C139.302 167.804 139.302 167.62 139.67 167.253C140.406 165.968 140.038 165.234 139.302 166.335ZM141.327 165.418C140.038 166.152 141.511 164.867 142.8 164.316C142.984 164.133 143.169 164.316 142.432 164.683V164.867C142.248 165.234 142.248 165.968 142.432 166.335C142.616 166.519 142.248 166.702 142.248 166.519C142.064 166.152 142.248 165.234 142.432 164.867C142.248 165.05 141.88 165.234 141.511 165.418C141.511 165.601 141.511 165.968 141.511 166.519C141.327 167.804 140.775 167.804 141.143 167.253C141.327 166.886 141.511 166.335 141.511 165.785C141.327 165.601 141.327 165.418 141.327 165.418ZM143.537 165.785C144.089 165.418 144.642 164.867 144.642 164.867C145.194 164.5 143.169 166.519 143.169 165.785C143.169 165.785 143.721 163.031 143.537 163.398C143.537 163.398 143.537 163.215 143.721 163.398C144.089 163.765 143.169 165.968 143.537 165.785ZM145.194 163.215C145.931 165.05 145.378 163.765 145.747 164.5C145.931 163.949 146.299 163.215 146.299 162.664L146.667 162.48C146.667 163.031 146.299 164.133 145.931 164.683L145.562 164.867L144.826 163.398L145.194 163.215ZM147.22 147.428C147.22 147.428 147.22 147.245 146.299 149.08C146.299 149.08 146.483 149.264 146.667 149.264C147.404 149.814 147.036 149.998 146.115 149.264C145.931 149.631 145.194 151.099 145.194 150.732C145.194 150.732 145.562 149.998 145.931 149.264C145.562 148.897 145.378 148.53 145.378 148.346C145.378 148.162 145.562 148.162 145.562 148.346C145.562 148.53 145.747 148.713 145.931 149.08C146.115 148.713 146.483 147.979 146.667 147.795C147.036 147.245 147.22 147.428 147.22 147.428ZM148.509 147.061C148.693 146.877 148.877 147.061 148.877 147.061C148.877 147.245 148.877 147.245 148.693 147.061C148.14 146.877 147.036 149.814 148.325 148.53L148.693 148.162C149.061 147.979 148.14 149.08 147.588 149.08C147.404 149.08 147.404 148.897 147.404 148.713C147.404 148.53 148.14 147.428 148.509 147.061ZM150.903 146.51C151.087 146.327 151.271 146.51 150.903 146.694C147.772 148.897 149.429 147.428 150.903 146.51ZM151.087 145.776L150.718 145.96C149.982 146.51 149.429 146.877 149.245 146.877H149.061C149.245 146.877 150.903 145.776 151.087 145.776C151.271 145.592 151.271 145.776 151.087 145.776ZM151.823 146.51C151.823 145.96 152.007 145.225 152.007 144.675C152.007 144.491 152.192 144.491 152.192 144.675C152.007 146.877 151.639 147.795 151.823 146.51ZM152.56 146.877C152.376 146.877 153.849 142.839 153.849 143.023C153.849 142.839 154.033 143.023 154.033 143.206L152.744 146.694C152.744 146.877 152.744 147.061 152.56 146.877ZM155.874 144.675C156.243 144.491 156.427 143.206 155.874 143.023L156.243 142.839C156.427 142.839 156.611 143.206 156.611 143.573C156.611 144.858 155.69 145.409 155.506 144.858C155.506 145.042 155.322 145.409 154.954 145.409C154.217 145.96 154.033 144.491 154.585 143.757L154.954 143.573C154.77 143.94 154.585 144.308 154.585 144.675C154.585 145.592 155.322 145.225 155.322 144.491V143.757L155.69 143.573C155.506 144.124 155.322 144.858 155.874 144.675ZM158.636 141.003C158.452 141.003 158.084 141.37 158.084 141.554C156.795 143.39 157.532 144.124 158.452 143.023C159.189 142.105 158.636 143.39 157.9 143.757C156.427 144.491 157.347 141.554 158.636 141.003C158.636 140.82 158.821 141.003 158.636 141.003ZM145.747 152.752C146.115 152.568 145.378 155.505 145.378 155.321C145.194 155.321 145.562 154.22 145.562 154.036C145.747 152.935 145.747 152.752 145.747 152.752ZM148.693 152.568C148.509 153.669 148.14 153.853 148.325 153.302C148.693 152.201 148.693 151.099 147.956 152.752C147.22 154.036 147.036 155.138 147.404 153.302C147.588 152.568 147.404 152.201 147.036 153.119C146.851 153.486 146.115 154.954 146.115 154.954C145.931 155.138 146.299 153.669 146.299 153.486C146.299 152.752 146.667 152.752 146.299 154.587C146.483 154.22 147.036 152.752 147.404 152.384C147.588 152.384 147.772 152.384 147.772 152.752C147.772 152.935 147.772 153.119 147.588 153.302C147.772 152.752 147.956 152.384 148.14 152.201C148.693 151.283 149.061 151.283 148.693 152.568ZM150.718 151.65C149.982 153.302 148.693 152.935 150.166 150.916C150.903 149.814 151.271 150.365 151.087 150.916C151.087 151.467 150.903 151.099 150.903 151.834C150.903 152.017 150.903 152.017 150.718 152.017C150.718 152.201 150.718 151.65 150.718 151.65ZM150.903 150.916C150.903 150.732 150.903 150.732 150.903 150.549C150.718 150.365 150.35 150.732 150.35 151.099C148.877 153.119 150.166 152.935 150.903 150.916ZM152.56 151.099C152.56 151.099 152.376 151.099 152.007 150.732C151.823 151.099 151.271 152.201 151.271 151.834L152.007 150.732C151.823 150.549 151.455 150.182 151.639 149.998C151.639 149.998 151.823 149.814 151.823 149.998C151.823 150.182 152.007 150.365 152.192 150.549C152.192 150.365 152.744 149.264 152.928 149.264C153.296 149.08 152.744 149.814 152.56 150.182C152.376 150.365 152.376 150.732 152.192 150.732C152.928 151.283 151.823 150.182 152.56 151.099C152.744 150.916 152.744 151.099 152.56 151.099ZM152.928 151.099C152.928 151.099 154.217 147.061 154.217 147.245C154.401 147.428 153.849 148.53 153.849 148.713C153.481 149.631 153.481 149.998 153.112 150.916C153.112 151.099 153.112 151.283 152.928 151.099ZM156.795 146.694C156.427 147.428 156.427 147.795 156.059 148.53C156.059 148.713 155.69 149.631 155.506 149.814H155.322C155.138 149.631 155.138 149.08 155.138 148.713L154.954 148.897C154.585 149.447 154.585 149.264 154.77 148.897C154.954 148.53 155.138 148.346 155.138 148.713C155.138 148.897 155.138 148.897 155.138 149.08C155.138 149.264 155.138 149.264 155.138 149.447C155.138 149.631 155.138 149.631 155.322 149.814C155.69 148.897 155.874 148.162 156.243 147.061C156.979 145.96 156.979 146.143 156.795 146.694ZM156.979 146.51L156.795 146.694C156.611 146.694 156.795 146.327 156.979 146.327C157.716 145.409 158.452 145.96 157.532 147.245C157.163 147.795 156.979 148.162 156.611 148.713C156.611 148.713 156.979 148.53 157.163 148.346C158.268 147.612 158.084 147.795 157.347 148.346C156.243 149.08 156.059 149.08 156.795 148.162C158.268 146.143 157.716 145.592 156.979 146.51ZM158.452 148.162C158.452 147.979 158.821 147.612 158.636 147.612H158.452C158.452 147.428 158.821 147.245 158.821 147.612C158.821 147.795 158.821 147.979 158.636 148.162C158.268 148.53 158.084 148.713 158.452 148.162ZM151.639 161.379C151.639 161.563 150.35 162.48 150.166 162.48C149.614 162.297 151.639 160.278 151.639 159.727L151.087 159.911C150.903 160.094 150.35 160.461 150.35 160.278C150.35 159.911 152.376 158.809 151.823 160.094C151.823 160.278 150.35 162.297 150.35 162.297C150.35 162.48 151.639 161.196 151.639 161.379ZM152.744 159.911C155.138 158.258 153.481 159.727 152.007 160.645C152.007 160.461 152.744 160.094 152.744 159.911ZM154.033 158.626L153.665 158.809C151.087 160.645 152.192 159.543 154.033 158.626C154.033 158.442 154.033 158.442 154.033 158.626ZM156.611 156.79C156.059 158.075 155.506 159.543 155.506 159.543C155.506 159.727 155.322 159.911 155.138 159.911C154.954 159.911 154.77 158.993 154.77 158.809C154.585 158.993 154.585 159.176 154.585 159.176C154.401 159.543 154.401 158.809 154.954 158.626C155.138 158.442 155.138 158.809 155.138 158.993C155.138 159.176 155.138 159.543 155.322 159.727C155.69 158.809 155.874 158.075 156.243 156.974C156.611 156.239 156.795 156.239 156.611 156.79ZM156.795 158.626H157.347C157.347 158.809 156.795 158.993 156.427 158.809C155.69 158.442 156.243 156.974 156.611 156.239C157.532 154.404 157.9 154.587 157.716 154.954C157.347 155.321 157.163 155.689 156.795 156.056C156.427 157.157 155.874 158.626 156.795 158.626ZM159.741 154.587C159.741 154.587 159.741 154.404 158.821 156.239C158.821 156.239 159.005 156.423 159.189 156.423C159.925 156.974 159.557 157.157 158.636 156.423C158.452 156.79 157.716 158.258 157.716 157.891C157.716 157.891 158.084 157.157 158.452 156.423C158.268 156.056 158.084 155.872 158.084 155.505C158.084 155.321 158.268 155.321 158.268 155.505C158.268 155.689 158.452 155.872 158.636 156.239C158.821 155.872 159.189 155.138 159.373 154.954C159.741 154.404 159.925 154.587 159.741 154.587ZM161.214 154.22C161.583 154.036 161.767 154.404 161.399 154.404C160.846 154.22 159.557 157.524 161.214 155.689C161.399 155.505 161.583 155.505 161.214 155.872C160.846 156.239 160.294 156.606 160.294 156.056C160.11 155.689 160.846 154.587 161.214 154.22ZM161.951 154.771C161.767 154.771 163.056 153.669 163.056 153.853C163.056 154.036 161.951 154.771 161.951 154.771ZM165.266 151.467C165.266 151.467 165.081 151.65 165.081 151.834C164.897 152.017 164.529 152.935 164.345 153.119C164.345 153.119 164.529 153.302 164.713 153.302C165.45 153.853 165.081 153.853 164.713 153.669C164.529 153.669 164.345 153.486 164.161 153.302C163.24 155.138 163.24 154.771 163.24 154.587C163.424 154.22 163.792 153.486 163.977 153.119C163.792 152.935 163.608 152.752 163.608 152.384C163.608 152.201 163.792 152.201 163.792 152.384C163.792 152.568 163.977 152.752 164.161 153.119C164.345 152.752 164.713 152.017 164.897 151.834C165.266 151.283 165.45 151.467 165.266 151.467ZM166.002 153.119C166.555 152.752 167.107 152.201 167.107 152.201C167.659 151.834 165.634 153.853 165.634 153.119C165.634 153.119 166.186 150.365 166.002 150.732C166.002 150.732 166.002 150.549 166.186 150.732C166.555 151.099 165.634 153.486 166.002 153.119ZM167.291 152.935C167.291 152.935 168.396 151.467 168.58 150.549C168.764 150.182 168.948 149.264 168.58 149.08C168.58 149.08 168.396 149.08 168.212 148.897C168.028 148.897 168.212 148.713 168.212 148.713C168.764 148.346 169.501 149.447 168.212 151.65C167.475 152.935 167.291 152.935 167.291 152.935ZM170.237 148.897L170.053 149.08C169.869 149.08 170.053 148.713 170.237 148.713C170.974 147.795 171.895 148.346 170.422 150.365C170.237 150.549 170.053 150.916 169.869 151.099C170.053 151.099 171.158 149.998 171.158 150.182C171.158 150.365 170.053 151.099 169.869 151.099C169.685 151.099 169.685 151.099 169.685 151.099C169.685 150.916 170.053 150.549 170.237 150.365C171.526 148.53 170.79 147.979 170.237 148.897ZM172.815 148.346C172.815 148.53 172.815 148.713 172.631 148.897C172.631 148.897 172.631 149.264 172.447 149.264C172.447 149.264 172.447 149.264 172.447 149.08C172.447 149.264 172.447 149.08 172.815 148.346C172.631 148.53 171.895 148.897 171.895 148.897C171.895 148.897 171.711 148.713 171.895 148.713C172.815 148.162 172.631 148.346 172.815 147.428C172.815 147.245 172.815 147.245 173 147.245C173.184 147.245 173 147.795 173 147.979C173.184 147.795 173.736 147.428 173.92 147.428C173.736 147.428 173.92 147.612 172.815 148.346ZM173.92 148.713C173.736 148.713 174.104 147.795 174.104 147.612C174.289 147.061 174.289 146.694 174.289 146.51C173.92 146.51 174.841 145.776 175.393 145.776C175.762 145.776 175.578 146.327 175.393 146.51C175.209 146.877 175.025 147.061 174.657 147.428C174.473 147.612 174.289 147.612 175.025 147.795C175.025 147.795 175.209 147.795 175.393 147.795C175.578 147.795 175.578 147.979 175.393 147.979C175.209 148.162 174.473 147.795 174.289 147.612C174.289 147.795 174.289 147.795 174.289 147.979C174.289 148.162 174.289 148.346 174.104 148.53C174.104 148.53 174.104 148.713 173.92 148.713ZM174.473 147.428C174.657 147.061 175.578 146.51 175.578 145.96C175.578 145.592 175.025 145.96 174.657 146.327C174.657 146.51 174.473 147.245 174.473 147.428ZM176.682 145.042L176.498 145.225C176.314 145.225 177.051 144.124 177.419 144.308C177.603 144.491 177.603 144.858 177.419 145.225C177.235 145.592 176.867 146.143 176.682 146.51C176.498 146.694 176.314 147.061 176.13 147.245C176.314 147.061 177.235 146.51 177.419 146.327H177.603C177.603 146.51 176.498 147.428 176.13 147.428C175.946 147.428 176.314 146.877 176.498 146.694C176.867 146.327 177.051 145.96 177.235 145.592C177.419 145.225 177.419 144.675 177.051 144.858C177.051 144.858 176.867 145.042 176.682 145.042Z" fill="white"/>
<path d="M142.432 210.208L125.123 200.295C125.123 200.112 124.938 200.112 124.938 199.745L142.248 209.657C142.248 210.024 142.432 210.208 142.432 210.208Z" fill="#B09529"/>
<path d="M142.248 209.841L124.938 199.744V197.542L142.248 207.454V209.841Z" fill="#D3AB34"/>
<path d="M142.984 206.353L125.675 196.44L138.196 189.098L155.506 199.194L142.984 206.353Z" fill="#FFCD39"/>
<path d="M142.248 207.454L124.938 197.542C124.938 197.174 125.307 196.624 125.675 196.44L142.984 206.353C142.616 206.536 142.248 207.087 142.248 207.454Z" fill="#EEC23E"/>
<path d="M142.985 210.208C142.616 210.391 142.248 210.208 142.248 209.84V207.454C142.248 207.087 142.616 206.536 142.985 206.353L155.506 199.194V199.561L155.138 199.744L154.401 201.213L155.138 202.498L155.506 202.681V202.865L142.985 210.208Z" fill="#B09529"/>
<path d="M142.432 209.841C142.432 210.024 142.432 210.024 142.432 210.024H142.616L155.138 202.865L154.77 202.682L154.033 201.58L154.77 199.745L142.8 206.72C142.616 206.72 142.432 206.904 142.432 207.087C142.248 207.271 142.248 207.454 142.248 207.638L142.432 209.841Z" fill="#B09529"/>
<path d="M155.138 199.561L143.169 206.536C142.984 206.536 142.8 206.72 142.8 206.904C142.616 207.087 142.616 207.271 142.616 207.454V209.657L155.138 202.498V199.561Z" fill="#FFFFFA"/>
<path d="M133.409 195.89L137.645 193.504L137.276 193.32L133.041 195.706L133.409 195.89Z" fill="#60522B"/>
<path d="M133.225 197.175L140.038 193.32L139.67 193.136L132.856 196.991L133.225 197.175Z" fill="#60522B"/>
<path d="M134.33 197.909L140.959 194.054L140.591 193.871L133.962 197.725L134.33 197.909Z" fill="#60522B"/>
</g>
</svg>
