<svg width="322" height="242" viewBox="0 0 322 242" fill="none" xmlns="http://www.w3.org/2000/svg">
<g clip-path="url(#clip0)">
<path d="M299.878 99.4315H0V242H299.878V99.4315Z" fill="#6C63FF"/>
<path d="M250.301 157.186H49.5762V242H250.301V157.186Z" fill="#F0F0F0"/>
<path d="M250.301 162.361H49.5762V163.169H250.301V162.361Z" fill="#3F3D56"/>
<path d="M53.1945 161.45C53.9917 161.45 54.638 160.802 54.638 160.004C54.638 159.205 53.9917 158.557 53.1945 158.557C52.3973 158.557 51.751 159.205 51.751 160.004C51.751 160.802 52.3973 161.45 53.1945 161.45Z" fill="#3F3D56"/>
<path d="M58.1437 161.45C58.941 161.45 59.5872 160.802 59.5872 160.004C59.5872 159.205 58.941 158.557 58.1437 158.557C57.3465 158.557 56.7002 159.205 56.7002 160.004C56.7002 160.802 57.3465 161.45 58.1437 161.45Z" fill="#3F3D56"/>
<path d="M63.0929 161.45C63.8902 161.45 64.5365 160.802 64.5365 160.004C64.5365 159.205 63.8902 158.557 63.0929 158.557C62.2957 158.557 61.6494 159.205 61.6494 160.004C61.6494 160.802 62.2957 161.45 63.0929 161.45Z" fill="#3F3D56"/>
<path d="M160.435 200.474L162.572 204.813L167.35 205.509L163.893 208.886L164.709 213.655L160.435 211.403L156.161 213.655L156.977 208.886L153.52 205.509L158.298 204.813L160.435 200.474Z" fill="#6C63FF"/>
<path d="M179.661 200.474L181.798 204.813L186.577 205.509L183.119 208.886L183.935 213.655L179.661 211.403L175.388 213.655L176.204 208.886L172.746 205.509L177.524 204.813L179.661 200.474Z" fill="#6C63FF"/>
<path d="M198.888 200.474L201.025 204.813L205.803 205.509L202.345 208.886L203.162 213.655L198.888 211.403L194.614 213.655L195.43 208.886L191.973 205.509L196.751 204.813L198.888 200.474Z" fill="#6C63FF"/>
<path d="M218.114 200.474L220.25 204.813L225.029 205.509L221.571 208.886L222.387 213.655L218.114 211.403L213.84 213.655L214.656 208.886L211.198 205.509L215.977 204.813L218.114 200.474Z" fill="#6C63FF"/>
<path d="M237.34 200.474L239.477 204.813L244.255 205.509L240.798 208.886L241.614 213.655L237.34 211.403L233.066 213.655L233.882 208.886L230.425 205.509L235.203 204.813L237.34 200.474Z" fill="#6C63FF"/>
<path d="M141.474 182.226H63.2803V231.903H141.474V182.226Z" fill="#3F3D56"/>
<path opacity="0.1" d="M79.2258 99.4314L0 153.931V126.011L38.6375 99.4314H79.2258Z" fill="black"/>
<path opacity="0.1" d="M169.33 99.4314L0 215.914V187.99L128.742 99.4314H169.33Z" fill="black"/>
<path d="M45.8052 140.078L40.3779 134.248L46.1966 128.81L51.6239 134.64L45.8052 140.078ZM41.243 134.278L45.8353 139.211L50.7588 134.61L46.1665 129.676L41.243 134.278Z" fill="#F0F0F0"/>
<path d="M224.908 136.411H216.951V128.438H224.908V136.411ZM217.563 135.798H224.296V129.051H217.563V135.798Z" fill="#3F3D56"/>
<path d="M274.207 204.454C276.45 204.454 278.269 202.631 278.269 200.383C278.269 198.135 276.45 196.312 274.207 196.312C271.963 196.312 270.145 198.135 270.145 200.383C270.145 202.631 271.963 204.454 274.207 204.454Z" fill="#F0F0F0"/>
<path d="M274.207 212.142C271.886 212.142 269.617 211.453 267.687 210.161C265.757 208.868 264.253 207.032 263.365 204.883C262.477 202.734 262.244 200.37 262.697 198.089C263.15 195.808 264.268 193.713 265.909 192.068C267.55 190.423 269.641 189.303 271.918 188.85C274.194 188.396 276.554 188.629 278.698 189.519C280.843 190.409 282.675 191.916 283.965 193.85C285.254 195.784 285.943 198.057 285.943 200.383C285.939 203.501 284.702 206.49 282.502 208.694C280.302 210.899 277.319 212.139 274.207 212.142ZM274.207 189.528C272.065 189.528 269.97 190.165 268.189 191.358C266.407 192.55 265.019 194.246 264.199 196.229C263.379 198.213 263.165 200.395 263.583 202.501C264.001 204.606 265.032 206.54 266.547 208.059C268.062 209.577 269.992 210.61 272.094 211.029C274.195 211.448 276.373 211.233 278.353 210.412C280.332 209.59 282.024 208.199 283.214 206.414C284.405 204.629 285.04 202.53 285.04 200.383C285.037 197.505 283.894 194.746 281.864 192.711C279.833 190.676 277.079 189.532 274.207 189.528Z" fill="#2F2E41"/>
<path d="M92.3018 221.013C94.1678 227.925 100.559 232.206 100.559 232.206C100.559 232.206 103.925 225.28 102.059 218.368C100.193 211.456 93.8019 207.176 93.8019 207.176C93.8019 207.176 90.4358 214.101 92.3018 221.013Z" fill="white"/>
<path d="M95.0427 219.528C100.163 224.522 100.788 232.2 100.788 232.2C100.788 232.2 93.1121 231.78 87.9918 226.785C82.8715 221.791 82.2461 214.113 82.2461 214.113C82.2461 214.113 89.9224 214.533 95.0427 219.528Z" fill="#6C63FF"/>
<path d="M109.276 221.013C107.41 227.925 101.019 232.206 101.019 232.206C101.019 232.206 97.6526 225.28 99.5186 218.368C101.385 211.456 107.776 207.176 107.776 207.176C107.776 207.176 111.142 214.101 109.276 221.013Z" fill="white"/>
<path d="M106.535 219.528C101.414 224.522 100.789 232.2 100.789 232.2C100.789 232.2 108.465 231.78 113.586 226.785C118.706 221.791 119.331 214.113 119.331 214.113C119.331 214.113 111.655 214.533 106.535 219.528Z" fill="#6C63FF"/>
<path d="M260.243 7.6969H228.596V44.6417H260.243V7.6969Z" fill="#F2F2F2"/>
<path d="M249.483 99.8581L249.043 99.428C251.066 97.1303 252.599 94.443 253.548 91.5308C255.043 87.0226 255.774 79.9027 250.762 71.5858C245.635 63.0763 245.404 56.1646 246.113 51.8649C246.885 47.1864 248.854 44.5639 248.938 44.4546L249.426 44.8285C249.406 44.8542 247.454 47.4627 246.714 52.0017C246.03 56.1923 246.268 62.9365 251.288 71.2674C256.428 79.797 255.666 87.1146 254.123 91.7512C252.45 96.7749 249.604 99.7345 249.483 99.8581Z" fill="#3F3D56"/>
<path d="M272.532 44.9495H228.288V0.615723H272.532V44.9495ZM228.903 44.3337H271.918V1.23147H228.903V44.3337Z" fill="#3F3D56"/>
<path d="M264.544 13.5464H237.506V14.1621H264.544V13.5464Z" fill="#3F3D56"/>
<path d="M264.544 20.3196H237.506V20.9353H264.544V20.3196Z" fill="#3F3D56"/>
<path d="M264.544 27.0929H237.506V27.7086H264.544V27.0929Z" fill="#3F3D56"/>
<path d="M309.709 34.4818H278.062V71.4266H309.709V34.4818Z" fill="#F2F2F2"/>
<path d="M298.95 126.643L298.51 126.213C300.533 123.915 302.065 121.228 303.015 118.316C304.51 113.808 305.24 106.688 300.229 98.3708C295.102 89.8613 294.871 82.9496 295.58 78.6499C296.352 73.9714 298.321 71.3489 298.404 71.2396L298.893 71.6135C298.873 71.6392 296.921 74.2477 296.18 78.7867C295.497 82.9773 295.735 89.7215 300.755 98.0524C305.895 106.582 305.133 113.9 303.59 118.536C301.917 123.56 299.07 126.52 298.95 126.643Z" fill="#3F3D56"/>
<path d="M322 71.7345H277.756V27.4008H322V71.7345ZM278.37 71.1188H321.386V28.0165H278.37V71.1188Z" fill="#3F3D56"/>
<path d="M314.012 40.3314H286.974V40.9472H314.012V40.3314Z" fill="#3F3D56"/>
<path d="M314.012 47.1046H286.974V47.7204H314.012V47.1046Z" fill="#3F3D56"/>
<path d="M314.012 53.8778H286.974V54.4936H314.012V53.8778Z" fill="#3F3D56"/>
<path d="M74.355 7.08105H42.708V44.0259H74.355V7.08105Z" fill="#F2F2F2"/>
<path d="M63.5954 99.2424L63.1556 98.8123C65.178 96.5146 66.711 93.8273 67.6606 90.9151C69.1556 86.4069 69.8859 79.287 64.8745 70.9701C59.7471 62.4606 59.5163 55.5489 60.2255 51.2492C60.9974 46.5706 62.9665 43.9482 63.0499 43.8389L63.5382 44.2127C63.5185 44.2384 61.5666 46.8469 60.8259 51.386C60.1421 55.5765 60.3806 62.3207 65.4005 70.6517C70.54 79.1813 69.7787 86.4989 68.235 91.1355C66.5624 96.1592 63.7158 99.1188 63.5954 99.2424Z" fill="#3F3D56"/>
<path d="M86.6447 44.3338H42.4004V0H86.6447V44.3338ZM43.0149 43.718H86.0302V0.615747H43.0149V43.718Z" fill="#3F3D56"/>
<path d="M78.6563 12.9307H51.6182V13.5464H78.6563V12.9307Z" fill="#3F3D56"/>
<path d="M78.6563 19.7039H51.6182V20.3196H78.6563V19.7039Z" fill="#3F3D56"/>
<path d="M78.6563 26.4771H51.6182V27.0928H78.6563V26.4771Z" fill="#3F3D56"/>
<path d="M144.242 112.731L146.379 117.069L151.158 117.765L147.7 121.142L148.516 125.911L144.242 123.659L139.968 125.911L140.785 121.142L137.327 117.765L142.106 117.069L144.242 112.731Z" fill="#F0F0F0"/>
<path d="M151.967 14.9044H151.967C159.351 14.9044 165.337 21.5608 165.337 29.7718V40.2041H162.135L160.281 36.3388L160.744 40.2041H140.163L138.478 36.6902L138.899 40.2041H136.582V32.0129C136.582 22.5642 143.47 14.9044 151.967 14.9044Z" fill="#2F2E41"/>
<path d="M167.287 83.063L175.496 86.5588L204.022 109.796C205.071 111.087 205.714 112.662 205.869 114.32C206.074 116.993 214.694 130.976 211.615 132.827C208.537 134.678 197.455 140.23 196.839 136.529C196.224 132.827 192.94 116.993 192.94 116.993L165.44 92.3167L167.287 83.063Z" fill="#2F2E41"/>
<path d="M199.507 133.444L202.996 143.726C202.996 143.726 199.302 147.633 201.149 150.923V162.233H204.022L204.843 156.27C204.843 156.27 208.115 162.158 209.768 162.233C213.233 162.391 220.094 163.626 220.3 161.775C220.505 159.925 215.104 158.121 215.104 158.121L209.357 142.287L206.895 132.622L199.507 133.444Z" fill="#2F2E41"/>
<path d="M145.944 80.3897C145.944 80.3897 144.097 98.4858 149.433 101.776C154.768 105.066 178.369 115.554 178.369 115.554C178.369 115.554 168.313 125.013 170.365 127.275C172.418 129.537 181.653 135.706 182.884 134.472C184.115 133.238 197.865 118.433 196.223 113.703C194.581 108.973 171.802 93.5505 171.802 93.5505L169.134 83.8856L168.313 76.0714L159.694 70.5192L145.944 80.3897Z" fill="#2F2E41"/>
<path d="M155.346 38.2576C160.071 38.2576 163.902 34.4195 163.902 29.685C163.902 24.9504 160.071 21.1123 155.346 21.1123C150.621 21.1123 146.791 24.9504 146.791 29.685C146.791 34.4195 150.621 38.2576 155.346 38.2576Z" fill="#FFB9B9"/>
<path d="M148.714 33.196C148.714 33.196 149.125 41.0102 142.763 43.4779C136.401 45.9455 158.565 61.9852 158.565 61.9852V44.0948C158.565 44.0948 155.692 41.0103 158.565 36.2806L148.714 33.196Z" fill="#FFB9B9"/>
<path d="M135.067 69.9022L136.709 77.9221L141.634 105.477C141.634 105.477 137.53 117.199 143.071 116.993C148.612 116.787 145.944 104.244 145.944 104.244L143.071 81.4179V72.5755L135.067 69.9022Z" fill="#FFB9B9"/>
<path d="M170.365 65.9951L172.212 73.1924L180.627 93.5505C180.627 93.5505 186.373 103.215 181.653 103.01C176.933 102.804 176.933 93.5505 176.933 93.5505L167.287 77.0995V67.8459L170.365 65.9951Z" fill="#FFB9B9"/>
<path d="M171.802 126.041L165.029 132.416C165.029 132.416 160.309 131.388 158.462 136.94C156.615 142.492 155.384 145.988 155.384 145.988L157.846 147.427L160.925 143.109C160.925 143.109 162.772 150.923 164.619 151.54C166.466 152.157 175.701 156.27 174.88 151.54L170.365 144.96C170.365 144.96 169.749 137.557 171.596 136.94C173.443 136.323 178.369 130.154 178.369 130.154L171.802 126.041Z" fill="#2F2E41"/>
<path d="M145.619 86.7645C145.619 86.7645 164.909 79.7729 166.141 80.3898C167.057 80.7955 168.034 81.0494 169.031 81.1415L169.014 78.3334C169.014 78.3334 162.652 76.0714 159.163 77.5109C155.674 78.9503 145.003 85.3251 145.003 85.3251L145.619 86.7645Z" fill="#3F3D56"/>
<path d="M157.333 57.8724C157.333 57.8724 151.792 51.4977 150.151 47.5906C149.112 45.222 147.205 43.3434 144.824 42.3425C144.824 42.3425 132.501 45.1229 132.707 50.0582C132.912 54.9935 140.505 62.6021 140.505 62.6021C140.505 62.6021 139.479 89.9518 145.02 89.5405C146.215 88.1113 147.059 86.4208 147.483 84.6052C148.098 81.7263 167.184 78.6418 167.184 78.6418C167.184 78.6418 168.826 81.5207 169.031 80.2869C169.236 79.053 167.389 48.8244 167.389 48.8244L157.603 42.3425L157.333 57.8724Z" fill="#D0CDE1"/>
<path d="M134.288 48.0718L134.15 48.1491C133.712 48.3957 133.346 48.7549 133.092 49.1898C132.838 49.6248 132.704 50.1196 132.704 50.6236L132.707 65.8845C132.705 66.2993 132.613 66.7088 132.438 67.0846C132.263 67.4604 132.008 67.7935 131.691 68.0608C130.901 68.7346 130.168 69.7055 131.681 70.2108C134.143 71.0333 143.789 75.1461 143.994 73.7066C144.199 72.2671 144.61 70.622 143.994 70.622C143.512 70.622 140.64 55.8762 138.333 49.5714C138.192 49.1854 137.969 48.8347 137.679 48.5436C137.39 48.2524 137.041 48.0278 136.656 47.8852C136.271 47.7425 135.86 47.6854 135.451 47.7176C135.042 47.7498 134.645 47.8707 134.288 48.0718Z" fill="#D0CDE1"/>
<path d="M164.619 48.1047L167.492 48.9273L170.776 63.1163C170.776 63.1163 174.675 63.9388 173.444 65.3783C172.212 66.8177 167.082 70.5192 167.082 70.5192L164.619 48.1047Z" fill="#D0CDE1"/>
<path d="M148.167 18.9999C148.81 18.1342 149.644 17.4287 150.603 16.9381C151.563 16.4475 152.622 16.1849 153.699 16.1709H153.962C159.022 16.1709 163.125 20.7597 163.125 26.4203V26.4203H161.429L161.155 24.3316L160.754 26.4203H150.696L149.854 24.6532L150.064 26.4203H148.086C147.162 31.0149 148.489 35.6095 152.066 40.204H148.695L147.01 36.6698L147.431 40.204H141.006L139.742 32.0752C139.742 25.9874 143.272 20.8251 148.167 18.9999Z" fill="#2F2E41"/>
</g>
<defs>
<clipPath id="clip0">
<rect width="322" height="242" fill="white"/>
</clipPath>
</defs>
</svg>
