<svg width="262" height="263" viewBox="0 0 262 263" fill="none" xmlns="http://www.w3.org/2000/svg">
<g clip-path="url(#clip0)">
<path d="M25.1955 221.554L22.888 212.446C18.7967 210.711 14.611 209.208 10.3506 207.945L10.0593 212.178L8.87816 207.514C3.59453 206.002 0 205.337 0 205.337C0 205.337 4.85414 223.816 15.0387 237.942L26.9046 240.028L17.6863 241.359C18.9674 242.901 20.3442 244.362 21.8085 245.732C36.6224 259.494 53.1226 265.808 58.6623 259.834C64.202 253.861 56.6838 237.863 41.8698 224.102C37.2774 219.836 31.5083 216.413 25.7333 213.717L25.1955 221.554Z" fill="#F2F2F2"/>
<path d="M47.1396 211.661L49.8685 202.671C47.2627 199.069 44.456 195.617 41.4617 192.331L39.0262 195.804L40.4233 191.201C36.6804 187.175 33.9469 184.746 33.9469 184.746C33.9469 184.746 28.5599 203.076 29.9809 220.437L39.0613 228.362L30.4815 224.732C30.7817 226.715 31.2063 228.678 31.7527 230.609C37.3265 250.053 48.1903 263.994 56.0174 261.747C63.8446 259.499 65.6716 241.915 60.0977 222.47C58.3699 216.442 55.1993 210.527 51.6477 205.233L47.1396 211.661Z" fill="#F2F2F2"/>
<path d="M182.823 62.3049H181.383V22.8413C181.383 19.8418 180.793 16.8716 179.646 14.1003C178.499 11.3291 176.818 8.81108 174.699 6.69007C172.58 4.56906 170.064 2.88657 167.295 1.73869C164.526 0.590806 161.558 0 158.561 0H75.0179C68.965 0 63.1599 2.40649 58.8799 6.69007C54.5998 10.9736 52.1953 16.7834 52.1953 22.8413V239.345C52.1953 242.345 52.7856 245.315 53.9326 248.086C55.0795 250.857 56.7606 253.375 58.8799 255.496C60.9992 257.617 63.5151 259.3 66.2841 260.448C69.053 261.596 72.0208 262.186 75.0179 262.186H158.561C164.614 262.186 170.419 259.78 174.699 255.496C178.979 251.213 181.383 245.403 181.383 239.345V90.3958H182.822L182.823 62.3049Z" fill="#E6E6E6"/>
<path d="M159.481 5.94019H148.577C149.079 7.17077 149.27 8.50591 149.134 9.82798C148.999 11.15 148.541 12.4185 147.8 13.5215C147.059 14.6245 146.059 15.5282 144.887 16.1531C143.715 16.778 142.407 17.1048 141.079 17.1047H93.2183C91.8905 17.1047 90.583 16.7778 89.4111 16.1529C88.2392 15.5279 87.2389 14.6242 86.4982 13.5212C85.7575 12.4182 85.2992 11.1498 85.1637 9.8278C85.0282 8.50579 85.2196 7.17071 85.7211 5.94019H75.5359C71.0156 5.94019 66.6805 7.73733 63.4842 10.9363C60.2879 14.1352 58.4922 18.4739 58.4922 22.9979V239.187C58.4922 243.711 60.2879 248.05 63.4842 251.249C66.6805 254.448 71.0156 256.245 75.5359 256.245H159.481C164.002 256.245 168.337 254.448 171.533 251.249C174.729 248.05 176.525 243.711 176.525 239.187V22.9975C176.525 18.4736 174.729 14.135 171.533 10.9361C168.337 7.73728 164.001 5.94019 159.481 5.94019Z" fill="white"/>
<path d="M106.812 92.0593C106.811 90.5481 107.209 89.0636 107.964 87.755C108.719 86.4465 109.805 85.3601 111.113 84.6052C109.806 83.8495 108.323 83.4516 106.813 83.4514C105.303 83.4512 103.82 83.8489 102.513 84.6043C101.205 85.3597 100.119 86.4463 99.3643 87.7548C98.6094 89.0634 98.2119 90.5477 98.2119 92.0588C98.2119 93.5698 98.6094 95.0542 99.3643 96.3627C100.119 97.6713 101.205 98.7578 102.513 99.5133C103.82 100.269 105.303 100.666 106.813 100.666C108.323 100.666 109.806 100.268 111.113 99.5123C109.805 98.7576 108.719 97.6714 107.964 96.363C107.209 95.0547 106.811 93.5703 106.812 92.0593Z" fill="#CCCCCC"/>
<path d="M117.623 92.0593C117.623 90.5481 118.02 89.0636 118.775 87.755C119.531 86.4464 120.617 85.3601 121.925 84.6052C120.618 83.8495 119.134 83.4516 117.625 83.4514C116.115 83.4512 114.632 83.8489 113.324 84.6043C112.017 85.3597 110.931 86.4463 110.176 87.7548C109.421 89.0634 109.023 90.5477 109.023 92.0588C109.023 93.5698 109.421 95.0542 110.176 96.3627C110.931 97.6713 112.017 98.7578 113.324 99.5133C114.632 100.269 116.115 100.666 117.625 100.666C119.134 100.666 120.618 100.268 121.925 99.5123C120.617 98.7576 119.531 97.6714 118.776 96.363C118.02 95.0547 117.623 93.5703 117.623 92.0593Z" fill="#CCCCCC"/>
<path d="M128.189 100.666C132.939 100.666 136.789 96.8125 136.789 92.0588C136.789 87.3051 132.939 83.4514 128.189 83.4514C123.439 83.4514 119.589 87.3051 119.589 92.0588C119.589 96.8125 123.439 100.666 128.189 100.666Z" fill="#6C63FF"/>
<path d="M142.563 118.943H92.4386C91.9614 118.943 91.5039 118.753 91.1665 118.415C90.829 118.077 90.6392 117.619 90.6387 117.142V66.9762C90.6392 66.4986 90.829 66.0407 91.1665 65.703C91.5039 65.3653 91.9614 65.1754 92.4386 65.1748H142.563C143.04 65.1754 143.498 65.3653 143.835 65.703C144.172 66.0407 144.362 66.4986 144.363 66.9762V117.142C144.362 117.619 144.172 118.077 143.835 118.415C143.498 118.753 143.04 118.943 142.563 118.943ZM92.4386 65.8958C92.1523 65.8961 91.8778 66.01 91.6753 66.2126C91.4728 66.4153 91.359 66.69 91.3587 66.9765V117.142C91.359 117.429 91.4728 117.703 91.6753 117.906C91.8778 118.109 92.1523 118.223 92.4386 118.223H142.563C142.849 118.223 143.124 118.109 143.326 117.906C143.529 117.703 143.642 117.429 143.643 117.142V66.9765C143.642 66.69 143.529 66.4153 143.326 66.2126C143.124 66.01 142.849 65.8961 142.563 65.8958H92.4386Z" fill="#CCCCCC"/>
<path d="M153.754 157.397H76.8789V158.118H153.754V157.397Z" fill="#CCCCCC"/>
<path d="M79.3067 152.898C80.6475 152.898 81.7344 151.81 81.7344 150.468C81.7344 149.126 80.6475 148.039 79.3067 148.039C77.9659 148.039 76.8789 149.126 76.8789 150.468C76.8789 151.81 77.9659 152.898 79.3067 152.898Z" fill="#6C63FF"/>
<path d="M153.754 181.694H76.8789V182.414H153.754V181.694Z" fill="#CCCCCC"/>
<path d="M79.3067 177.195C80.6475 177.195 81.7344 176.107 81.7344 174.765C81.7344 173.423 80.6475 172.335 79.3067 172.335C77.9659 172.335 76.8789 173.423 76.8789 174.765C76.8789 176.107 77.9659 177.195 79.3067 177.195Z" fill="#6C63FF"/>
<path d="M152.348 209.361H128.054C127.634 209.36 127.232 209.193 126.935 208.896C126.638 208.599 126.471 208.197 126.471 207.777V199.255C126.471 198.835 126.638 198.432 126.935 198.135C127.232 197.838 127.634 197.671 128.054 197.67H152.348C152.768 197.671 153.17 197.838 153.467 198.135C153.764 198.432 153.931 198.835 153.931 199.255V207.777C153.931 208.197 153.764 208.599 153.467 208.896C153.17 209.193 152.768 209.36 152.348 209.361Z" fill="#6C63FF"/>
<path d="M87.2256 152.898C88.5665 152.898 89.6534 151.81 89.6534 150.468C89.6534 149.126 88.5665 148.039 87.2256 148.039C85.8848 148.039 84.7979 149.126 84.7979 150.468C84.7979 151.81 85.8848 152.898 87.2256 152.898Z" fill="#6C63FF"/>
<path d="M95.1455 152.898C96.4864 152.898 97.5733 151.81 97.5733 150.468C97.5733 149.126 96.4864 148.039 95.1455 148.039C93.8047 148.039 92.7178 149.126 92.7178 150.468C92.7178 151.81 93.8047 152.898 95.1455 152.898Z" fill="#6C63FF"/>
<path d="M87.2256 177.195C88.5665 177.195 89.6534 176.107 89.6534 174.765C89.6534 173.423 88.5665 172.335 87.2256 172.335C85.8848 172.335 84.7979 173.423 84.7979 174.765C84.7979 176.107 85.8848 177.195 87.2256 177.195Z" fill="#6C63FF"/>
<path d="M95.1455 177.195C96.4864 177.195 97.5733 176.107 97.5733 174.765C97.5733 173.423 96.4864 172.335 95.1455 172.335C93.8047 172.335 92.7178 173.423 92.7178 174.765C92.7178 176.107 93.8047 177.195 95.1455 177.195Z" fill="#6C63FF"/>
<path d="M261.021 263H8.46978C7.92914 263 7.49121 262.808 7.49121 262.571C7.49121 262.335 7.92914 262.142 8.46978 262.142H261.021C261.561 262.142 262 262.334 262 262.571C262 262.808 261.561 263 261.021 263Z" fill="#3F3D56"/>
<path d="M198.625 172.309C198.797 172.388 198.963 172.481 199.121 172.587L214.898 165.847L215.461 161.688L221.765 161.649L221.393 171.189L200.569 176.7C200.525 176.845 200.473 176.987 200.412 177.126C200.111 177.769 199.626 178.308 199.02 178.677C198.413 179.045 197.712 179.226 197.003 179.197C196.294 179.167 195.61 178.929 195.036 178.512C194.462 178.094 194.024 177.517 193.777 176.851C193.53 176.185 193.485 175.461 193.648 174.77C193.811 174.079 194.174 173.452 194.692 172.966C195.21 172.481 195.859 172.16 196.559 172.043C197.259 171.926 197.978 172.019 198.625 172.309Z" fill="#FFB8B8"/>
<path d="M224.057 258.756H219.745L217.693 242.109L224.058 242.109L224.057 258.756Z" fill="#FFB8B8"/>
<path d="M216.664 257.522H224.981V262.763H211.428C211.428 261.373 211.979 260.04 212.961 259.057C213.943 258.075 215.275 257.522 216.664 257.522Z" fill="#2F2E41"/>
<path d="M240.83 257.536L236.538 257.96L232.865 241.594L239.199 240.969L240.83 257.536Z" fill="#FFB8B8"/>
<path d="M233.351 257.034L241.628 256.218L242.141 261.434L228.653 262.764C228.586 262.079 228.654 261.387 228.853 260.729C229.053 260.07 229.38 259.457 229.816 258.925C230.253 258.393 230.789 257.952 231.396 257.628C232.002 257.304 232.667 257.102 233.351 257.034Z" fill="#2F2E41"/>
<path d="M225.258 144.031C230.03 144.031 233.898 140.16 233.898 135.385C233.898 130.61 230.03 126.739 225.258 126.739C220.487 126.739 216.619 130.61 216.619 135.385C216.619 140.16 220.487 144.031 225.258 144.031Z" fill="#FFB8B8"/>
<path d="M218.782 255.389C218.411 255.39 218.052 255.26 217.768 255.022C217.484 254.784 217.293 254.453 217.229 254.088C214.997 241.687 207.701 201.139 207.526 200.016C207.522 199.99 207.52 199.964 207.521 199.938V196.915C207.52 196.805 207.555 196.697 207.619 196.608L208.583 195.257C208.628 195.192 208.689 195.138 208.758 195.1C208.828 195.062 208.905 195.04 208.985 195.037C214.48 194.779 232.476 194.023 233.346 195.11C234.219 196.203 233.91 199.513 233.84 200.166L233.843 200.234L241.928 251.982C241.991 252.394 241.89 252.815 241.645 253.154C241.401 253.492 241.033 253.72 240.621 253.789L235.572 254.622C235.195 254.682 234.81 254.606 234.486 254.406C234.161 254.206 233.919 253.896 233.804 253.533C232.242 248.538 227.005 231.736 225.19 225.234C225.178 225.193 225.153 225.157 225.117 225.134C225.081 225.11 225.038 225.101 224.996 225.107C224.954 225.113 224.915 225.134 224.887 225.166C224.859 225.199 224.844 225.24 224.845 225.283C224.936 231.481 225.155 247.293 225.23 252.755L225.239 253.343C225.242 253.741 225.096 254.126 224.829 254.422C224.563 254.718 224.195 254.902 223.799 254.94L218.929 255.383C218.88 255.387 218.83 255.389 218.782 255.389Z" fill="#2F2E41"/>
<path d="M219.775 147.431C218.268 148.328 217.365 149.976 216.848 151.654C215.889 154.759 215.312 157.97 215.13 161.215L214.583 170.931L207.81 196.69C213.68 201.661 217.066 200.531 224.968 196.465C232.87 192.399 233.773 197.821 233.773 197.821L235.353 175.903L237.611 151.953C237.104 151.343 236.531 150.791 235.901 150.308C233.814 148.684 231.386 147.555 228.8 147.007C226.214 146.458 223.538 146.504 220.972 147.141L219.775 147.431Z" fill="#6C63FF"/>
<path d="M217.575 177.512C217.757 177.58 217.933 177.663 218.102 177.759L233.702 169.945L233.961 165.712L240.396 165.268L240.741 174.918L219.894 181.818C219.724 182.548 219.335 183.21 218.78 183.714C218.225 184.219 217.53 184.542 216.787 184.641C216.044 184.74 215.288 184.611 214.62 184.27C213.952 183.929 213.404 183.392 213.049 182.732C212.693 182.071 212.546 181.318 212.629 180.572C212.711 179.827 213.019 179.124 213.51 178.557C214.001 177.99 214.653 177.587 215.379 177.4C216.105 177.213 216.871 177.252 217.575 177.512Z" fill="#FFB8B8"/>
<path d="M237.498 152.063C241.336 153.419 242.012 168.107 242.012 168.107C237.497 165.621 232.078 169.689 232.078 169.689C232.078 169.689 230.949 165.847 229.595 160.876C229.186 159.478 229.137 157.999 229.453 156.577C229.768 155.155 230.438 153.835 231.401 152.742C231.401 152.742 233.66 150.707 237.498 152.063Z" fill="#6C63FF"/>
<path d="M233.005 137.671C231.928 136.809 230.46 138.376 230.46 138.376L229.598 130.619C229.598 130.619 224.216 131.265 220.772 130.404C217.327 129.544 216.789 133.528 216.789 133.528C216.611 131.919 216.575 130.297 216.681 128.681C216.897 126.741 219.695 124.802 224.647 123.509C229.598 122.216 232.182 127.819 232.182 127.819C235.627 129.542 234.081 138.533 233.005 137.671Z" fill="#2F2E41"/>
</g>
<defs>
<clipPath id="clip0">
<rect width="262" height="263" fill="white"/>
</clipPath>
</defs>
</svg>
