<svg width="20" height="20" viewBox="0 0 20 20" fill="none" xmlns="http://www.w3.org/2000/svg">
<rect x="0.75" y="0.75" width="18.75" height="18.75" rx="2" fill="#DDDDDD"/>
<path fill-rule="evenodd" clip-rule="evenodd" d="M10.1546 9.27187C9.47328 9.27187 5.96299 7.28128 5.96299 7.28128V6.97044C5.96299 6.58529 6.27557 6.27271 6.66142 6.27271H13.6478C14.034 6.27271 14.3466 6.58529 14.3466 6.97044L14.341 7.3193C14.341 7.3193 10.8687 9.27187 10.1546 9.27187ZM10.1545 10.2312C10.9014 10.2312 14.3409 8.36583 14.3409 8.36583L14.3465 12.5522C14.3465 12.9374 14.0339 13.25 13.6477 13.25H6.66132C6.27582 13.25 5.96289 12.9374 5.96289 12.5522L5.96847 8.36583C5.96812 8.36583 9.47318 10.2312 10.1545 10.2312Z" fill="white"/>
</svg>
