<svg width="20" height="20" viewBox="0 0 20 20" fill="none" xmlns="http://www.w3.org/2000/svg">
<rect x="0.75" y="0.75" width="18.75" height="18.75" rx="2" fill="#24C875"/>
<path fill-rule="evenodd" clip-rule="evenodd" d="M10.7364 15.4793H10.7341C9.83225 15.479 8.94605 15.2527 8.15895 14.8234L5.30225 15.5728L6.06675 12.7803C5.59517 11.9631 5.34702 11.036 5.34743 10.0863C5.34861 7.11506 7.76604 4.69775 10.7363 4.69775C12.1779 4.69838 13.5309 5.25958 14.5483 6.27818C15.5658 7.29674 16.1258 8.65064 16.1252 10.0905C16.124 13.061 13.7075 15.4781 10.7364 15.4793ZM8.29301 13.8476L8.45656 13.9447C9.14425 14.3528 9.93254 14.5687 10.7363 14.569H10.7381C13.2068 14.569 15.216 12.5597 15.217 10.09C15.2175 8.89319 14.752 7.76788 13.9064 6.92126C13.0608 6.07464 11.9362 5.60816 10.7398 5.60774C8.26924 5.60774 6.25995 7.61685 6.25897 10.0864C6.25863 10.9327 6.49543 11.7569 6.94378 12.47L7.05028 12.6395L6.5978 14.2923L8.29301 13.8476ZM13.451 11.3719C13.4174 11.3157 13.3277 11.2821 13.193 11.2146C13.0584 11.1472 12.3964 10.8215 12.2729 10.7766C12.1495 10.7316 12.0597 10.7092 11.97 10.8439C11.8802 10.9787 11.6222 11.2821 11.5436 11.3719C11.4651 11.4618 11.3865 11.473 11.2519 11.4056C11.1173 11.3382 10.6834 11.196 10.1691 10.7373C9.7688 10.3802 9.49857 9.93933 9.42003 9.80453C9.34148 9.66972 9.41165 9.59687 9.47906 9.52973C9.53964 9.46938 9.61372 9.37242 9.68104 9.29382C9.74836 9.21522 9.7708 9.15902 9.81568 9.06922C9.86056 8.97931 9.83813 8.90071 9.80446 8.83331C9.7708 8.76591 9.50151 8.10314 9.38931 7.83353C9.28 7.57097 9.169 7.60654 9.08636 7.60239C9.00791 7.59845 8.91804 7.59762 8.82829 7.59762C8.73853 7.59762 8.59265 7.63132 8.46923 7.76612C8.34581 7.90093 7.99797 8.22669 7.99797 8.88941C7.99797 9.55218 8.48044 10.1925 8.54777 10.2823C8.61509 10.3722 9.49723 11.7322 10.848 12.3155C11.1692 12.4542 11.42 12.537 11.6156 12.5991C11.9381 12.7016 12.2317 12.6871 12.4637 12.6524C12.7224 12.6138 13.2603 12.3267 13.3726 12.0122C13.4847 11.6976 13.4847 11.4281 13.451 11.3719Z" fill="#FDFDFD"/>
</svg>
